<?xml version="1.0" standalone="no"?>
<!DOCTYPE svg PUBLIC "-//W3C//DTD SVG 1.1//EN" "http://www.w3.org/Graphics/SVG/1.1/DTD/svg11.dtd" >
<svg xmlns="http://www.w3.org/2000/svg">
<defs>
  <font id="svgtofont" horiz-adv-x="5156.25">
    <font-face font-family="svgtofont"
      units-per-em="1000" ascent="1000"
      descent="0" />
    <missing-glyph horiz-adv-x="0" />
    <glyph glyph-name="2fa-guardian"
      unicode="&#xEA01;"
      horiz-adv-x="1000.0000000000001" d="M537.5 300.0000000000001C537.5 278.1266666666668 520.3133333333334 262.5000000000001 500.0000000000001 262.5000000000001C478.1266666666667 262.5000000000001 462.5000000000001 278.1266666666668 462.5000000000001 300.0000000000001V400.0000000000001C462.5000000000001 420.3133333333334 478.1266666666667 437.5000000000001 500.0000000000001 437.5000000000001C520.3133333333334 437.5000000000001 537.5 420.3133333333334 537.5 400.0000000000001V300.0000000000001zM500.0000000000001 900.0000000000001C609.3733333333333 900.0000000000001 700 809.3750000000001 700 700.0000000000001V600.0000000000001H750C804.6866666666667 600.0000000000001 850.0000000000001 554.6866666666667 850.0000000000001 500.0000000000001V200.0000000000001C850.0000000000001 143.75 804.6866666666667 100 750 100H250.0000000000001C193.75 100 150 143.75 150 200.0000000000001V500.0000000000001C150 554.6866666666667 193.75 600.0000000000001 250.0000000000001 600.0000000000001H300V700.0000000000001C300 809.3750000000001 389.0633333333334 900.0000000000001 500.0000000000001 900.0000000000001zM500.0000000000001 825.0000000000001C429.6866666666667 825.0000000000001 375 768.7500000000001 375 700.0000000000001V600.0000000000001H625V700.0000000000001C625 768.7500000000001 568.75 825.0000000000001 500.0000000000001 825.0000000000001zM250.0000000000001 525C235.9373333333334 525 225 512.5 225 500.0000000000001V200.0000000000001C225 185.9366666666667 235.9373333333334 175 250.0000000000001 175H750C762.5 175 775 185.9366666666667 775 200.0000000000001V500.0000000000001C775 512.5 762.5 525 750 525H250.0000000000001z" />
    <glyph glyph-name="3d-avatar-center-seflie"
      unicode="&#xEA02;"
      horiz-adv-x="1000" d="M62.5 500A437.5 437.5 0 0 1 937.5 500A437.5 437.5 0 0 1 62.5 500M312.5 500A187.5 187.5 0 0 1 687.5 500A187.5 187.5 0 0 1 312.5 500" />
    <glyph glyph-name="3d-avatar-left-selfie"
      unicode="&#xEA03;"
      horiz-adv-x="1666.6666666666665" d="M255.7925 26.8416666666668C238.9475 43.6916666666667 229.4925 66.4916666666668 229.4925 90.2500000000001C229.4925 114.0166666666667 238.9475 136.8083333333334 255.7925 153.6583333333333L606.7141666666666 502.6333333333334L255.7925 851.6058333333333C240.9758333333333 868.8116666666667 233.2333333333333 890.9441666666667 234.1125 913.5808333333334C234.9916666666667 936.2165 244.4275 957.6890833333334 260.535 973.7070833333333C276.6425 989.7251666666666 298.235 999.109025 320.9975 999.9833885C343.76 1000.8576666666665 366.0158333333333 993.1581 383.3183333333334 978.4233333333332L798.4541666666667 565.5925C815.3 548.7408333333333 824.7549999999999 525.945 824.7549999999999 502.1833333333334C824.7549999999999 478.4225 815.3 455.6266666666668 798.4541666666667 438.775L383.1375 25.9416666666666C366.0800000000001 9.3666666666667 343.1283333333334 0.1583333333333 319.2783333333333 0.325C295.4291666666667 0.5000000000001 272.6108333333333 10.0250000000001 255.7925 26.8416666666668zM838.8 26.8416666666668C821.9549999999999 43.6916666666667 812.5 66.4916666666668 812.5 90.2500000000001C812.5 114.0166666666667 821.9549999999999 136.8083333333334 838.8 153.6583333333333L1189.725 502.6333333333334L838.8 851.6058333333333C823.9833333333333 868.8116666666667 816.2408333333333 890.9441666666667 817.12 913.5808333333334C817.9991666666666 936.2165 827.4358333333333 957.6890833333334 843.5416666666666 973.7070833333333C859.6499999999999 989.7251666666666 881.2416666666666 999.109025 904.0083333333334 999.98338775C926.7666666666667 1000.8576666666665 949.0249999999997 993.1581 966.325 978.4233333333332L1381.4583333333333 565.5925C1398.3083333333332 548.7408333333333 1407.7666666666667 525.945 1407.7666666666667 502.1833333333334C1407.7666666666667 478.4225 1398.3083333333332 455.6266666666668 1381.4583333333333 438.775L966.1416666666667 25.9416666666666C949.0916666666666 9.3666666666667 926.1333333333334 0.1583333333333 902.2833333333334 0.325C878.4333333333333 0.5000000000001 855.6166666666667 10.0250000000001 838.8 26.8416666666668z" />
    <glyph glyph-name="3d-avatar-right-selfie"
      unicode="&#xEA04;"
      horiz-adv-x="1666.6666666666665" d="M1410.8749999999998 973.4820833333334C1427.7166666666667 956.6304166666666 1437.1749999999997 933.8345833333332 1437.1749999999997 910.0733333333334C1437.1749999999997 886.3125 1427.7166666666667 863.5166666666667 1410.8749999999998 846.665L1059.95 497.6916666666667L1410.8749999999998 148.7166666666667C1425.6916666666666 131.5166666666668 1433.4333333333332 109.3833333333333 1432.5583333333332 86.7416666666668C1431.675 64.1083333333334 1422.2416666666666 42.6333333333333 1406.1333333333332 26.6166666666667C1390.0249999999999 10.6 1368.4333333333332 1.2166666666667 1345.6666666666665 0.3416666666667C1322.9083333333333 -0.5333333333332 1300.6499999999999 7.1666666666667 1283.35 21.9000000000001L868.2083333333333 434.7333333333334C851.3666666666667 451.585 841.9083333333333 474.3808333333334 841.9083333333333 498.1416666666667C841.9083333333333 521.9033333333334 851.3666666666667 544.6991666666668 868.2083333333333 561.5508333333335L1283.5333333333333 974.3815C1300.5833333333333 990.9594166666666 1323.5416666666665 1000.1661791666666 1347.3916666666667 999.9977302916666C1371.2416666666666 999.8292816666668 1394.0583333333332 990.29925 1410.8749999999998 973.4820833333334zM827.8666666666667 973.4820833333334C844.7083333333333 956.6304166666666 854.1666666666666 933.8345833333332 854.1666666666666 910.0733333333334C854.1666666666666 886.3125 844.7083333333333 863.5166666666667 827.8666666666667 846.665L476.945 497.6916666666667L827.8666666666667 148.7166666666667C842.6833333333333 131.5166666666668 850.425 109.3833333333333 849.55 86.7416666666668C848.6666666666665 64.1083333333334 839.2333333333333 42.6333333333333 823.1233333333333 26.6166666666667C807.0158333333333 10.6 785.4233333333333 1.2166666666667 762.6608333333332 0.3416666666667C739.8983333333333 -0.5333333333332 717.6425 7.1666666666667 700.3408333333333 21.9000000000001L285.2041666666667 434.7333333333334C268.3591666666666 451.585 258.9041666666667 474.3808333333334 258.9041666666667 498.1416666666667C258.9041666666667 521.9033333333334 268.3591666666666 544.6991666666668 285.2041666666667 561.5508333333335L700.5216666666666 974.3815C717.5783333333333 990.9594166666666 740.53 1000.16618 764.38 999.99773095C788.2299999999999 999.8292816666668 811.0475 990.29925 827.8666666666667 973.4820833333334z" />
    <glyph glyph-name="MEX"
      unicode="&#xEA05;"
      horiz-adv-x="1000" d="M602.7499999999999 1000L517.5416666666666 604.1666666666667H302.75L602.75 1000zM844.2916666666667 604.2916666666667L687.5 395.9583333333334H145.8333333333333L302.6666666666667 604.2916666666667H844.2916666666665zM687.4583333333333 395.8333333333334L387.4583333333333 0L472.6666666666666 395.8333333333334H687.4583333333333z" />
    <glyph glyph-name="QR"
      unicode="&#xEA06;"
      horiz-adv-x="1000" d="M232.1428571428572 839.2857142857142C251.7857142857143 839.2857142857142 267.8571428571429 821.2142857142857 267.8571428571429 803.5714285714286V767.8571428571429C267.8571428571429 746.2142857142858 251.7857142857143 732.1428571428571 232.1428571428572 732.1428571428571H196.4285714285715A34.5714285714286 34.5714285714286 0 0 0 160.7142857142857 767.8571428571429V803.5714285714286C160.7142857142857 821.2142857142857 176.7142857142857 839.2857142857142 196.4285714285715 839.2857142857142H232.1428571428572zM0 892.8571428571429C0 950 48 1000 107.1428571428571 1000H321.4285714285715C380.5714285714286 1000 428.5714285714286 950 428.5714285714286 892.8571428571429V678.5714285714286C428.5714285714286 617.4285714285714 380.5714285714286 571.4285714285714 321.4285714285715 571.4285714285714H107.1428571428571C48 571.4285714285714 0 617.4285714285714 0 678.5714285714286V892.8571428571429zM107.1428571428571 678.5714285714286H321.4285714285715V892.8571428571429H107.1428571428571V678.5714285714286zM160.7142857142857 232.1428571428571C160.7142857142857 249.7857142857142 176.7142857142857 267.8571428571429 196.4285714285715 267.8571428571429H232.1428571428572C251.7857142857143 267.8571428571429 267.8571428571429 249.7857142857142 267.8571428571429 232.1428571428571V196.4285714285715C267.8571428571429 174.7857142857142 251.7857142857143 160.7142857142857 232.1428571428572 160.7142857142857H196.4285714285715A34.5714285714286 34.5714285714286 0 0 0 160.7142857142857 196.4285714285715V232.1428571428571zM0 321.4285714285715C0 378.5714285714286 48 428.5714285714286 107.1428571428571 428.5714285714286H321.4285714285715C380.5714285714286 428.5714285714286 428.5714285714286 378.5714285714286 428.5714285714286 321.4285714285715V107.1428571428571C428.5714285714286 46 380.5714285714286 0 321.4285714285715 0H107.1428571428571C48 0 0 46 0 107.1428571428571V321.4285714285715zM107.1428571428571 107.1428571428571H321.4285714285715V321.4285714285715H107.1428571428571V107.1428571428571zM803.5714285714286 839.2857142857142C823.2142857142858 839.2857142857142 839.2857142857143 821.2142857142857 839.2857142857143 803.5714285714286V767.8571428571429C839.2857142857143 746.2142857142858 823.2142857142858 732.1428571428571 803.5714285714286 732.1428571428571H767.8571428571429A34.5714285714286 34.5714285714286 0 0 0 732.1428571428571 767.8571428571429V803.5714285714286C732.1428571428571 821.2142857142857 748.2142857142857 839.2857142857142 767.8571428571429 839.2857142857142H803.5714285714286zM892.8571428571429 1000C952 1000 1000 950 1000 892.8571428571429V678.5714285714286C1000 617.4285714285714 952 571.4285714285714 892.8571428571429 571.4285714285714H678.5714285714286C619.4285714285714 571.4285714285714 571.4285714285714 617.4285714285714 571.4285714285714 678.5714285714286V892.8571428571429C571.4285714285714 950 619.4285714285714 1000 678.5714285714286 1000H892.8571428571429zM892.8571428571429 892.8571428571429H678.5714285714286V678.5714285714286H892.8571428571429V892.8571428571429zM857.1428571428571 0H785.7142857142858V71.4285714285715H857.1428571428571V0zM928.5714285714286 71.4285714285715H1000V0H928.5714285714286V71.4285714285715zM1000 142.8571428571429H785.7142857142858V214.2857142857142H714.2857142857143V0H571.4285714285714V428.5714285714286H785.7142857142858V357.1428571428571H928.5714285714286V428.5714285714286H1000V142.8571428571429z" />
    <glyph glyph-name="achievement-fill"
      unicode="&#xEA07;"
      horiz-adv-x="1000" d="M451.728125 694.953125C451.728125 648.6912500000001 415.7231250000001 614.496875 371.27 614.496875C326.816875 614.496875 290.811875 648.6912500000001 290.811875 694.953125C290.811875 737.595 326.816875 775.409375 371.27 775.409375C415.7231250000001 775.409375 451.728125 737.595 451.728125 694.953125zM197.078125 880.043125C222.825 924.836875 268.8868750000001 952.453625 322.391875 952.453625H677.6125C729.3062500000001 952.453625 777.1812500000001 924.836875 802.925 880.043125L980.5375 574.26875C1006.4875 527.604375 1006.4875 472.4918750000001 980.5375 429.4475L802.925 120.09375C777.1812500000001 75.2375 729.3062500000001 47.68125 677.6125 47.68125H322.391875C268.8868750000001 47.68125 222.825 75.2375 197.078125 120.09375L19.4065 429.4475C-6.4688125 472.4918750000001 -6.4688125 527.604375 19.4065 574.26875L197.078125 880.043125zM189.0325 326.8687500000001L303.48375 452.176875C312.535625 462.0324999999999 325.2075 467.6643750000001 338.483125 467.8656249999999C351.96 468.066875 364.6325000000001 462.635625 373.8850000000001 452.98125L452.130625 371.31875L596.150625 544.7012500000001C605.403125 555.7637500000001 619.0812500000001 562.200625 633.3625000000001 562.200625C647.64375 562.200625 661.3187499999999 555.7637500000001 670.375 544.7012500000001L827.46875 355.6312499999999L897.0625 477.7212499999999C905.5125 490.795625 905.5125 509.300625 897.0625 525.995L719.45 831.769375C710.80625 846.69375 694.9125 855.90625 677.6125 855.90625H322.391875C305.0931250000001 855.90625 289.2025 846.69375 280.55375 831.769375L103.0225 525.995C94.39375 509.300625 94.39375 490.795625 103.0225 477.7212499999999L189.0325 326.8687500000001z" />
    <glyph glyph-name="achievement"
      unicode="&#xEA08;"
      horiz-adv-x="1000" d="M19.4609166666667 557.5341666666667C-6.486975 512.6783333333334 -6.486975 457.5641666666668 19.4609166666667 412.7083333333334L197.0733333333333 105.1583333333334C223.0208333333333 60.3 270.6933333333334 32.7416666666667 322.5891666666667 32.7416666666667H677.6125C729.3075 32.7416666666667 777.18 60.3 803.1283333333332 105.1583333333334L980.5416666666666 412.7083333333334C1006.4833333333332 457.5641666666668 1006.4833333333332 512.6783333333334 980.5416666666666 557.5341666666667L802.9266666666666 865.0875C776.9791666666666 909.9433333333334 729.3075 937.5 677.4116666666666 937.5H322.3875C270.6933333333334 937.5 222.82 909.9433333333334 196.8725 865.0875L19.4609166666667 557.5341666666667zM303.48 437.2483333333334C312.5316666666667 447.105 325.2033333333333 452.7366666666667 338.4791666666667 452.9383333333334C351.755 453.1391666666667 364.6283333333334 447.7083333333334 373.8808333333334 438.0533333333334L452.1275 356.3875000000001L596.1483333333333 529.7758333333334C605.4008333333333 540.8391666666666 618.8774999999999 547.2758333333334 633.36 547.2758333333334C647.8425 547.2758333333334 661.3191666666667 540.8391666666666 670.5725 529.7758333333334L816.605 353.9741666666668L705.5716666666667 161.475C699.7383333333333 151.4166666666668 689.2791666666666 145.3833333333335 677.6125 145.3833333333335H322.3875C310.9225 145.3833333333335 300.2616666666667 151.4166666666668 294.4283333333333 161.475L200.2916666666667 324.4050000000001L303.2783333333333 437.2483333333334H303.48zM371.2658333333333 597.7633333333333C326.8125 597.7633333333333 290.8075 633.7683333333334 290.8075 678.2225000000001C290.8075 722.6758333333333 326.8125 758.6808333333333 371.2658333333333 758.6808333333333C415.72 758.6808333333333 451.725 722.6758333333333 451.725 678.2225000000001C451.725 633.7683333333334 415.72 597.7633333333333 371.2658333333333 597.7633333333333z" />
    <glyph glyph-name="active"
      unicode="&#xEA09;"
      horiz-adv-x="1000" d="M500 1000C223.75 1000 0 776.25 0 500S223.75 0 500 0S1000 223.75 1000 500S776.25 1000 500 1000zM500 96.75A401.875 401.875 0 0 0 96.75 500A403.125 403.125 0 0 0 500 903.25C721.75 903.25 903.25 721.75 903.25 500A403.125 403.125 0 0 0 500 96.75zM338.75 532.25A65 65 0 0 1 403.25 596.75C403.25 631.0625 373 661.3125 338.6875000000001 661.3125A65 65 0 0 1 274.1875 596.75C274.1875 560.5 302.4375 532.25 338.6875000000001 532.25zM661.25 532.25A65 65 0 0 1 725.8125 596.75C725.8125 631.0625 695.5625 661.3125 661.3125 661.3125A65 65 0 0 1 596.75 596.75C596.75 560.5 625 532.25 661.3125 532.25zM669.375 385.0625A221.375 221.375 0 0 0 500 306.4375C433.4375000000001 306.4375 370.9375000000001 334.6875 330.625 385.0625000000001A50.25 50.25 0 0 1 262.125 391.125C241.9375 375 237.875 342.7500000000001 256.0625 322.5625000000001C316.5625 250 405.25 209.6875 500 209.6875A314.0625 314.0625 0 0 1 741.9375 322.5625000000001C760.0625 342.7500000000001 758.0625000000001 375.0000000000001 735.875 391.125C715.7500000000001 407.2500000000001 685.5 405.2500000000001 669.375 385.0625000000001z" />
    <glyph glyph-name="address-book"
      unicode="&#xEA0A;"
      horiz-adv-x="1000" d="M937.5 312.5V906.25C937.5 957.9491875 895.5062499999999 1000 843.75 1000H218.75C132.5975 1000 62.5 929.921875 62.5 843.75V156.25C62.5 70.11875 132.5975 0 218.75 0H890.625C916.50625 0 937.5 20.99375 937.5 46.875C937.5 72.75625 916.50625 93.75 890.625 93.75H875V224.5125000000001C911.33125 237.5 937.5 271.875 937.5 312.5zM781.25 93.75H218.75C184.296875 93.75 156.25 121.75625 156.25 156.25C156.25 190.74375 184.296875 218.75 218.75 218.75H781.25V93.75zM843.75 312.5H750V343.75C750 430.078125 680.08125 500 593.75 500H468.75C382.421875 500 312.5 430.078125 312.5 343.75V312.5H218.75C196.52375 312.5 175.390625 307.8625000000001 156.25 299.4375V843.75C156.25 878.241875 184.296875 906.25 218.75 906.25H843.75V312.5zM531.25 562.5C600.293125 562.5 656.25 618.4768750000001 656.25 687.5C656.25 756.5231249999999 600.293125 812.5 531.25 812.5C462.206875 812.5 406.25 756.5231249999999 406.25 687.5C406.25 618.4768750000001 462.304375 562.5 531.25 562.5z" />
    <glyph glyph-name="allow-notifications-icon"
      unicode="&#xEA0B;"
      horiz-adv-x="1000" d="M400 1000H600A400 400 0 0 0 1000 600V400A400 400 0 0 0 600 0H400A400 400 0 0 0 0 400V600A400 400 0 0 0 400 1000zM499.99 700C466.23 700 433.85 686.5875 409.98 662.7175C386.1075 638.845 372.695 606.4675 372.695 572.7075C372.695 511.74 359.6550000000001 473.8775000000001 347.6375 451.8475C341.605 440.785 335.73 433.53 331.6475 429.2200000000001C329.6025 427.0625 327.995 425.63 327.0275 424.825C326.545 424.4200000000001 326.2200000000001 424.1725 326.0800000000001 424.0700000000001L326.0275000000001 424.0300000000001C319.5075 419.5525 316.625 411.3625 318.9225 403.7725000000001C321.2425 396.1025000000001 328.3125 390.8575 336.325 390.8575H663.6525C671.665 390.8575 678.735 396.1025000000001 681.0575 403.7725000000001C683.355 411.3625 680.47 419.5525 673.9499999999999 424.0300000000001L673.9 424.0700000000001C673.76 424.1725 673.4350000000001 424.4200000000001 672.9499999999999 424.825C671.9825000000001 425.63 670.375 427.0625 668.33 429.2200000000001C664.2475000000001 433.53 658.3725000000001 440.785 652.3399999999999 451.8475C640.3225 473.8775000000001 627.2825 511.74 627.2825 572.7075C627.2825 606.4675 613.8725 638.845 590 662.7175C566.1274999999999 686.5875 533.75 700 499.99 700zM624.5675 427.2275H375.4100000000001C376.795 429.495 378.1825 431.895 379.5675 434.4325C394.8275000000001 462.4075 409.065 506.3799999999999 409.065 572.7075C409.065 596.82 418.645 619.9475 435.6950000000001 637C452.7475 654.05 475.875 663.63 499.99 663.63C524.105 663.63 547.23 654.05 564.2825 637C581.335 619.9475 590.9125 596.82 590.9125 572.7075C590.9125 506.3799999999999 605.15 462.4075 620.4100000000001 434.4325C621.795 431.895 623.185 429.495 624.5675 427.2275zM479.35 345.43C474.3125 354.1175 463.185 357.0750000000001 454.4975 352.035C445.81 346.995 442.8525 335.8675 447.8925000000001 327.18C452.6875000000001 318.9125 459.57 312.05 467.8525 307.28C476.135 302.51 485.5225 300 495.08 300C504.6375 300 514.0275 302.51 522.31 307.28C530.5925 312.05 537.475 318.9125 542.27 327.18C547.31 335.8675 544.3525 346.995 535.665 352.035C526.9775 357.0750000000001 515.85 354.1175 510.8100000000001 345.43C509.2125 342.6750000000001 506.9175 340.3875000000001 504.1575 338.7975C501.3975 337.2075 498.2675 336.37 495.08 336.37C491.895 336.37 488.765 337.2075 486.005 338.7975C483.2449999999999 340.3875000000001 480.95 342.6750000000001 479.35 345.43zM300 700H700V300H300V700z" />
    <glyph glyph-name="announcement-badge"
      unicode="&#xEA0C;"
      horiz-adv-x="1000" d="M400 1000H600A400 400 0 0 0 1000 600V400A400 400 0 0 0 600 0H400A400 400 0 0 0 0 400V600A400 400 0 0 0 400 1000zM637.5 642.1875L628.905 633.595C584.375 589.0625 525 564.0625 462.5 562.5V462.5V461.72C525 460.9375 584.375 435.155 628.905 390.625L637.5 382.03V642.1875zM425 600H456.25C510.9375 600 563.28 621.095 602.345 660.155L632.03 689.845C647.655 705.47 675 694.53 675 671.875V559.375C689.0625 552.345 700 533.595 700 512.5C700 490.625 689.0625 471.875 675 464.845V352.3450000000001C675 329.6875 647.655 318.75 632.03 334.375L602.345 364.0625C564.845 401.5625 514.845 423.4375 462.5 424.2200000000001V343.75C462.5 319.53 442.1875 300 418.75 300H393.75C369.5300000000001 300 350 319.53 350 343.75V425C321.875 425 300 446.875 300 475V550C300 577.345 321.875 600 350 600H425zM387.5 425V343.75C387.5 339.8450000000001 389.845 337.5 393.75 337.5H418.75C421.875 337.5 425 339.8450000000001 425 343.75V425H387.5zM350 562.5C342.97 562.5 337.5 556.25 337.5 550V475C337.5 467.97 342.97 462.5 350 462.5H387.5H425V562.5H350z" />
    <glyph glyph-name="apple-pay"
      unicode="&#xEA0D;"
      horiz-adv-x="1642.857142857143" d="M1441.057142857143 1000H158.7914285714286C153.4507142857143 1000 148.1007142857143 1000 142.77 999.9688576428572C138.2635714285714 999.9367716428573 133.7678571428572 999.886755 129.2721428571429 999.7640735714286C119.4664285714286 999.4988914285714 109.5778571428571 998.9204 99.895 997.1802071428572C90.0578571428572 995.4098071428572 80.9042857142857 992.5220714285714 71.9735714285714 987.9752857142857C63.1943571428571 983.5106428571428 55.1567857142857 977.6709285714286 48.1913571428571 970.702642857143C41.2228571428571 963.7342857142858 35.3832142857143 955.7099285714286 30.9195 946.9212142857144C26.3717142857143 937.9909285714286 23.4821428571429 928.8341428571428 21.724 918.9892857142858C19.9744285714286 909.3042857142856 19.3920714285714 899.4171428571428 19.1278571428571 889.6221428571429C19.0070714285714 885.1264285714285 18.9552142857143 880.6307142857142 18.9258571428571 876.1357142857142C18.901 871.8621428571429 18.9026428571429 867.5914285714285 18.9042857142857 863.3135714285714L18.9051428571429 860.1028571428571V139.8857142857143L18.9042857142857 136.6785714285715C18.9026428571429 132.4 18.901 128.1357142857144 18.9258571428571 123.85C18.9552142857143 119.3571428571428 19.0070714285714 114.8642857142858 19.1278571428571 110.3642857142856C19.3920714285714 100.5785714285713 19.9744285714286 90.6928571428572 21.724 81.0071428571429C23.4821428571429 71.1642857142857 26.3717142857143 62.0071428571429 30.9195 53.0785714285714C35.3832142857143 44.2857142857142 41.2228571428571 36.2571428571429 48.1913571428571 29.2928571428571C55.1567857142857 22.3142857142857 63.1943571428571 16.4785714285714 71.9735714285714 12.0214285714286C80.9042857142857 7.4642857142857 90.0578571428572 4.5785714285714 99.895 2.8071428571429C109.5778571428571 1.0785714285714 119.4664285714286 0.4928571428571 129.2721428571429 0.2214285714285C133.7678571428572 0.1214285714285 138.2635714285714 0.0642857142857 142.77 0.0428571428571C148.1007142857143 0 153.4507142857143 0 158.7914285714286 0H1441.057142857143C1446.3857142857144 0 1451.7357142857145 0 1457.064285714286 0.0428571428571C1461.5642857142857 0.0642857142857 1466.057142857143 0.1214285714285 1470.5714285714287 0.2214285714285C1480.357142857143 0.4928571428571 1490.242857142857 1.0785714285714 1499.95 2.8071428571429C1509.7785714285715 4.5785714285714 1518.9285714285716 7.4642857142857 1527.8642857142859 12.0214285714286C1536.65 16.4785714285714 1544.6642857142856 22.3142857142857 1551.642857142857 29.2928571428571C1558.6 36.2571428571429 1564.4428571428573 44.2857142857142 1568.9142857142858 53.0785714285714C1573.4714285714288 62.0071428571429 1576.3642857142856 71.1642857142857 1578.1142857142856 81.0071428571429C1579.8642857142856 90.6928571428572 1580.4285714285716 100.5785714285713 1580.692857142857 110.3642857142856C1580.8142857142857 114.8642857142858 1580.8785714285716 119.3571428571428 1580.9 123.85C1580.942857142857 129.2071428571428 1580.942857142857 134.5357142857142 1580.942857142857 139.8857142857143V860.1028571428571C1580.942857142857 865.455 1580.942857142857 870.7935714285715 1580.9 876.1357142857142C1580.8785714285716 880.6307142857142 1580.8142857142857 885.1264285714285 1580.692857142857 889.6221428571429C1580.4285714285716 899.4171428571428 1579.8642857142856 909.3042857142856 1578.1142857142856 918.9892857142858C1576.3642857142856 928.8341428571428 1573.4714285714288 937.9909285714286 1568.9142857142858 946.9212142857144C1564.4428571428573 955.7099285714286 1558.6 963.7342857142858 1551.642857142857 970.702642857143C1544.6642857142856 977.6709285714286 1536.65 983.5106428571428 1527.8642857142859 987.9752857142857C1518.9285714285716 992.5220714285714 1509.7785714285715 995.4098071428572 1499.95 997.1802071428572C1490.242857142857 998.9204 1480.357142857143 999.4988914285714 1470.5714285714287 999.7640735714286C1466.057142857143 999.886755 1461.5642857142857 999.9367716428573 1457.064285714286 999.9688576428572C1451.7357142857145 1000 1446.3857142857144 1000 1441.057142857143 1000zM1441.0428571428572 966.407857142857L1456.8142857142857 966.3777142857144C1461.0857142857144 966.3475 1465.3642857142859 966.3012142857144 1469.6571428571428 966.1842142857142C1477.1357142857144 965.9822857142856 1485.8785714285714 965.5774285714286 1494.0285714285715 964.1165714285714C1501.1142857142856 962.8406428571428 1507.0500000000002 960.9004285714286 1512.7571428571428 957.9975714285714C1518.3857142857144 955.1372142857144 1523.5428571428572 951.3887857142857 1528.0428571428572 946.892C1532.5642857142857 942.3650714285714 1536.3214285714287 937.1992142857144 1539.2142857142858 931.5077142857144C1542.1000000000001 925.85 1544.0285714285715 919.9371428571428 1545.3 912.8007142857144C1546.7571428571428 904.7392857142858 1547.1571428571428 895.9721428571429 1547.3642857142859 888.4521428571429C1547.4785714285715 884.2071428571428 1547.5357142857144 879.9621428571429 1547.557142857143 875.6164285714285C1547.5928571428572 870.4464285714286 1547.5928571428572 865.2792857142857 1547.5928571428572 860.1V859.8428571428572V139.6285714285715V139.3285714285714C1547.5928571428572 134.1642857142856 1547.5928571428572 129.0142857142857 1547.557142857143 123.75C1547.5357142857144 119.5071428571429 1547.4785714285715 115.2571428571429 1547.3642857142859 111.0071428571429C1547.1571428571428 103.5 1546.7571428571428 94.7357142857143 1545.2785714285715 86.5785714285714C1544.0285714285715 79.5428571428571 1542.107142857143 73.6285714285714 1539.2 67.9428571428571C1536.314285714286 62.2642857142857 1532.5642857142857 57.1071428571429 1528.064285714286 52.6071428571428C1523.5357142857142 48.0785714285714 1518.392857142857 44.3357142857142 1512.7 41.4499999999999C1507.0357142857144 38.5642857142857 1501.107142857143 36.6285714285714 1494.0928571428572 35.3642857142858C1485.7785714285715 33.8785714285714 1476.6714285714286 33.4714285714285 1469.807142857143 33.2857142857142C1465.4928571428572 33.1928571428572 1461.1928571428573 33.1285714285715 1456.7928571428572 33.1142857142856C1451.6785714285713 33.0714285714284 1446.5428571428572 33.0714285714284 1441.4214285714286 33.0714285714284H1441.3928571428573H1441.0428571428572H158.7785714285715H158.57H158.5442857142857C153.3685714285715 33.0714285714284 148.1814285714286 33.0714285714284 142.9114285714286 33.1142857142856C138.6071428571429 33.1285714285715 134.3121428571429 33.1857142857143 130.16 33.2857142857142C123.1428571428572 33.4714285714285 114.0271428571429 33.8785714285714 105.78 35.3499999999999C98.705 36.6285714285714 92.7742857142857 38.5642857142857 87.04 41.4928571428571C81.3978571428572 44.35 76.2607142857143 48.0857142857142 71.73 52.6214285714286C67.2344285714286 57.1142857142856 63.4982857142857 62.2571428571429 60.6095714285714 67.9428571428571C57.7180714285714 73.6214285714285 55.7834285714286 79.55 54.5114285714286 86.6785714285715C53.0410714285714 94.8142857142858 52.6371428571429 103.5428571428571 52.4352857142857 111C52.3200714285714 115.2714285714285 52.2719285714286 119.5428571428572 52.2445714285714 123.7857142857143L52.2237857142857 136.3142857142857L52.2247142857143 139.6285714285715V859.8428571428572L52.2237857142857 863.1514285714286L52.2435714285714 875.6564285714286C52.2719285714286 879.9264285714286 52.3200714285714 884.1957142857143 52.4352857142857 888.4621428571429C52.6371428571429 895.9278571428572 53.041 904.6592857142858 54.5235714285714 912.8678571428572C55.7844285714286 919.9257142857144 57.7180714285714 925.8578571428573 60.6246428571429 931.5662142857142C63.4907142857143 937.2086428571428 67.2335 942.3593571428572 71.7528571428571 946.8778571428572C76.2542857142857 951.3812142857142 81.4078571428571 955.1249285714287 87.0864285714286 958.0126428571429C92.7585714285714 960.9013571428573 98.7014285714286 962.8406428571428 105.7764285714286 964.1137142857144C113.9278571428571 965.5783571428572 122.6771428571429 965.9822857142856 130.17 966.1851428571428C134.4414285714286 966.3012142857144 138.7128571428572 966.3475 142.9521428571429 966.3767142857145L158.7785714285715 966.407857142857H1441.0428571428572zM465.41 726.0464285714286C467.8035714285714 703.0935714285714 458.7278571428571 680.6314285714286 445.3528571428572 663.9028571428571C431.4964285714286 647.6435714285715 409.5385714285714 634.7521428571429 387.5607142857143 636.6578571428572C384.695 658.6492857142857 395.6871428571429 682.0514285714286 408.1071428571429 696.3878571428572C421.9392857142857 713.13 445.8314285714286 725.0728571428572 465.41 726.0464285714286zM413.8207142857143 621.1321428571429C428.0964285714286 626.7564285714286 445.7414285714286 633.7085714285714 465.155 632.5521428571428C477.5407142857143 631.5935714285715 513.2664285714286 627.7807142857142 536.1314285714286 593.9635714285714C536.0171428571429 593.8764285714285 535.7642857142857 593.7114285714285 535.39 593.4664285714287C529.5192857142857 589.6242857142856 493.765 566.2271428571428 494.2171428571428 520.0871428571429C494.6607142857143 465.1135714285714 539.5064285714286 444.5014285714285 545.4771428571429 441.7571428571429L545.4778571428571 441.7571428571429C545.6685714285715 441.6692857142857 545.8192857142857 441.6 545.9271428571428 441.5485714285715C546.0442857142857 441.4928571428572 546.1121428571429 441.4578571428572 546.1271428571429 441.4428571428572L545.995 441.0214285714285C544.8292857142857 437.2778571428571 537.0785714285714 412.3771428571429 519.4635714285714 386.6371428571429C503.2678571428572 362.7964285714286 486.5914285714286 339.4442857142857 459.9157142857143 338.9671428571428C447.3607142857143 338.7342857142857 438.8892857142858 342.3642857142858 430.0742857142858 346.1407142857143C420.8292857142858 350.1021428571428 411.2064285714286 354.2249999999999 396.0971428571429 354.2249999999999C380.2492857142857 354.2249999999999 370.1628571428572 349.9700000000001 360.4635714285715 345.8785714285714C352.0857142857143 342.3442857142858 343.9971428571428 338.9328571428572 332.7357142857143 338.4907142857143C307.0164285714286 337.5485714285715 287.4978571428572 363.7728571428571 271.3021428571429 387.5907142857143C237.9514285714286 435.7321428571429 212.7071428571429 523.4128571428571 247.0021428571429 582.5228571428571C263.6764285714286 612.0707142857143 294.1642857142857 630.6485714285714 327.0221428571429 631.1314285714286C341.3671428571429 631.3942857142857 355.0971428571429 625.9678571428572 367.0778571428572 621.2335714285714C376.1807142857143 617.6357142857142 384.2735714285715 614.4371428571428 390.8578571428572 614.4371428571428C396.8292857142858 614.4371428571428 404.6257142857143 617.5092857142856 413.8207142857143 621.1314285714286L413.8207142857143 621.1321428571429zM743.05 698.8971428571429C812.4214285714287 698.8971428571429 860.7285714285715 651.0785714285714 860.7285714285715 581.4585714285714C860.7285714285715 511.59 811.4285714285714 463.5235714285714 741.3071428571428 463.5235714285714H664.5021428571429V341.3778571428571H609.0085714285715V698.8971428571429L743.05 698.8971428571429zM664.5021428571429 510.1035714285714H728.1785714285714C776.4928571428572 510.1035714285714 803.9928571428572 536.1157142857144 803.9928571428572 581.21C803.9928571428572 626.3 776.4928571428572 652.0678571428571 728.4285714285714 652.0678571428571H664.5021428571429V510.1035714285714zM972.0714285714286 492.49C910.1214285714286 489.0207142857142 875.1857142857143 461.0257142857143 875.1857142857143 415.4342857142857C875.1857142857143 368.6099999999999 910.8714285714286 336.8964285714285 961.9071428571428 336.8964285714285C996.1 336.8964285714285 1029.0500000000002 355.2285714285714 1044.1642857142858 384.2178571428571H1045.4V341.3549999999999H1096.6857142857143V520.9821428571429C1096.6857142857143 573.2592857142856 1056.3 606.7078571428572 993.1214285714286 606.7078571428572C928.7071428571428 606.7078571428572 888.5714285714286 572.0221428571429 885.6 524.9442857142857H936.1428571428572C940.8428571428572 548.2371428571428 960.1714285714286 563.0992857142858 991.1428571428572 563.0992857142858C1023.8428571428572 563.0992857142858 1043.4214285714286 545.7564285714286 1043.4214285714286 516.7671428571429V496.7007142857142L972.0714285714286 492.49zM1043.4214285714286 459.5342857142857V438.9707142857143C1043.4214285714286 405.03 1014.1785714285714 379.2621428571429 976.7714285714286 379.2621428571429C948.0285714285714 379.2621428571429 929.2 394.1292857142858 929.2 416.9200000000001C929.2 439.2185714285714 947.2857142857144 453.3407142857143 979.2428571428572 455.5728571428572L1043.4214285714286 459.5342857142857zM1145.1285714285716 245.4857142857143V288.8457142857143C1149.0857142857142 287.8564285714285 1158.0071428571428 287.8564285714285 1162.4714285714285 287.8564285714285C1187.2428571428572 287.8564285714285 1200.6285714285716 298.26 1208.8000000000002 325.0178571428571C1208.8000000000002 325.3092857142857 1210.4142857142856 330.7 1211.757142857143 335.1664285714286C1212.6999999999998 338.3242857142857 1213.507142857143 341.0199999999999 1213.507142857143 341.1228571428572L1119.3642857142856 602.0164285714286H1177.3357142857144L1243.2428571428572 389.9307142857143H1244.2285714285715L1310.142857142857 602.0164285714286H1366.6285714285714L1269 327.7464285714285C1246.7142857142858 264.5642857142858 1220.942857142857 244.2499999999999 1166.9357142857143 244.2499999999999C1162.4714285714285 244.2499999999999 1149.0857142857142 244.742857142857 1145.1285714285716 245.4857142857143z" />
    <glyph glyph-name="apple-wallet"
      unicode="&#xEA0E;"
      horiz-adv-x="1400" d="M40.9 875A125 125 0 0 0 165.9 1000H1234.1000000000001A125 125 0 0 0 1359.1000000000001 875V125A125 125 0 0 0 1234.1000000000001 0H165.9A125 125 0 0 0 40.9 125V875zM1428.3 950H-21.7000000000001V100H1428.3V950zM1288 928.2H109.8V428.35H1288V928.2zM50.5 894.65H1358.5V270.65H50.5zM1288 715.6V727.7L1287.8500000000001 737.9A149.4 149.4 0 0 1 1285.8500000000001 760.05A74.95 74.95 0 0 1 1278.95 781.1A70.7 70.7 0 0 1 1226.95 819.1A149.4 149.4 0 0 1 1204.8 821A346.95 346.95 0 0 1 1194.6 821.15H203.2C199.8 821.15 196.4 821.15 193 821A149.4 149.4 0 0 1 170.85 819.05C163.45 817.6999999999999 156.55 815.55 149.8 812.0999999999999A69.7 69.7 0 0 1 118.8 781.0999999999999A74.95 74.95 0 0 1 111.9 760.0999999999999A149.4 149.4 0 0 1 109.9 737.9A346.95 346.95 0 0 1 109.8 727.7V669.3499999999999V705.7V321.25H1288V715.6zM50.5 786.6H1358.5V162.5999999999999H50.5zM1288 608.5V620.6L1287.8500000000001 630.8A149.4 149.4 0 0 1 1285.8500000000001 652.95A74.95 74.95 0 0 1 1278.95 674A70.7 70.7 0 0 1 1226.95 712A149.4 149.4 0 0 1 1204.8 713.9A346.95 346.95 0 0 1 1194.6 714.05H203.2C199.8 714.05 196.4 714.05 193 713.9A149.4 149.4 0 0 1 170.85 711.95C163.45 710.5999999999999 156.55 708.45 149.8 705A69.7 69.7 0 0 1 118.8 674A74.95 74.95 0 0 1 111.9 653A149.4 149.4 0 0 1 109.9 630.8A346.95 346.95 0 0 1 109.8 620.6V562.25V598.5999999999999V214.15H1288V608.5zM50.5 678.6H1358.5V54.5999999999999H50.5zM1288 501.4V513.5L1287.8500000000001 523.7A149.4 149.4 0 0 1 1285.8500000000001 545.8499999999999A74.95 74.95 0 0 1 1278.95 566.9A70.7 70.7 0 0 1 1226.95 604.9A149.4 149.4 0 0 1 1204.8 606.8A346.95 346.95 0 0 1 1194.6 606.95H203.2C199.8 606.95 196.4 606.95 193 606.8A149.4 149.4 0 0 1 170.85 604.8499999999999C163.45 603.5 156.55 601.3499999999999 149.8 597.9000000000001A69.7 69.7 0 0 1 118.8 566.9000000000001A74.95 74.95 0 0 1 111.9 545.9000000000001A149.4 149.4 0 0 1 109.9 523.7A346.95 346.95 0 0 1 109.8 513.5V455.15V491.5V107.05H1288V501.4zM38.4 999.6V446.2000000000001H109.8V834.8C109.8 838.2 109.8 841.6 109.95 845C110.15 852.4000000000001 110.6 859.85 111.9 867.1500000000001C113.25 874.5500000000001 115.4 881.45 118.85 888.2A70.7 70.7 0 0 0 170.85 926.05C178.15 927.35 185.6 927.8 193 928.05L203.2 928.15H1194.6C1198 928.15 1201.3999999999999 928.15 1204.8 928C1212.2 927.8 1219.65 927.35 1226.95 926.05C1234.3500000000001 924.7 1241.2500000000002 922.55 1247.9500000000003 919.1A69.7 69.7 0 0 0 1278.9500000000003 888.1C1282.4 881.35 1284.5500000000002 874.45 1285.9 867.1C1287.2000000000003 859.75 1287.65 852.3000000000001 1287.8500000000004 844.9000000000001L1288.0000000000002 834.7V446.1H1359.4000000000003V999.6H38.4zM-21.5 582.5999999999999H1430.5V-53.4000000000001H-21.5zM1027.55 499.7499999999999H1004.5499999999998C998.0999999999998 499.6499999999999 991.6499999999997 499.6 985.1999999999998 499.4A283.9 283.9 0 0 1 943.0499999999998 495.7A143.3 143.3 0 0 1 902.9999999999998 482.5C901.35 481.6500000000001 866.0999999999999 465.65 834.4 416.35C810.3499999999999 378.9 763.55 339.2000000000001 698.05 339.2000000000001C632.55 339.2000000000001 585.7499999999999 378.9000000000001 561.6999999999999 416.35C528.3499999999999 468.35 490.2999999999998 483.9000000000001 493.05 482.5A141.7 141.7 0 0 1 452.9999999999999 495.7A277.35 277.35 0 0 1 410.8499999999999 499.4A1248.5 1248.5 0 0 1 391.4999999999999 499.7L368.5 499.7499999999999H38.5V0H1359.5V499.8H1027.5500000000002z" />
    <glyph glyph-name="ar_icon"
      unicode="&#xEA0F;"
      horiz-adv-x="1062.5" d="M565.3125 727.1875C563.875 728.5625 561.125 728.5625 558.3125 727.1875L293.9375 627L562.5 521.25L829.625 627L565.25 727.1875zM273.0625 272.1875C273.0625 266.5625 275.875 262.4375 280.0625 261.0625L529.125 166.4375V462.8125L273.0625 563V272.1875zM595.8749999999999 166.4375L843.5625 261.0625A12.125 12.125 0 0 1 851.9375 272.1875V563L595.875 462.8125V166.4375zM534.6249999999999 789.8125A73.125 73.125 0 0 0 588.9374999999999 789.8125L867.2499999999999 684.0625C897.8749999999999 672.875 918.6874999999998 643.6875 918.6874999999998 610.3125V272.1875C918.6874999999998 238.75 897.8124999999999 210.9375 867.2499999999999 198.4375L588.9374999999999 92.6875A73.125 73.125 0 0 0 534.6874999999999 92.6875L256.3749999999999 198.4375C225.7499999999999 210.9375 206.3124999999998 238.75 206.3124999999998 272.1875V610.3125C206.3124999999998 643.6875 225.7499999999999 672.875 256.3749999999999 684.0625L534.6874999999999 789.8125zM565.3125 727.1875L554.25 716.125L556.625 713.75L559.7500000000001 712.5L565.3125000000001 727.1875zM558.3125 727.1875L563.875 712.5625L564.625 712.8125L565.3125 713.1875L558.3125 727.1875zM293.9375 627L288.4375 641.625L250.625 627.25L288.25 612.4375L293.9375 627zM562.5 521.25L556.75 506.6875L562.5 504.4375000000001L568.25 506.6875L562.5 521.25zM829.625 627L835.3750000000001 612.4375L872.8750000000001 627.3125L835.1875000000001 641.625L829.625 627zM280.0625000000001 261.0625L285.6250000000001 275.6875L285.0000000000001 275.875L280.0000000000001 261.0625zM529.1250000000001 166.4375L523.5000000000001 151.8125L544.7500000000001 143.75V166.4375H529.1250000000001zM529.1250000000001 462.8125000000001H544.7500000000001V473.4375000000001L534.7500000000001 477.3750000000001L529.1250000000001 462.8125000000001zM273.0625 563L278.75 577.5625L257.5 585.875V563H273.125zM595.8749999999999 166.4375H580.2499999999999V143.75L601.4999999999999 151.8750000000001L595.8749999999999 166.4375000000001zM843.5625 261.0625L838.5625 275.875L837.9375 275.625L843.5625 261.0625zM851.9375 562.9375H867.5625V585.875L846.2500000000001 577.5625L851.875 563zM595.875 462.875L590.25 477.4375000000001L580.25 473.5V462.875H595.875zM534.625 789.875L540.25 775.25L540.6875 775.4375L534.6875 789.8125zM588.9375 789.875L582.9375 775.4375L583.375 775.25L588.9375 789.875zM867.2500000000001 684.125L861.6250000000001 669.5L861.8750000000001 669.4375L867.2500000000001 684.125zM867.2500000000001 198.5000000000001L872.75 183.8750000000001L873.125 184.0000000000001L867.1875 198.5000000000001zM588.9375000000001 92.7500000000001L583.3750000000001 107.3750000000001L582.9375000000001 107.1875000000001L588.9375000000001 92.7500000000001zM534.6875000000001 92.7500000000001L540.3125000000001 107.3125000000001H540.2500000000001L534.6250000000001 92.7500000000001zM256.3750000000001 198.5000000000001L250.5000000000001 184.0000000000001L250.8125000000001 183.8750000000001L256.4375000000001 198.5000000000001zM256.3750000000001 684.1250000000001L261.7500000000001 669.4375H261.9375000000001L256.3750000000001 684.1250000000001zM576.3750000000001 738.25A19.6875 19.6875 0 0 1 562.3125000000001 743.875A24.6875 24.6875 0 0 1 551.3125000000001 741.1875L565.3125000000001 713.25A6.6875 6.6875 0 0 0 562.3125000000001 712.625A11.625 11.625 0 0 0 554.1875 716.1875000000001L576.3125 738.25zM552.8125 741.8125000000001L288.4375 641.6875L299.5 612.4375L563.875 712.625L552.8125 741.8125zM288.25 612.5L556.7500000000001 506.75L568.25 535.8125L299.6875000000001 641.5625L288.2500000000001 612.5zM568.25 506.75L835.375 612.5L823.875 641.5625L556.7500000000001 535.8125L568.25 506.75zM835.1875 641.6875L570.8125 741.8125L559.75 712.625L824.125 612.4375L835.1875 641.6875zM257.4375 272.25C257.4375 261.5 263.1875 250.25 275.125 246.3125L285.0000000000001 275.9375000000001A6.125 6.125 0 0 0 288.125 273.5000000000001C288.75 272.6250000000001 288.75 272.0625000000001 288.75 272.2500000000001H257.5zM274.5 246.4999999999999L523.5624999999999 151.875L534.6249999999999 181.125L285.625 275.625L274.5625000000001 246.4375zM544.75 166.5V462.8125H513.5V166.4375H544.75zM534.75 477.4375L278.75 577.5L267.375 548.375L523.4375 448.1875L534.8125 477.3124999999999zM257.5 563V272.1875H288.75V563H257.5zM601.5625 151.8125L849.1875 246.4375L838.0624999999999 275.625L590.3749999999999 181L601.5624999999999 151.8125zM848.5625 246.1875A27.75 27.75 0 0 1 867.625 272.1875H836.375C836.375 273.4375 836.8749999999999 274.4375 837.2499999999999 274.9375A2.8125 2.8125 0 0 0 838.6874999999999 275.8750000000001L848.5624999999999 246.2500000000001zM867.625 272.1875V563H836.375V272.1875H867.625zM846.25 577.5L590.125 477.375L601.5 448.25L857.5625 548.4375L846.1875 577.5625zM580.25 462.8125V166.4375H611.5V462.8125H580.25zM540.6875 775.3125A57.5625 57.5625 0 0 0 582.9375 775.3125L594.9375 804.1875A88.75 88.75 0 0 1 528.6875 804.1875L540.6875 775.375zM583.375 775.1875L861.6874999999999 669.4375L872.7499999999999 698.625L594.5 804.375L583.375 775.1875zM861.875 669.375C886.3749999999999 660.4375 903.125 637.0625 903.125 610.3125H934.375C934.375 650.3125 909.3125 685.3125 872.4999999999999 698.75L861.875 669.375zM903.125 610.3125V272.1875H934.375V610.3125H903.125zM903.125 272.1875C903.125 245.8125 886.6875 223.2500000000001 861.25 212.875L873.1249999999999 183.9375000000001C908.9375 198.625 934.375 231.7500000000001 934.375 272.1875H903.125zM861.6874999999999 213.0625L583.375 107.3125L594.5 78.0625L872.75 183.8125L861.6875 213.0625zM582.9374999999999 107.125A57.5 57.5 0 0 0 540.2499999999999 107.2500000000001L529.0624999999999 78.1250000000001A88.75 88.75 0 0 1 594.9374999999999 78.2500000000001L582.9374999999999 107.1250000000001zM540.2499999999999 107.3125L261.875 213.0625L250.7500000000001 183.8125L529.0625 78.0625L540.1875 107.3125zM262.3124999999999 212.9375C237.3124999999999 223.125 221.9374999999999 245.375 221.9374999999999 272.1875H190.6874999999999C190.6874999999999 232.1875 214.1874999999999 198.8125000000001 250.4999999999999 183.9375000000001L262.3124999999999 212.875zM221.9374999999999 272.1875V610.3125H190.6874999999999V272.1875H221.9374999999999zM221.9374999999999 610.3125C221.9374999999999 637.5625 237.6874999999999 660.625 261.75 669.375L251.0624999999999 698.75C213.8749999999999 685.1875 190.6874999999999 649.8125 190.6874999999999 610.3125H221.9374999999999zM261.9374999999999 669.4375L540.2499999999999 775.1875L529.1249999999999 804.375L250.8124999999999 698.625L261.9374999999999 669.4375zM562.5 1000A62.5 62.5 0 0 1 500 937.5V750H625V937.5A62.5 62.5 0 0 1 562.5 1000zM350 208.25L218.75 279.8750000000001L93.125 205.1250000000001A62.875 62.875 0 0 1 156.6875 96.6250000000001L350 208.25zM900 275.875L775 204.25L968.75 92.3750000000001A62.4375 62.4375 0 1 1 1031.0625 200.625L900 275.875z" />
    <glyph glyph-name="arrow-down copy"
      unicode="&#xEA10;"
      horiz-adv-x="1000" d="M500 954.5454545454546H500A454.5454545454546 454.5454545454546 0 0 0 954.5454545454546 500V500A454.5454545454546 454.5454545454546 0 0 0 500 45.4545454545455H500A454.5454545454546 454.5454545454546 0 0 0 45.4545454545455 500V500A454.5454545454546 454.5454545454546 0 0 0 500 954.5454545454546zM470.8363636363636 698.1022727272727L470.8363636363636 372.2727272727273L328.4836363636363 514.6227272727273C317.1072727272727 526 298.4381818181818 526 287.0618181818182 514.6227272727273C275.6854545454546 503.2454545454546 275.6854545454546 484.8681818181818 287.0618181818182 473.4909090909091L479.2954545454545 281.2590909090909C490.6681818181818 269.8818181818182 509.0454545454545 269.8818181818182 520.4227272727272 281.2590909090909L712.9454545454545 473.1999999999999C724.3227272727273 484.5772727272728 724.3227272727273 502.9545454545454 712.9454545454545 514.3318181818182C701.5727272727272 525.7045454545455 683.1954545454546 525.7045454545455 671.8181818181818 514.3318181818182L529.1772727272727 372.2727272727273L529.1772727272727 698.1022727272727C529.1772727272727 714.1459090909091 516.05 727.2727272727273 500.0045454545455 727.2727272727273C483.9590909090909 727.2727272727273 470.8363636363636 714.1459090909091 470.8363636363636 698.1022727272727zM500 954.5454545454546H500A454.5454545454546 454.5454545454546 0 0 0 954.5454545454546 500V500A454.5454545454546 454.5454545454546 0 0 0 500 45.4545454545455H500A454.5454545454546 454.5454545454546 0 0 0 45.4545454545455 500V500A454.5454545454546 454.5454545454546 0 0 0 500 954.5454545454546z" />
    <glyph glyph-name="arrow-down-a-z"
      unicode="&#xEA11;"
      horiz-adv-x="1000" d="M857.625 156.25H736.4999999999999L896.4375 361.875A46.875 46.875 0 0 1 901.5625 411.2499999999999A48 48 0 0 1 857.6250000000001 437.4999999999999H640.625C614.75 437.4999999999999 595.5 416.4999999999999 595.5 390.6249999999999S616.5 343.7499999999999 640.625 343.7499999999999H763.5625L603.6875 138.1249999999999A46.875 46.875 0 0 1 638.8750000000001 62.4999999999998H855.875C881.75 62.4999999999998 901 83.4999999999998 901 109.3749999999998S885.125 156.2499999999998 857.6250000000001 156.2499999999998zM932.6249999999998 630.25L793.75 911.5C777.875 943.375 725.7499999999999 943.375 709.8749999999999 911.5L571 630.25A46.875 46.875 0 1 1 654.875 588.375L661.75 609.375H838.1875L848.625 588.4375A46.6875 46.6875 0 0 1 911.5 567.4375A46.875 46.875 0 0 1 932.6249999999998 630.25zM708.5625 703.125L750 785.8125L791.4375 703.125H708.6250000000001zM403.125 345.5L296.875 228.6875V890.625A46.875 46.875 0 1 1 203.125 890.625V228.75L96.875 343.75A46.625 46.625 0 0 1 30.75 346.375A46.875 46.875 0 0 1 28.125 280.125L213.8125 76.75A48.375 48.375 0 0 1 282.6875000000001 76.75L468.4375000000001 280.0625A46.875 46.875 0 0 1 465.8125000000001 346.3125C450.1875000000001 364.1875 420.5000000000001 362.8125 403.1250000000001 345.4375000000001z" />
    <glyph glyph-name="arrow-down-full"
      unicode="&#xEA12;"
      horiz-adv-x="1000" d="M500 1000H500A500 500 0 0 0 1000 500V500A500 500 0 0 0 500 0H500A500 500 0 0 0 0 500V500A500 500 0 0 0 500 1000zM480.71875 663.4375V394.625L363.28125 512.0625C353.90625 521.4375 338.5 521.4375 329.09375 512.0625C319.71875 502.6874999999999 319.71875 487.53125 329.09375 478.125L487.6875000000001 319.53125C497.0625000000001 310.15625 512.2500000000001 310.15625 521.625 319.53125L680.46875 477.875A23.96875 23.96875 0 1 1 646.53125 511.8125000000001L528.84375 394.625V663.4375A24.125 24.125 0 0 1 504.7812500000001 687.5A24.125 24.125 0 0 1 480.7187500000001 663.4375z" />
    <glyph glyph-name="arrow-down-simple"
      unicode="&#xEA13;"
      horiz-adv-x="1428.5714285714287" d="M646.9028571428571 129.0457142857142L84.4028571428572 691.5457142857142C46.317 726.7014285714286 46.317 788.2257142857143 84.4028571428572 823.3814285714286C119.5591428571429 861.4675714285714 181.0828571428571 861.4675714285714 216.2385714285715 823.3814285714286L714.2857142857143 328.2642857142858L1209.4028571428573 823.3814285714286C1244.5585714285714 861.4675714285714 1306.0828571428572 861.4675714285714 1341.2385714285713 823.3814285714286C1379.3242857142857 788.2257142857143 1379.3242857142857 726.7014285714286 1341.2385714285713 691.5457142857142L778.7385714285715 129.0457142857142C743.5828571428572 90.96 682.0585714285714 90.96 646.9028571428571 129.0457142857142z" />
    <glyph glyph-name="arrow-down"
      unicode="&#xEA14;"
      horiz-adv-x="1062.5" d="M457.375 935.8125V218.9375L144.25 532.1875C119.1875 557.1875 78.125 557.1875 53.0625 532.1875C28.0625 507.1874999999999 28.0625 466.6874999999999 53.0625 441.6875L476 18.75C501 -6.2499999999999 541.4375 -6.2499999999999 566.4374999999999 18.75L990 441.0625A63.9375 63.9375 0 1 1 899.5625 531.5L585.6875 219.0000000000001V935.875A64.375 64.375 0 0 1 521.5625 1000A64.375 64.375 0 0 1 457.3750000000001 935.8125z" />
    <glyph glyph-name="arrow-left-chevron"
      unicode="&#xEA15;"
      horiz-adv-x="1000" d="M264.0624000000001 534.376L564.064 834.3752C582.812 854.6876 615.624 854.6876 634.376 834.3752C654.688 815.6248 654.688 782.8124 634.376 764.0624L370.3124 500L634.376 234.376C654.688 215.624 654.688 182.812 634.376 164.0640000000001C615.624 143.7520000000001 582.812 143.7520000000001 564.064 164.0640000000001L264.0624000000001 464.064C243.75 482.812 243.75 515.624 264.0624000000001 534.376z" />
    <glyph glyph-name="arrow-left"
      unicode="&#xEA16;"
      horiz-adv-x="571.4285714285714" d="M500 928.5714285714286L71.4285714285714 500L500 71.4285714285715" />
    <glyph glyph-name="arrow-right-chevron"
      unicode="&#xEA17;"
      horiz-adv-x="1000" d="M734.376 534.376C754.688 515.624 754.688 482.812 734.376 464.064L434.3760000000001 164.0640000000001C415.624 143.7520000000001 382.8124 143.7520000000001 364.0624 164.0640000000001C343.75 182.812 343.75 215.624 364.0624 234.376L628.124 500L364.0624 764.0624C343.75 782.8124 343.75 815.6248 364.0624 834.3752C382.8124 854.6876 415.624 854.6876 434.3760000000001 834.3752L734.376 534.376z" />
    <glyph glyph-name="arrow-right-from-bracket"
      unicode="&#xEA18;"
      horiz-adv-x="1000" d="M375 109.375C375 83.4 354.101875 62.5 328.125 62.5H187.5C83.945 62.5 0 146.44375 0 250V750C0 853.5550000000001 83.945 937.5 187.5 937.5H328.125C354.101875 937.5 375 916.52375 375 890.625C375 864.74625 354.101875 843.75 328.125 843.75H187.5C135.9375 843.75 93.75 801.5625 93.75 750V250C93.75 198.4375 135.9375 156.25 187.5 156.25H328.125C354.101875 156.25 375 135.35 375 109.375zM987.30625 532.03125L739.0625 797.65625C721.3000000000001 816.578125 691.6375 817.421875 672.83125 799.67C653.975 781.970625 653.06875 752.306875 670.81875 733.4393749999999L844.53125 546.875H357.6175C333.39875 546.875 312.5 525.78125 312.5 500C312.5 474.21875 333.49625 453.125 357.6175 453.125H842.7750000000001L667.15 266.4875C649.3875 247.625 650.3 217.96875 669.1625 200.25625C680.0749999999999 191.8 691.6 187.5 701.36875 187.5C713.8187499999999 187.5 726.2687500000001 192.44375 735.4875 202.26875L983.73125 467.894375C1004.3 485.9375 1004.3 514.0625 987.30625 532.03125z" />
    <glyph glyph-name="arrow-right"
      unicode="&#xEA19;"
      horiz-adv-x="666.6666666666666" d="M88.0833333333333 973.5A89.75 89.75 0 0 1 88.0833333333333 846.5833333333334L439.1666666666667 497.5833333333334L88.1666666666666 148.4166666666666A89.6666666666667 89.6666666666667 0 0 1 92.9166666666666 26.3333333333333A90.6666666666667 90.6666666666667 0 0 1 215.75 21.6666666666667L630.8333333333334 434.5833333333334A89.75 89.75 0 0 1 630.8333333333334 561.4166666666667L215.5 974.3333333333334A90.75 90.75 0 0 1 88.0833333333333 973.5z" />
    <glyph glyph-name="arrow-trend-up"
      unicode="&#xEA1A;"
      horiz-adv-x="1600" d="M975 871.875C975 907.4219 1002.34 937.5 1040.6200000000001 937.5H1521.8799999999999C1557.4199999999998 937.5 1587.5 907.4219 1587.5 871.875V390.625C1587.5 352.344 1557.4199999999998 325 1521.8799999999999 325C1483.5900000000001 325 1456.25 352.344 1456.25 390.625V713.281L933.984 191.016C906.641 163.672 865.625 163.672 841.016 191.016L537.5 494.531L124.609 81.641C97.2656 54.297 56.25 54.297 31.6406 81.641C4.29688 106.25 4.29688 147.266 31.6406 171.875L491.016 633.984C515.625 658.594 556.6410000000001 658.594 581.25 633.984L884.766 330.469L1363.28 806.25H1040.6200000000001C1002.34 806.25 975 833.594 975 871.875z" />
    <glyph glyph-name="arrow-up copy"
      unicode="&#xEA1B;"
      horiz-adv-x="1000" d="M500 954.5454545454546H500A454.5454545454546 454.5454545454546 0 0 0 954.5454545454546 500V500A454.5454545454546 454.5454545454546 0 0 0 500 45.4545454545455H500A454.5454545454546 454.5454545454546 0 0 0 45.4545454545455 500V500A454.5454545454546 454.5454545454546 0 0 0 500 954.5454545454546zM526.7227272727272 318.4136363636365V617.0927272727273L657.209090909091 486.6045454545455C667.6363636363636 476.1772727272727 684.75 476.1772727272727 695.1818181818181 486.6045454545455C705.6090909090909 497.0318181818182 705.6090909090909 513.8772727272728 695.1818181818181 524.309090909091L518.9681818181817 700.5195454545456C508.5409090909091 710.9477272727273 491.6954545454545 710.9477272727273 481.2636363636364 700.5195454545456L304.785 524.5727272727272C294.3568181818182 514.1454545454545 294.3568181818182 497.3 304.785 486.8727272727273C315.2136363636364 476.4454545454546 332.0590909090909 476.4454545454546 342.4877272727273 486.8727272727273L473.2454545454545 617.0927272727273V318.4136363636365C473.2454545454545 303.709090909091 485.2772727272727 291.6727272727274 499.9818181818181 291.6727272727274C514.690909090909 291.6727272727274 526.7227272727272 303.709090909091 526.7227272727272 318.4136363636365zM500 954.5454545454546H500A454.5454545454546 454.5454545454546 0 0 0 954.5454545454546 500V500A454.5454545454546 454.5454545454546 0 0 0 500 45.4545454545455H500A454.5454545454546 454.5454545454546 0 0 0 45.4545454545455 500V500A454.5454545454546 454.5454545454546 0 0 0 500 954.5454545454546z" />
    <glyph glyph-name="arrow-up-simple"
      unicode="&#xEA1C;"
      horiz-adv-x="1500" d="M118.6666666666667 173.1666666666666A119.6666666666667 119.6666666666667 0 0 1 287.8333333333333 173.1666666666666L753.3333333333333 641.1666666666667L1218.6666666666665 173.1666666666666A119.5 119.5 0 0 1 1416.6666666666665 260A121 121 0 0 1 1387.9999999999998 343.3333333333333L837.1666666666665 896.6666666666666A119.6666666666667 119.6666666666667 0 0 1 668.1666666666665 896.6666666666666L117.5 343A121 121 0 0 1 118.6666666666667 173.0000000000001z" />
    <glyph glyph-name="arrow-up-to-line"
      unicode="&#xEA1D;"
      horiz-adv-x="857.1428571428571" d="M100.4464285714286 937.5H756.7C782.0857142857143 937.5 803.5714285714286 916.0157142857142 803.5714285714286 890.625C803.5714285714286 863.2814285714286 782.0857142857143 843.75 756.7 843.75H100.4464285714286C73.1028571428571 843.75 53.5714285714286 863.2814285714286 53.5714285714286 890.625C53.5714285714286 916.0157142857142 73.1028571428571 937.5 100.4464285714286 937.5zM461.7742857142857 671.875L711.7742857142857 406.25C729.35 386.7185714285714 729.35 357.4221428571429 709.8214285714286 339.8435714285714C690.29 322.2657142857143 660.9935714285714 322.2657142857143 643.415 341.7971428571429L475.4464285714286 521.4842857142856V359.375V109.3714285714285C475.4464285714286 82.0285714285715 453.9621428571429 62.5 428.5714285714286 62.5C401.2278571428572 62.5 381.6964285714286 82.0285714285715 381.6964285714286 109.3714285714285V359.375V521.4842857142856L211.7742857142857 341.7971428571429C194.1964285714286 322.2657142857143 164.8992857142857 322.2657142857143 145.3685714285714 339.8435714285714C125.8371428571429 357.4221428571429 125.8371428571429 386.7185714285714 143.415 406.25L393.415 671.875C403.1807142857143 681.6407142857142 414.8992857142857 687.5 428.5714285714286 687.5C440.29 687.5 453.9621428571429 681.6407142857142 461.7742857142857 671.875z" />
    <glyph glyph-name="arrow-up"
      unicode="&#xEA1E;"
      horiz-adv-x="1062.5" d="M585.75 64.1875V781.0625L898.875 467.8125C923.875 442.8124999999999 965 442.8124999999999 990 467.8125C1014.9999999999998 492.8125 1014.9999999999998 533.3125 990 558.3125L567.125 981.25C542.125 1006.25 501.625 1006.25 476.6249999999999 981.25L53.0625 558.9375A63.9375 63.9375 0 1 1 143.5625 468.4999999999999L457.375 780.9999999999999V64.1249999999999A64.375 64.375 0 0 1 521.5625 0A64.375 64.375 0 0 1 585.75 64.1875z" />
    <glyph glyph-name="arrow"
      unicode="&#xEA1F;"
      horiz-adv-x="941.1764705882352" d="M410.1764705882353 910.1764705882354V235.4705882352942L115.4705882352941 530.2941176470588C91.8823529411765 553.8235294117648 53.2352941176471 553.8235294117648 29.6470588235294 530.2941176470588C6.1176470588235 506.764705882353 6.1176470588235 468.6470588235294 29.6470588235294 445.1176470588236L427.7058823529412 47.0588235294118C451.2352941176471 23.5294117647061 489.2941176470588 23.5294117647061 512.8823529411765 47.0588235294118L911.5294117647059 444.529411764706A60.1764705882353 60.1764705882353 0 1 1 826.3529411764705 529.6470588235295L530.9999999999998 235.529411764706V910.235294117647A60.5882352941177 60.5882352941177 0 0 1 470.5882352941176 970.5882352941176A60.5882352941177 60.5882352941177 0 0 1 410.1764705882353 910.1764705882354z" />
    <glyph glyph-name="asterix"
      unicode="&#xEA20;"
      horiz-adv-x="933.3333333333334" d="M841.0666666666667 284.8666666666667L840.5333333333334 284.1333333333335L840.0666666666668 283.3333333333334A16.6666666666667 16.6666666666667 0 0 0 817.4000000000001 277.2000000000001L533.3333333333334 442.1333333333335L483.3333333333334 471.3333333333335V83.4000000000001C483.3333333333334 73.4000000000001 475.0666666666667 66.7333333333335 468.5333333333334 66.7333333333335A20.3333333333333 20.3333333333333 0 0 0 455.6 72.4666666666668C451.4666666666666 76.3333333333335 450.0000000000001 80.3333333333335 450.0000000000001 83.4000000000001V471.0666666666667L400 442.2000000000001L116.8666666666667 278.7333333333334L114.2 277.8000000000001L113.4 277.4666666666667A129.1333333333334 129.1333333333334 0 0 0 105.6 275A16.6666666666667 16.6666666666667 0 0 0 97.4666666666667 306.0666666666666L383.3333333333334 471.1333333333334L433.3333333333334 500.0000000000001L383.3333333333334 528.8666666666668L97.5333333333334 693.9333333333334H97.3333333333333A19 19 0 0 0 89.6666666666667 716.7333333333333C96.6 725.6666666666667 107.2666666666667 726.7333333333333 113.9333333333334 722.8666666666667L114.0666666666667 722.8L400 557.8000000000001L450.0000000000001 528.9333333333334V916.6666666666669C450.0000000000001 925.8 457.5333333333334 933.3333333333334 466.6666666666667 933.3333333333334S483.3333333333334 925.8 483.3333333333334 916.6666666666669V528.9333333333334L533.3333333333334 557.8000000000001L819.1333333333333 722.8000000000002C827.8666666666667 727.8666666666668 836.4666666666667 723.8000000000002 839.1333333333333 718.4000000000001L839.6 717.5333333333335L840.0666666666667 716.6666666666667A16.6666666666667 16.6666666666667 0 0 0 834 693.9333333333334L548.1333333333333 528.8666666666668L498.1333333333333 500.0000000000001L548.1333333333333 471.1333333333334L833.9333333333334 306.0666666666669L834.4666666666667 305.8000000000002L835 305.5333333333336A15.3333333333333 15.3333333333333 0 0 0 843.1333333333333 296.066666666667A13.6 13.6 0 0 0 841.0666666666666 284.8666666666669z" />
    <glyph glyph-name="attention"
      unicode="&#xEA21;"
      horiz-adv-x="1000" d="M500 1000H500A500 500 0 0 0 1000 500V500A500 500 0 0 0 500 0H500A500 500 0 0 0 0 500V500A500 500 0 0 0 500 1000zM493.75 633.595L339.0625 379.6875C337.5 377.3450000000001 337.5 375.78 337.5 373.4375C337.5 367.1875 342.1875 362.5 348.4375 362.5H650.78C657.03 362.5 662.5 367.1875 662.5 373.4375C662.5 375.78 661.72 377.3450000000001 660.155 379.6875L505.47 633.595C504.6875 635.9375 502.345 637.5 500 637.5C496.875 637.5 495.3125 635.9375 493.75 633.595zM461.72 653.125C469.53 666.405 484.375 675 500 675C514.845 675 529.6875 666.405 537.5 653.125L692.1875 399.2200000000001C696.875 391.405 700 382.8125 700 373.4375C700 346.875 678.125 325 650.78 325H348.4375C321.875 325 300 346.875 300 373.4375C300 382.8125 302.345 391.405 307.0300000000001 399.2200000000001L461.72 653.125zM525 412.5C525 398.4375 513.28 387.5 500 387.5C485.9375 387.5 475 398.4375 475 412.5C475 425.78 485.9375 437.5 500 437.5C513.28 437.5 525 425.78 525 412.5zM518.75 556.25V481.25C518.75 470.3125 510.155 462.5 500 462.5C489.0625 462.5 481.25 470.3125 481.25 481.25V556.25C481.25 566.405 489.0625 575 500 575C510.155 575 518.75 566.405 518.75 556.25z" />
    <glyph glyph-name="avatar-direction-arrow"
      unicode="&#xEA22;"
      horiz-adv-x="1000" d="M94.8427906976744 481.9279069767442C94.8453488372093 468.6255813953488 100.1118604651163 455.893023255814 109.4923255813954 446.5116279069768C118.8725581395349 437.1325581395349 131.6044186046512 431.8651162790698 144.9069767441861 431.8627906976745L421.206976744186 432.6325581395349L420.4372093023256 156.3325581395349C421.3790697674418 143.6906976744186 427.0604651162791 131.8976744186047 436.3441860465116 123.3093023255815C445.6279069767442 114.7186046511628 457.8279069767441 109.9674418604652 470.5116279069767 110.0023255813954C483.193023255814 110.0395348837209 495.4209302325581 114.8581395348837 504.753488372093 123.5C514.0837209302325 132.139534883721 519.8302325581395 143.9651162790698 520.8441860465116 156.6139534883722L521.753488372093 483.4720930232559C521.7511627906977 496.7744186046512 516.4860465116278 509.506976744186 507.1046511627906 518.8860465116279C497.7255813953488 528.2674418604652 484.993023255814 533.5325581395349 471.6906976744185 533.5348837209303L144.76 532.5534883720929C131.4818604651163 532.3651162790698 118.7867441860465 526.939534883721 109.4379069767442 517.4581395348837C100.0890697674418 507.9767441860465 94.843488372093 495.2046511627908 94.8427906976744 481.9279069767442zM292.2 679.2372093023256C292.2023255813953 665.9348837209302 297.4674418604651 653.2046511627907 306.8488372093023 643.8232558139534C316.2279069767442 634.4441860465117 328.9604651162791 629.1767441860466 342.2627906976744 629.1744186046512L618.5627906976744 629.9441860465117L617.793023255814 353.6441860465117C618.7372093023255 341.0023255813955 624.4162790697675 329.2093023255815 633.6999999999999 320.6209302325582C642.9837209302325 312.0302325581396 655.1860465116279 307.2790697674419 667.8674418604651 307.3139534883722C680.5488372093023 307.3488372093024 692.7790697674418 312.1697674418606 702.1093023255813 320.8093023255814C711.4418604651162 329.4511627906977 717.1883720930232 341.2767441860466 718.1999999999999 353.9232558139535L719.1116279069768 680.7837209302326C719.1093023255814 694.086046511628 713.8418604651163 706.8162790697675 704.460465116279 716.1976744186047C695.0813953488372 725.5790697674419 682.3488372093024 730.8441860465116 669.0465116279069 730.8465116279069L342.1162790697674 729.8651162790698C328.8372093023256 729.6767441860466 316.1441860465116 724.2511627906977 306.7953488372093 714.7674418604652C297.446511627907 705.2860465116279 292.2 692.5162790697675 292.2 679.2372093023256z" />
    <glyph glyph-name="avatar-new-style-notification-icon"
      unicode="&#xEA23;"
      horiz-adv-x="1000" d="M400 1000H600A400 400 0 0 0 1000 600V400A400 400 0 0 0 600 0H400A400 400 0 0 0 0 400V600A400 400 0 0 0 400 1000zM478.6775 714.4825000000001C479.6875 717.05 482.3525 718.75 485.295 718.75C488.235 718.75 490.9 717.05 491.9125 714.4825000000001L504.8725 682.2825L539.5225 670.2175C542.28 669.25 544.1175000000001 666.7975 544.1175000000001 664.0550000000001C544.1175000000001 661.31 542.28 658.8575000000001 539.5225 657.8924999999999L504.8725 645.825L491.9125 613.6324999999999C490.9 611.0675 488.235 609.36 485.295 609.36C482.3525 609.36 479.6875 611.0675 478.6775 613.6324999999999L465.7175 645.825L430.24 657.8924999999999C427.4825 658.8575000000001 426.4700000000001 661.31 426.4700000000001 664.0550000000001C426.4700000000001 666.7975 427.4825 669.25 430.24 670.2175L465.7175 682.2825L478.6775 714.4825000000001zM705.24 706.7349999999999L737.04 677.1825C754.2275 661.165 754.2275 635.185 737.04 619.1875L386.49 293.2349999999999C369.3025 277.255 341.3425000000001 277.255 324.1175 293.2349999999999L292.3350000000001 322.805C275.1 338.7875 275.1 364.7675 292.3350000000001 380.8350000000001L642.83 706.7349999999999C660.11 722.755 688.0525 722.755 705.24 706.7349999999999zM674.08 677.7275L573.2524999999999 583.9775L604.9625 554.4075L705.0550000000001 648.175L674.08 677.7275zM355.3300000000001 322.9775L573.8050000000001 525.435L542.0024999999999 554.9200000000001L323.5300000000001 351.7775000000001L355.3300000000001 322.9775zM256.885 618.59L308.8225 636.7075L328.3 685C329.8525 688.855 333.815 691.4025 338.235 691.4025C342.6475 691.4025 346.6 688.855 348.1625 685L367.6475 636.7075L419.5775000000001 618.59C423.7125 617.135 426.4700000000001 613.46 426.4700000000001 609.36C426.4700000000001 605.2574999999999 423.7125 601.5825 419.5775000000001 600.13L367.6475 582.0125L348.1625 533.725C346.6 529.88 342.6475 527.315 338.235 527.315C333.815 527.315 329.8525 529.88 328.3 533.725L308.8225 582.0125L256.885 600.13C252.7425 601.5825 250 605.2574999999999 250 609.36C250 613.46 252.7425 617.135 256.885 618.59zM580.4225 399.8075L632.3525 417.925L651.8375 466.2099999999999C653.4 470.8249999999999 657.3525 472.62 661.765 472.62C666.1775 472.62 670.1274999999999 470.8249999999999 671.6899999999999 466.2099999999999L691.1775 417.925L743.1075 399.8075C747.2425000000001 398.355 750 394.68 750 390.5775C750 386.475 747.2425000000001 382.8000000000001 743.1075 381.3475000000001L691.1775 363.23L671.6899999999999 314.9425C670.1274999999999 311.0975 666.1775 308.5325000000001 661.765 308.5325000000001C657.3525 308.5325000000001 653.4 311.0975 651.8375 314.9425L632.3525 363.23L580.4225 381.3475000000001C575.46 382.8000000000001 573.53 386.475 573.53 390.5775C573.53 394.68 575.46 398.355 580.4225 399.8075z" />
    <glyph glyph-name="avatar-notification-icon"
      unicode="&#xEA24;"
      horiz-adv-x="1000" d="M400 1000H600A400 400 0 0 0 1000 600V400A400 400 0 0 0 600 0H400A400 400 0 0 0 0 400V600A400 400 0 0 0 400 1000zM585.715 415.625H414.2850000000001C351.17 415.625 300 365.255 300 303.125C300 287.5949999999999 312.795 275 328.5725 275H671.4275C687.2049999999999 275 700 287.5949999999999 700 303.125C700 365.2625 648.84 415.625 585.715 415.625zM557.1424999999999 317.1875L500 359.375L442.8575 317.1875H344.295C350.9275 349.2675000000001 379.795 373.4375 414.2850000000001 373.4375H585.715C620.2049999999999 373.4375 649.0725 349.24 655.705 317.1875H557.1424999999999zM379.7325 466.6900000000001L485.535 443.75H514.385L620.1875 466.6800000000001C634.01 469.675 643.5525 482 642.7225 495.7825L636.5575 598.6125C632.8575 669.4625 572.7674999999999 725 500 725C452.1425 725 410.1775 700.7425000000001 385.715 664.1624999999999V696.875C393.6025 696.875 400 703.1724999999999 400 710.9375C400 718.705 393.5725 725 385.715 725H371.4275C363.535 725 357.1425 718.705 357.1425 710.9375V492.97L357.4975 493.3074999999999C357.91 480.5749999999999 366.7775 469.5025000000001 379.7325 466.6900000000001zM594.375 587.715L595.0999999999999 575.62C572.655 563.3875 537.7525 537.1075000000001 530.1975 490.35L521.4275 488.4875V574.2675L594.375 587.715zM500 682.8125C544.2325000000001 682.8125 581.465 653.0699999999999 591.34 612.5H408.66C418.4825 652.9825000000001 455.715 682.8125 500 682.8125zM405.6250000000001 587.715L478.5725 574.2675V488.46L469.8225 491.1225C462.2325 537.0899999999999 427.3225 563.37 404.9100000000001 575.675L405.6250000000001 587.715zM300 725H700V275H300V725z" />
    <glyph glyph-name="avatar-training-notification-icon"
      unicode="&#xEA25;"
      horiz-adv-x="1000" d="M400 1000H600A400 400 0 0 0 1000 600V400A400 400 0 0 0 600 0H400A400 400 0 0 0 0 400V600A400 400 0 0 0 400 1000zM360.375 348.25C363.18 355.1025 366.9725000000001 361.5 371.6425 367.41C395.8125 397.98 443.545 415.5 500.1875 415.5H500.2175C556.9075 415.4925000000001 604.1800000000001 398.3225 628.27 367.6C632.9625 361.6175000000001 636.775 355.12 639.605 348.135C640.7199999999999 345.385 641.6825 342.5600000000001 642.4875 339.6600000000001C642.6875 338.9450000000001 642.875 338.2225 643.0550000000001 337.4975000000001C643.23 336.79 643.395 336.0775 643.5525 335.36C643.7725 334.3525 643.9725 333.3375 644.1550000000001 332.3125C644.8299999999999 332.615 645.4925000000001 332.9325 646.15 333.2675000000001C661.39 341.0075000000001 671.875 356.7525 671.875 374.9675V392.73V625.03C671.875 650.875 650.845 671.875 625.0325 671.875H374.97C349.125 671.875 328.125 650.8425 328.125 625.03V392.6925V374.9675C328.125 357.2149999999999 338.0825000000001 341.8075 352.6725 333.8725000000001C353.6975 333.315 354.745 332.7950000000001 355.8125 332.3125C355.99 333.3425 356.185 334.365 356.4025 335.38C357.09 338.5950000000001 357.975 341.7275 359.05 344.775C359.31 345.5075 359.58 346.2375 359.8625 346.9625C360.0275 347.3925000000001 360.2 347.8225 360.375 348.25zM404.6875 330.3125C404.815 330.625 404.9475 330.9375 405.0900000000001 331.25C413.7375 350.3825000000001 449.0075 366.8675000000001 500.1875 366.875H500.2175C551.415 366.875 586.6675 350.385 595.3475 331.25C595.4875000000001 330.9375 595.6225 330.625 595.75 330.3125L596.155 328.2825000000001L596.1875 328.125H596.155H593.7175H590.3675H584.8125H500.2175H410.5775000000001H410.0925000000001H406.215H403.875L404.6875 330.3125zM596.1875 281.25H602.47H625.0325C635.71 281.25 645.9725 283.0375 655.5375 286.33C658.23 287.2575000000001 660.87 288.3025 663.4475 289.4625C696.0475 304.135 718.75 336.9074999999999 718.75 374.9675V625.03C718.75 676.78 676.7825 718.75 625.0325 718.75H374.97C323.2200000000001 718.75 281.25 676.78 281.25 625.03V374.9675C281.25 337.0325000000001 303.805 304.3525 336.23 289.6075L336.4975 289.4875C348.235 284.195 361.2575 281.25 374.97 281.25H397.7825000000001H403.875H596.155H596.1875zM414.9425 522.6899999999999C414.9425 569.6575 453.035 607.7525 500.005 607.7525C546.9725000000001 607.7525 585.0675 569.6575 585.0675 522.6899999999999C585.0675 475.72 546.9725000000001 437.6275 500.005 437.6275C453.035 437.6275 414.9425 475.72 414.9425 522.6899999999999zM461.8175 522.6899999999999C461.8175 501.6275000000001 478.9424999999999 484.5024999999999 500.005 484.5024999999999C521.0675 484.5024999999999 538.1925 501.6275000000001 538.1925 522.6899999999999C538.1925 543.7525 521.0675 560.8774999999999 500.005 560.8774999999999C478.9424999999999 560.8774999999999 461.8175 543.7525 461.8175 522.6899999999999z" />
    <glyph glyph-name="avatar"
      unicode="&#xEA26;"
      horiz-adv-x="1000" d="M746.9722222222222 932.0744444444445H253.0216666666667C150.7994444444445 932.0744444444445 67.8983333333333 849.1733333333333 67.8983333333333 746.9511111111111V253C67.8983333333333 150.7777777777778 150.7994444444445 67.8777777777779 253.0216666666667 67.8777777777779H746.9722222222222C849.1944444444445 67.8777777777779 932.0944444444444 150.7777777777778 932.0944444444444 253V746.9511111111111C932.0944444444444 849.1733333333333 849.1944444444445 932.0744444444445 746.9722222222222 932.0744444444445zM689.9333333333333 160.4722222222222H310.1205555555556L311.7255555555556 164.7888888888889C327.3427777777778 203.3722222222223 397.6511111111112 237.0111111111111 500.4288888888889 237.0111111111111C603.2055555555555 237.0111111111111 673.4555555555555 203.3722222222223 689.1333333333334 164.7888888888889L689.9944444444445 160.4722222222222H689.9333333333333zM839.5055555555556 253C839.5055555555556 215.4722222222223 816.9722222222223 183.25 784.75 168.7388888888888C766.2333333333333 272.6277777777778 649.8722222222221 333.0611111111112 500.3672222222223 333.0611111111112C350.8611111111112 333.0611111111112 232.775 271.2722222222222 215.1822222222222 168.7388888888888C183.0216666666667 183.25 160.4905555555556 215.4722222222223 160.4905555555556 253V746.9511111111111C160.4905555555556 797.9388888888889 201.9722222222222 839.4822222222222 253.0216666666667 839.4822222222222H746.9722222222222C797.9611111111112 839.4822222222222 839.5055555555556 798.0005555555556 839.5055555555556 746.9511111111111V253zM500.0016666666667 712.8361111111111C407.2238888888889 712.8361111111111 331.9772222222223 637.5894444444444 331.9772222222223 544.8116666666666C331.9772222222223 452.0338888888888 407.2238888888889 376.7888888888889 500.0016666666667 376.7888888888889C592.7777777777778 376.7888888888889 668.0277777777778 452.0338888888888 668.0277777777778 544.8116666666666C668.0277777777778 637.5894444444444 592.7777777777778 712.8361111111111 500.0016666666667 712.8361111111111zM500.0016666666667 469.3794444444444C458.3966666666666 469.3794444444444 424.5694444444445 503.2066666666666 424.5694444444445 544.8116666666666C424.5694444444445 586.4166666666667 458.3966666666666 620.2438888888889 500.0016666666667 620.2438888888889C541.6066666666667 620.2438888888889 575.4333333333333 586.4166666666667 575.4333333333333 544.8116666666666C575.4333333333333 503.2066666666666 541.6066666666667 469.3794444444444 500.0016666666667 469.3794444444444zM67.8983333333333 932.0744444444445H932.0983333333334V67.8744444444444H67.8983333333333V932.0744444444445z" />
    <glyph glyph-name="backup copy"
      unicode="&#xEA27;"
      horiz-adv-x="1000" d="M400 1000H600A400 400 0 0 0 1000 600V400A400 400 0 0 0 600 0H400A400 400 0 0 0 0 400V600A400 400 0 0 0 400 1000zM464.35 693.03C538.1875 701.0825 595.355 672.5150000000001 632.35 609.4725L633.735 607.04L635.4625000000001 606.76C701.9175 595.8475 740.845 559.5150000000001 746.7575 500.2L747.2375000000001 494.1925000000001C750.9675 432.99 715.06 391.4600000000001 646.0475 373.3975000000001C635.325 370.5925 624.3475 368.895 613.2925 368.3275L604.99 368.115H586.84C574.4150000000001 368.115 564.3399999999999 378.1875 564.3399999999999 390.615C564.3399999999999 402.0850000000001 572.9250000000001 411.55 584.0175 412.9400000000001L586.84 413.115H604.99C615 413.115 624.97 414.3975000000001 634.655 416.9325C684.255 429.9125 704.635 453.485 702.3225 491.455C699.6850000000001 534.7375000000001 673.6825 557.7874999999999 617.0124999999999 563.8575000000001C609.4375 564.6700000000001 602.7875 569.26 599.3425 576.0550000000001C571.165 631.6275 529.2125000000001 654.8375 469.23 648.2950000000001C410.125 641.8475 375.9700000000001 607.435 363.45 540.145C362.0325 532.5174999999999 356.7825000000001 526.16 349.5625 523.3225C313 508.9475 297.3025 490.385 297.505 466.0124999999999C297.6775 445.0125000000001 309.245 429.5275000000001 335.8275 417.39C340.765 415.135 346.0425 413.7525000000001 351.43 413.2875L355.4875 413.115H384.23C396.6575000000001 413.115 406.73 403.04 406.73 390.615C406.73 379.1425000000001 398.1475000000001 369.6775 387.0525 368.29L384.23 368.115H355.4875C342.255 368.115 329.175 370.9600000000001 317.1375 376.455C275.5850000000001 395.4275 252.835 425.88 252.505 465.6424999999999C252.1775 505.4325000000001 274.225 536.325 315.26 557.2149999999999L321.71 560.3399999999999L322.385 563.1949999999999C340.57 637.8025 386.4125 682.03 457.4025 692.155L464.35 693.03zM567.4725 484.6700000000001C576.26 475.8824999999999 576.26 461.6374999999999 567.4725 452.85C559.4175 444.795 546.775 444.125 537.9575 450.835L535.6525 452.85L489.0625 499.4475L442.4725 452.85C434.4175 444.795 421.775 444.125 412.9575 450.835L410.6525000000001 452.85C402.5975 460.905 401.9275 473.5475 408.6400000000001 482.365L410.6525000000001 484.6700000000001L473.1525 547.1700000000001C481.2075 555.2249999999999 493.85 555.895 502.6675 549.1825000000001L504.9725 547.1700000000001L567.4725 484.6700000000001zM487.8475 542.1875C499.3175 542.1875 508.7825 533.605 510.1725 522.51L510.3475 519.6875V327.5575C510.3475 315.1325 500.2725 305.0575 487.8475 305.0575C476.3775 305.0575 466.91 313.6425000000001 465.5225 324.735L465.3475 327.5575V519.6875C465.3475 532.115 475.42 542.1875 487.8475 542.1875z" />
    <glyph glyph-name="backup-warning-icon"
      unicode="&#xEA28;"
      horiz-adv-x="1000" d="M400 1000H600A400 400 0 0 0 1000 600V400A400 400 0 0 0 600 0H400A400 400 0 0 0 0 400V600A400 400 0 0 0 400 1000zM500 727.5L291 335.6249999999999H709L500 727.5zM519 763.125A21.15 21.15 0 0 1 481.0000000000001 763.125L252.9750000000001 335.6249999999999C244.5250000000001 319.8 255.075 299.9999999999999 271.975 299.9999999999999H728.0250000000001C744.9250000000001 299.9999999999999 755.475 319.8 747.0250000000001 335.6249999999999L519.0250000000001 763.125zM500 459.075C490.9 459.075 483.525 467.05 483.525 476.875V595.625C483.525 605.4749999999999 490.9000000000001 613.45 500 613.45C509.075 613.45 516.45 605.4499999999999 516.45 595.625V476.875C516.45 467.05 509.075 459.075 500 459.075zM472.55 402.4250000000001C472.55 386.0250000000001 484.825 372.725 499.9750000000001 372.725S527.4250000000001 386.0250000000001 527.4250000000001 402.4250000000001C527.4250000000001 418.8250000000001 515.125 432.1 499.9750000000001 432.1C484.85 432.1 472.55 418.8250000000001 472.55 402.4250000000001z" />
    <glyph glyph-name="backup"
      unicode="&#xEA29;"
      horiz-adv-x="1230.7692307692307" d="M527.6315384615384 975.0880769230768C709.3830769230769 994.9145153846154 850.0999999999999 924.5893846153846 941.1692307692308 769.4100000000001L944.576923076923 763.4215384615385L948.8307692307692 762.7323076923077C1112.4076923076923 735.8746153846155 1208.2307692307693 646.4353846153847 1222.7846153846153 500.4307692307693L1223.9692307692308 485.6415384615385C1233.1461538461538 334.9946153846154 1144.7692307692307 232.7615384615385 974.8846153846154 188.3000000000001C948.4923076923076 181.3923076923078 921.476923076923 177.2153846153847 894.2615384615385 175.823076923077L873.8230769230769 175.3000000000001H829.1461538461538C798.553846153846 175.3000000000001 773.7615384615384 200.0923076923077 773.7615384615384 230.6846153846155C773.7615384615384 258.9176923076924 794.8923076923077 282.2184615384615 822.1999999999999 285.6361538461539L829.1461538461538 286.0676923076924H873.8230769230769C898.4615384615385 286.0676923076924 923.0076923076924 289.2253846153847 946.8461538461536 295.4638461538462C1068.9384615384615 327.416153846154 1119.1 385.443076923077 1113.4076923076923 478.9061538461539C1106.9153846153847 585.4453846153847 1042.9153846153845 642.1838461538462 903.4153846153846 657.1284615384616C884.7692307692308 659.1261538461539 868.3999999999999 670.4246153846154 859.9153846153846 687.1515384615385C790.5615384615385 823.9476923076924 687.29 881.0784615384615 539.6438461538461 864.9723076923077C394.1546153846154 849.1015384615384 310.0807692307692 764.396923076923 279.2646153846154 598.7615384615385C275.7707692307693 579.9853846153846 262.8515384615385 564.3346153846154 245.0776923076923 557.3469230769231C155.08 521.9669230769231 116.4392307692308 476.2715384615385 116.9338461538462 416.2784615384616C117.3607692307692 364.5838461538462 145.8361538461539 326.4669230769232 211.2684615384615 296.593076923077C223.4207692307692 291.0438461538462 236.4138461538461 287.6369230769232 249.6746153846154 286.4961538461538L259.6615384615385 286.0676923076924H330.4123076923077C361 286.0676923076924 385.7969230769231 261.2707692307694 385.7969230769231 230.6846153846155C385.7969230769231 202.446153846154 364.6684615384615 179.146153846154 337.3592307692308 175.7307692307693L330.4123076923077 175.3000000000001H259.6607692307693C227.0869230769231 175.3000000000001 194.8938461538462 182.3 165.2623076923077 195.8307692307693C62.9754615384615 242.5307692307694 6.9757846153846 317.4884615384616 6.1687384615385 415.3646153846155C5.3611307692308 513.31 59.6282307692308 589.353076923077 160.6407692307692 640.7784615384616L176.5192307692308 648.4676923076923L178.1761538461538 655.4984615384616C222.9415384615385 839.146923076923 335.7869230769231 948.0163846153846 510.5284615384615 972.9386153846154L527.6315384615384 975.0880769230768zM781.4615384615385 462.1438461538462C803.0923076923077 440.5146153846154 803.0923076923077 405.4469230769231 781.4615384615385 383.8176923076924C761.6338461538461 363.9915384615386 730.5153846153846 362.3392307692308 708.806923076923 378.8615384615386L703.1353846153846 383.8176923076924L588.4515384615385 498.5192307692308L473.7684615384615 383.8176923076924C453.9415384615384 363.9915384615386 422.8230769230769 362.3392307692308 401.1146153846153 378.8615384615386L395.443076923077 383.8176923076924C375.6161538461538 403.6446153846154 373.9638461538462 434.763076923077 390.4861538461538 456.4723076923077L395.443076923077 462.1438461538462L549.2892307692308 615.99C569.1153846153846 635.8161538461538 600.2346153846154 637.4684615384615 621.9430769230769 620.946153846154L627.6146153846153 615.99L781.4615384615385 462.1438461538462zM585.47 603.9661538461539C613.7053846153847 603.9661538461539 637.0053846153845 582.8376923076924 640.4230769230769 555.5292307692307L640.8546153846154 548.5815384615385V75.6461538461539C640.8546153846154 45.0615384615386 616.0584615384615 20.2615384615385 585.47 20.2615384615385C557.2353846153846 20.2615384615385 533.9346153846154 41.3923076923078 530.516923076923 68.7000000000001L530.0853846153847 75.6461538461539V548.5815384615385C530.0853846153847 579.1700000000001 554.8823076923077 603.9661538461539 585.47 603.9661538461539z" />
    <glyph glyph-name="balance-eye"
      unicode="&#xEA2A;"
      horiz-adv-x="1416.6666666666665" d="M1346.5 532.4166666666667A744.1666666666666 744.1666666666666 0 0 1 688 945.1666666666666A745.2499999999998 745.2499999999998 0 0 1 27.1666666666667 532.4166666666666A74.1666666666667 74.1666666666667 0 0 1 20.25 499.9166666666667A77.5 77.5 0 0 1 27.1666666666667 465.25A742.9166666666666 742.9166666666666 0 0 1 688 54.75A742 742 0 0 1 1346.5 465.25A73.25 73.25 0 0 1 1353.5 497.6666666666667A76.5 76.5 0 0 1 1346.5 532.4166666666667zM688 166.0833333333334A333.9166666666666 333.9166666666666 0 1 0 1021.9166666666666 500V497.6666666666667A335.5833333333333 335.5833333333333 0 0 0 688 163.75V166.0833333333334zM688 722.5833333333334A459.9999999999999 459.9999999999999 0 0 1 627.75 713.25C641.8333333333333 693.75 649.1666666666666 670.1666666666667 648.5833333333334 646.0833333333334A108.9166666666666 108.9166666666666 0 0 0 539.5833333333334 537A110.5833333333333 110.5833333333333 0 0 0 472.3333333333333 557.9166666666667A248.75 248.75 0 0 1 465.4166666666666 500A222.5833333333333 222.5833333333333 0 1 1 688 720.25V722.5833333333333z" />
    <glyph glyph-name="ban"
      unicode="&#xEA2B;"
      horiz-adv-x="1062.5" d="M1031.25 500A500 500 0 0 0 531.25 0A500 500 0 0 0 31.25 500A500 500 0 0 0 531.25 1000A500 500 0 0 0 1031.25 500zM212.75 752.125A406.1875 406.1875 0 0 1 783.375 181.4374999999999L212.75 752.125zM937.5 500A406.1875 406.1875 0 0 1 279.125 818.5L849.75 247.875A404.3125 404.3125 0 0 1 937.5 500zM31.25 1000H1031.25V0H31.25z" />
    <glyph glyph-name="bars-sort-by"
      unicode="&#xEA2C;"
      horiz-adv-x="1000" d="M62.5 828.0833333333334C62.5 854 83.5 875 109.4166666666667 875H890.5833333333334A46.8333333333333 46.8333333333333 0 1 0 890.5833333333334 781.25H109.4166666666667A46.8333333333333 46.8333333333333 0 0 0 62.5 828.1666666666666zM187.5 515.5833333333333C187.5 541.5833333333333 208.5 562.5 234.4166666666667 562.5H765.5833333333333C791.5833333333331 562.5 812.5 541.6666666666666 812.5 515.5833333333333C812.5 489.6666666666666 791.6666666666666 468.75 765.5833333333333 468.75H234.5A46.8333333333333 46.8333333333333 0 0 0 187.5833333333334 515.6666666666665zM578.1666666666666 156.25H421.9166666666667A46.75 46.75 0 0 0 375 203.1666666666668C375 229.0833333333334 395.8333333333333 250 421.9166666666667 250H578.1666666666666C604.0833333333333 250 625 229.1666666666668 625 203.0833333333334C625 177.1666666666666 604.1666666666666 156.25 578.0833333333334 156.25z" />
    <glyph glyph-name="bars"
      unicode="&#xEA2D;"
      horiz-adv-x="944.4444444444445" d="M796.9444444444445 948.1666666666666C758.6111111111112 948.1666666666666 727.5 917.0555555555557 727.5 878.7222222222222V128.7222222222222A69.4444444444444 69.4444444444444 0 0 1 866.3888888888889 128.7222222222222V878.7222222222222C866.3888888888889 917.0555555555557 835.2777777777778 948.1666666666666 796.9444444444445 948.1666666666666zM394.1666666666667 649.0555555555555A69.4444444444444 69.4444444444444 0 0 0 533.0555555555557 649.0555555555555V121.2777777777777A69.4444444444444 69.4444444444444 0 0 0 394.1666666666667 121.2777777777777V649.0555555555555zM60.8333333333334 426.8333333333333A69.4444444444444 69.4444444444444 0 0 0 199.7222222222223 426.8333333333333V121.2777777777777A69.4444444444444 69.4444444444444 0 1 0 60.8333333333334 121.2777777777777V426.8333333333333z" />
    <glyph glyph-name="bell-1"
      unicode="&#xEA2E;"
      horiz-adv-x="1062.5" d="M521.5 1000A318.25 318.25 0 0 1 203.3125 681.75C203.3125 529.375 170.6875 434.6875 140.625 379.6250000000001A270 270 0 0 0 100.6249999999999 323.0625000000001A137.125 137.125 0 0 0 86.7499999999999 310.1875000000003L86.6249999999999 310.0625000000001A45.4375 45.4375 0 0 1 112.3749999999999 227.1250000000001H930.625A45.4375 45.4375 0 0 1 956.3750000000002 310.0625000000001L956.25 310.1875000000003A137.125 137.125 0 0 0 942.3125 323.0625000000001A270.25 270.25 0 0 0 902.3125 379.6250000000001C872.3124999999999 434.6875000000001 839.6874999999999 529.3750000000001 839.6874999999999 681.75A318.25 318.25 0 0 1 521.5 1000zM832.9374999999999 318.125H210.0625C213.5625 323.75 217 329.75 220.4375 336.0625C258.5625 406.0625 294.1875 515.9375 294.1875 681.75A227.3125 227.3125 0 0 0 748.8125 681.75C748.8125 515.9375 784.4375 406 822.5625 336.125C826.0624999999999 329.75 829.5 323.75 832.9375 318.0625zM470 113.5A45.4375 45.4375 0 1 1 391.3125 67.875A136.375 136.375 0 0 1 627.3124999999999 67.875A45.4375 45.4375 0 0 1 548.6249999999999 113.5A45.5 45.5 0 0 0 469.9999999999999 113.5z" />
    <glyph glyph-name="bell-slash"
      unicode="&#xEA2F;"
      horiz-adv-x="1230.7692307692307" d="M353.0769230769231 771.9230769230769A292.4615384615385 292.4615384615385 0 0 0 553.8461538461538 904.076923076923V938.4615384615385A61.5384615384616 61.5384615384616 0 1 0 676.9230769230769 938.4615384615385V904.076923076923A292.4615384615385 292.4615384615385 0 0 0 923.076923076923 615.3846153846155V551.1538461538462C923.076923076923 463.8461538461539 952.8461538461538 379.0769230769232 1007.3076923076922 310.7692307692307L1035.923076923077 275C1044.3846153846152 262.5384615384615 1048.8461538461538 245.7692307692307 1043.4615384615386 230.7692307692309L1213.076923076923 97.9230769230769A46.1538461538461 46.1538461538461 0 0 0 1156.1538461538462 25.2307692307693L17.6923076923077 917.5384615384615A46.1538461538461 46.1538461538461 0 1 0 74.6153846153846 990.1538461538462L353.0769230769231 771.9230769230769zM426.3846153846154 714.6153846153846L866.6923076923076 370.9230769230769A461.5384615384615 461.5384615384615 0 0 0 830.7692307692306 551.1538461538462V615.3846153846155C830.7692307692306 725.7692307692307 741.153846153846 815.3846153846154 630.7692307692307 815.3846153846154H599.9999999999999C525.5384615384614 815.3846153846154 460.7692307692306 774.7692307692307 426.3846153846153 714.6153846153846zM307.6923076923077 551.1538461538462V572.8461538461538L397.5384615384616 502.0769230769231C389.8461538461539 427.4615384615386 364.4615384615385 355.3846153846155 323.6923076923077 292.3076923076924H663.8461538461539L781.1538461538462 200.0000000000001H230.7692307692308A46.0769230769231 46.0769230769231 0 0 0 194.8461538461539 275.0000000000001L223.4615384615384 310.7692307692309A385.923076923077 385.923076923077 0 0 1 307.6923076923077 551.1538461538462zM738.4615384615385 138.4615384615386C738.4615384615385 107.5384615384617 725.5384615384615 74.3846153846155 702.4615384615385 51.3076923076925C679.3846153846152 28.2307692307693 646.3076923076923 15.3846153846155 615.3846153846154 15.3846153846155A123.0769230769231 123.0769230769231 0 0 0 528.2307692307692 51.3846153846155C505.1538461538461 74.4615384615387 492.3076923076923 107.5384615384617 492.3076923076923 138.4615384615386H738.4615384615386z" />
    <glyph glyph-name="bell"
      unicode="&#xEA30;"
      horiz-adv-x="1062.5" d="M308.1875 906.8125A318.25 318.25 0 0 0 851.4375000000001 681.8125C851.4375000000001 529.3125 884.0625000000001 434.6875 914.1250000000002 379.625C929.1875 351.9375 943.875 333.8125 954.1250000000002 323.0625A137.125 137.125 0 0 1 968.0000000000002 310.1875000000001L968.1250000000002 310.0625A45.4375 45.4375 0 0 0 942.3750000000002 227.125H124.0625A45.4375 45.4375 0 0 0 98.3125 310.0625L98.4375 310.1875000000001A137.125 137.125 0 0 1 112.375 323.0625A270 270 0 0 1 152.375 379.625C182.375 434.6875 215 529.375 215 681.75C215 766.125 248.5625000000001 847.125 308.1875000000001 906.75zM481.6249999999999 113.5625A45.4375 45.4375 0 1 1 403 67.9375A136.375 136.375 0 0 1 638.9374999999999 67.9375A45.4375 45.4375 0 0 1 560.3125 113.5625A45.5 45.5 0 0 0 481.6249999999999 113.5625z" />
    <glyph glyph-name="bell_empty"
      unicode="&#xEA31;"
      horiz-adv-x="1000" d="M499.973 1000C415.572 1000 334.6280000000001 966.47185 274.9475 906.7915C215.267 847.111 181.739 766.1665 181.739 681.7660000000001C181.739 529.347 149.1395 434.695 119.097 379.62C104.0125 351.9650000000001 89.3245 333.8250000000001 79.1215 323.055C74.0085 317.655 69.9905 314.075 67.571 312.06C66.3605 311.05 65.549 310.4350000000001 65.199 310.175L65.069 310.075C48.7716 298.88 41.55955 278.405 47.30335 259.4350000000001C53.109 240.26 70.781 227.145 90.8145 227.145H909.13C929.165 227.145 946.835 240.26 952.645 259.4350000000001C958.385 278.405 951.175 298.88 934.8750000000002 310.075L934.745 310.175C934.395 310.4350000000001 933.585 311.05 932.375 312.06C929.955 314.075 925.94 317.655 920.825 323.055C910.6199999999998 333.8250000000001 895.9350000000001 351.9650000000001 880.85 379.62C850.8050000000001 434.695 818.205 529.347 818.205 681.7660000000001C818.205 766.1665 784.68 847.111 725 906.7915C665.32 966.47185 584.375 1000 499.973 1000zM811.4200000000001 318.07H188.5275C191.9865 323.74 195.459 329.735 198.9185 336.0800000000001C237.069 406.02 272.663 515.9505 272.663 681.7660000000001C272.663 742.0519999999999 296.6115 799.8695 339.2405 842.4985C381.8695 885.1275 439.6865 909.076 499.973 909.076C560.26 909.076 618.0749999999999 885.127 660.705 842.4985C703.335 799.8695 727.285 742.0519999999999 727.285 681.7660000000001C727.285 515.9505 762.875 406.02 801.0249999999999 336.0800000000001C804.485 329.735 807.9599999999999 323.74 811.4200000000001 318.07zM448.3775 113.5749999999999C435.779 135.295 407.9595000000001 142.685 386.2415 130.09C364.523 117.4899999999999 357.1295 89.67 369.728 67.9500000000001C381.717 47.285 398.9255 30.13 419.63 18.2C440.3345 6.275 463.809 0 487.702 0C511.595 0 535.0699999999999 6.275 555.7750000000001 18.2C576.48 30.13 593.685 47.285 605.675 67.9500000000001C618.2750000000001 89.67 610.88 117.4899999999999 589.1650000000001 130.09C567.445 142.685 539.625 135.295 527.025 113.5749999999999C523.03 106.6850000000001 517.2950000000001 100.965 510.395 96.9900000000001C503.49 93.015 495.6665 90.925 487.702 90.925C479.7375 90.925 471.913 93.015 465.0115000000001 96.9900000000001C458.11 100.965 452.374 106.6850000000001 448.3775 113.5749999999999zM0 1000H1000V0H0V1000z" />
    <glyph glyph-name="binance"
      unicode="&#xEA32;"
      horiz-adv-x="1062.5" d="M531.25 1000H531.25A520.4081632653061 499.9999999999999 0 0 0 1051.6581632653063 500V500A520.4081632653061 499.9999999999999 0 0 0 531.25 0H531.25A520.4081632653061 499.9999999999999 0 0 0 10.8418367346939 500V500A520.4081632653061 499.9999999999999 0 0 0 531.25 1000z" />
    <glyph glyph-name="binanceCustomIcon"
      unicode="&#xEA33;"
      horiz-adv-x="1000" d="M500 1000H500A500 500 0 0 0 1000 500V500A500 500 0 0 0 500 0H500A500 500 0 0 0 0 500V500A500 500 0 0 0 500 1000zM499.9944444444445 636.9916666666666L402.8944444444445 539.8944444444444L346.3972222222223 596.3944444444444L499.9944444444445 750L653.6444444444444 596.3444444444444L597.1444444444444 539.8444444444444L499.9944444444445 636.9916666666666zM306.5 556.5083333333333L249.9994444444445 500.0083333333333L306.4972222222222 443.5111111111111L363 500.0111111111111L306.5 556.5083333333333zM402.8944444444445 460.1055555555556L499.9944444444445 363.0083333333334L597.1416666666667 460.1527777777777L653.6722222222222 403.6833333333333L653.6444444444444 403.6527777777779L499.9944444444445 250L346.3916666666667 403.5999999999999L346.3138888888889 403.6805555555556L402.8944444444445 460.1055555555556zM693.5027777777779 556.4777777777778L637 499.9777777777777L693.5 443.4777777777778L750 499.9805555555556L693.5027777777779 556.4777777777778zM557.3083333333333 500.0305555555556H557.3333333333334L500 557.3611111111111L457.6305555555555 514.9916666666667H457.6277777777777L452.7611111111111 510.1222222222222L442.7194444444445 500.0805555555556L442.6416666666667 500.0027777777777L442.7194444444445 499.9194444444444L500 442.6361111111111L557.3333333333334 499.9694444444444L557.3611111111112 500.0027777777777L557.3083333333333 500.0305555555556z" />
    <glyph glyph-name="bitcoin"
      unicode="&#xEA34;"
      horiz-adv-x="1062.5" d="M531.25 984.8484848484848H531.25A531.25 484.8484848484849 0 0 0 1062.5 500V500A531.25 484.8484848484849 0 0 0 531.25 15.1515151515151H531.25A531.25 484.8484848484849 0 0 0 0 500V500A531.25 484.8484848484849 0 0 0 531.25 984.8484848484848zM383.7384765625 746.8887878787879L482.2787109375 722.7915151515151L507.0283203125 807.090303030303L563.3375000000001 793.320303030303L538.587890625 709.0215151515151L580.8189453125 698.6939393939394L605.5685546875 782.9927272727273L661.8777343749999 769.2227272727273L637.1281250000001 684.9242424242424C791.9775390625 647.0575757575757 742.4783203124999 478.4575757575758 655.9509765625 492.0878787878789C770.63125 471.5727272727272 732.786328125 239.8909090909091 521.6310546875001 291.5272727272727L496.8814453125 207.2303030303029L440.572265625 221L465.321875 305.3000000000001L423.0908203125 315.6272727272728L398.3412109375 231.3272727272728L342.03203125 245.0969696969697L366.781640625 329.3969696969698L268.2417382812501 353.4939393939394L298.81849609375 406.2515151515152L326.97275390625 399.3666666666667C342.5234375 395.5636363636363 358.8195312500001 405.0606060606061 363.3783203125 420.5787878787879L429.3761718750001 645.3787878787878C433.931640625 660.8969696969697 425.019921875 676.560606060606 409.4708984375 680.3606060606061L367.23984375 690.6909090909091L383.7384765625 746.8887878787879zM522.0892578125 652.821212121212L489.088671875 540.4242424242425C489.088671875 540.4242424242425 613.719921875 502.4151515151515 632.2837890625 565.6393939393939C650.8443359375 628.8636363636364 522.0892578125 652.821212121212 522.0892578125 652.821212121212zM476.7138671875 498.2727272727273L439.62265625 371.9363636363636C439.62265625 371.9363636363636 594.4388671874999 333.9575757575758 612.9994140625 397.1818181818183C631.56328125 460.4060606060606 476.7138671875 498.2727272727273 476.7138671875 498.2727272727273z" />
    <glyph glyph-name="bitcoinCustomIcon"
      unicode="&#xEA35;"
      horiz-adv-x="1000" d="M500 1000H500A500 500 0 0 0 1000 500V500A500 500 0 0 0 500 0H500A500 500 0 0 0 0 500V500A500 500 0 0 0 500 1000zM361.1666666666667 754.6163888888889L453.9111111111112 729.7658333333334L477.2027777777778 816.6991666666667L530.2 802.4988888888889L506.9055555555556 715.5666666666666L546.6527777777778 704.9166666666667L569.9472222222222 791.848611111111L622.9444444444445 777.6483333333333L599.65 690.713888888889C745.3888888888889 651.6638888888888 698.8027777777778 477.7972222222222 617.3666666666667 491.8527777777778C725.3000000000001 470.6972222222222 689.6833333333334 231.775 490.9472222222222 285.025L467.6527777777778 198.0916666666666L414.6555555555556 212.2944444444445L437.95 299.2277777777778L398.2027777777778 309.8777777777778L374.9083333333334 222.9444444444445L321.9111111111112 237.1444444444444L345.2055555555556 324.0777777777777L252.4627777777778 348.9277777777777L281.2416666666667 403.3333333333333L307.7388888888889 396.2333333333333C322.3722222222222 392.3111111111112 337.7138888888889 402.1055555555555 342.0027777777778 418.1111111111111L404.1194444444444 649.9333333333334C408.4055555555556 665.9361111111111 400.0194444444445 682.0888888888888 385.3861111111111 686.0111111111112L345.6388888888889 696.661111111111L361.1666666666667 754.6163888888889zM491.3777777777777 657.6111111111111L460.3194444444445 541.7C460.3194444444445 541.7 577.6194444444444 502.5027777777777 595.088888888889 567.7027777777778C612.5611111111111 632.9027777777778 491.3777777777777 657.6111111111111 491.3777777777777 657.6111111111111zM448.6722222222223 498.2333333333333L413.7638888888889 367.9472222222222C413.7638888888889 367.9472222222222 559.4722222222222 328.7805555555555 576.9416666666667 393.9805555555555C594.4111111111112 459.1805555555555 448.6722222222223 498.2333333333333 448.6722222222223 498.2333333333333z" />
    <glyph glyph-name="blog-post"
      unicode="&#xEA36;"
      horiz-adv-x="1000" d="M400 1000H600A400 400 0 0 0 1000 600V400A400 400 0 0 0 600 0H400A400 400 0 0 0 0 400V600A400 400 0 0 0 400 1000zM457.8125 630.0775C440.315 630.0775 426.1725 615.935 426.1725 598.4375V528.125C426.1725 510.6525 440.3400000000001 496.485 457.8125 496.485H626.5625C644.035 496.485 658.2025 510.6525 658.2025 528.125V598.4375C658.2025 615.935 644.06 630.0775 626.5625 630.0775H457.8125zM461.3275 531.64V594.9225H623.0475V531.64H461.3275zM443.75 461.3275C434.075 461.3275 426.1725 453.425 426.1725 443.75C426.1725 434.08 434.0300000000001 426.1725 443.75 426.1725H514.0625C523.7775 426.1725 531.64 434.035 531.64 443.75C531.64 453.47 523.7325000000001 461.3275 514.0625 461.3275H443.75zM570.3125 461.3275C560.6375 461.3275 552.735 453.425 552.735 443.75C552.735 434.08 560.5925 426.1725 570.3125 426.1725H640.625C650.34 426.1725 658.2025 434.035 658.2025 443.75C658.2025 453.47 650.2950000000001 461.3275 640.625 461.3275H570.3125zM443.75 405.0775C434.075 405.0775 426.1725 397.175 426.1725 387.5C426.1725 377.83 434.0300000000001 369.9225 443.75 369.9225H514.0625C523.7775 369.9225 531.64 377.785 531.64 387.5C531.64 397.2200000000001 523.7325000000001 405.0775 514.0625 405.0775H443.75zM570.3125 405.0775C560.5975 405.0775 552.735 397.2150000000001 552.735 387.5C552.735 377.785 560.5975 369.9225 570.3125 369.9225H640.625C650.34 369.9225 658.2025 377.785 658.2025 387.5C658.2025 397.2200000000001 650.2950000000001 405.0775 640.625 405.0775H570.3125zM401.5625 700.39C376.3275 700.39 355.86 679.8924999999999 355.86 654.6875V359.375C355.86 345.7975 344.8125 334.765 331.25 334.765C317.6875 334.765 306.64 345.7975 306.64 359.375V626.5625C306.64 636.2325 298.78 644.14 289.0625 644.14C279.3450000000001 644.14 271.485 636.2325 271.485 626.5625V359.375C271.485 326.4275 298.2825000000001 299.61 331.25 299.61H654.6875C695.3975 299.61 728.515 332.7175000000001 728.515 373.4375V654.6875C728.515 679.8924999999999 708.0475 700.39 682.8125 700.39H401.5625zM391.015 654.6875C391.015 660.4875 395.7675 665.235 401.5625 665.235H682.8125C688.6075 665.235 693.36 660.4875 693.36 654.6875V373.4375C693.36 352.115 676.01 334.765 654.6875 334.765H385.7200000000001C389.1375 342.265 391.015 350.5849999999999 391.015 359.375V654.6875z" />
    </font>
</defs>
</svg>
