<svg width="30" height="30" viewBox="0 0 30 30" fill="none" xmlns="http://www.w3.org/2000/svg">
<path d="M16.125 21C16.125 21.6562 15.6094 22.125 15 22.125C14.3438 22.125 13.875 21.6562 13.875 21V18C13.875 17.3906 14.3438 16.875 15 16.875C15.6094 16.875 16.125 17.3906 16.125 18V21ZM15 3C18.2812 3 21 5.71875 21 9V12H22.5C24.1406 12 25.5 13.3594 25.5 15V24C25.5 25.6875 24.1406 27 22.5 27H7.5C5.8125 27 4.5 25.6875 4.5 24V15C4.5 13.3594 5.8125 12 7.5 12H9V9C9 5.71875 11.6719 3 15 3ZM15 5.25C12.8906 5.25 11.25 6.9375 11.25 9V12H18.75V9C18.75 6.9375 17.0625 5.25 15 5.25ZM7.5 14.25C7.07812 14.25 6.75 14.625 6.75 15V24C6.75 24.4219 7.07812 24.75 7.5 24.75H22.5C22.875 24.75 23.25 24.4219 23.25 24V15C23.25 14.625 22.875 14.25 22.5 14.25H7.5Z" fill="white"/>
</svg>
