<svg width="20" height="12" viewBox="0 0 20 12" fill="none" xmlns="http://www.w3.org/2000/svg">
<g opacity="0.32">
<path d="M3.06951 11.6779C2.86737 11.4757 2.75391 11.2021 2.75391 10.917C2.75391 10.6318 2.86737 10.3583 3.06951 10.1561L7.28057 5.9684L3.06951 1.78073C2.89171 1.57426 2.7988 1.30867 2.80935 1.03703C2.8199 0.765402 2.93313 0.507731 3.12642 0.315515C3.31971 0.123298 3.57882 0.0106917 3.85197 0.000199338C4.12512 -0.010292 4.39219 0.0821028 4.59982 0.25892L9.58145 5.21289C9.7836 5.41511 9.89706 5.68866 9.89706 5.9738C9.89706 6.25893 9.7836 6.53248 9.58145 6.7347L4.59765 11.6887C4.39296 11.8876 4.11754 11.9981 3.83134 11.9961C3.54515 11.994 3.27133 11.8797 3.06951 11.6779Z" fill="#23F7DD"/>
</g>
<path d="M10.0656 11.6779C9.86346 11.4757 9.75 11.2021 9.75 10.917C9.75 10.6318 9.86346 10.3583 10.0656 10.1561L14.2767 5.9684L10.0656 1.78073C9.8878 1.57426 9.79489 1.30867 9.80544 1.03703C9.81599 0.765402 9.92923 0.507731 10.1225 0.315515C10.3158 0.123298 10.5749 0.0106917 10.8481 0.000199347C11.1212 -0.010292 11.3883 0.0821028 11.5959 0.25892L16.5775 5.21289C16.7797 5.41511 16.8932 5.68866 16.8932 5.9738C16.8932 6.25893 16.7797 6.53248 16.5775 6.7347L11.5937 11.6887C11.3891 11.8876 11.1136 11.9981 10.8274 11.9961C10.5412 11.994 10.2674 11.8797 10.0656 11.6779Z" fill="#23F7DD"/>
</svg>
