<svg width="20" height="12" viewBox="0 0 20 12" fill="none" xmlns="http://www.w3.org/2000/svg">
<g opacity="0.32">
<path d="M16.9305 0.318215C17.1326 0.520435 17.2461 0.793985 17.2461 1.07912C17.2461 1.36425 17.1326 1.6378 16.9305 1.84002L12.7194 6.0277L16.9305 10.2154C17.1083 10.4218 17.2012 10.6874 17.1907 10.9591C17.1801 11.2307 17.0669 11.4884 16.8736 11.6806C16.6803 11.8728 16.4212 11.9854 16.148 11.9959C15.8749 12.0064 15.6078 11.914 15.4002 11.7372L10.4185 6.7832C10.2164 6.58098 10.1029 6.30743 10.1029 6.0223C10.1029 5.73716 10.2164 5.46361 10.4185 5.26139L15.4024 0.307422C15.607 0.108487 15.8825 -0.00199415 16.1687 2.72365e-05C16.4549 0.00204862 16.7287 0.116409 16.9305 0.318215Z" fill="#23F7DD"/>
</g>
<path d="M9.9344 0.318215C10.1365 0.520435 10.25 0.793985 10.25 1.07912C10.25 1.36425 10.1365 1.6378 9.9344 1.84002L5.72334 6.0277L9.9344 10.2154C10.1122 10.4218 10.2051 10.6874 10.1946 10.9591C10.184 11.2307 10.0708 11.4884 9.87748 11.6806C9.68419 11.8728 9.42508 11.9854 9.15193 11.9959C8.87878 12.0064 8.61171 11.914 8.40409 11.7372L3.42245 6.7832C3.22031 6.58098 3.10685 6.30743 3.10685 6.0223C3.10685 5.73716 3.22031 5.46361 3.42245 5.26139L8.40626 0.307422C8.61094 0.108487 8.88636 -0.00199416 9.17256 2.72286e-05C9.45876 0.00204862 9.73257 0.116409 9.9344 0.318215Z" fill="#23F7DD"/>
</svg>
