<svg width="12" height="12" viewBox="0 0 12 12" fill="none" xmlns="http://www.w3.org/2000/svg">
    <path
        d="M0.233531 5.30959C-0.0778437 5.84786 -0.0778437 6.50923 0.233531 7.0475L2.36488 10.7381C2.67625 11.2764 3.24832 11.6071 3.87107 11.6071H8.13135C8.75169 11.6071 9.32616 11.2764 9.63754 10.7381L11.7665 7.0475C12.0778 6.50923 12.0778 5.84786 11.7665 5.30959L9.63512 1.61895C9.32375 1.08068 8.75169 0.75 8.12894 0.75H3.86865C3.24832 0.75 2.67384 1.08068 2.36247 1.61895L0.233531 5.30959ZM3.64176 6.75302C3.75038 6.63474 3.90244 6.56716 4.06175 6.56474C4.22106 6.56233 4.37554 6.6275 4.48657 6.74336L5.42553 7.72335L7.15378 5.64269C7.26481 5.50993 7.42653 5.43269 7.60032 5.43269C7.77411 5.43269 7.93583 5.50993 8.04687 5.64269L9.79926 7.75231L8.46686 10.0623C8.39686 10.183 8.27135 10.2554 8.13135 10.2554H3.86865C3.73107 10.2554 3.60314 10.183 3.53314 10.0623L2.4035 8.10714L3.63934 6.75302H3.64176ZM4.45519 4.82684C3.92175 4.82684 3.48969 4.39478 3.48969 3.86133C3.48969 3.32789 3.92175 2.89583 4.45519 2.89583C4.98864 2.89583 5.4207 3.32789 5.4207 3.86133C5.4207 4.39478 4.98864 4.82684 4.45519 4.82684Z"
        fill="#23F7DD" />
</svg>
