<svg width="16" height="16" viewBox="0 0 16 16" fill="none" xmlns="http://www.w3.org/2000/svg">
    <path d="M7.22765 4.88075C7.22765 5.62094 6.65157 6.16805 5.94032 6.16805C5.22907 6.16805 4.65299 5.62094 4.65299 4.88075C4.65299 4.19848 5.22907 3.59345 5.94032 3.59345C6.65157 3.59345 7.22765 4.19848 7.22765 4.88075ZM3.15325 1.91931C3.5652 1.20261 4.30219 0.760742 5.15827 0.760742H10.8418C11.6689 0.760742 12.4349 1.20261 12.8468 1.91931L15.6886 6.8117C16.1038 7.55833 16.1038 8.44013 15.6886 9.12884L12.8468 14.0785C12.4349 14.7962 11.6689 15.2371 10.8418 15.2371H5.15827C4.30219 15.2371 3.5652 14.7962 3.15325 14.0785L0.310504 9.12884C-0.103501 8.44013 -0.103501 7.55833 0.310504 6.8117L3.15325 1.91931ZM3.02452 10.7701L4.85574 8.76517C5.00057 8.60748 5.20332 8.51737 5.41573 8.51415C5.63136 8.51093 5.83412 8.59783 5.98216 8.7523L7.23409 10.0589L9.53841 7.28478C9.68645 7.10778 9.9053 7.00479 10.1338 7.00479C10.3623 7.00479 10.5811 7.10778 10.726 7.28478L13.2395 10.3099L14.353 8.35646C14.4882 8.14727 14.4882 7.85119 14.353 7.58408L11.5112 2.69169C11.3729 2.4529 11.1186 2.3055 10.8418 2.3055H5.15827C4.88149 2.3055 4.62724 2.4529 4.48886 2.69169L1.64836 7.58408C1.5103 7.85119 1.5103 8.14727 1.64836 8.35646L3.02452 10.7701Z"
          fill="currentColor"/>
</svg>
