<svg xmlns="http://www.w3.org/2000/svg" width="16" height="16" fill="none" viewBox="0 0 16 16">
  <path fill="#ADBFCC" d="M8 0C3.58 0 0 3.58 0 8s3.58 8 8 8 8-3.58 8-8-3.58-8-8-8Zm0 14.452A6.43 6.43 0 0 1 1.548 8 6.45 6.45 0 0 1 8 1.548c3.548 0 6.452 2.904 6.452 6.452A6.45 6.45 0 0 1 8 14.452ZM5.42 7.484a1.04 1.04 0 0 0 1.032-1.032c0-.549-.484-1.033-1.033-1.033a1.04 1.04 0 0 0-1.032 1.033c0 .58.452 1.032 1.032 1.032Zm5.16 0a1.04 1.04 0 0 0 1.033-1.032c0-.549-.484-1.033-1.032-1.033a1.04 1.04 0 0 0-1.033 1.033c0 .58.452 1.032 1.033 1.032Zm.13 2.355A3.542 3.542 0 0 1 8 11.097c-1.065 0-2.065-.452-2.71-1.258a.804.804 0 0 0-1.096-.097c-.323.258-.388.774-.097 1.097C5.065 12 6.484 12.645 8 12.645a5.025 5.025 0 0 0 3.871-1.806c.29-.323.258-.839-.097-1.097-.322-.258-.806-.226-1.064.097Z"/>
</svg>
