<svg width="16" height="16" viewBox="0 0 16 16" fill="none" xmlns="http://www.w3.org/2000/svg">
    <path d="M15 11V1.5C15 0.672813 14.3281 0 13.5 0H3.5C2.12156 0 1 1.12125 1 2.5V13.5C1 14.8781 2.12156 16 3.5 16H14.25C14.6641 16 15 15.6641 15 15.25C15 14.8359 14.6641 14.5 14.25 14.5H14V12.4078C14.5813 12.2 15 11.65 15 11ZM12.5 14.5H3.5C2.94875 14.5 2.5 14.0519 2.5 13.5C2.5 12.9481 2.94875 12.5 3.5 12.5H12.5V14.5ZM13.5 11H12V10.5C12 9.11875 10.8813 8 9.5 8H7.5C6.11875 8 5 9.11875 5 10.5V11H3.5C3.14438 11 2.80625 11.0742 2.5 11.209V2.5C2.5 1.94813 2.94875 1.5 3.5 1.5H13.5V11ZM8.5 7C9.60469 7 10.5 6.10437 10.5 5C10.5 3.89563 9.60469 3 8.5 3C7.39531 3 6.5 3.89563 6.5 5C6.5 6.10437 7.39687 7 8.5 7Z"
          fill="currentColor"/>
</svg>
