<svg width="40" height="40" viewBox="0 0 40 40" fill="none" xmlns="http://www.w3.org/2000/svg">
<rect width="40" height="40" rx="16" fill="url(#paint0_linear_1463_3317)"/>
<g clip-path="url(#clip0_1463_3317)">
<path fill-rule="evenodd" clip-rule="evenodd" d="M19.9996 12C18.6492 12 17.354 12.5365 16.3992 13.4913C15.4443 14.4462 14.9078 15.7413 14.9078 17.0917C14.9078 19.5304 14.3862 21.0449 13.9055 21.9261C13.6642 22.3686 13.4292 22.6588 13.2659 22.8312C13.1841 22.9175 13.1198 22.9748 13.0811 23.007C13.0618 23.0232 13.0488 23.0331 13.0432 23.0372L13.0411 23.0388C12.7803 23.2179 12.665 23.5455 12.7569 23.8491C12.8497 24.1559 13.1325 24.3657 13.453 24.3657H26.5461C26.8666 24.3657 27.1494 24.1559 27.2423 23.8491C27.3342 23.5455 27.2188 23.2179 26.958 23.0388L26.956 23.0372C26.9504 23.0331 26.9374 23.0232 26.918 23.007C26.8793 22.9748 26.815 22.9175 26.7332 22.8312C26.5699 22.6588 26.3349 22.3686 26.0936 21.9261C25.6129 21.0449 25.0913 19.5304 25.0913 17.0917C25.0913 15.7413 24.5549 14.4462 23.6 13.4913C22.6451 12.5365 21.35 12 19.9996 12ZM24.9827 22.9109H15.0164C15.0718 22.8202 15.1273 22.7242 15.1827 22.6227C15.7931 21.5037 16.3626 19.7448 16.3626 17.0917C16.3626 16.1272 16.7458 15.2021 17.4278 14.52C18.1099 13.838 19.035 13.4548 19.9996 13.4548C20.9642 13.4548 21.8892 13.838 22.5713 14.52C23.2534 15.2021 23.6365 16.1272 23.6365 17.0917C23.6365 19.7448 24.206 21.5037 24.8164 22.6227C24.8718 22.7242 24.9274 22.8202 24.9827 22.9109ZM19.174 26.1828C18.9725 25.8353 18.5274 25.717 18.1799 25.9186C17.8324 26.1202 17.7141 26.5653 17.9157 26.9128C18.1075 27.2435 18.3828 27.518 18.7141 27.7088C19.0454 27.8996 19.4209 28 19.8032 28C20.1855 28 20.5611 27.8996 20.8924 27.7088C21.2237 27.518 21.499 27.2435 21.6908 26.9128C21.8924 26.5653 21.7741 26.1202 21.4266 25.9186C21.0791 25.717 20.634 25.8353 20.4324 26.1828C20.3685 26.293 20.2767 26.3845 20.1663 26.4481C20.0559 26.5117 19.9307 26.5452 19.8032 26.5452C19.6758 26.5452 19.5506 26.5117 19.4402 26.4481C19.3298 26.3845 19.238 26.293 19.174 26.1828Z" fill="white"/>
</g>
<defs>
<linearGradient id="paint0_linear_1463_3317" x1="5.1633e-07" y1="2.58823" x2="41.8562" y2="4.79511" gradientUnits="userSpaceOnUse">
<stop stop-color="#27DFDF"/>
<stop offset="0.630208" stop-color="#615EF4"/>
<stop offset="1" stop-color="#4D5BDB"/>
</linearGradient>
<clipPath id="clip0_1463_3317">
<rect width="16" height="16" fill="white" transform="translate(12 12)"/>
</clipPath>
</defs>
</svg>
