<svg width="23" height="14" viewBox="0 0 23 14" fill="none" xmlns="http://www.w3.org/2000/svg">
<path fill-rule="evenodd" clip-rule="evenodd" d="M20.1748 0H2.22308C2.14831 0 2.07341 0 1.99878 0.000435993C1.93569 0.000885197 1.87275 0.00158543 1.80981 0.00330297C1.67253 0.00701552 1.53409 0.0151144 1.39853 0.0394771C1.26081 0.0642627 1.13266 0.104691 1.00763 0.168346C0.884721 0.230851 0.772195 0.312607 0.674679 0.410163C0.57712 0.50772 0.495365 0.620061 0.432873 0.743103C0.369204 0.868127 0.32875 0.996322 0.304136 1.13415C0.279642 1.26974 0.271489 1.40816 0.26779 1.54529C0.266099 1.60823 0.265373 1.67117 0.264962 1.7341C0.264614 1.79393 0.264637 1.85372 0.26466 1.91361L0.264672 1.95856V12.0416L0.26466 12.0865C0.264637 12.1464 0.264614 12.2061 0.264962 12.2661C0.265373 12.329 0.266099 12.3919 0.26779 12.4549C0.271489 12.5919 0.279642 12.7303 0.304136 12.8659C0.32875 13.0037 0.369204 13.1319 0.432873 13.2569C0.495365 13.38 0.57712 13.4924 0.674679 13.5899C0.772195 13.6876 0.884721 13.7693 1.00763 13.8317C1.13266 13.8955 1.26081 13.9359 1.39853 13.9607C1.53409 13.9849 1.67253 13.9931 1.80981 13.9969C1.87275 13.9983 1.93569 13.9991 1.99878 13.9994C2.07341 14 2.14831 14 2.22308 14H20.1748C20.2494 14 20.3243 14 20.3989 13.9994C20.4619 13.9991 20.5248 13.9983 20.588 13.9969C20.725 13.9931 20.8634 13.9849 20.9993 13.9607C21.1369 13.9359 21.265 13.8955 21.3901 13.8317C21.5131 13.7693 21.6253 13.6876 21.723 13.5899C21.8204 13.4924 21.9022 13.38 21.9648 13.2569C22.0286 13.1319 22.0691 13.0037 22.0936 12.8659C22.1181 12.7303 22.126 12.5919 22.1297 12.4549C22.1314 12.3919 22.1323 12.329 22.1326 12.2661C22.1332 12.1911 22.1332 12.1165 22.1332 12.0416V1.95856C22.1332 1.88363 22.1332 1.80889 22.1326 1.7341C22.1323 1.67117 22.1314 1.60823 22.1297 1.54529C22.126 1.40816 22.1181 1.26974 22.0936 1.13415C22.0691 0.996322 22.0286 0.868127 21.9648 0.743103C21.9022 0.620061 21.8204 0.50772 21.723 0.410163C21.6253 0.312607 21.5131 0.230851 21.3901 0.168346C21.265 0.104691 21.1369 0.0642627 20.9993 0.0394771C20.8634 0.0151144 20.725 0.00701552 20.588 0.00330297C20.5248 0.00158543 20.4619 0.000885197 20.3989 0.000435993C20.3243 0 20.2494 0 20.1748 0ZM20.1746 0.47029L20.3954 0.470712C20.4552 0.471135 20.5151 0.471783 20.5752 0.473421C20.6799 0.476248 20.8023 0.481916 20.9164 0.502368C21.0156 0.520231 21.0987 0.547394 21.1786 0.588034C21.2574 0.628079 21.3296 0.680557 21.3926 0.743512C21.4559 0.806889 21.5085 0.879211 21.549 0.958892C21.5894 1.0381 21.6164 1.12088 21.6342 1.22079C21.6546 1.33365 21.6602 1.45639 21.6631 1.56167C21.6647 1.6211 21.6655 1.68053 21.6658 1.74137C21.6663 1.81375 21.6663 1.88609 21.6663 1.9586V1.9622V12.0452V12.0494C21.6663 12.1217 21.6663 12.1938 21.6658 12.2675C21.6655 12.3269 21.6647 12.3864 21.6631 12.4459C21.6602 12.551 21.6546 12.6737 21.6339 12.7879C21.6164 12.8864 21.5895 12.9692 21.5488 13.0488C21.5084 13.1283 21.4559 13.2005 21.3929 13.2635C21.3295 13.3269 21.2575 13.3793 21.1778 13.4197C21.0985 13.4601 21.0155 13.4872 20.9173 13.5049C20.8009 13.5257 20.6734 13.5314 20.5773 13.534C20.5169 13.5353 20.4567 13.5362 20.3951 13.5364C20.3235 13.537 20.2516 13.537 20.1799 13.537H20.1795H20.1746H2.2229H2.21998H2.21962C2.14716 13.537 2.07454 13.537 2.00076 13.5364C1.9405 13.5362 1.88037 13.5354 1.82224 13.534C1.724 13.5314 1.59638 13.5257 1.48092 13.5051C1.38187 13.4872 1.29884 13.4601 1.21856 13.4191C1.13957 13.3791 1.06765 13.3268 1.00422 13.2633C0.941282 13.2004 0.888976 13.1284 0.848534 13.0488C0.808053 12.9693 0.780968 12.8863 0.76316 12.7865C0.742575 12.6726 0.73692 12.5504 0.734094 12.446C0.732481 12.3862 0.731807 12.3264 0.731424 12.267L0.731133 12.0916L0.731146 12.0452V1.9622L0.731133 1.91588L0.73141 1.74081C0.731807 1.68103 0.732481 1.62126 0.734094 1.56153C0.73692 1.45701 0.742574 1.33477 0.76333 1.21985C0.780982 1.12104 0.808053 1.03799 0.848745 0.958073C0.88887 0.879079 0.941269 0.806969 1.00454 0.74371C1.06756 0.680663 1.13971 0.628251 1.21921 0.587823C1.29862 0.547381 1.38182 0.520231 1.48087 0.502408C1.59499 0.481903 1.71748 0.476248 1.82238 0.473408C1.88218 0.471783 1.94198 0.471135 2.00133 0.470726L2.2229 0.47029H20.1746ZM6.51574 3.83535C6.54925 4.15669 6.42219 4.47116 6.23494 4.70536C6.04095 4.93299 5.73354 5.11347 5.42585 5.08679C5.38573 4.77891 5.53962 4.45128 5.7135 4.25057C5.90715 4.01618 6.24164 3.84898 6.51574 3.83535ZM5.79349 5.30415C5.99335 5.22541 6.24038 5.12808 6.51217 5.14427C6.68557 5.15769 7.18573 5.21107 7.50584 5.68451C7.50424 5.68573 7.5007 5.68804 7.49546 5.69147C7.41327 5.74526 6.91271 6.07282 6.91904 6.71878C6.92525 7.48841 7.55309 7.77698 7.63668 7.8154L7.63669 7.8154C7.63936 7.81663 7.64147 7.8176 7.64298 7.81832C7.64462 7.8191 7.64557 7.81959 7.64578 7.8198L7.64393 7.8257C7.62761 7.87811 7.5191 8.22672 7.27249 8.58708C7.04575 8.92085 6.81228 9.24778 6.43882 9.25446C6.26305 9.25772 6.14445 9.2069 6.02104 9.15403C5.89161 9.09857 5.75689 9.04085 5.54536 9.04085C5.32349 9.04085 5.18228 9.10042 5.04649 9.1577C4.9292 9.20718 4.81596 9.25494 4.6583 9.26113C4.29823 9.27432 4.02497 8.90718 3.79823 8.57373C3.33132 7.89975 2.9779 6.67222 3.45803 5.84468C3.69147 5.43101 4.1183 5.17092 4.57831 5.16416C4.77914 5.16048 4.97136 5.23645 5.13909 5.30273C5.26653 5.3531 5.37983 5.39788 5.47201 5.39788C5.55561 5.39788 5.66476 5.35487 5.79349 5.30416L5.79349 5.30415ZM10.4027 4.21544C11.3739 4.21544 12.0502 4.8849 12.0502 5.85958C12.0502 6.83774 11.36 7.51067 10.3783 7.51067H9.30303V9.22071H8.52612V4.21544L10.4027 4.21544ZM9.30303 6.85855H10.1945C10.8709 6.85855 11.2559 6.49438 11.2559 5.86306C11.2559 5.2318 10.8709 4.87105 10.198 4.87105H9.30303V6.85855ZM13.609 7.10514C12.7417 7.15371 12.2526 7.54564 12.2526 8.18392C12.2526 8.83946 12.7522 9.28345 13.4667 9.28345C13.9454 9.28345 14.4067 9.0268 14.6183 8.62095H14.6356V9.22103H15.3536V6.70625C15.3536 5.97437 14.7882 5.50609 13.9037 5.50609C13.0019 5.50609 12.44 5.99169 12.3984 6.65078H13.106C13.1718 6.32468 13.4424 6.11661 13.876 6.11661C14.3338 6.11661 14.6079 6.35941 14.6079 6.76526V7.04619L13.609 7.10514ZM14.6079 7.56652V7.85441C14.6079 8.32958 14.1985 8.69033 13.6748 8.69033C13.2724 8.69033 13.0088 8.48219 13.0088 8.16312C13.0088 7.85094 13.262 7.65323 13.7094 7.62198L14.6079 7.56652ZM16.0318 10.5632V9.95616C16.0872 9.97001 16.2121 9.97001 16.2746 9.97001C16.6214 9.97001 16.8088 9.82436 16.9232 9.44975C16.9232 9.44567 16.9458 9.3702 16.9646 9.30767C16.9778 9.26346 16.9891 9.22572 16.9891 9.22428L15.6711 5.57177H16.4827L17.4054 8.54097H17.4192L18.342 5.57177H19.1328L17.766 9.41155C17.454 10.2961 17.0932 10.5805 16.3371 10.5805C16.2746 10.5805 16.0872 10.5736 16.0318 10.5632Z" fill="#ADBFCC"/>
</svg>
