<svg width="17" height="16" fill="none" xmlns="http://www.w3.org/2000/svg"><path d="M9.045 4.365c-.023-.022-.067-.022-.112 0l-4.23 1.603L9 7.66l4.274-1.692-4.23-1.603zm-4.676 7.28c0 .09.045.156.112.178l3.985 1.514V8.595L4.369 6.992v4.653zm5.165 1.692l3.963-1.514a.194.194 0 00.134-.178V6.992L9.534 8.595v4.742zm-.98-9.974a1.17 1.17 0 01.869 0l4.453 1.692c.49.179.823.646.823 1.18v5.41c0 .535-.334.98-.823 1.18l-4.453 1.692a1.17 1.17 0 01-.868 0l-4.453-1.692c-.49-.2-.801-.645-.801-1.18v-5.41c0-.534.311-1.001.801-1.18l4.453-1.692z" fill="#000"/><path d="M9.045 4.365l-.177.177.038.038.05.02.089-.235zm-.112 0l.089.234.012-.004.011-.006-.112-.224zm-4.23 1.603l-.088-.234-.605.23.602.237.091-.233zM9 7.66l-.092.233.092.036.092-.036L9 7.66zm4.274-1.692l.092.233.6-.238-.603-.229-.089.234zm-8.793 5.855l.089-.234-.01-.003-.08.237zm3.985 1.514l-.09.234.34.129v-.363h-.25zm0-4.742h.25v-.17l-.16-.063-.09.233zM4.369 6.992l.091-.233-.34-.133v.366h.25zm5.165 6.345h-.25v.363l.34-.13-.09-.233zm3.963-1.514l-.08-.237-.01.004.09.233zm.134-4.83h.25v-.367l-.341.133.09.233zM9.534 8.594l-.09-.233-.16.063v.17h.25zm-.98-5.232l.09.234.007-.003-.096-.23zm.869 0l-.096.231.007.003.089-.234zm4.453 1.692l-.09.234.004.001.086-.235zm0 7.77l.088.234.006-.002-.095-.232zm-4.453 1.692l-.089-.234-.007.003.096.231zm-.868 0l.09-.233h-.001l-.09.233zm-4.453-1.692l-.094.232.005.002.09-.234zm0-7.77l.086.235h.003l-.089-.235zm5.12-.866a.315.315 0 00-.225-.09.395.395 0 00-.176.043l.224.447a.107.107 0 01-.048.01.186.186 0 01-.13-.057l.354-.353zm-.377-.057l-4.23 1.602.177.468 4.23-1.603-.177-.467zM4.612 6.2l4.296 1.692.184-.465-4.297-1.692-.183.465zm4.48 1.692L13.366 6.2l-.184-.465-4.274 1.692.184.465zm4.271-2.159l-4.23-1.602-.177.467 4.23 1.603.177-.468zm-9.244 5.911c0 .172.092.352.283.415l.158-.474a.098.098 0 01.05.039c.01.014.01.023.01.02h-.5zm.273.412l3.985 1.514.177-.468L4.57 11.59l-.177.467zm4.324 1.28V8.595h-.5v4.742h.5zm-.16-4.975L4.46 6.76l-.182.466 4.097 1.603.182-.466zM4.12 6.992v4.653h.5V6.992h-.5zm5.505 6.579l3.962-1.514-.178-.467-3.963 1.514.179.467zm3.952-1.51a.444.444 0 00.305-.416h-.5c0-.02.008-.036.014-.044a.045.045 0 01.023-.015l.158.474zm.305-.416V6.992h-.5v4.653h.5zM13.54 6.76L9.442 8.362l.182.466 4.097-1.603-.182-.466zM9.284 8.595v4.742h.5V8.595h-.5zm-.633-5a.921.921 0 01.676 0l.192-.462a1.42 1.42 0 00-1.06 0l.192.461zm.683.002l4.453 1.692.177-.467L9.512 3.13l-.178.467zM13.79 5.29c.392.143.66.517.66.945h.5c0-.64-.401-1.2-.99-1.415l-.17.47zm.66.945v5.41h.5v-5.41h-.5zm0 5.41c0 .422-.263.783-.67.949l.19.463c.573-.235.98-.765.98-1.412h-.5zm-.663.946l-4.453 1.692.178.468 4.452-1.692-.177-.468zm-4.46 1.695a.92.92 0 01-.683-.002l-.179.466a1.42 1.42 0 001.054-.002l-.192-.462zm-.683-.003L4.19 12.591l-.178.468 4.453 1.692.178-.468zm-4.447-1.69c-.4-.163-.646-.519-.646-.948h-.5c0 .64.376 1.174.957 1.412l.189-.463zm-.646-.948v-5.41h-.5v5.41h.5zm0-5.41c0-.436.252-.805.637-.945l-.171-.47c-.595.217-.966.783-.966 1.415h.5zm.64-.946l4.453-1.692-.178-.467-4.453 1.692.178.467z" fill="#000"/><path fill-rule="evenodd" clip-rule="evenodd" d="M9 0a1 1 0 00-1 1v3h2V1a1 1 0 00-1-1zM5.6 12.668l-2.1-1.146-2.01 1.196a1.006 1.006 0 001.017 1.736l3.093-1.786z" fill="#000"/><path d="M14.4 11.586l-2 1.146 3.1 1.79a.999.999 0 10.997-1.732L14.4 11.586z" fill="#000"/></svg>