<svg width="16" height="16" viewBox="0 0 16 16" fill="none" xmlns="http://www.w3.org/2000/svg">
  <path
    d="M6 14.25C6 14.6656 5.66563 15 5.25 15H3C1.34312 15 0 13.6569 0 12V4C0 2.34312 1.34312 1 3 1H5.25C5.66563 1 6 1.33562 6 1.75C6 2.16406 5.66563 2.5 5.25 2.5H3C2.175 2.5 1.5 3.175 1.5 4V12C1.5 12.825 2.175 13.5 3 13.5H5.25C5.66563 13.5 6 13.8344 6 14.25ZM15.7969 7.4875L11.825 3.2375C11.5408 2.93475 11.0662 2.92125 10.7653 3.20528C10.4636 3.48847 10.4491 3.96309 10.7331 4.26497L13.5125 7.25H5.72188C5.33438 7.25 5 7.5875 5 8C5 8.4125 5.33594 8.75 5.72188 8.75H13.4844L10.6744 11.7362C10.3902 12.038 10.4048 12.5125 10.7066 12.7959C10.8812 12.9312 11.0656 13 11.2219 13C11.4211 13 11.6203 12.9209 11.7678 12.7637L15.7397 8.51369C16.0688 8.225 16.0688 7.775 15.7969 7.4875Z"
    fill="currentColor" />
</svg>