<svg width="22" height="22" viewBox="0 0 22 22" fill="none" xmlns="http://www.w3.org/2000/svg">
<rect x="1" y="1" width="20" height="20" rx="10" fill="#1F1F1F"/>
<path fill-rule="evenodd" clip-rule="evenodd" d="M10.3584 6.64175L10.3584 13.81L7.22664 10.6783C6.97636 10.428 6.56564 10.428 6.31536 10.6783C6.06508 10.9286 6.06508 11.3329 6.31536 11.5832L10.5445 15.8123C10.7947 16.0626 11.199 16.0626 11.4493 15.8123L15.6848 11.5896C15.9351 11.3393 15.9351 10.935 15.6848 10.6847C15.4346 10.4345 15.0303 10.4345 14.78 10.6847L11.6419 13.81L11.6419 6.64175C11.6419 6.28879 11.3531 6 11.0001 6C10.6471 6 10.3584 6.28879 10.3584 6.64175Z" fill="#23F7DD"/>
<rect x="1" y="1" width="20" height="20" rx="10" stroke="black"/>
</svg>
