<svg width="22" height="22" viewBox="0 0 22 22" fill="none" xmlns="http://www.w3.org/2000/svg">
<rect x="1" y="1" width="20" height="20" rx="10" fill="#1F1F1F"/>
<path fill-rule="evenodd" clip-rule="evenodd" d="M11.5879 14.9949V8.42396L14.4586 11.2947C14.688 11.5241 15.0645 11.5241 15.294 11.2947C15.5234 11.0653 15.5234 10.6947 15.294 10.4652L11.4173 6.58857C11.1879 6.35915 10.8173 6.35915 10.5878 6.58857L6.70527 10.4594C6.47585 10.6888 6.47585 11.0594 6.70527 11.2888C6.9347 11.5182 7.3053 11.5182 7.53473 11.2888L10.4114 8.42396V14.9949C10.4114 15.3184 10.6761 15.5832 10.9996 15.5832C11.3232 15.5832 11.5879 15.3184 11.5879 14.9949Z" fill="#23F7DD"/>
<rect x="1" y="1" width="20" height="20" rx="10" stroke="black"/>
</svg>
