<svg xmlns="http://www.w3.org/2000/svg" width="16" height="16" fill="none" viewBox="0 0 16 16">
  <path fill="currentColor" d="M13.722 13.5h-1.938l2.559-3.29a.75.75 0 0 0 .082-.79.768.768 0 0 0-.703-.42H10.25c-.414 0-.722.336-.722.75s.336.75.722.75h1.967l-2.558 3.29a.75.75 0 0 0 .563 1.21h3.472c.414 0 .722-.336.722-.75s-.254-.75-.694-.75Zm1.2-7.584-2.222-4.5c-.254-.51-1.088-.51-1.342 0l-2.222 4.5a.75.75 0 1 0 1.342.67l.11-.336h2.823l.167.335a.747.747 0 0 0 1.006.336.75.75 0 0 0 .338-1.005ZM11.337 4.75 12 3.427l.663 1.323h-1.325ZM6.45 10.472l-1.7 1.869V1.75a.75.75 0 1 0-1.5 0v10.59L1.55 10.5a.746.746 0 0 0-1.058-.042.75.75 0 0 0-.042 1.06l2.971 3.254a.774.774 0 0 0 1.102 0l2.972-3.253a.75.75 0 0 0-.042-1.06c-.25-.286-.725-.264-1.003.014Z"/>
</svg>
