<svg width="16" height="10" viewBox="0 0 16 10" fill="none" xmlns="http://www.w3.org/2000/svg">
<path  fill="currentColor" fill-rule="evenodd" d="M9.75 1.28125C9.75 0.925781 10.0234 0.625 10.4062 0.625H15.2188C15.5742 0.625 15.875 0.925781 15.875 1.28125V6.09375C15.875 6.47656 15.5742 6.75 15.2188 6.75C14.8359 6.75 14.5625 6.47656 14.5625 6.09375V2.86719L9.33984 8.08984C9.06641 8.36328 8.65625 8.36328 8.41016 8.08984L5.375 5.05469L1.24609 9.18359C0.972656 9.45703 0.5625 9.45703 0.316406 9.18359C0.0429688 8.9375 0.0429688 8.52734 0.316406 8.28125L4.91016 3.66016C5.15625 3.41406 5.56641 3.41406 5.8125 3.66016L8.84766 6.69531L13.6328 1.9375H10.4062C10.0234 1.9375 9.75 1.66406 9.75 1.28125Z"/>
</svg>
