<svg width="12" height="14" viewBox="0 0 12 14" fill="none" xmlns="http://www.w3.org/2000/svg">
<path d="M1.40625 0.875H10.5938C10.9492 0.875 11.25 1.17578 11.25 1.53125C11.25 1.91406 10.9492 2.1875 10.5938 2.1875H1.40625C1.02344 2.1875 0.75 1.91406 0.75 1.53125C0.75 1.17578 1.02344 0.875 1.40625 0.875ZM6.46484 4.59375L9.96484 8.3125C10.2109 8.58594 10.2109 8.99609 9.9375 9.24219C9.66406 9.48828 9.25391 9.48828 9.00781 9.21484L6.65625 6.69922V8.96875V12.4688C6.65625 12.8516 6.35547 13.125 6 13.125C5.61719 13.125 5.34375 12.8516 5.34375 12.4688V8.96875V6.69922L2.96484 9.21484C2.71875 9.48828 2.30859 9.48828 2.03516 9.24219C1.76172 8.99609 1.76172 8.58594 2.00781 8.3125L5.50781 4.59375C5.64453 4.45703 5.80859 4.375 6 4.375C6.16406 4.375 6.35547 4.45703 6.46484 4.59375Z" fill="currentColor"/>
</svg>
