<svg xmlns="http://www.w3.org/2000/svg" width="14" height="15" fill="none" viewBox="0 0 14 15">
  <path stroke="currentColor" d="m12.616 10.727-.008.011-.007.012a.25.25 0 0 1-.34.092L8 8.368 7.25 7.93v5.819c0 .15-.124.25-.222.25a.305.305 0 0 1-.194-.086c-.062-.058-.084-.118-.084-.164V7.934L6 8.367l-4.247 2.452-.04.014-.012.005a1.937 1.937 0 0 1-.117.037.25.25 0 0 1-.122-.466L5.75 7.933 6.5 7.5l-.75-.433-4.287-2.476H1.46a.285.285 0 0 1-.115-.342c.104-.134.264-.15.364-.092l.002.001L6 6.633l.75.433V1.25c0-.137.113-.25.25-.25s.25.113.25.25v5.816L8 6.633l4.287-2.475c.131-.076.26-.015.3.066l.007.013.007.013a.25.25 0 0 1-.091.341L8.222 7.067l-.75.433.75.433 4.287 2.476.008.004.008.004a.23.23 0 0 1 .122.142.204.204 0 0 1-.031.168Z"/>
</svg>
