<svg width="40" height="40" viewBox="0 0 40 40" fill="none" xmlns="http://www.w3.org/2000/svg">
<rect width="40" height="40" rx="20" fill="#131313"/>
<path d="M19.75 14.6562L13.5625 24.8125C13.5 24.9062 13.5 24.9688 13.5 25.0625C13.5 25.3125 13.6875 25.5 13.9375 25.5H26.0312C26.2812 25.5 26.5 25.3125 26.5 25.0625C26.5 24.9688 26.4688 24.9062 26.4062 24.8125L20.2188 14.6562C20.1875 14.5625 20.0938 14.5 20 14.5C19.875 14.5 19.8125 14.5625 19.75 14.6562ZM18.4688 13.875C18.7812 13.3438 19.375 13 20 13C20.5938 13 21.1875 13.3438 21.5 13.875L27.6875 24.0312C27.875 24.3438 28 24.6875 28 25.0625C28 26.125 27.125 27 26.0312 27H13.9375C12.875 27 12 26.125 12 25.0625C12 24.6875 12.0938 24.3438 12.2812 24.0312L18.4688 13.875ZM21 23.5C21 24.0625 20.5312 24.5 20 24.5C19.4375 24.5 19 24.0625 19 23.5C19 22.9688 19.4375 22.5 20 22.5C20.5312 22.5 21 22.9688 21 23.5ZM20.75 17.75V20.75C20.75 21.1875 20.4062 21.5 20 21.5C19.5625 21.5 19.25 21.1875 19.25 20.75V17.75C19.25 17.3438 19.5625 17 20 17C20.4062 17 20.75 17.3438 20.75 17.75Z" fill="#F18937"/>
</svg>
