<svg width="40" height="40" viewBox="0 0 40 40" fill="none" xmlns="http://www.w3.org/2000/svg">
<rect width="40" height="40" rx="16" fill="url(#paint0_linear_9357_260067)"/>
<path d="M19.1471 11.4207C19.1875 11.318 19.2941 11.25 19.4118 11.25C19.5294 11.25 19.636 11.318 19.6765 11.4207L20.1949 12.7087L21.5809 13.1913C21.6912 13.23 21.7647 13.3281 21.7647 13.4378C21.7647 13.5476 21.6912 13.6457 21.5809 13.6843L20.1949 14.167L19.6765 15.4547C19.636 15.5573 19.5294 15.6256 19.4118 15.6256C19.2941 15.6256 19.1875 15.5573 19.1471 15.4547L18.6287 14.167L17.2096 13.6843C17.0993 13.6457 17.0588 13.5476 17.0588 13.4378C17.0588 13.3281 17.0993 13.23 17.2096 13.1913L18.6287 12.7087L19.1471 11.4207ZM28.2096 11.7306L29.4816 12.9127C30.1691 13.5534 30.1691 14.5926 29.4816 15.2325L15.4596 28.2706C14.7721 28.9098 13.6537 28.9098 12.9647 28.2706L11.6934 27.0878C11.004 26.4485 11.004 25.4093 11.6934 24.7666L25.7132 11.7306C26.4044 11.0898 27.5221 11.0898 28.2096 11.7306ZM26.9632 12.8909L22.9301 16.6409L24.1985 17.8237L28.2022 14.073L26.9632 12.8909ZM14.2132 27.0809L22.9522 18.9826L21.6801 17.8032L12.9412 25.9289L14.2132 27.0809ZM10.2754 15.2564L12.3529 14.5317L13.132 12.6C13.1941 12.4458 13.3526 12.3439 13.5294 12.3439C13.7059 12.3439 13.864 12.4458 13.9265 12.6L14.7059 14.5317L16.7831 15.2564C16.9485 15.3146 17.0588 15.4616 17.0588 15.6256C17.0588 15.7897 16.9485 15.9367 16.7831 15.9948L14.7059 16.7195L13.9265 18.651C13.864 18.8048 13.7059 18.9074 13.5294 18.9074C13.3526 18.9074 13.1941 18.8048 13.132 18.651L12.3529 16.7195L10.2754 15.9948C10.1097 15.9367 10 15.7897 10 15.6256C10 15.4616 10.1097 15.3146 10.2754 15.2564ZM23.2169 24.0077L25.2941 23.283L26.0735 21.3516C26.136 21.167 26.2941 21.0952 26.4706 21.0952C26.6471 21.0952 26.8051 21.167 26.8676 21.3516L27.6471 23.283L29.7243 24.0077C29.8897 24.0658 30 24.2128 30 24.3769C30 24.541 29.8897 24.688 29.7243 24.7461L27.6471 25.4708L26.8676 27.4023C26.8051 27.5561 26.6471 27.6587 26.4706 27.6587C26.2941 27.6587 26.136 27.5561 26.0735 27.4023L25.2941 25.4708L23.2169 24.7461C23.0184 24.688 22.9412 24.541 22.9412 24.3769C22.9412 24.2128 23.0184 24.0658 23.2169 24.0077Z" fill="white"/>
<defs>
<linearGradient id="paint0_linear_9357_260067" x1="0.194175" y1="31.6667" x2="40" y2="31.6667" gradientUnits="userSpaceOnUse">
<stop stop-color="#61DADA"/>
<stop offset="0.48026" stop-color="#7EAAFF"/>
<stop offset="1" stop-color="#A67CFF"/>
</linearGradient>
</defs>
</svg>
