<svg width="43" height="43" viewBox="0 0 43 43" fill="none" xmlns="http://www.w3.org/2000/svg">
<g opacity="0.32">
<path d="M4.07824 22.2771C4.07835 22.8491 4.30481 23.3966 4.70817 23.8C5.11152 24.2033 5.65899 24.4298 6.231 24.4299L18.1119 24.3968L18.0788 36.2777C18.1193 36.8213 18.3636 37.3284 18.7628 37.6977C19.162 38.0671 19.6866 38.2714 20.232 38.2699C20.7773 38.2683 21.3031 38.0611 21.7044 37.6895C22.1056 37.318 22.3527 36.8095 22.3963 36.2656L22.4354 22.2107C22.4353 21.6387 22.2089 21.0912 21.8055 20.6879C21.4022 20.2845 20.8547 20.0581 20.2827 20.058L6.22468 20.1002C5.65372 20.1083 5.10783 20.3416 4.70583 20.7493C4.30383 21.157 4.07827 21.7062 4.07824 22.2771Z" fill="#23F7DD"/>
</g>
<path d="M12.5646 13.7928C12.5647 14.3648 12.7911 14.9122 13.1945 15.3156C13.5978 15.7189 14.1453 15.9454 14.7173 15.9455L26.5982 15.9124L26.5651 27.7933C26.6057 28.3369 26.8499 28.844 27.2491 29.2133C27.6483 29.5827 28.173 29.787 28.7183 29.7855C29.2636 29.784 29.7895 29.5767 30.1907 29.2052C30.592 28.8336 30.8391 28.3251 30.8826 27.7813L30.9218 13.7263C30.9217 13.1543 30.6952 12.6069 30.2918 12.2035C29.8885 11.8001 29.341 11.5737 28.769 11.5736L14.711 11.6158C14.14 11.6239 13.5942 11.8572 13.1922 12.265C12.7902 12.6727 12.5646 13.2218 12.5646 13.7928Z" fill="#23F7DD"/>
</svg>
