<svg width="18" height="18" viewBox="0 0 18 18" fill="none" xmlns="http://www.w3.org/2000/svg">
  <g clip-path="url(#clip0_13240_6801)">
    <path
      d="M13.4455 1.22266H4.55439C2.71439 1.22266 1.22217 2.71488 1.22217 4.55488V13.446C1.22217 15.286 2.71439 16.7782 4.55439 16.7782H13.4455C15.2855 16.7782 16.7777 15.286 16.7777 13.446V4.55488C16.7777 2.71488 15.2855 1.22266 13.4455 1.22266ZM12.4188 15.1115H5.58217L5.61106 15.0338C5.89217 14.3393 7.15772 13.7338 9.00772 13.7338C10.8577 13.7338 12.1222 14.3393 12.4044 15.0338L12.4199 15.1115H12.4188ZM15.1111 13.446C15.1111 14.1215 14.7055 14.7015 14.1255 14.9627C13.7922 13.0927 11.6977 12.0049 9.00661 12.0049C6.3155 12.0049 4.18995 13.1171 3.87328 14.9627C3.29439 14.7015 2.88883 14.1215 2.88883 13.446V4.55488C2.88883 3.6371 3.6355 2.88932 4.55439 2.88932H13.4455C14.3633 2.88932 15.1111 3.63599 15.1111 4.55488V13.446Z"
      fill="currentColor" />
    <path
      d="M9.00003 5.16895C7.33003 5.16895 5.97559 6.52339 5.97559 8.19339C5.97559 9.86339 7.33003 11.2178 9.00003 11.2178C10.67 11.2178 12.0245 9.86339 12.0245 8.19339C12.0245 6.52339 10.67 5.16895 9.00003 5.16895ZM9.00003 9.55117C8.25114 9.55117 7.64225 8.94228 7.64225 8.19339C7.64225 7.4445 8.25114 6.83561 9.00003 6.83561C9.74892 6.83561 10.3578 7.4445 10.3578 8.19339C10.3578 8.94228 9.74892 9.55117 9.00003 9.55117Z"
      fill="currentColor" />
  </g>
  <defs>
    <clipPath id="clip0_13240_6801">
      <rect width="15.5556" height="15.5556" fill="currentColor" transform="translate(1.22217 1.22266)" />
    </clipPath>
  </defs>
</svg>