<svg width="40" height="40" viewBox="0 0 40 40" fill="none" xmlns="http://www.w3.org/2000/svg">
<rect width="40" height="40" rx="16" fill="url(#paint0_linear_6545_263592)"/>
<g clip-path="url(#clip0_6545_263592)">
<path d="M23.4286 23.375H16.5714C14.0468 23.375 12 25.3898 12 27.875C12 28.4962 12.5118 29 13.1429 29H26.8571C27.4882 29 28 28.4962 28 27.875C28 25.3895 25.9536 23.375 23.4286 23.375ZM22.2857 27.3125L20 25.625L17.7143 27.3125H13.7718C14.0371 26.0293 15.1918 25.0625 16.5714 25.0625H23.4286C24.8082 25.0625 25.9629 26.0304 26.2282 27.3125H22.2857ZM15.1893 21.3324L19.4214 22.25H20.5754L24.8075 21.3328C25.3604 21.213 25.7421 20.72 25.7089 20.1687L25.4623 16.0555C25.3143 13.2215 22.9107 11 20 11C18.0857 11 16.4071 11.9703 15.4286 13.4335V12.125C15.7441 12.125 16 11.8731 16 11.5625C16 11.2518 15.7429 11 15.4286 11H14.8571C14.5414 11 14.2857 11.2518 14.2857 11.5625V20.2812L14.2999 20.2677C14.3164 20.777 14.6711 21.2199 15.1893 21.3324ZM23.775 16.4914L23.804 16.9752C22.9062 17.4645 21.5101 18.5157 21.2079 20.386L20.8571 20.4605V17.0293L23.775 16.4914ZM20 12.6875C21.7693 12.6875 23.2586 13.8772 23.6536 15.5H16.3464C16.7393 13.8807 18.2286 12.6875 20 12.6875ZM16.225 16.4914L19.1429 17.0293V20.4616L18.7929 20.3551C18.4893 18.5164 17.0929 17.4652 16.1964 16.973L16.225 16.4914Z" fill="white"/>
</g>
<defs>
<linearGradient id="paint0_linear_6545_263592" x1="0.194175" y1="31.6667" x2="40" y2="31.6667" gradientUnits="userSpaceOnUse">
<stop stop-color="#61DADA"/>
<stop offset="0.48026" stop-color="#7EAAFF"/>
<stop offset="1" stop-color="#A67CFF"/>
</linearGradient>
<clipPath id="clip0_6545_263592">
<rect width="16" height="18" fill="white" transform="translate(12 11)"/>
</clipPath>
</defs>
</svg>
