<svg width="40" height="40" viewBox="0 0 40 40" fill="none" xmlns="http://www.w3.org/2000/svg">
<rect width="40" height="40" rx="16" fill="url(#paint0_linear_6545_263747)"/>
<path fill-rule="evenodd" clip-rule="evenodd" d="M14.415 26.07C14.5272 25.7959 14.6789 25.54 14.8657 25.3036C15.8325 24.0808 17.7418 23.38 20.0075 23.38H20.0087C22.2763 23.3803 24.1672 24.0671 25.1308 25.296C25.3185 25.5353 25.471 25.7952 25.5842 26.0746C25.6288 26.1846 25.6673 26.2976 25.6995 26.4136C25.7075 26.4422 25.715 26.4711 25.7222 26.5001C25.7292 26.5284 25.7358 26.5569 25.7421 26.5856C25.7509 26.6259 25.7589 26.6665 25.7662 26.7075C25.7932 26.6954 25.8197 26.6827 25.846 26.6693C26.4556 26.3597 26.875 25.7299 26.875 25.0013V24.2908V14.9988C26.875 13.965 26.0338 13.125 25.0013 13.125H14.9988C13.965 13.125 13.125 13.9663 13.125 14.9988V24.2923V25.0013C13.125 25.7114 13.5233 26.3277 14.1069 26.6451C14.1479 26.6674 14.1898 26.6882 14.2325 26.7075C14.2396 26.6663 14.2474 26.6254 14.2561 26.5848C14.2836 26.4562 14.319 26.3309 14.362 26.209C14.3724 26.1797 14.3832 26.1505 14.3945 26.1215C14.4011 26.1043 14.408 26.0871 14.415 26.07ZM16.1875 26.7875C16.1926 26.775 16.1979 26.7625 16.2036 26.75C16.5495 25.9847 17.9603 25.3253 20.0075 25.325H20.0087C22.0566 25.325 23.4667 25.9846 23.8139 26.75C23.8195 26.7625 23.8249 26.775 23.83 26.7875L23.8462 26.8687L23.8475 26.875H23.8462H23.7487H23.6147H23.3925H20.0087H16.4231H16.4037H16.2486H16.155L16.1875 26.7875ZM23.8475 28.75H24.0988H25.0013C25.4284 28.75 25.8389 28.6785 26.2215 28.5468C26.3292 28.5097 26.4348 28.4679 26.5379 28.4215C27.8419 27.8346 28.75 26.5237 28.75 25.0013V14.9988C28.75 12.9288 27.0713 11.25 25.0013 11.25H14.9988C12.9288 11.25 11.25 12.9288 11.25 14.9988V25.0013C11.25 26.5187 12.1522 27.8259 13.4492 28.4157L13.4599 28.4205C13.9294 28.6322 14.4503 28.75 14.9988 28.75H15.9113H16.155H23.8462H23.8475ZM16.5977 19.0924C16.5977 17.2137 18.1214 15.6899 20.0002 15.6899C21.8789 15.6899 23.4027 17.2137 23.4027 19.0924C23.4027 20.9712 21.8789 22.4949 20.0002 22.4949C18.1214 22.4949 16.5977 20.9712 16.5977 19.0924ZM18.4727 19.0924C18.4727 19.9349 19.1577 20.6199 20.0002 20.6199C20.8427 20.6199 21.5277 19.9349 21.5277 19.0924C21.5277 18.2499 20.8427 17.5649 20.0002 17.5649C19.1577 17.5649 18.4727 18.2499 18.4727 19.0924Z" fill="white"/>
<defs>
<linearGradient id="paint0_linear_6545_263747" x1="0.194175" y1="31.6667" x2="40" y2="31.6667" gradientUnits="userSpaceOnUse">
<stop stop-color="#61DADA"/>
<stop offset="0.48026" stop-color="#7EAAFF"/>
<stop offset="1" stop-color="#A67CFF"/>
</linearGradient>
</defs>
</svg>
