<svg width="16" height="13" viewBox="0 0 16 13" fill="none" xmlns="http://www.w3.org/2000/svg">
<path d="M6.85921 0.323855C9.22198 0.0661113 11.0513 0.980338 12.2352 2.99767L12.2795 3.07552L12.3348 3.08448C14.4613 3.43363 15.707 4.59634 15.8962 6.4944L15.9116 6.68666C16.0309 8.64507 14.882 9.9741 12.6735 10.5521C12.3304 10.6419 11.9792 10.6962 11.6254 10.7143L11.3597 10.7211H10.7789C10.3812 10.7211 10.0589 10.3988 10.0589 10.0011C10.0589 9.63407 10.3336 9.33116 10.6886 9.28673L10.7789 9.28112H11.3597C11.68 9.28112 11.9991 9.24007 12.309 9.15897C13.8962 8.74359 14.5483 7.98924 14.4743 6.77422C14.3899 5.38921 13.5579 4.65161 11.7444 4.45733C11.502 4.43136 11.2892 4.28448 11.1789 4.06703C10.2773 2.28868 8.93477 1.54598 7.01537 1.75536C5.12401 1.96168 4.03105 3.06284 3.63044 5.2161C3.58502 5.46019 3.41707 5.66365 3.18601 5.75449C2.01604 6.21443 1.51371 6.80847 1.52014 7.58838C1.52569 8.26041 1.89587 8.75593 2.74649 9.14429C2.90447 9.21643 3.07338 9.26072 3.24577 9.27555L3.3756 9.28112H4.29536C4.693 9.28112 5.01536 9.60348 5.01536 10.0011C5.01536 10.3682 4.74069 10.6711 4.38567 10.7155L4.29536 10.7211H3.37559C2.95213 10.7211 2.53362 10.6301 2.14841 10.4542C0.818681 9.8471 0.0906852 8.87265 0.0801936 7.60026C0.0696947 6.32697 0.775167 5.33841 2.08833 4.66988L2.29475 4.56992L2.31629 4.47852C2.89824 2.09109 4.36523 0.675787 6.63687 0.351798L6.85921 0.323855Z" fill="#ADBFCC"/>
<path d="M10.159 6.99213C10.4402 7.27331 10.4402 7.72919 10.159 8.01037C9.90124 8.26811 9.4967 8.28959 9.21449 8.0748L9.14076 8.01037L7.64987 6.51925L6.15899 8.01037C5.90124 8.26811 5.4967 8.28959 5.21449 8.0748L5.14076 8.01037C4.88301 7.75262 4.86153 7.34808 5.07632 7.06586L5.14076 6.99213L7.14076 4.99213C7.3985 4.73439 7.80305 4.71291 8.08526 4.9277L8.15899 4.99213L10.159 6.99213Z" fill="#ADBFCC"/>
<path d="M7.61111 5.14844C7.97817 5.14844 8.28107 5.42311 8.3255 5.77812L8.33111 5.86844V12.0166C8.33111 12.4142 8.00876 12.7366 7.61111 12.7366C7.24406 12.7366 6.94115 12.4619 6.89672 12.1069L6.89111 12.0166V5.86844C6.89111 5.47079 7.21347 5.14844 7.61111 5.14844Z" fill="#ADBFCC"/>
</svg>
