<svg width="40" height="40" viewBox="0 0 40 40" fill="none" xmlns="http://www.w3.org/2000/svg">
<rect width="40" height="40" rx="16" fill="url(#paint0_linear_5101_300675)"/>
<path d="M18.574 12.2788C21.5275 11.9567 23.8142 13.0994 25.294 15.6211L25.3494 15.7184L25.4185 15.7296C28.0767 16.1661 29.6338 17.6194 29.8703 19.992L29.8895 20.2323C30.0387 22.6804 28.6024 24.3416 25.8419 25.0641C25.413 25.1763 24.9739 25.2442 24.5317 25.2669L24.1996 25.2754H23.4736C22.9766 25.2754 22.5736 24.8725 22.5736 24.3754C22.5736 23.9166 22.917 23.538 23.3607 23.4824L23.4736 23.4754H24.1996C24.6 23.4754 24.9988 23.4241 25.3862 23.3227C27.3702 22.8035 28.1854 21.8606 28.0929 20.3418C27.9874 18.6105 26.9473 17.6885 24.6805 17.4457C24.3775 17.4132 24.1115 17.2296 23.9737 16.9578C22.8466 14.7349 21.1685 13.8065 18.7692 14.0682C16.405 14.3261 15.0388 15.7026 14.538 18.3942C14.4813 18.6993 14.2713 18.9536 13.9825 19.0671C12.52 19.6421 11.8921 20.3846 11.9002 21.3595C11.9071 22.1995 12.3698 22.8189 13.4331 23.3044C13.6306 23.3946 13.8417 23.4499 14.0572 23.4685L14.2195 23.4754H15.3692C15.8663 23.4754 16.2692 23.8784 16.2692 24.3754C16.2692 24.8343 15.9259 25.2129 15.4821 25.2684L15.3692 25.2754H14.2195C13.6902 25.2754 13.167 25.1616 12.6855 24.9418C11.0234 24.1829 10.1134 22.9648 10.1002 21.3743C10.0871 19.7827 10.969 18.547 12.6104 17.7114L12.8684 17.5864L12.8954 17.4722C13.6228 14.4879 15.4565 12.7188 18.2961 12.3138L18.574 12.2788Z" fill="white"/>
<path d="M22.6989 20.6132C23.0504 20.9647 23.0504 21.5345 22.6989 21.886C22.3767 22.2082 21.871 22.235 21.5183 21.9666L21.4261 21.886L19.5625 20.0221L17.6989 21.886C17.3767 22.2082 16.871 22.235 16.5183 21.9666L16.4261 21.886C16.1039 21.5638 16.0771 21.0581 16.3456 20.7054L16.4261 20.6132L18.9261 18.1132C19.2483 17.791 19.754 17.7642 20.1067 18.0327L20.1989 18.1132L22.6989 20.6132Z" fill="white"/>
<path d="M19.5139 18.3125C19.9727 18.3125 20.3513 18.6558 20.4069 19.0996L20.4139 19.2125V26.8977C20.4139 27.3947 20.0109 27.7977 19.5139 27.7977C19.0551 27.7977 18.6764 27.4543 18.6209 27.0106L18.6139 26.8977V19.2125C18.6139 18.7154 19.0168 18.3125 19.5139 18.3125Z" fill="white"/>
<defs>
<linearGradient id="paint0_linear_5101_300675" x1="0" y1="0" x2="42.1211" y2="2.37449" gradientUnits="userSpaceOnUse">
<stop stop-color="#F19B37"/>
<stop offset="1" stop-color="#F36542"/>
</linearGradient>
</defs>
</svg>
