<svg xmlns="http://www.w3.org/2000/svg" width="17" height="12" fill="none" viewBox="0 0 17 12">
  <path fill="currentColor" d="M16.158 5.611A8.93 8.93 0 0 0 8.256.658a8.943 8.943 0 0 0-7.93 4.953.89.89 0 0 0-.083.39.93.93 0 0 0 .083.416 8.915 8.915 0 0 0 7.93 4.926 8.904 8.904 0 0 0 7.902-4.926.879.879 0 0 0 .084-.389.918.918 0 0 0-.084-.417Zm-7.902 4.396A4.007 4.007 0 1 1 12.263 6v.028a4.027 4.027 0 0 1-4.007 4.007v-.028Zm0-6.678a5.52 5.52 0 0 0-.723.112c.169.234.257.517.25.806a1.307 1.307 0 0 1-1.308 1.309 1.327 1.327 0 0 1-.807-.251A2.985 2.985 0 0 0 5.585 6a2.671 2.671 0 1 0 2.671-2.643v-.028Z"/>
</svg>
