<svg xmlns="http://www.w3.org/2000/svg" width="16" height="13" fill="none" viewBox="0 0 16 13">
  <path fill="#ADBFCC" d="M4.59 2.965A3.802 3.802 0 0 1 7.2 1.247V.8a.8.8 0 1 1 1.6 0v.447A3.802 3.802 0 0 1 12 5v.835c0 1.135.387 2.237 1.095 3.125l.372.465c.11.162.168.38.098.575l2.205 1.727a.6.6 0 0 1-.74.945L.23 1.072A.6.6 0 1 1 .97.128l3.62 2.837Zm.953.745 5.724 4.468a6 6 0 0 1-.467-2.343V5c0-1.435-1.165-2.6-2.6-2.6h-.4c-.968 0-1.81.528-2.257 1.31ZM4 5.835v-.282l1.168.92c-.1.97-.43 1.907-.96 2.727H8.63l1.525 1.2H3a.599.599 0 0 1-.467-.975l.372-.465A5.017 5.017 0 0 0 4 5.835ZM9.6 11.2c0 .402-.168.833-.468 1.133-.3.3-.73.467-1.132.467a1.6 1.6 0 0 1-1.133-.468c-.3-.3-.467-.73-.467-1.132h3.2Z"/>
</svg>
