<svg width="20" height="20" viewBox="0 0 20 20" fill="none" xmlns="http://www.w3.org/2000/svg">
<g clip-path="url(#clip0_8008_254091)">
<path fill-rule="evenodd" clip-rule="evenodd" d="M9.99946 0C8.31144 0 6.69256 0.670563 5.49895 1.86417C4.30534 3.05778 3.63478 4.67667 3.63478 6.36468C3.63478 9.41306 2.98279 11.3061 2.38194 12.4076C2.08025 12.9607 1.78649 13.3235 1.58243 13.5389C1.48017 13.6469 1.39981 13.7185 1.35142 13.7588C1.32721 13.779 1.31098 13.7913 1.30398 13.7965L1.30138 13.7985C0.975432 14.0224 0.831191 14.4319 0.946067 14.8113C1.06218 15.1948 1.41562 15.4571 1.81629 15.4571H18.1826C18.5833 15.4571 18.9367 15.1948 19.0529 14.8113C19.1677 14.4319 19.0235 14.0224 18.6975 13.7985L18.6949 13.7965C18.6879 13.7913 18.6717 13.779 18.6475 13.7588C18.5991 13.7185 18.5188 13.6469 18.4165 13.5389C18.2124 13.3235 17.9187 12.9607 17.617 12.4076C17.0161 11.3061 16.3641 9.41306 16.3641 6.36468C16.3641 4.67667 15.6936 3.05778 14.5 1.86417C13.3064 0.670563 11.6875 0 9.99946 0ZM16.2284 13.6386H3.77055C3.83973 13.5252 3.90918 13.4053 3.97837 13.2784C4.74138 11.8796 5.45326 9.68099 5.45326 6.36468C5.45326 5.15896 5.93223 4.00261 6.78481 3.15003C7.63739 2.29745 8.79373 1.81848 9.99946 1.81848C11.2052 1.81848 12.3615 2.29746 13.2141 3.15003C14.0667 4.00261 14.5457 5.15896 14.5457 6.36468C14.5457 9.68099 15.2575 11.8796 16.0205 13.2784C16.0897 13.4053 16.1592 13.5252 16.2284 13.6386ZM8.96755 17.7285C8.71558 17.2941 8.15919 17.1463 7.72483 17.3982C7.29046 17.6502 7.14259 18.2066 7.39456 18.641C7.63434 19.0543 7.97851 19.3974 8.3926 19.636C8.80669 19.8745 9.27618 20 9.75404 20C10.2319 20 10.7014 19.8745 11.1155 19.636C11.5296 19.3974 11.8737 19.0543 12.1135 18.641C12.3655 18.2066 12.2176 17.6502 11.7833 17.3982C11.3489 17.1463 10.7925 17.2941 10.5405 17.7285C10.4606 17.8663 10.3459 17.9807 10.2079 18.0602C10.0698 18.1397 9.91333 18.1815 9.75404 18.1815C9.59475 18.1815 9.43826 18.1397 9.30023 18.0602C9.1622 17.9807 9.04748 17.8663 8.96755 17.7285Z" fill="currentColor"/>
</g>
<defs>
<clipPath id="clip0_8008_254091">
<rect width="20" height="20" fill="currentColor"/>
</clipPath>
</defs>
</svg>
