<svg xmlns="http://www.w3.org/2000/svg" width="17" height="16" fill="none" viewBox="0 0 17 16">
  <path fill="currentColor" fill-rule="evenodd" d="M4.931 1.491a5.092 5.092 0 0 1 8.692 3.6c0 2.44.522 3.954 1.003 4.835.241.443.476.733.64.905a2.194 2.194 0 0 0 .222.206l.002.002a.727.727 0 0 1-.412 1.327H1.985a.727.727 0 0 1-.412-1.327l.002-.002a2.194 2.194 0 0 0 .223-.206 4.32 4.32 0 0 0 .64-.905c.48-.881 1.002-2.396 1.002-4.834 0-1.35.537-2.646 1.491-3.6Zm2.775 12.692a.727.727 0 1 0-1.258.73 2.182 2.182 0 0 0 3.775 0 .727.727 0 0 0-1.258-.73.728.728 0 0 1-1.259 0Z" clip-rule="evenodd"/>
</svg>
