<svg width="36" height="36" viewBox="0 0 36 36" fill="none" xmlns="http://www.w3.org/2000/svg">
    <rect width="36" height="36" rx="18" fill="currentColor" />
    <path fill-rule="evenodd" clip-rule="evenodd"
        d="M17.9998 13.0683L14.5042 16.5638L12.4703 14.5298L17.9998 9L23.5312 14.5316L21.4972 16.5656L17.9998 13.0683ZM11.034 15.9657L8.99998 17.9997L11.0339 20.0336L13.068 17.9996L11.034 15.9657ZM14.5042 19.4362L17.9998 22.9317L21.4971 19.4345L23.5322 21.4674L23.5312 21.4685L17.9998 27L12.4701 21.4704L12.4673 21.4675L14.5042 19.4362ZM24.9661 15.9668L22.932 18.0008L24.966 20.0348L27 18.0007L24.9661 15.9668Z"
        fill="#ADBFCC" />
    <path
        d="M20.0631 17.9989H20.064L18 15.935L16.4747 17.4603H16.4746L16.2994 17.6356L15.9379 17.9971L15.9351 17.9999L15.9379 18.0029L18 20.0651L20.064 18.0011L20.065 17.9999L20.0631 17.9989Z"
        fill="#ADBFCC" />
</svg>
