<svg width="17" height="16" viewBox="0 0 32 33" fill="none" xmlns="http://www.w3.org/2000/svg">
<rect y="0.5" width="32" height="32" rx="16" fill="#F79621"/>
<path fill-rule="evenodd" clip-rule="evenodd" d="M11.5573 8.35267L14.5251 9.14788L15.2705 6.36602L16.9664 6.82043L16.221 9.60229L17.4929 9.9431L18.2383 7.16124L19.9342 7.61565L19.1888 10.3975C23.8525 11.6471 22.3617 17.2109 19.7557 16.7611C23.2096 17.4381 22.0698 25.0836 15.7103 23.3796L14.9649 26.1614L13.269 25.707L14.0144 22.9251L12.7425 22.5843L11.9971 25.3662L10.3012 24.9118L11.0466 22.1299L8.07881 21.3347L8.99971 19.5937L9.84765 19.8209C10.316 19.9464 10.8068 19.633 10.9441 19.1209L12.9318 11.7025C13.069 11.1904 12.8006 10.6735 12.3323 10.5481L11.0604 10.2072L11.5573 8.35267ZM15.7241 11.4569L14.7302 15.166C14.7302 15.166 18.4838 16.4203 19.0429 14.3339C19.6019 12.2475 15.7241 11.4569 15.7241 11.4569ZM14.3575 16.557L13.2404 20.7261C13.2404 20.7261 17.9031 21.9794 18.4621 19.893C19.0212 17.8066 14.3575 16.557 14.3575 16.557Z" fill="white"/>
</svg>
