<svg width="36" height="36" viewBox="0 0 36 36" fill="none" xmlns="http://www.w3.org/2000/svg">
    <rect width="36" height="36" rx="18" fill="currentColor" />
    <path fill-rule="evenodd" clip-rule="evenodd"
        d="M13.002 8.83381L16.3408 9.72843L17.1793 6.59883L19.0872 7.11004L18.2486 10.2396L19.6795 10.623L20.5181 7.49345L22.426 8.00466L21.5874 11.1343C26.834 12.5401 25.1569 18.7993 22.2252 18.2933C26.1108 19.0549 24.8286 27.6561 17.6741 25.7391L16.8355 28.8687L14.9276 28.3574L15.7662 25.2278L14.3353 24.8444L13.4967 27.974L11.5888 27.4628L12.4274 24.3332L9.08866 23.4386L10.1247 21.48L11.0786 21.7356C11.6054 21.8768 12.1577 21.5242 12.3121 20.948L14.5483 12.6024C14.7026 12.0263 14.4007 11.4448 13.8739 11.3036L12.443 10.9202L13.002 8.83381ZM17.6896 12.326L16.5715 16.4988C16.5715 16.4988 20.7943 17.9099 21.4232 15.5627C22.0522 13.2155 17.6896 12.326 17.6896 12.326ZM16.1522 18.0636L14.8955 22.7539C14.8955 22.7539 20.141 24.1639 20.7699 21.8167C21.3988 19.4695 16.1522 18.0636 16.1522 18.0636Z"
        fill="#ADBFCC" />
</svg>
