<svg width="40" height="40" viewBox="0 0 40 40" fill="none" xmlns="http://www.w3.org/2000/svg">
<rect width="40" height="40" rx="16" fill="#19CCC1"/>
<path fill-rule="evenodd" clip-rule="evenodd" d="M18.3125 14.7969C17.6126 14.7969 17.0469 15.3626 17.0469 16.0625V18.875C17.0469 19.5739 17.6136 20.1406 18.3125 20.1406H25.0625C25.7614 20.1406 26.3281 19.5739 26.3281 18.875V16.0625C26.3281 15.3626 25.7624 14.7969 25.0625 14.7969H18.3125ZM18.4531 18.7344V16.2031H24.9219V18.7344H18.4531Z" fill="white"/>
<path d="M17.75 21.5469C17.363 21.5469 17.0469 21.863 17.0469 22.25C17.0469 22.6368 17.3612 22.9531 17.75 22.9531H20.5625C20.9511 22.9531 21.2656 22.6386 21.2656 22.25C21.2656 21.8612 20.9493 21.5469 20.5625 21.5469H17.75Z" fill="white"/>
<path d="M22.8125 21.5469C22.4255 21.5469 22.1094 21.863 22.1094 22.25C22.1094 22.6368 22.4237 22.9531 22.8125 22.9531H25.625C26.0136 22.9531 26.3281 22.6386 26.3281 22.25C26.3281 21.8612 26.0118 21.5469 25.625 21.5469H22.8125Z" fill="white"/>
<path d="M17.75 23.7969C17.363 23.7969 17.0469 24.113 17.0469 24.5C17.0469 24.8868 17.3612 25.2031 17.75 25.2031H20.5625C20.9511 25.2031 21.2656 24.8886 21.2656 24.5C21.2656 24.1112 20.9493 23.7969 20.5625 23.7969H17.75Z" fill="white"/>
<path d="M22.8125 23.7969C22.4239 23.7969 22.1094 24.1114 22.1094 24.5C22.1094 24.8886 22.4239 25.2031 22.8125 25.2031H25.625C26.0136 25.2031 26.3281 24.8886 26.3281 24.5C26.3281 24.1112 26.0118 23.7969 25.625 23.7969H22.8125Z" fill="white"/>
<path fill-rule="evenodd" clip-rule="evenodd" d="M16.0625 11.9844C15.0531 11.9844 14.2344 12.8043 14.2344 13.8125V25.625C14.2344 26.1681 13.7925 26.6094 13.25 26.6094C12.7075 26.6094 12.2656 26.1681 12.2656 25.625V14.9375C12.2656 14.5507 11.9512 14.2344 11.5625 14.2344C11.1738 14.2344 10.8594 14.5507 10.8594 14.9375V25.625C10.8594 26.9429 11.9313 28.0156 13.25 28.0156H26.1875C27.8159 28.0156 29.1406 26.6913 29.1406 25.0625V13.8125C29.1406 12.8043 28.3219 11.9844 27.3125 11.9844H16.0625ZM15.6406 13.8125C15.6406 13.5805 15.8307 13.3906 16.0625 13.3906H27.3125C27.5443 13.3906 27.7344 13.5805 27.7344 13.8125V25.0625C27.7344 25.9154 27.0404 26.6094 26.1875 26.6094H15.4288C15.5655 26.3094 15.6406 25.9766 15.6406 25.625V13.8125Z" fill="white"/>
</svg>
