<svg xmlns="http://www.w3.org/2000/svg" viewBox="0 0 640 512">
<!--! Font Awesome Pro 6.2.0 by @fontawesome - https://fontawesome.com License - https://fontawesome.com/license (Commercial License) Copyright 2022 Fonticons, Inc.-->
  <path fill="currentColor" d="M38.8 5.1C28.4-3.1 13.3-1.2 5.1 9.2s-6.3 25.5 4.1 33.7l592 464c10.4 8.2 25.5 6.3 33.7-4.1s6.3-25.5-4.1-33.7l-182.4-143 52.7-46.1c10-8.8 13.6-22.9 8.9-35.3S493.4 224 480 224H368.5l76.9-179.4c5.9-13.7 1.5-29.7-10.6-38.5s-28.6-8-39.9 1.8L228.4 153.7 38.8 5.1zm100.1 226.8c-10 8.8-13.6 22.9-8.9 35.3s16.6 20.7 30 20.7h83.7l-88.9-70-15.9 13.9zm55.7 235.5c-5.9 13.7-1.5 29.7 10.6 38.5s28.6 8 39.9-1.8L374.4 391l-109.9-86.6-69.9 163z"/>
</svg>
