<svg width="40" height="40" viewBox="0 0 40 40" fill="none" xmlns="http://www.w3.org/2000/svg">
<rect width="40" height="40" rx="20" fill="#1F1F1F"/>
<g clip-path="url(#clip0_32798_136172)">
<path d="M12.533 10.3165L20 6L27.4671 10.3165L24.6671 11.833L20 9.14944L15.2165 11.833L12.533 10.3165ZM27.3495 15.6835L24.6659 14.167L20 16.8506L15.2165 14.167L12.533 15.6835V18.8341L17.2 21.5176V27.0011L19.8835 28.6341L22.5671 27.0011V21.6341L27.2341 18.9506V15.6835H27.3495ZM27.3495 24.3165V21.167L24.6671 22.8V25.833L27.3495 24.3165ZM29.333 25.367L24.6659 28.0506V31.2L32.133 26.8835V18.2506L29.333 20V25.367ZM26.6506 13L29.3341 14.633V17.7835L32.0176 16.1506V13L29.3341 11.367L26.6506 13ZM17.2 29.2165V32.3659L19.8835 33.9989L22.5671 32.3659V29.2165L19.8835 30.8494L17.2 29.2165ZM12.533 24.3165L15.2165 25.833V22.6835L12.533 21.0506V24.3165ZM17.2 13L19.8835 14.633L22.6835 13L20 11.367L17.2 13ZM10.5495 14.633L13.3495 13L10.5495 11.367L7.86706 13V16.1494L10.5506 17.7824V14.633H10.5495ZM10.5495 20L7.86594 18.367V27L15.333 31.3165V28.167L10.6659 25.4835V20H10.5495Z" fill="#DFBF59"/>
</g>
<defs>
<clipPath id="clip0_32798_136172">
<rect width="28" height="28" fill="white" transform="translate(6 6)"/>
</clipPath>
</defs>
</svg>
