<svg xmlns="http://www.w3.org/2000/svg" width="12" height="12" fill="none" viewBox="0 0 12 12">
  <g clip-path="url(#a)">
    <path fill="currentColor" d="M11.588 3.002c.255.141.412.408.412.699 0 .443-.356.799-.8.799H.799a.798.798 0 0 1-.385-1.498L5.728.07a.563.563 0 0 1 .544 0l5.316 2.932ZM5.25 3a.75.75 0 1 1 1.4.375h3.283L6 1.205l-3.933 2.17H5.35A.754.754 0 0 1 5.25 3ZM1.5 5.25h1.125V9h1.5V5.25H5.25V9h1.5V5.25h1.125V9h1.5V5.25H10.5V9h.188c.311 0 .562.25.562.563 0 .311-.25.562-.563.562H1.5A.562.562 0 1 1 1.5 9V5.25Zm9.938 5.625c.311 0 .562.25.562.563 0 .311-.25.562-.563.562H.75a.562.562 0 1 1 0-1.125h10.688Z"/>
  </g>
  <defs>
    <clipPath id="a">
      <path fill="#fff" d="M0 0h12v12H0z"/>
    </clipPath>
  </defs>
</svg>
