<svg width="17" height="16" viewBox="0 0 17 16" fill="none" xmlns="http://www.w3.org/2000/svg">
  <path
    d="M8 8C8.275 8 8.5 8.225 8.5 8.5V11.5C8.5 11.775 8.275 12 8 12H5C4.725 12 4.5 11.775 4.5 11.5V8.5C4.5 8.225 4.725 8 5 8H8ZM5.5 0C5.91563 0 6.25 0.335938 6.25 0.75V2H10.75V0.75C10.75 0.335938 11.0844 0 11.5 0C11.9156 0 12.25 0.335938 12.25 0.75V2H13.5C14.6031 2 15.5 2.89531 15.5 4V14C15.5 15.1031 14.6031 16 13.5 16H3.5C2.39531 16 1.5 15.1031 1.5 14V4C1.5 2.89531 2.39531 2 3.5 2H4.75V0.75C4.75 0.335938 5.08437 0 5.5 0ZM14 6H3V14C3 14.275 3.22375 14.5 3.5 14.5H13.5C13.775 14.5 14 14.275 14 14V6Z"
    fill="currentColor" />
</svg>