<svg width="40" height="40" viewBox="0 0 40 40" fill="none" xmlns="http://www.w3.org/2000/svg">
  <rect width="40" height="40" rx="20" fill="#131313"/>
  <path d="M21.0312 22.25L22.5 23.7188C22.8125 24.0312 22.8125 24.5 22.5 24.7812C22.2188 25.0938 21.75 25.0938 21.4688 24.7812L20 23.3125L18.5 24.7812C18.2188 25.0938 17.75 25.0938 17.4688 24.7812C17.1562 24.5 17.1562 24.0312 17.4688 23.7188L18.9375 22.25L17.4688 20.7812C17.1562 20.5 17.1562 20.0312 17.4688 19.7188C17.75 19.4375 18.2188 19.4375 18.5 19.7188L20 21.2188L21.4688 19.7188C21.75 19.4375 22.2188 19.4375 22.5 19.7188C22.8125 20.0312 22.8125 20.5 22.5 20.7812L21.0312 22.25ZM17 12C17.4062 12 17.75 12.3438 17.75 12.75V14H22.25V12.75C22.25 12.3438 22.5625 12 23 12C23.4062 12 23.75 12.3438 23.75 12.75V14H25C26.0938 14 27 14.9062 27 16V26C27 27.125 26.0938 28 25 28H15C13.875 28 13 27.125 13 26V16C13 14.9062 13.875 14 15 14H16.25V12.75C16.25 12.3438 16.5625 12 17 12ZM25.5 18H14.5V26C14.5 26.2812 14.7188 26.5 15 26.5H25C25.25 26.5 25.5 26.2812 25.5 26V18Z" fill="#ADBFCC"/>
</svg>
