<svg width="40" height="40" viewBox="0 0 40 40" fill="none" xmlns="http://www.w3.org/2000/svg">
  <rect width="40" height="40" rx="20" fill="#131313"/>
  <path d="M17.75 14H22.25V12.75C22.25 12.3438 22.5625 12 23 12C23.4062 12 23.75 12.3438 23.75 12.75V14H25C26.0938 14 27 14.9062 27 16V26C27 27.125 26.0938 28 25 28H15C13.875 28 13 27.125 13 26V16C13 14.9062 13.875 14 15 14H16.25V12.75C16.25 12.3438 16.5625 12 17 12C17.4062 12 17.75 12.3438 17.75 12.75V14ZM14.5 26C14.5 26.2812 14.7188 26.5 15 26.5H25C25.25 26.5 25.5 26.2812 25.5 26V18H14.5V26Z" fill="#ADBFCC"/>
</svg>
