<svg width="16" height="16" viewBox="0 0 16 16" fill="none" xmlns="http://www.w3.org/2000/svg">
  <path
    d="M4.5 9C4.5 7.06563 6.06563 5.5 8 5.5C9.93437 5.5 11.5 7.06563 11.5 9C11.5 10.9344 9.93437 12.5 8 12.5C6.06563 12.5 4.5 10.9344 4.5 9ZM8 7C6.89687 7 6 7.89687 6 9C6 10.1031 6.89687 11 8 11C9.10312 11 10 10.1031 10 9C10 7.89687 9.10312 7 8 7ZM11.3406 2.02562L11.6656 3H14C15.1031 3 16 3.89687 16 5V13C16 14.1031 15.1031 15 14 15H2C0.895313 15 0 14.1031 0 13V5C0 3.89687 0.895313 3 2 3H4.33437L4.65938 2.02562C4.8625 1.41312 5.43438 1 6.08125 1H9.91875C10.5656 1 11.1375 1.41312 11.3406 2.02562ZM2 4.5C1.72375 4.5 1.5 4.725 1.5 5V13C1.5 13.275 1.72375 13.5 2 13.5H14C14.275 13.5 14.5 13.275 14.5 13V5C14.5 4.725 14.275 4.5 14 4.5H10.5844L9.91875 2.5H6.08125L5.41563 4.5H2Z"
    fill="currentColor" />
</svg>