<svg width="16" height="14" viewBox="0 0 16 14" fill="none" xmlns="http://www.w3.org/2000/svg">
<path d="M7.625 1.62488L7.97188 1.99988L8.34688 1.62551C9.39375 0.605194 10.8438 0.140819 12.2688 0.378007C14.4219 0.736757 16 2.59988 16 4.78426V4.96551C16 6.26238 15.4625 7.50301 14.5125 8.38738L8.86563 13.6593C8.63125 13.878 8.32187 13.9999 8 13.9999C7.67812 13.9999 7.36875 13.878 7.13438 13.6593L1.48719 8.38738C0.538437 7.50301 0 6.26238 0 4.96551V4.78426C0 2.59988 1.57875 0.736757 3.73125 0.378007C5.12813 0.140819 6.60625 0.605194 7.625 1.62488C7.625 1.62519 7.59688 1.62488 7.625 1.62488ZM7.97188 4.12176L6.56563 2.65926C5.8875 2.00863 4.925 1.69988 3.97813 1.85738C2.54844 2.09582 1.5 3.33426 1.5 4.78426V4.96551C1.5 5.84676 1.86594 6.69051 2.51062 7.29051L8 12.4155L13.4906 7.29051C14.1344 6.69051 14.5 5.84676 14.5 4.96551V4.78426C14.5 3.33426 13.45 2.09582 12.0219 1.85738C11.075 1.69988 10.1125 2.00863 9.43437 2.65926L7.97188 4.12176Z" fill="#ADBFCC"/>
</svg>
