<svg width="16" height="16" viewBox="0 0 16 16" fill="none" xmlns="http://www.w3.org/2000/svg">
<path d="M4.96597 0.00442878C4.93159 0.000522526 4.90034 3.50267e-05 4.86284 3.50267e-05C4.39409 -0.00380872 3.98315 0.309066 3.85815 0.75816L0.0162818 15.3657C-0.0227807 15.518 0.00888489 15.6768 0.106532 15.8019C0.200279 15.925 0.346279 16 0.502529 16C0.549404 16 0.59556 15.9928 0.638529 15.9811L15.2542 11.9311C15.7463 11.7943 16.051 11.3139 15.9926 10.8101C15.341 5.15941 10.6503 0.543473 4.96597 0.00442878ZM1.90722 14.075L4.4619 4.37191C8.27753 5.01253 10.9025 7.60316 11.5994 11.3875L1.90722 14.075ZM13.0472 10.9844C12.2035 6.71879 9.14409 3.70316 4.84409 2.92191L5.20722 1.54285C9.85409 2.16004 13.7353 5.95847 14.4478 10.5928L13.0472 10.9844ZM6.00034 6.00003C5.44972 6.00003 5.02847 6.44941 5.02847 7.00003C5.02847 7.55066 5.47784 8.00004 6.00034 8.00004C6.55097 8.00004 7.00034 7.55066 7.00034 7.00003C7.00034 6.44941 6.55034 6.00003 6.00034 6.00003ZM5.00034 10C4.44972 10 3.9994 10.4494 3.9994 11.0003C3.9994 11.5513 4.44878 11.9722 4.9994 11.9722C5.55003 11.9722 6.00003 11.5228 6.00003 10.9719C6.00003 10.421 5.55034 10 5.00034 10ZM8.00034 10C8.00034 10.5507 8.44972 11 9.00034 11C9.55097 11 10.0003 10.5507 10.0003 10C10.0003 9.44941 9.55097 9.00004 9.00034 9.00004C8.44972 9.00004 8.00034 9.45004 8.00034 10Z" fill="#ADBFCC"/>
</svg>
