<svg width="14" height="16" viewBox="0 0 14 16" fill="none" xmlns="http://www.w3.org/2000/svg">
<path d="M13.3589 5.99837H0.639878C0.314566 5.99837 0.0758156 6.30396 0.154878 6.61962L2.30925 15.2415C2.4205 15.6859 2.81738 15.9984 3.27769 15.9984L10.7246 15.9981C11.1827 15.998 11.5793 15.6863 11.6905 15.2418L13.8452 6.61994C13.9246 6.30462 13.6839 5.99837 13.3589 5.99837ZM3.66832 14.4984L1.9205 7.49837H3.08488L4.36925 14.4702L3.66832 14.4984ZM6.49957 14.4702H5.41519L4.10269 7.49837H6.49957V14.4702ZM7.49957 14.4702V7.49837H9.89707L8.61269 14.4702H7.49957ZM10.3308 14.4702H9.603L10.8874 7.49837H12.0518L10.3308 14.4702ZM12.8621 4.339C12.6433 3.96775 12.2564 3.72556 11.8268 3.69056C12.0299 3.32337 12.026 2.88181 11.8189 2.51868C11.5338 2.01868 10.9439 1.78025 10.393 1.88962C10.3852 1.37025 10.0336 0.889621 9.48675 0.717746C9.07269 0.584933 8.6155 0.659152 8.26394 0.920871C8.26394 0.897433 8.25613 0.877902 8.24441 0.858371C8.02175 0.198371 7.27191 -0.149442 6.57628 0.0614957C6.17003 0.186496 5.84972 0.506808 5.72066 0.913058C5.34644 0.657433 4.92144 0.587121 4.51207 0.719933C3.96519 0.887902 3.61769 1.36837 3.60582 1.88806C3.05519 1.77868 2.46519 2.017 2.17988 2.51712C1.94019 2.8765 1.96425 3.3265 2.17144 3.689C1.72144 3.72962 1.34707 3.95775 1.13613 4.339C1.01519 4.54837 0.987691 4.7765 1.00332 4.97025H12.9971C13.0121 4.7765 12.9839 4.54837 12.8621 4.339Z" fill="#ADBFCC"/>
</svg>
