<svg width="16" height="14" viewBox="0 0 16 14" fill="none" xmlns="http://www.w3.org/2000/svg">
<path d="M14.233 6.00041H14.4986C14.9141 6.00041 15.2484 5.66611 15.2484 5.25059V1.25152C15.2484 0.948465 15.0672 0.673529 14.786 0.557931C14.5048 0.442333 14.183 0.504818 13.9674 0.720393L12.6677 2.02009C9.93087 -0.682405 5.52252 -0.673032 2.80128 2.05133C0.0675422 4.78507 0.0675422 9.21529 2.80128 11.949C5.53502 14.6828 9.96523 14.6828 12.699 11.949C13.0895 11.5585 13.0895 10.9243 12.699 10.5337C12.3084 10.1432 11.6742 10.1432 11.2837 10.5337C9.33101 12.4864 6.16612 12.4864 4.21345 10.5337C2.26078 8.58106 2.26078 5.41617 4.21345 3.4635C6.15675 1.52021 9.29664 1.51083 11.2524 3.43226L9.96836 4.71946C9.75278 4.93504 9.6903 5.25683 9.8059 5.53802C9.92149 5.8192 10.1964 6.00041 10.4995 6.00041H14.233Z" fill="#ADBFCC"/>
</svg>
