<svg width="40" height="40" viewBox="0 0 40 40" fill="none" xmlns="http://www.w3.org/2000/svg">
<rect width="40" height="40" rx="16" fill="#131313"/>
<path d="M26.25 13C26.6656 13 27 13.3359 27 13.75C27 14.1641 26.6656 14.5 26.25 14.5H14.75C14.0597 14.5 13.5 15.0597 13.5 15.75V24.25C13.5 24.9406 14.0597 25.5 14.75 25.5H25.25C25.9406 25.5 26.5 24.9406 26.5 24.25V18.75C26.5 18.0594 25.9406 17.5 25.25 17.5H15.75C15.3344 17.5 15 17.1656 15 16.75C15 16.3344 15.3344 16 15.75 16H25.25C26.7688 16 28 17.2312 28 18.75V24.25C28 25.7688 26.7688 27 25.25 27H14.75C13.2313 27 12 25.7688 12 24.25V15.75C12 14.2313 13.2313 13 14.75 13H26.25ZM23 21.5C23 20.9469 23.4469 20.5 24 20.5C24.5531 20.5 25 20.9469 25 21.5C25 22.0531 24.5531 22.5 24 22.5C23.4469 22.5 23 22.0531 23 21.5Z" fill="#ADBFCC"/>
</svg>
