<svg xmlns="http://www.w3.org/2000/svg" width="16" height="16" fill="none" viewBox="0 0 16 16">
  <path fill="currentColor" d="M4.667 10.333c.37 0 .666.297.666.667 0 .37-.297.666-.666.666H3.333A.665.665 0 0 1 2.667 11c0-.37.297-.667.666-.667h1.334Zm5.333 0c.37 0 .667.297.667.667 0 .37-.298.666-.667.666H6.889A.665.665 0 0 1 6.222 11c0-.37.297-.667.667-.667H10Zm4.222-8.444c.98 0 1.778.796 1.778 1.777v8.89a1.78 1.78 0 0 1-1.778 1.777H1.778A1.779 1.779 0 0 1 0 12.555V3.666C0 2.685.796 1.89 1.778 1.89h12.444Zm0 1.333H1.778a.444.444 0 0 0-.445.444v.89h13.334v-.89c0-.245-.2-.444-.445-.444Zm.445 4H1.333v5.333c0 .245.2.445.445.445h12.444c.245 0 .445-.2.445-.445V7.222Z"/>
</svg>
