<svg width="16" height="16" viewBox="0 0 16 16" fill="none" xmlns="http://www.w3.org/2000/svg">
<path d="M4.85313 4.85313C4.65938 5.05 4.34062 5.05 4.14687 4.85313C3.95 4.65938 3.95 4.34062 4.14687 4.14687L5.14687 3.14687C5.34062 2.95125 5.65938 2.95125 5.85313 3.14687C6.05 3.34062 6.05 3.65938 5.85313 3.85313L4.85313 4.85313ZM0 8C0 3.58125 3.58125 0 8 0C12.4187 0 16 3.58125 16 8C16 12.4187 12.4187 16 8 16C3.58125 16 0 12.4187 0 8ZM8 14.5C8.18125 14.5 8.35938 14.4937 8.53438 14.4781C8.5125 14.4062 8.5 14.3281 8.5 14.25C8.5 13.8344 8.16562 13.5 7.75 13.5H7.08437C6.70937 13.5 6.35 13.35 6.08437 13.0844L5.58437 12.5844C5.20937 12.2094 5 11.7031 5 11.1719V11.0719C5 10.4031 5.33437 9.77812 5.89062 9.40625L6.74687 8.83438C7.075 8.61563 7.45937 8.5 7.85625 8.5H8.50937C8.9875 8.5 9.45 8.67188 9.78438 8.98125L10.6406 9.69375C10.8719 9.89062 11.1687 10 11.4719 10C11.8094 10 12.1344 10.1344 12.3469 10.3469L12.7937 10.7937C12.925 10.925 13.1062 11 13.2937 11C13.4437 11 13.5844 11.0469 13.7 11.1281C13.8969 10.7719 14.0594 10.3938 14.1594 10H13.9563C13.5031 10 13.0688 9.81875 12.75 9.5L12.1781 8.92813C12.0625 8.8125 12 8.65938 12 8.5C12 8.34062 12.0625 8.15937 12.1781 8.07187L12.4125 7.8375C12.4406 7.78125 12.5 7.70625 12.5 7.625C12.5 7.54375 12.4406 7.44062 12.4125 7.4125L12.2063 7.20625C12.075 7.075 11.8938 7 11.7063 7H11.3531C11.1594 7 11 6.84062 11 6.64687C11 6.55312 11.0375 6.4625 11.1031 6.39687L11.25 6.25C11.4094 6.09062 11.6281 6 11.8531 6H12.5C12.775 6 13 5.775 13 5.5C13 5.225 12.775 5 12.5 5H11.5813C11.2594 5 11 5.25938 11 5.58125C11 5.83125 10.8406 6.05312 10.6031 6.13125L9.94063 6.35313C9.70938 6.43125 9.59688 6.69688 9.70938 6.91563L9.74375 6.9875C9.8625 7.22188 9.69063 7.5 9.42813 7.5C9.31563 7.5 9.20938 7.44688 9.14375 7.35938L8.63437 6.67812C8.55 6.56562 8.41875 6.5 8.275 6.5C8.10625 6.5 7.95312 6.59687 7.875 6.74687L7.75 7C7.59688 7.30625 7.27812 7.5 6.93437 7.5C6.425 7.5 6 7.08437 6 6.57188V6.44063C6 6.15938 6.1125 5.8875 6.30937 5.69063L6.87187 5.12813C6.95312 5.04688 7 4.93437 7 4.81875C7 4.62812 7.12188 4.45937 7.3 4.4L8.13125 4.12187C8.37188 4.04375 8.59375 3.87812 8.775 3.725L9.39688 3.10344C9.4625 3.03719 9.5 2.94719 9.5 2.85344C9.5 2.65844 9.34063 2.5 9.14688 2.5H9.11563C9.04063 2.5 8.96562 2.5225 8.90312 2.56437L7.59688 3.43438C7.53438 3.47813 7.45937 3.5 7.38438 3.5C7.17188 3.5 7 3.32812 7 3.11625V2.83344C7 2.62344 7.1 2.42594 7.26562 2.3L8.32187 1.50781C8.21562 1.50281 8.10938 1.5 8 1.5C4.40938 1.5 1.5 4.40938 1.5 8C1.5 11.5906 4.40938 14.5 8 14.5Z" fill="#ADBFCC"/>
</svg>
