<svg width="40" height="40" viewBox="0 0 40 40" fill="none" xmlns="http://www.w3.org/2000/svg">
<rect width="40" height="40" rx="16" fill="#23F7DD"/>
<path d="M16.6667 22.3331C17.0361 22.3331 17.3333 22.6303 17.3333 22.9998C17.3333 23.3692 17.0361 23.6664 16.6667 23.6664H15.3333C14.9639 23.6664 14.6667 23.3692 14.6667 22.9998C14.6667 22.6303 14.9639 22.3331 15.3333 22.3331H16.6667ZM22 22.3331C22.3694 22.3331 22.6667 22.6303 22.6667 22.9998C22.6667 23.3692 22.3694 23.6664 22 23.6664H18.8889C18.5194 23.6664 18.2222 23.3692 18.2222 22.9998C18.2222 22.6303 18.5194 22.3331 18.8889 22.3331H22ZM26.2222 13.8887C27.2028 13.8887 28 14.6845 28 15.6664V24.5553C28 25.5359 27.2028 26.3331 26.2222 26.3331H13.7778C12.7958 26.3331 12 25.5359 12 24.5553V15.6664C12 14.6845 12.7958 13.8887 13.7778 13.8887H26.2222ZM26.2222 15.222H13.7778C13.5322 15.222 13.3333 15.4209 13.3333 15.6664V16.5553H26.6667V15.6664C26.6667 15.4209 26.4667 15.222 26.2222 15.222ZM26.6667 19.222H13.3333V24.5553C13.3333 24.7998 13.5322 24.9998 13.7778 24.9998H26.2222C26.4667 24.9998 26.6667 24.7998 26.6667 24.5553V19.222Z" fill="black"/>
</svg>
