<svg width="14" height="16" viewBox="0 0 14 16" fill="none" xmlns="http://www.w3.org/2000/svg">
<path d="M3.5 5V3.5C3.5 1.56687 5.06563 0 7 0C8.93437 0 10.5 1.56687 10.5 3.5V5H12.5C13.3281 5 14 5.67188 14 6.5V13C14 14.6562 12.6562 16 11 16H3C1.34312 16 0 14.6562 0 13V6.5C0 5.67188 0.671562 5 1.5 5H3.5ZM5 5H9V3.5C9 2.39531 8.10312 1.5 7 1.5C5.89687 1.5 5 2.39531 5 3.5V5ZM1.5 6.5V13C1.5 13.8281 2.17156 14.5 3 14.5H11C11.8281 14.5 12.5 13.8281 12.5 13V6.5H10.5V8.25C10.5 8.66562 10.1656 9 9.75 9C9.33438 9 9 8.66562 9 8.25V6.5H5V8.25C5 8.66562 4.66563 9 4.25 9C3.83437 9 3.5 8.66562 3.5 8.25V6.5H1.5Z" fill="#ADBFCC"/>
</svg>
