<svg width="16" height="16" viewBox="0 0 16 16" fill="none" xmlns="http://www.w3.org/2000/svg">
<path d="M14 3.5H12V2.5C12 1.39531 11.1047 0.5 10 0.5H6C4.89687 0.5 4 1.39531 4 2.5V3.5H2C0.895313 3.5 0 4.39687 0 5.5V13.5C0 14.6047 0.895313 15.5 2 15.5H14C15.1047 15.5 16 14.6047 16 13.5V5.5C16 4.39687 15.1031 3.5 14 3.5ZM6 2H10C10.2762 2 10.5 2.22384 10.5 2.5V3.5H5.5V2.5C5.5 2.22375 5.725 2 6 2ZM2 5H14C14.275 5 14.5 5.225 14.5 5.5V8.5H1.5V5.5C1.5 5.225 1.725 5 2 5ZM14 14H2C1.725 14 1.5 13.775 1.5 13.5V10H6V10.5C6 11.0522 6.44781 11.5 7 11.5H9C9.55219 11.5 10 11.0522 10 10.5V10H14.5V13.5C14.5 13.775 14.275 14 14 14Z" fill="#ADBFCC"/>
</svg>
