<svg width="20" height="16" viewBox="0 0 20 16" fill="none" xmlns="http://www.w3.org/2000/svg">
<path d="M2.03127 5.42194C2.03127 5.81159 1.71632 6.12507 1.32813 6.12507C0.939946 6.12507 0.625 5.81159 0.625 5.42194V3.07816C0.625 1.65431 1.77931 0.5 3.20316 0.5H16.7971C18.2209 0.5 19.3752 1.65431 19.3752 3.07816V5.42194C19.3752 5.81159 19.0618 6.12507 18.6721 6.12507C18.2825 6.12507 17.969 5.81159 17.969 5.42194V3.07816C17.969 2.43098 17.4446 1.90627 16.7971 1.90627H3.20316C2.55598 1.90627 2.03127 2.43098 2.03127 3.07816V5.42194ZM14.2189 3.31254H15.6252V13.6252C15.6252 14.6594 14.7844 15.5002 13.7502 15.5002H6.25007C5.21588 15.5002 4.37505 14.6594 4.37505 13.6252V3.31254H5.78132V12.2189C6.81551 12.2189 7.65634 13.0597 7.65634 14.0939H12.3439C12.3439 13.0597 13.1847 12.2189 14.2189 12.2189V3.31254ZM10.0001 10.8126C8.421 10.8126 7.18759 9.76379 7.18759 8.46885C7.18759 7.17392 8.421 6.12507 10.0001 6.12507C11.5529 6.12507 12.8127 7.17392 12.8127 8.46885C12.8127 9.76379 11.5529 10.8126 10.0001 10.8126Z" fill="currentColor"/>
</svg>
