<svg width="40" height="40" viewBox="0 0 40 40" fill="none" xmlns="http://www.w3.org/2000/svg">
<rect width="40" height="40" rx="16" fill="#23F7DD"/>
<path d="M17.7778 20.2222C18.7597 20.2222 19.5556 19.4264 19.5556 18.4444C19.5556 17.4625 18.7597 16.6667 17.7778 16.6667C16.7958 16.6667 16 17.4625 16 18.4444C16 19.425 16.7972 20.2222 17.7778 20.2222ZM24.8889 19.5556H22.2222C21.8542 19.5556 21.5556 19.8542 21.5556 20.2222C21.5556 20.5903 21.8542 20.8889 22.2222 20.8889H24.8889C25.2569 20.8889 25.5556 20.5903 25.5556 20.2222C25.5556 19.8542 25.2583 19.5556 24.8889 19.5556ZM18.6667 21.1111H16.8889C15.6611 21.1111 14.6667 22.1056 14.6667 23.3333C14.6667 23.5778 14.8667 23.7778 15.1111 23.7778H20.4444C20.6899 23.7778 20.8889 23.5788 20.8889 23.3333C20.8889 22.1056 19.8944 21.1111 18.6667 21.1111ZM24.8889 17.3333H22.2222C21.8542 17.3333 21.5556 17.6319 21.5556 18C21.5556 18.3681 21.8542 18.6667 22.2222 18.6667H24.8889C25.2569 18.6667 25.5556 18.3681 25.5556 18C25.5556 17.6319 25.2583 17.3333 24.8889 17.3333ZM26.2222 14H13.7778C12.7958 14 12 14.7958 12 15.7778V24.6667C12 25.6486 12.7958 26.4444 13.7778 26.4444H26.2222C27.2042 26.4444 28 25.6486 28 24.6667V15.7778C28 14.7958 27.2028 14 26.2222 14ZM26.6667 24.6667C26.6667 24.9117 26.4673 25.1111 26.2222 25.1111H13.7778C13.5327 25.1111 13.3333 24.9117 13.3333 24.6667V15.7778C13.3333 15.5327 13.5327 15.3333 13.7778 15.3333H26.2222C26.4673 15.3333 26.6667 15.5327 26.6667 15.7778V24.6667Z" fill="black"/>
</svg>
