<svg width="16" height="14" viewBox="0 0 16 14" fill="none" xmlns="http://www.w3.org/2000/svg">
<path d="M7.56949 0.155859C7.81672 -0.0519531 8.18339 -0.0519531 8.43061 0.155859L12.889 3.88008V1.53125C12.889 1.16895 13.1862 0.850391 13.5556 0.850391C13.9251 0.850391 14.2223 1.16895 14.2223 1.53125V4.99297L15.764 6.28086C16.0445 6.51602 16.0807 6.92891 15.8418 7.20508C15.6029 7.48125 15.1834 7.5168 14.9029 7.28164L14.2223 6.71289V11.8125C14.2223 13.0211 13.2279 14 12.0001 14H4.00003C2.7728 14 1.7778 13.0211 1.7778 11.8125V6.71289L1.09807 7.28164C0.817237 7.5168 0.396679 7.48125 0.158344 7.20508C-0.0798791 6.92891 -0.0453789 6.51602 0.235373 6.28086L7.56949 0.155859ZM3.11114 5.6V11.8125C3.11114 12.2965 3.50836 12.6875 4.00003 12.6875H5.33337V8.53125C5.33337 7.92695 5.8306 7.4375 6.44449 7.4375H9.55562C10.1695 7.4375 10.6667 7.92695 10.6667 8.53125V12.6875H12.0001C12.4917 12.6875 12.889 12.2965 12.889 11.8125V5.6L8.00005 1.51676L3.11114 5.6ZM6.66671 8.75V12.6875H9.33339V8.75H6.66671Z" fill="#ADBFCC"/>
</svg>
