<svg width="14" height="16" viewBox="0 0 14 16" fill="none" xmlns="http://www.w3.org/2000/svg">
<path d="M2.5 10.5C2.5 9.94687 2.94781 9.5 3.5 9.5C4.05312 9.5 4.5 9.94687 4.5 10.5C4.5 11.0531 4.05312 11.5 3.5 11.5C2.94781 11.5 2.5 11.0531 2.5 10.5ZM9.5 10.5C9.5 9.94687 9.94687 9.5 10.5 9.5C11.0531 9.5 11.5 9.94687 11.5 10.5C11.5 11.0531 11.0531 11.5 10.5 11.5C9.94687 11.5 9.5 11.0531 9.5 10.5ZM0.31875 2.18844C1.12063 1.21094 3.24375 0 7 0C11.0188 0 12.9375 1.20719 13.7 2.20469C13.9344 2.51 14 2.85875 14 3.1375V11.75C14 12.5031 13.6031 13.1906 13 13.6219V15.25C13 15.6656 12.6656 16 12.25 16C11.8344 16 11.5 15.6656 11.5 15.25V14H2.5V15.25C2.5 15.6656 2.16406 16 1.75 16C1.33594 16 1 15.6656 1 15.25V13.6219C0.396875 13.1906 0 12.5031 0 11.75V3.1375C0 2.86188 0.0639063 2.49906 0.31875 2.18844ZM1.60844 3H12.4125C11.9188 2.46531 10.475 1.5 7 1.5C3.80625 1.5 2.18187 2.44594 1.60844 3ZM12.5 4.5H1.5V7H12.5V4.5ZM12.5 8.5H1.5V11.75C1.5 12.1656 1.83594 12.5 2.25 12.5H11.75C12.1656 12.5 12.5 12.1656 12.5 11.75V8.5Z" fill="#ADBFCC"/>
</svg>
