<svg width="23" height="16" viewBox="0 0 23 16" fill="none" xmlns="http://www.w3.org/2000/svg">
<path d="M2.75 0.5H20.25C21.6172 0.5 22.75 1.63281 22.75 3V13C22.75 14.4062 21.6172 15.5 20.25 15.5H2.75C1.34375 15.5 0.25 14.4062 0.25 13V3C0.25 1.63281 1.34375 0.5 2.75 0.5ZM5.25 13C5.25 11.6328 4.11719 10.5 2.75 10.5V13H5.25ZM2.75 5.5C4.11719 5.5 5.25 4.40625 5.25 3H2.75V5.5ZM17.75 13H20.25V10.5C18.8438 10.5 17.75 11.6328 17.75 13ZM20.25 5.5V3H17.75C17.75 4.40625 18.8438 5.5 20.25 5.5ZM11.5 4.25C10.1328 4.25 8.92188 4.99219 8.21875 6.125C7.55469 7.29688 7.55469 8.74219 8.21875 9.875C8.92188 11.0469 10.1328 11.75 11.5 11.75C12.8281 11.75 14.0391 11.0469 14.7422 9.875C15.4062 8.74219 15.4062 7.29688 14.7422 6.125C14.0391 4.99219 12.8281 4.25 11.5 4.25Z" fill="white"/>
</svg>
