<svg width="23" height="16" viewBox="0 0 23 16" fill="none" xmlns="http://www.w3.org/2000/svg">
<path d="M4.625 2.375C4.625 3.78125 3.49219 4.875 2.125 4.875V11.125C3.49219 11.125 4.625 12.2578 4.625 13.625H18.375C18.375 12.2578 19.4688 11.125 20.875 11.125V4.875C19.4688 4.875 18.375 3.78125 18.375 2.375H4.625ZM0.25 3C0.25 1.63281 1.34375 0.5 2.75 0.5H20.25C21.6172 0.5 22.75 1.63281 22.75 3V13C22.75 14.4062 21.6172 15.5 20.25 15.5H2.75C1.34375 15.5 0.25 14.4062 0.25 13V3ZM11.5 4.25C12.8281 4.25 14.0391 4.99219 14.7422 6.125C15.4062 7.29688 15.4062 8.74219 14.7422 9.875C14.0391 11.0469 12.8281 11.75 11.5 11.75C10.1328 11.75 8.92188 11.0469 8.21875 9.875C7.55469 8.74219 7.55469 7.29688 8.21875 6.125C8.92188 4.99219 10.1328 4.25 11.5 4.25Z" fill="#ADBFCC"/>
</svg>
