<svg xmlns="http://www.w3.org/2000/svg" xml:space="preserve" viewBox="0 0 2560 1707">
  <path fill="#DA121A" d="M2 382c0-62.708 0-125.417.513-189.123.839-1.112 1.164-1.227 2.41-1.234 3.921.13 6.92.175 9.919.175 844.72.003 1689.441.003 2534.162-.009 3.661 0 7.322-.178 11.474-.102.834.212 1.178.253 1.522.293 0 62.708 0 125.417-.925 188.897-4.257.733-7.588.66-10.92.66-845.397-.004-1690.794-.005-2536.19.014-3.989 0-7.977.28-11.965.429z"/>
  <path fill="#FCDD09" d="M2 382.937c3.988-1.086 7.976-1.366 11.965-1.366 845.396-.019 1690.793-.018 2536.19-.013 3.332 0 6.663.072 10.92.276.925 62.874.925 125.583.028 188.927-3.894.556-6.89.404-9.886.404-846.11-.01-1692.219-.01-2538.328.025-3.63 0-7.26.528-10.889.81V382.937zM2562 760c0 62.708 0 125.417-.525 189.076-.857 1.059-1.19 1.168-2.451 1.22-3.261-.07-5.594-.095-7.926-.095-845.683-.002-1691.366-.002-2537.05.004-3.33 0-6.661.097-10.493-.015-.852-.173-1.204-.181-1.555-.19 0-62.708 0-125.417.923-188.886 4.255-.718 7.587-.64 10.918-.64 845.4.005 1690.8.006 2536.199-.014 3.987 0 7.973-.3 11.96-.46z"/>
  <path fill="#DA121A" d="M2 1520c0-62.708 0-125.417.513-189.123.839-1.112 1.164-1.227 2.41-1.234 3.921.13 6.92.175 9.919.175 844.72.003 1689.441.003 2534.162-.009 3.661 0 7.322-.178 11.474-.102.834.212 1.178.253 1.522.293 0 62.708 0 125.417-.925 188.897-4.257.733-7.588.66-10.92.66-845.397-.004-1690.794-.005-2536.19.014-3.989 0-7.977.28-11.965.429z"/>
  <path fill="#FCDD09" d="M2 1520.937c3.988-1.086 7.976-1.366 11.965-1.366 845.396-.019 1690.793-.018 2536.19-.013 3.332 0 6.663.072 10.92.276.925 63.48.925 126.795.925 190.076H2v-188.973zM2559.987 191.536c-3.66.095-7.322.273-10.983.273-844.72.012-1689.441.012-2534.162.01-2.999 0-5.998-.046-10.197-.5-1.609-.846-2.09-1.142-2.645-1.319V2.1h2560c0 62.08 0 124.063-.39 187.15-.874 1.422-1.285 1.816-1.623 2.286z"/>
  <path fill="#DA121A" d="M4.056 950.353c3.331-.051 6.662-.148 9.993-.148 845.683-.006 1691.366-.006 2537.05-.004 2.331 0 4.664.025 8.23.41 1.706.722 2.185 1.06 2.671 1.389 0 62.044 0 124.088-.928 187.068-853.642.935-1706.357.933-2559.072.932 0-62.044 0-124.088.364-187.316.873-1.488 1.316-1.87 1.692-2.33z"/>
  <path fill="#FCDD09" d="M2 1140.928c852.715-.927 1705.43-.925 2559.072-.926.928 62.046.928 124.094.538 187.248-.875 1.422-1.285 1.816-1.623 2.286-3.66.095-7.322.273-10.983.273-844.72.012-1689.441.012-2534.162.009-2.999 0-5.998-.045-10.197-.5-1.609-.845-2.09-1.141-2.645-1.318v-187.072z"/>
  <path fill="#DA121A" d="M2562 759.063c-3.987 1.097-7.973 1.396-11.96 1.397-845.4.02-1690.8.02-2536.2.014-3.33 0-6.662-.078-10.917-.297C2 697.958 2 635.917 2 572.937c3.63-1.219 7.26-1.747 10.89-1.747 846.108-.036 1692.218-.035 2538.327-.025 2.996 0 5.992.152 9.886.534.897 62.343.897 124.385.897 187.364z"/>
  <path fill="#F9BB0C" d="M2 190.5c.555-.323 1.036-.027 1.724.712-.047.438-.372.553-1.21.727C2 192 2 191 2 190.5zM2560.478 191.707c-.153-.641.258-1.035 1.132-1.53.39-.177.39.823.39 1.323-.344.46-.688.42-1.522.207z"/>
  <path fill="#DF5514" d="M3.555 950.19c.125.623-.318 1.006-1.191 1.56C2 952 2 951 2 950.5c.351-.491.703-.483 1.555-.31zM2562 951.5c-.486.172-.965-.167-1.742-.831.027-.425.36-.534 1.217-.656.525-.013.525.987.525 1.487z"/>
  <path fill="#F9BB0C" d="M2 1328.5c.555-.323 1.036-.027 1.724.712-.047.438-.372.553-1.21.727C2 1330 2 1329 2 1328.5zM2560.478 1329.707c-.153-.641.257-1.035 1.132-1.53.39-.177.39.823.39 1.323-.344.46-.688.42-1.522.207z"/>
</svg>
