<svg xmlns="http://www.w3.org/2000/svg" width="18" height="14" fill="none" viewBox="0 0 18 14">
  <path fill="#fff" d="M4.626 3.414c1.672-1.619 4.383-1.619 6.055 0a4.046 4.046 0 0 1 .194 5.657l-.158.176a.732.732 0 0 1-1.009.066.677.677 0 0 1-.068-.976l.16-.176a2.697 2.697 0 0 0-.13-3.77c-1.113-1.103-2.92-1.103-4.06 0L2.265 7.654a2.7 2.7 0 0 0 0 3.905c1.061 1.003 2.766 1.083 3.894.127l.185-.155a.729.729 0 0 1 1.005.066.674.674 0 0 1-.065.973l-.184.156c-1.697 1.434-4.253 1.354-5.845-.19-1.672-1.616-1.672-4.266 0-5.858l3.372-3.264Zm8.748 7.172c-1.672 1.619-4.383 1.619-6.055 0-1.62-1.567-1.679-4.015-.197-5.657l.14-.155a.732.732 0 0 1 1.009-.066c.298.25.327.688.068.976l-.14.156a2.697 2.697 0 0 0 .128 3.77 2.927 2.927 0 0 0 4.039 0l3.371-3.264a2.702 2.702 0 0 0 0-3.905 2.922 2.922 0 0 0-3.895-.125l-.185.154a.73.73 0 0 1-1.005-.065.676.676 0 0 1 .065-.975l.184-.155c1.697-1.436 4.253-1.354 5.845.189a4.049 4.049 0 0 1 0 5.859l-3.372 3.263Z"/>
</svg>
