<svg width="16" height="16" viewBox="0 0 16 16" fill="none" xmlns="http://www.w3.org/2000/svg">
<path d="M7.2 3.125C7.2 3.55283 7.0375 3.94207 6.77 4.23203L7.4425 5.69453C7.7475 5.6082 8.0675 5.5625 8.4 5.5625C9.3525 5.5625 10.26 5.95605 10.9075 6.5959L12.8475 5.14863C12.8175 5.02168 12.8 4.88711 12.8 4.75C12.8 3.85244 13.5175 3.125 14.4 3.125C15.2825 3.125 16 3.85244 16 4.75C16 5.64629 15.2825 6.375 14.4 6.375C14.0925 6.375 13.8025 6.28613 13.5575 6.13125L11.6175 7.57852C11.8625 8.07109 12 8.62969 12 9.21875C12 9.68848 11.9125 10.1379 11.7525 10.5518L13.4375 11.5775C13.705 11.3719 14.0375 11.25 14.4 11.25C15.2825 11.25 16 11.9787 16 12.875C16 13.7713 15.2825 14.5 14.4 14.5C13.5175 14.5 12.8 13.7713 12.8 12.875C12.8 12.7887 12.8075 12.7049 12.82 12.6236L11.135 11.5953C10.4525 12.3799 9.495 12.875 8.4 12.875C6.615 12.875 5.135 11.5572 4.8275 9.82812H3.0825C2.8475 10.4248 2.2715 10.8438 1.6 10.8438C0.71625 10.8438 0 10.115 0 9.21875C0 8.32246 0.71625 7.59375 1.6 7.59375C2.2715 7.59375 2.8475 8.0127 3.0825 8.60938H4.8275C5.015 7.6166 5.5725 6.7584 6.355 6.20996L5.6825 4.74746C5.655 4.72715 5.6275 4.75 5.6 4.75C4.7175 4.75 4 4.02256 4 3.125C4 2.22744 4.7175 1.5 5.6 1.5C6.4825 1.5 7.2 2.22744 7.2 3.125ZM8.4 11.6562C9.725 11.6562 10.8 10.5645 10.8 9.21875C10.8 7.8502 9.725 6.78125 8.4 6.78125C7.0525 6.78125 6 7.8502 6 9.21875C6 10.5645 7.0525 11.6562 8.4 11.6562Z" fill="#23F7DD"/>
</svg>
