<svg xmlns="http://www.w3.org/2000/svg" width="16" height="16" fill="none" viewBox="0 0 16 16">
  <g clip-path="url(#a)">
    <path fill="#90A0AB" d="M10.488 6.819c-.282.215-.7.24-.982-.003L5.938 3.694 1.166 6.847a.723.723 0 0 1-1.04-.181.751.751 0 0 1 .208-1.041l5.25-3.5a.75.75 0 0 1 .91.06l3.512 3.071 4.756-4.075a.749.749 0 1 1 .976 1.138l-5.25 4.5ZM7.5 8.472v5c0 .856-.672 1.5-1.5 1.5s-1.5-.644-1.5-1.5v-5c0-.8.672-1.5 1.5-1.5s1.5.7 1.5 1.5Zm-1.25 5v-5c0-.11-.112-.25-.25-.25-.137 0-.25.14-.25.25v5c0 .165.113.25.25.25.138 0 .25-.085.25-.25Zm-2.75-2v2c0 .856-.672 1.5-1.5 1.5s-1.5-.644-1.5-1.5v-2c0-.8.672-1.5 1.5-1.5s1.5.7 1.5 1.5Zm-1.25 2v-2c0-.11-.112-.25-.25-.25s-.25.14-.25.25v2c0 .165.112.25.25.25s.25-.085.25-.25Zm6.25-3c0-.8.672-1.5 1.5-1.5s1.5.7 1.5 1.5v3c0 .856-.672 1.5-1.5 1.5s-1.5-.644-1.5-1.5v-3Zm1.5-.25c-.137 0-.25.14-.25.25v3c0 .165.113.25.25.25s.25-.085.25-.25v-3c0-.11-.113-.25-.25-.25Zm5.5-1.75v5c0 .856-.672 1.5-1.5 1.5s-1.5-.644-1.5-1.5v-5c0-.8.672-1.5 1.5-1.5s1.5.7 1.5 1.5Zm-1.25 5v-5c0-.11-.113-.25-.25-.25s-.25.14-.25.25v5c0 .165.113.25.25.25s.25-.085.25-.25Z"/>
  </g>
  <defs>
    <clipPath id="a">
      <path fill="#fff" d="M0 0h16v16H0z"/>
    </clipPath>
  </defs>
</svg>
