<svg xmlns="http://www.w3.org/2000/svg" width="16" height="16" fill="none" viewBox="0 0 16 16">
  <path fill="#ADBFCC" fill-rule="evenodd" d="M2.75 1.6a.727.727 0 0 0-.53.234A.828.828 0 0 0 2 2.4v10.869l1.72-1.835a.727.727 0 0 1 .53-.234h9c.199 0 .39-.084.53-.234.141-.15.22-.354.22-.566v-8a.828.828 0 0 0-.22-.566.727.727 0 0 0-.53-.234H2.75ZM1.159.703C1.581.253 2.153 0 2.75 0h10.5c.597 0 1.169.253 1.591.703.422.45.659 1.06.659 1.697v8c0 .636-.237 1.247-.659 1.697-.422.45-.994.703-1.591.703H4.56l-2.78 2.966a.716.716 0 0 1-.817.173A.802.802 0 0 1 .5 15.2V2.4c0-.637.237-1.247.659-1.697Z" clip-rule="evenodd"/>
</svg>
