<svg xmlns="http://www.w3.org/2000/svg" width="16" height="16" fill="none" viewBox="0 0 16 16">
  <path fill="#90A0AB" d="M5.678 7.563c0 .3-.203.546-.5.546-.276 0-.5-.246-.5-.546 0-.326.224-.547.5-.547.297 0 .5.221.5.546Zm1.052-2.86c0 .494-.253.94-.678 1.159l-.474.26v.128c0 .24-.158.438-.4.438-.198 0-.4-.197-.4-.438v-.4c0-.166.107-.316.242-.39l.698-.38a.426.426 0 0 0 .212-.378c0-.232-.172-.42-.385-.42h-.768c-.17 0-.307.15-.307.333 0 .243-.177.437-.4.437-.243 0-.4-.194-.4-.437 0-.667.498-1.209 1.107-1.209h.768c.652 0 1.185.583 1.185 1.296ZM5.2 1c2.872 0 5.2 2.155 5.2 4.813 0 2.657-2.328 4.812-5.2 4.812-.468 0-.92-.063-1.353-.17-.764.52-1.869 1.045-3.223 1.045a.623.623 0 0 1-.574-.413.736.736 0 0 1 .118-.738c.013-.011.567-.67.975-1.531A4.57 4.57 0 0 1 0 5.813C0 3.155 2.328 1 5.2 1ZM4.115 9.151c.365.115.73.162 1.085.162 2.205 0 4-1.57 4-3.5 0-1.931-1.795-3.5-4-3.5s-4 1.569-4 3.5c0 .962.443 1.673.814 2.102l.589.681-.395.829c-.09.164-.19.377-.294.557.443-.139.879-.355 1.303-.667l.418-.26.48.096Zm6.925-4.646C13.8 4.62 16 6.73 16 9.313c0 1.137-.43 2.181-1.143 3.005.408.86.96 1.52.976 1.53a.687.687 0 0 1 .095.74.575.575 0 0 1-.553.412c-1.352 0-2.457-.525-3.223-1.044-.432.106-.884.169-1.352.169-2.05 0-3.823-1.1-4.67-2.693.433-.063.848-.17 1.242-.318.7 1.018 1.976 1.698 3.428 1.698.355 0 .72-.046 1.085-.16l.48-.096.418.26c.425.311.86.527 1.305.666-.105-.18-.205-.393-.295-.557l-.395-.829.587-.68c.373-.427.815-1.141.815-2.104 0-1.812-1.583-3.305-3.623-3.483l.023-.016a5.36 5.36 0 0 0-.16-1.308Zm.243 6.648a.373.373 0 0 1-.566 0l-1-1.094a.463.463 0 0 1 0-.618.373.373 0 0 1 .566 0l.717.785 1.918-2.097a.373.373 0 0 1 .565 0 .463.463 0 0 1 0 .617l-2.2 2.407Z"/>
</svg>
