<svg xmlns="http://www.w3.org/2000/svg" width="16" height="16" fill="none" viewBox="0 0 16 16">
  <path fill="#23F7DD" d="m9.343.86 4.17 2.408a2.684 2.684 0 0 1 1.341 2.325v4.815c0 .959-.511 1.845-1.341 2.325l-4.17 2.408c-.831.48-1.854.48-2.685 0l-4.17-2.408a2.684 2.684 0 0 1-1.342-2.325V5.592c0-.959.512-1.845 1.342-2.325L6.658.86a2.683 2.683 0 0 1 2.686 0h-.001Z"/>
  <path fill="currentColor" d="M11.052 5.142 6.69 9.504 5.098 7.895c-.083-.066-.216-.066-.282 0l-.481.481c-.066.066-.066.2 0 .282l2.223 2.206a.19.19 0 0 0 .282 0l4.976-4.976c.066-.066.066-.199 0-.282l-.481-.464c-.066-.083-.2-.083-.282 0h-.001Z"/>
</svg>
