<svg width="16" height="16" viewBox="0 0 16 16" fill="none" xmlns="http://www.w3.org/2000/svg">
  <path
    d="M2.3183 10.6843C2.52058 10.8865 2.7942 11 3.07942 11C3.36463 11 3.63825 10.8865 3.84053 10.6843L8.02935 6.47209L12.2182 10.6843C12.4247 10.8622 12.6904 10.9551 12.9621 10.9445C13.2338 10.934 13.4915 10.8207 13.6838 10.6274C13.8761 10.434 13.9887 10.1749 13.9992 9.90163C14.0097 9.62841 13.9173 9.36126 13.7404 9.15358L8.78507 4.17057C8.58279 3.96838 8.30917 3.85488 8.02396 3.85488C7.73874 3.85488 7.46512 3.96838 7.26284 4.17057L2.30751 9.15575C2.10852 9.36049 1.99801 9.63599 2.00003 9.92227C2.00205 10.2085 2.11644 10.4824 2.3183 10.6843Z"
    fill="currentColor" />
</svg>
