<svg width="36" height="36" viewBox="0 0 36 36" fill="none" xmlns="http://www.w3.org/2000/svg">
<rect width="36" height="36" rx="18" fill="#131313"/>
<path d="M17.2965 14.0156C17.2965 13.626 17.61 13.3125 17.9996 13.3125C18.3892 13.3125 18.7027 13.626 18.7027 14.0156V17.625L21.2016 19.2891C21.5239 19.5059 21.6117 19.9424 21.3715 20.2646C21.1811 20.5869 20.7446 20.6748 20.4223 20.4346L17.61 18.5596C17.4137 18.4541 17.2965 18.2344 17.2965 17.9736V14.0156ZM17.9996 10.5C22.142 10.5 25.4992 13.8574 25.4992 18C25.4992 22.1426 22.142 25.5 17.9996 25.5C13.8573 25.5 10.5 22.1426 10.5 18C10.5 13.8574 13.8573 10.5 17.9996 10.5ZM11.9062 18C11.9062 21.3662 14.6336 24.0938 17.9996 24.0938C21.3657 24.0938 24.0931 21.3662 24.0931 18C24.0931 14.6338 21.3657 11.9062 17.9996 11.9062C14.6336 11.9062 11.9062 14.6338 11.9062 18Z" fill="#ADBFCC"/>
</svg>
