<svg xmlns="http://www.w3.org/2000/svg" width="17" height="16" fill="none" viewBox="0 0 17 16">
  <g clip-path="url(#a)">
    <path fill="currentColor" d="M5.969 5.469c.293-.29.768-.29 1.034 0L8.472 6.94l1.497-1.472c.293-.29.769-.29 1.034 0 .319.293.319.768 0 1.034L9.56 7.972l1.444 1.497c.319.293.319.769 0 1.034-.265.319-.74.319-1.034 0L8.472 9.06l-1.469 1.444c-.266.319-.74.319-1.034 0-.29-.265-.29-.74 0-1.034L7.44 7.972 5.969 6.503c-.29-.266-.29-.74 0-1.034ZM16.5 8a8 8 0 0 1-8 8 8 8 0 0 1-8-8 8 8 0 0 1 8-8 8 8 0 0 1 8 8Zm-8-6.5C4.91 1.5 2 4.41 2 8s2.91 6.5 6.5 6.5S15 11.59 15 8s-2.91-6.5-6.5-6.5Z"/>
  </g>
  <defs>
    <clipPath id="a">
      <path fill="currentColor" d="M.5 0h16v16H.5z"/>
    </clipPath>
  </defs>
</svg>
