<svg xmlns="http://www.w3.org/2000/svg" width="18" height="12" fill="none" viewBox="0 0 18 12">
  <path fill="currentColor" fill-opacity=".4" fill-rule="evenodd" d="M7.918.313a6 6 0 1 0 0 11.374A7.015 7.015 0 0 1 5.336 8.15a.656.656 0 0 1-.55-.186l-1.5-1.5a.658.658 0 0 1 0-.928.658.658 0 0 1 .928 0l.794.793A6.99 6.99 0 0 1 7.918.313Z" clip-rule="evenodd"/>
  <path fill="currentColor" fill-opacity=".4" fill-rule="evenodd" d="M12 12a6 6 0 1 0 0-12 6 6 0 0 0 0 12ZM9.286 6.464l1.5 1.5a.658.658 0 0 0 .928 0l3-3a.658.658 0 0 0 0-.928.658.658 0 0 0-.928 0L11.25 6.572l-1.036-1.036a.658.658 0 0 0-.928 0 .658.658 0 0 0 0 .928Z" clip-rule="evenodd"/>
</svg>
