<svg xmlns="http://www.w3.org/2000/svg" width="18" height="12" fill="none" viewBox="0 0 18 12">
  <path fill="currentColor" fill-opacity=".4" fill-rule="evenodd" d="m3.286 6.464 1.5 1.5a.658.658 0 0 0 .928 0l.473-.473a6.011 6.011 0 0 1-.184-1.672l-.753.753-1.036-1.036a.658.658 0 0 0-.928 0 .658.658 0 0 0 0 .928Zm4.696-4.92A4.874 4.874 0 0 0 1.125 6a4.874 4.874 0 0 0 6.857 4.456c.311.28.652.53 1.018.741A6 6 0 1 1 6 0c1.093 0 2.118.292 3 .803-.366.211-.707.46-1.018.741Z" clip-rule="evenodd"/>
  <path fill="currentColor" fill-opacity=".4" d="M11.714 7.964a.658.658 0 0 1-.928 0l-1.5-1.5a.658.658 0 0 1 0-.928.658.658 0 0 1 .928 0l1.036 1.036 2.536-2.536a.658.658 0 0 1 .928 0 .658.658 0 0 1 0 .928l-3 3ZM18 6A6 6 0 1 1 6 6a6 6 0 1 1 12 0Zm-6-4.875A4.874 4.874 0 0 0 7.125 6 4.874 4.874 0 0 0 12 10.875 4.874 4.874 0 0 0 16.875 6 4.874 4.874 0 0 0 12 1.125Z"/>
</svg>
