<svg width="24" height="24" viewBox="0 0 24 24" fill="none" xmlns="http://www.w3.org/2000/svg">
<path fill-rule="evenodd" clip-rule="evenodd" d="M12.0004 0.316406C5.55031 0.316406 0.31543 5.55129 0.31543 12.0014C0.31543 18.4515 5.55031 23.6864 12.0004 23.6864C18.4505 23.6864 23.6854 18.4515 23.6854 12.0014C23.6854 5.55129 18.4505 0.316406 12.0004 0.316406ZM8.83379 17.0143L4.63888 12.8194C4.18316 12.3636 4.18316 11.6275 4.63888 11.1718C5.09459 10.7161 5.83075 10.7161 6.28646 11.1718L9.66343 14.5371L17.7027 6.49777C18.1584 6.04206 18.8946 6.04206 19.3503 6.49777C19.806 6.95349 19.806 7.68964 19.3503 8.14536L10.4814 17.0143C10.0373 17.47 9.28951 17.47 8.83379 17.0143Z" fill="currentColor"/>
</svg>
