<svg xmlns="http://www.w3.org/2000/svg" width="17" height="16" fill="none" viewBox="0 0 17 16">
  <g clip-path="url(#a)">
    <path fill="#23F7DD" d="m16.206 6.206-1.914-1.914A.997.997 0 0 0 13.588 4H8.5c-1.103 0-2.028.897-2 2v7.972c0 1.131.897 2.028 2 2.028h6c1.1 0 2-.9 2-2V6.916c0-.266-.106-.522-.294-.71ZM15 14a.5.5 0 0 1-.5.5h-6A.5.5 0 0 1 8 14V6.003a.5.5 0 0 1 .5-.5h4V7a1 1 0 0 0 1 1H15v6ZM10.428 3A1.993 1.993 0 0 0 8.5 1.5H7.225A1.748 1.748 0 0 0 5.5 0c-.878 0-1.603.654-1.725 1.5H2.5a2 2 0 0 0-2 2V12a2 2 0 0 0 2 2h3v-1.5h-3A.5.5 0 0 1 2 12V3.5c0-.275.224-.5.5-.5H3v.5a1 1 0 0 0 1 1h1.917A2.986 2.986 0 0 1 8.5 3h1.928ZM5.5 2.25a.5.5 0 1 1 .001-1.001A.5.5 0 0 1 5.5 2.25Z"/>
  </g>
  <defs>
    <clipPath id="a">
      <path fill="#fff" d="M.5 0h16v16H.5z"/>
    </clipPath>
  </defs>
</svg>
