<svg xmlns="http://www.w3.org/2000/svg" width="13" height="13" fill="none" viewBox="0 0 13 13">
  <path fill="currentColor" fill-rule="evenodd" d="M4.164 7.782c0-1.495 1.841-2.548 4.017-2.548 2.175 0 4.017 1.053 4.017 2.548s-1.842 2.547-4.017 2.547c-2.176 0-4.017-1.052-4.017-2.547Zm6.858 0c0-.67-1.23-1.371-2.841-1.371-1.613 0-2.842.702-2.842 1.371 0 .67 1.23 1.372 2.842 1.372s2.84-.702 2.84-1.372Z" clip-rule="evenodd"/>
  <path fill="currentColor" d="M11.61 7.562c.292 0 .534.213.58.492l.008.096v2.17c0 1.395-1.845 2.336-4.017 2.336-2.1 0-3.894-.88-4.011-2.198l-.006-.138V8.197a.588.588 0 0 1 1.168-.095l.007.095v2.123c0 .531 1.234 1.16 2.842 1.16 1.537 0 2.733-.575 2.834-1.09l.007-.07V8.15c0-.325.263-.588.588-.588Z"/>
  <path fill="currentColor" fill-rule="evenodd" d="M0 3.047C0 1.552 1.841.5 4.017.5c2.175 0 4.017 1.052 4.017 2.547S6.192 5.595 4.017 5.595C1.84 5.595 0 4.542 0 3.047Zm6.858 0c0-.668-1.23-1.37-2.841-1.37-1.612 0-2.841.702-2.841 1.37 0 .67 1.229 1.372 2.84 1.372 1.613 0 2.842-.702 2.842-1.371Z" clip-rule="evenodd"/>
  <path fill="currentColor" d="M7.446 6.397a.588.588 0 0 1-.58-.492l-.008-.095V3.25a.588.588 0 0 1 1.168-.094l.008.095V5.81a.588.588 0 0 1-.588.587ZM.588 2.677c.292 0 .534.213.58.492l.008.096v2.534c0 .413 1.238.98 2.84.98.177 0 .355-.008.532-.023a.588.588 0 0 1 .098 1.172c-.209.017-.418.026-.63.027-2.1 0-3.889-.785-4.01-2.022L0 5.8V3.265c0-.325.263-.588.588-.588Z"/>
  <path fill="currentColor" d="M.588 5.113c.292 0 .534.213.58.492l.008.096v2.35c0 .414 1.238.98 2.84.98.188 0 .377-.008.565-.025a.588.588 0 1 1 .103 1.171c-.221.02-.444.03-.667.03-2.102 0-3.89-.785-4.01-2.02L0 8.051V5.7c0-.325.263-.588.588-.588Z"/>
</svg>
