<svg xmlns="http://www.w3.org/2000/svg" width="27" height="16" fill="none" viewBox="0 0 27 16">
  <g opacity=".5">
    <g opacity=".25">
      <mask id="a" fill="#fff">
        <path fill-rule="evenodd" d="M7.971 14.946a7 7 0 1 0 0-13.892A7.997 7.997 0 0 1 12 8a7.997 7.997 0 0 1-4.029 6.946Z" clip-rule="evenodd"/>
      </mask>
      <path fill="#E5EAF7" fill-rule="evenodd" d="M7.971 14.946a7 7 0 1 0 0-13.892A7.997 7.997 0 0 1 12 8a7.997 7.997 0 0 1-4.029 6.946Z" clip-rule="evenodd"/>
      <path fill="#90A0AB" d="m7.971 14.946-.497-.867-2.6 1.49 2.974.37.123-.993Zm0-13.892L7.848.06l-2.975.37 2.601 1.49.497-.867ZM8.844 14a6.06 6.06 0 0 1-.75-.046l-.246 1.984c.327.041.66.062.996.062v-2Zm6-6a6 6 0 0 1-6 6v2a8 8 0 0 0 8-8h-2Zm-6-6a6 6 0 0 1 6 6h2a8 8 0 0 0-8-8v2Zm-.75.046A6.07 6.07 0 0 1 8.845 2V0c-.337 0-.67.02-.996.061l.247 1.985Zm-.62-.124A6.997 6.997 0 0 1 11 8h2A8.997 8.997 0 0 0 8.469.186l-.995 1.736ZM11 8c0 2.6-1.417 4.87-3.526 6.079l.995 1.735A8.997 8.997 0 0 0 13 8h-2Z" mask="url(#a)"/>
    </g>
  </g>
  <g opacity=".35">
    <g opacity=".25">
      <mask id="b" fill="#fff">
        <path fill-rule="evenodd" d="M13.8 13.88a6 6 0 1 0 0-11.76A6.994 6.994 0 0 1 17 8a6.994 6.994 0 0 1-3.2 5.88Z" clip-rule="evenodd"/>
      </mask>
      <path fill="#E5EAF7" fill-rule="evenodd" d="M13.8 13.88a6 6 0 1 0 0-11.76A6.994 6.994 0 0 1 17 8a6.994 6.994 0 0 1-3.2 5.88Z" clip-rule="evenodd"/>
      <path fill="#90A0AB" d="m13.8 13.88-.544-.84-2.057 1.332 2.402.488.199-.98Zm0-11.76-.2-.98-2.4.488 2.056 1.331.544-.839ZM15 13a5.03 5.03 0 0 1-1.001-.1l-.398 1.96c.453.092.92.14 1.399.14v-2Zm5-5a5 5 0 0 1-5 5v2a7 7 0 0 0 7-7h-2Zm-5-5a5 5 0 0 1 5 5h2a7 7 0 0 0-7-7v2Zm-1.001.1c.322-.065.657-.1 1-.1V1c-.477 0-.946.048-1.398.14l.398 1.96Zm-.743-.14A5.994 5.994 0 0 1 16 8h2a7.994 7.994 0 0 0-3.657-6.72l-1.087 1.68ZM16 8c0 2.112-1.09 3.97-2.744 5.04l1.087 1.68A7.994 7.994 0 0 0 18 8h-2Z" mask="url(#b)"/>
    </g>
  </g>
  <g opacity=".7">
    <g opacity=".25">
      <mask id="c" fill="#fff">
        <path fill-rule="evenodd" d="M0 15.602A8 8 0 1 0 0 .399a8.004 8.004 0 0 1 0 15.203Z" clip-rule="evenodd"/>
      </mask>
      <path fill="#E5EAF7" fill-rule="evenodd" d="M0 15.602A8 8 0 1 0 0 .399a8.004 8.004 0 0 1 0 15.203Z" clip-rule="evenodd"/>
      <path fill="#90A0AB" d="m0 15.602-.312-.95-2.89.95 2.89.95.312-.95ZM0 .398l-.312-.95-2.89.95 2.89.95L0 .398ZM2.5 15c-.766 0-1.5-.123-2.188-.348l-.624 1.9A8.995 8.995 0 0 0 2.5 17v-2Zm7-7a7 7 0 0 1-7 7v2a9 9 0 0 0 9-9h-2Zm-7-7a7 7 0 0 1 7 7h2a9 9 0 0 0-9-9v2Zm-2.188.348A6.993 6.993 0 0 1 2.5 1v-2c-.98 0-1.926.157-2.812.448l.624 1.9Zm-.624 0A7.003 7.003 0 0 1 4.5 8h2C6.5 4.01 3.904.63.312-.552l-.624 1.9ZM4.5 8c0 3.1-2.017 5.733-4.812 6.652l.624 1.9A9.004 9.004 0 0 0 6.5 8h-2Z" mask="url(#c)"/>
    </g>
  </g>
</svg>
