<svg width="40" height="40" viewBox="0 0 40 40" fill="none" xmlns="http://www.w3.org/2000/svg">
<path d="M40 20C40 8.9543 31.0457 0 20 0C8.9543 0 0 8.9543 0 20C0 31.0457 8.9543 40 20 40C31.0457 40 40 31.0457 40 20Z" fill="black"/>
<path d="M24.4063 15.5935C21.0197 12.2078 16.9077 11.0152 15.0439 12.8778L12.8799 15.0412C11.9444 15.9764 11.7475 17.4967 12.3246 19.3229C13.0407 21.2294 14.1563 22.9607 15.5967 24.4007C17.0371 25.8407 18.7689 26.9561 20.6759 27.672C21.2943 27.8772 21.9405 27.9867 22.592 27.9968C23.0254 28.0161 23.4581 27.9482 23.8647 27.797C24.2713 27.6458 24.6433 27.4145 24.9588 27.1168L27.122 24.9534C28.985 23.093 27.7922 18.9813 24.4063 15.5935ZM14.1665 15.2962C14.1812 15.9298 14.2894 16.5576 14.4878 17.1595C14.575 17.4342 14.6841 17.7125 14.8025 17.9908L13.4796 19.3142C13.4404 19.2073 13.3975 19.0961 13.364 18.9937C12.9221 17.5962 13.0268 16.4357 13.6548 15.8122L14.1665 15.2962ZM13.9485 20.3831L15.3056 19.0264C15.8809 20.0458 16.5786 20.9912 17.3831 21.8416L15.9896 23.2347C15.1846 22.3828 14.4987 21.4257 13.9506 20.3897L13.9485 20.3831ZM18.1535 22.6127C19.0615 23.4705 20.0784 24.2052 21.1781 24.7978L19.8204 26.1553C18.7009 25.5915 17.6699 24.8671 16.7601 24.005L18.1535 22.6127ZM21.0023 26.6321C20.9739 26.6226 20.9448 26.6103 20.9165 26.6008L22.2249 25.2891C22.4292 25.3705 22.6327 25.4439 22.8348 25.5071C23.437 25.7055 24.0653 25.8135 24.6992 25.8276L24.1824 26.3443C23.5639 26.9736 22.4022 27.0753 21.0044 26.635L21.0023 26.6321ZM23.1662 24.4687C21.4262 23.8056 19.8461 22.7823 18.5294 21.4659C17.2127 20.1496 16.1891 18.5698 15.5258 16.8303C15.0839 15.4321 15.1878 14.2723 15.8122 13.6473C16.1013 13.3735 16.4674 13.1947 16.8611 13.135C18.5446 12.7092 21.2952 13.9191 23.6467 16.2693C25.2253 17.7225 26.3305 19.6166 26.8189 21.7057C26.9496 22.1254 26.9752 22.5708 26.8933 23.0026C26.8114 23.4345 26.6246 23.8396 26.3493 24.1823C25.7271 24.8088 24.5706 24.9134 23.1684 24.4716L23.1662 24.4687Z" fill="#23F7DD"/>
</svg>
