<svg width="16" height="16" viewBox="0 0 16 16" fill="none" xmlns="http://www.w3.org/2000/svg">
<path d="M5.5 2.8125C5.53125 2.84375 5.5625 2.90625 5.65625 3C5.65625 3 5.6875 3 5.6875 3.03125C5.09375 3.03125 4.53125 3.0625 4 3.15625V2.75C4 2.1875 4.28125 1.75 4.65625 1.4375C5 1.09375 5.46875 0.84375 6 0.65625C7.0625 0.25 8.46875 0 10 0C11.5 0 12.9062 0.25 13.9688 0.65625C14.5 0.84375 14.9688 1.09375 15.3125 1.4375C15.6875 1.75 16 2.1875 16 2.75V9.25C16 9.8125 15.6875 10.2812 15.3125 10.5938C14.9688 10.9375 14.5 11.1875 13.9688 11.375C13.6562 11.5 13.3438 11.5938 13 11.6875V10.125C13.1562 10.0938 13.2812 10.0312 13.4375 9.96875C13.8438 9.8125 14.1562 9.65625 14.3125 9.5C14.4062 9.40625 14.4375 9.34375 14.4688 9.3125C14.5 9.28125 14.5 9.25 14.5 9.25V7.90625C14.3125 8 14.1562 8.0625 13.9688 8.125C13.6562 8.25 13.3438 8.34375 13 8.4375V6.875C13.1562 6.84375 13.2812 6.78125 13.4375 6.71875C13.8438 6.5625 14.1562 6.40625 14.3125 6.25C14.4062 6.15625 14.4375 6.09375 14.4688 6.0625C14.4688 6.03125 14.4688 6.03125 14.5 6V4.65625C14.3125 4.75 14.1562 4.8125 13.9688 4.875C13.5312 5.03125 13.0312 5.1875 12.5312 5.28125C12.3438 5.03125 12.1875 4.84375 12 4.6875C11.6875 4.40625 11.3125 4.15625 10.9375 3.96875C11.9062 3.90625 12.7812 3.71875 13.4375 3.46875C13.8438 3.3125 14.1562 3.15625 14.3125 3C14.4062 2.90625 14.4375 2.84375 14.4688 2.8125C14.4688 2.78125 14.4688 2.78125 14.5 2.75C14.5 2.75 14.5 2.75 14.4688 2.71875C14.4375 2.6875 14.4062 2.625 14.3125 2.53125C14.1562 2.375 13.8438 2.21875 13.4375 2.0625C12.5938 1.71875 11.375 1.5 10 1.5C8.59375 1.5 7.375 1.71875 6.53125 2.0625C6.125 2.21875 5.8125 2.375 5.65625 2.53125C5.5625 2.625 5.53125 2.6875 5.5 2.71875C5.46875 2.75 5.46875 2.75 5.46875 2.75C5.5 2.78125 5.5 2.78125 5.5 2.8125ZM0 6.75C0 6.1875 0.28125 5.75 0.65625 5.4375C1 5.09375 1.46875 4.84375 2 4.65625C3.0625 4.25 4.46875 4 6 4C7.5 4 8.90625 4.25 9.96875 4.65625C10.5 4.84375 10.9688 5.09375 11.3125 5.4375C11.6875 5.75 12 6.1875 12 6.75V13.25C12 13.8125 11.6875 14.2812 11.3125 14.5938C10.9688 14.9375 10.5 15.1875 9.96875 15.375C8.90625 15.7812 7.5 16 6 16C4.46875 16 3.0625 15.7812 2 15.375C1.46875 15.1875 1 14.9375 0.65625 14.5938C0.28125 14.2812 0 13.8125 0 13.25V6.75ZM1.5 6.8125C1.53125 6.84375 1.5625 6.90625 1.65625 7C1.8125 7.15625 2.125 7.3125 2.53125 7.46875C3.375 7.8125 4.59375 8 6 8C7.375 8 8.59375 7.8125 9.4375 7.46875C9.84375 7.3125 10.1562 7.15625 10.3125 7C10.4062 6.90625 10.4375 6.84375 10.4688 6.8125C10.4688 6.78125 10.4688 6.78125 10.5 6.75C10.5 6.75 10.5 6.75 10.4688 6.71875C10.4375 6.6875 10.4062 6.625 10.3125 6.53125C10.1562 6.375 9.84375 6.21875 9.4375 6.0625C8.59375 5.71875 7.375 5.5 6 5.5C4.59375 5.5 3.375 5.71875 2.53125 6.0625C2.125 6.21875 1.8125 6.375 1.65625 6.53125C1.5625 6.625 1.53125 6.6875 1.5 6.71875C1.46875 6.75 1.46875 6.75 1.5 6.75C1.5 6.78125 1.5 6.78125 1.5 6.8125ZM10.5 8.65625C10.3125 8.75 10.1562 8.8125 9.96875 8.875C8.90625 9.28125 7.5 9.5 6 9.5C4.46875 9.5 3.0625 9.28125 2 8.875C1.8125 8.8125 1.65625 8.75 1.5 8.65625V10C1.5 10.0312 1.5 10.0312 1.5 10.0625C1.53125 10.0938 1.5625 10.1562 1.65625 10.25C1.8125 10.4062 2.125 10.5625 2.53125 10.7188C3.375 11.0625 4.59375 11.25 6 11.25C7.375 11.25 8.59375 11.0625 9.4375 10.7188C9.84375 10.5625 10.1562 10.4062 10.3125 10.25C10.4062 10.1562 10.4375 10.0938 10.4688 10.0625C10.4688 10.0312 10.4688 10.0312 10.5 10V8.65625ZM2 12.125C1.8125 12.0625 1.65625 12 1.5 11.9062V13.25C1.46875 13.25 1.46875 13.2812 1.5 13.3125C1.53125 13.3438 1.5625 13.4062 1.65625 13.5C1.8125 13.6562 2.125 13.8125 2.53125 13.9688C3.375 14.3125 4.59375 14.5 6 14.5C7.375 14.5 8.59375 14.3125 9.4375 13.9688C9.84375 13.8125 10.1562 13.6562 10.3125 13.5C10.4062 13.4062 10.4375 13.3438 10.4688 13.3125C10.5 13.2812 10.5 13.25 10.5 13.25V11.9062C10.3125 12 10.1562 12.0625 9.96875 12.125C8.90625 12.5312 7.5 12.75 5.96875 12.75C4.46875 12.75 3.0625 12.5312 2 12.125Z" fill="currentColor"/>
</svg>
