<svg width="24" height="24" viewBox="0 0 24 24" fill="none" xmlns="http://www.w3.org/2000/svg">
<rect width="24" height="24" rx="12" fill="black"/>
<path d="M12 16.2656C14.1533 16.2656 15.9375 14.666 16.2246 12.5742L15.6299 12.4307C15.4043 12.3691 15.2197 12.2051 15.1582 12L14.8096 10.9541C14.707 10.626 14.8711 10.2773 15.1992 10.1338L15.7119 9.92871C15.0146 8.67773 13.7021 7.81641 12.2051 7.75488L12.2461 7.83691C12.3896 8.08301 12.3691 8.37012 12.1846 8.5957L11.8564 8.96484C11.6514 9.21094 11.6514 9.55957 11.8564 9.80566L12.123 10.1338C12.2461 10.2773 12.2461 10.4619 12.1641 10.6055C12.0615 10.749 11.877 10.8105 11.7129 10.7695L11.2207 10.6055C11.0771 10.5645 10.9336 10.5645 10.79 10.6465L10.667 10.708C10.4824 10.79 10.4004 10.9951 10.4619 11.2002C10.5029 11.3027 10.5645 11.3848 10.6465 11.4258L11.3643 11.8359C11.5488 11.9385 11.7744 12 12.0205 12H12.9023C13.1484 12 13.415 12.1025 13.5996 12.2871L13.6611 12.3691C13.8457 12.5537 13.9688 12.8203 13.9688 13.0664V13.251C13.9688 13.5996 13.7637 13.9277 13.4561 14.0918L13.2715 14.2148C12.9844 14.3789 12.7588 14.6455 12.6562 14.9941L12.6357 15.0967C12.5332 15.4248 12.2871 15.6709 11.959 15.7734C11.6514 15.8555 11.3438 15.6299 11.3438 15.3018V14.666C11.3438 14.4404 11.2002 14.2354 11.0156 14.1328C10.8105 14.0508 10.6875 13.8457 10.6875 13.6201V12.7998C10.6875 12.4307 10.4414 12.1025 10.0928 12L8.90332 11.6719C8.5752 11.5693 8.28809 11.3438 8.12402 11.0566L7.91895 10.708C7.7959 11.1182 7.73438 11.5488 7.73438 12C7.73438 14.3584 9.6416 16.2656 12 16.2656ZM12 17.25C10.1133 17.25 8.39062 16.2656 7.44727 14.625C6.50391 13.0049 6.50391 11.0156 7.44727 9.375C8.39062 7.75488 10.1133 6.75 12 6.75C13.8662 6.75 15.5889 7.75488 16.5322 9.375C17.4756 11.0156 17.4756 13.0049 16.5322 14.625C15.5889 16.2656 13.8662 17.25 12 17.25Z" fill="#ADBFCC"/>
</svg>
