<svg xmlns="http://www.w3.org/2000/svg" width="16" height="12" fill="none" viewBox="0 0 16 12">
  <path fill="#ADBFCC" d="M14.5 0h-13A1.5 1.5 0 0 0 0 1.5v9c0 .844.656 1.5 1.5 1.5h13a1.5 1.5 0 0 0 1.5-1.5v-9c0-.813-.688-1.5-1.5-1.5Zm-.188 10.5H1.688c-.125 0-.188-.063-.188-.188V1.688c0-.094.063-.188.188-.188h12.624c.094 0 .188.094.188.188v8.624c0 .126-.094.188-.188.188ZM4 2.75c-.719 0-1.25.563-1.25 1.25 0 .719.531 1.25 1.25 1.25.688 0 1.25-.531 1.25-1.25 0-.688-.563-1.25-1.25-1.25ZM3 9h10V6.5l-2.75-2.719a.36.36 0 0 0-.531 0L6 7.5 4.75 6.281a.36.36 0 0 0-.531 0L3 7.5V9Z"/>
</svg>
