<svg width="17" height="17" viewBox="0 0 17 17" fill="none" xmlns="http://www.w3.org/2000/svg">
<path d="M1.75 8C2 8.71875 2.40625 9.34375 2.96875 9.875L3.46875 10.3125V15.7812C3.46875 16.1875 3.15625 16.5 2.75 16.5C2.3125 16.5 1.96875 16.1875 1.96875 15.75V10.9688C1.125 10.1875 0.5 9.1875 0.1875 8H1.75ZM15.8438 9C15.875 9.03125 15.875 9.09375 15.7812 9.09375C16.0938 9.78125 15.5938 10.5 14.875 10.5H13.9062V12.5312C13.9062 13.625 13.0312 14.5 11.9375 14.5H10.9688L11 15.75C11 16.1875 10.6875 16.5 10.25 16.5C9.84375 16.5 9.5 16.1875 9.5 15.75V13H12C12.25 13 12.5 12.7812 12.5 12.5V9H15.8438ZM14.9688 2C15.5312 2 15.9688 2.46875 15.9375 3V7C15.9375 7.5625 15.4688 8 14.9375 8H8.96875C8.09375 8 7.3125 7.625 6.6875 7H0.96875C0.4375 7 0 6.5625 0 6V4C0 3.46875 0.4375 3 0.96875 3H1.1875C2.34375 1.5 4.1875 0.5 6.21875 0.5H8.28125C9.8125 0.5 11.25 1.0625 12.4062 2H14.9688ZM6.03125 5.5C6 5.34375 5.96875 5.1875 5.96875 5C5.96875 4.84375 6 4.6875 6.03125 4.5H1.46875V5.5H6.03125ZM6.71875 3C6.75 3 6.75 3.03125 6.75 3.03125C7.25 2.46875 7.9375 2.09375 8.71875 2.03125C8.59375 2.03125 8.4375 2 8.3125 2H6.1875C5.125 2 4.0625 2.375 3.25 3H6.71875ZM11.9688 6.5L11.9375 3.5H8.96875C8.15625 3.5 7.5 4.1875 7.5 5C7.5 5.84375 8.125 6.5 8.96875 6.5H11.9688ZM14.4688 6.5V3.5H13.5V6.5H14.4688Z" fill="#ADBFCC"/>
</svg>
