<svg xmlns="http://www.w3.org/2000/svg" width="12" height="12" fill="none" viewBox="0 0 12 12">
  <path fill="currentColor" d="M3.5 7.75a.499.499 0 1 1 0 1h-1a.499.499 0 1 1 0-1h1Zm4 0a.499.499 0 1 1 0 1H5.167a.499.499 0 1 1 0-1H7.5Zm3.167-6.334c.735 0 1.333.597 1.333 1.333v6.667c0 .735-.598 1.333-1.333 1.333H1.333A1.334 1.334 0 0 1 0 9.416V2.749c0-.736.597-1.333 1.333-1.333h9.334Zm0 1H1.333A.333.333 0 0 0 1 2.749v.667h10v-.667a.334.334 0 0 0-.333-.333Zm.333 3H1v4c0 .183.15.333.333.333h9.334c.183 0 .333-.15.333-.333v-4Z"/>
</svg>
