<svg xmlns="http://www.w3.org/2000/svg" width="16" height="14" fill="none" viewBox="0 0 16 14">
  <path fill="currentColor" d="M13.2 12.2H2.8c-.225 0-.4.2-.4.4v.4c0 .225.175.4.4.4h10.4c.2 0 .4-.175.4-.4v-.4c0-.2-.2-.4-.4-.4Zm1.6-8.4A1.2 1.2 0 0 0 13.6 5c0 .2.025.35.1.5l-1.8 1.1a.883.883 0 0 1-.425.1.829.829 0 0 1-.7-.4L8.75 2.725c.275-.2.45-.55.45-.925C9.2 1.15 8.65.6 8 .6a1.2 1.2 0 0 0-1.2 1.2c0 .375.175.725.425.925L5.2 6.3c-.15.25-.425.4-.7.4a.734.734 0 0 1-.4-.1L2.275 5.5c.075-.15.125-.325.125-.5 0-.65-.55-1.2-1.2-1.2A1.2 1.2 0 0 0 0 5c0 .675.525 1.2 1.2 1.2h.175L3.2 11h9.6l1.8-4.8h.2A1.2 1.2 0 0 0 16 5c0-.65-.55-1.2-1.2-1.2Zm-2.85 6H4.025l-.9-2.4.35.225c.3.175.675.275 1.025.275.725 0 1.375-.375 1.725-1L8 3.825 9.75 6.9c.35.625 1 1 1.725 1 .375 0 .725-.1 1.025-.275l.35-.225-.9 2.4Z"/>
</svg>
