<svg width="20" height="20" viewBox="0 0 20 20" fill="none" xmlns="http://www.w3.org/2000/svg">
<path d="M3.4375 1.25H17.8125C18.3203 1.25 18.75 1.67969 18.75 2.1875C18.75 2.73438 18.3203 3.125 17.8125 3.125H3.4375C2.53906 3.125 1.875 3.82812 1.875 4.6875V15.3125C1.875 16.2109 2.53906 16.875 3.4375 16.875H16.5625C17.4219 16.875 18.125 16.2109 18.125 15.3125V8.4375C18.125 7.57812 17.4219 6.875 16.5625 6.875H4.6875C4.14062 6.875 3.75 6.48438 3.75 5.9375C3.75 5.42969 4.14062 5 4.6875 5H16.5625C18.4375 5 20 6.5625 20 8.4375V15.3125C20 17.2266 18.4375 18.75 16.5625 18.75H3.4375C1.52344 18.75 0 17.2266 0 15.3125V4.6875C0 2.8125 1.52344 1.25 3.4375 1.25Z" fill="#ADBFCC"/>
<path d="M1 12H10.5" stroke="#ADBFCC" stroke-width="2" stroke-linecap="round"/>
<circle cx="13" cy="12" r="2" stroke="#ADBFCC" stroke-width="2"/>
</svg>
