<svg width="20" height="20" viewBox="0 0 20 20" fill="none" xmlns="http://www.w3.org/2000/svg">
<path fill-rule="evenodd" clip-rule="evenodd" d="M17.5 1.25H2.5C1.09375 1.25 0 2.38281 0 3.75V11H10.1707C10.5825 9.83481 11.6938 9 13 9C14.6569 9 16 10.3431 16 12C16 13.6569 14.6569 15 13 15C11.6938 15 10.5825 14.1652 10.1707 13H0V16.25C0 17.6562 1.09375 18.75 2.5 18.75H17.5C18.8672 18.75 20 17.6562 20 16.25V7.5C20 6.13281 18.8672 5 17.5 5H3.125C2.77344 5 2.5 4.72656 2.5 4.375C2.5 4.0625 2.77344 3.75 3.125 3.75H17.5C18.1641 3.75 18.75 3.20312 18.75 2.5C18.75 1.83594 18.1641 1.25 17.5 1.25ZM12 12C12 11.4477 12.4477 11 13 11C13.5523 11 14 11.4477 14 12C14 12.5523 13.5523 13 13 13C12.4477 13 12 12.5523 12 12Z" fill="white"/>
</svg>
