<svg xmlns="http://www.w3.org/2000/svg" width="16" height="16" fill="none" viewBox="0 0 16 16">
  <path fill="#8293AA" d="M5.778 8.111c0-1.497.994-2.666 2.222-2.666s2.222 1.169 2.222 2.666c0 1.472-.994 2.667-2.222 2.667S5.778 9.583 5.778 8.11ZM0 12.708V4.14c0-.673.705-1.119 1.343-.943 2.218.585 4.438.043 6.657-.522 2.414-.616 4.828-1.23 7.242-.333.475.176.758.658.758 1.173v8.544c0 .698-.706 1.145-1.342.945-2.22-.586-4.439-.02-6.658.544-2.414.617-4.828 1.23-7.242.334C.284 13.706 0 13.222 0 12.708Zm7.756-.475c1.552-.397 3.316-.847 5.147-.797a1.781 1.781 0 0 1 1.764-1.547V5c-.98 0-1.775-.794-1.778-1.774-1.306-.047-2.689.265-4.27.666-.122.03-.247.064-.375.097-1.552.397-3.316.847-5.147.797a1.78 1.78 0 0 1-1.764 1.547v4.89c.98 0 1.775.794 1.778 1.774 1.28.047 2.689-.266 4.27-.666.122-.03.247-.064.375-.098Z"/>
</svg>
