<svg width="40" height="40" viewBox="0 0 40 40" fill="none" xmlns="http://www.w3.org/2000/svg">
<rect width="40" height="40" rx="16" fill="url(#paint0_linear_1433_238407)"/>
<path d="M21 12.3438V12.9549C23.2656 13.3483 25 15.4951 25 18.0859V19.2275C25 20.7793 25.4844 22.2866 26.3687 23.5L26.8344 24.1357C27.0156 24.3818 27.05 24.7202 26.925 25.0039C26.8 25.2876 26.5375 25.4688 26.25 25.4688H13.75C13.4625 25.4688 13.2 25.2876 13.0741 25.0039C12.9491 24.7202 12.9844 24.3818 13.1656 24.1357L13.6312 23.5C14.5156 22.2866 15 20.7793 15 19.2275V18.0859C15 15.4951 16.7344 13.3483 19 12.9549V12.3438C19 11.7398 19.4469 11.25 20 11.25C20.5531 11.25 21 11.7398 21 12.3438ZM19.75 14.5312C17.9563 14.5312 16.5 16.124 16.5 18.0859V19.2275C16.5 20.8647 16.0656 22.4609 15.2594 23.8281H24.7406C23.9344 22.4609 23.5 20.8647 23.5 19.2275V18.0859C23.5 16.124 22.0437 14.5312 20.25 14.5312H19.75ZM22 26.5625C22 27.1128 21.7906 27.7007 21.4156 28.1108C21.0406 28.521 20.5031 28.75 20 28.75C19.4688 28.75 18.9594 28.521 18.5844 28.1108C18.2094 27.7007 18 27.1128 18 26.5625H22ZM10 18.0859C10 17.6313 10.3359 17.2656 10.75 17.2656H13.25C13.6656 17.2656 14 17.6313 14 18.0859C14 18.5405 13.6656 18.9062 13.25 18.9062H10.75C10.3359 18.9062 10 18.5405 10 18.0859ZM29.25 17.2656C29.6656 17.2656 30 17.6313 30 18.0859C30 18.5405 29.6656 18.9062 29.25 18.9062H26.75C26.3344 18.9062 26 18.5405 26 18.0859C26 17.6313 26.3344 17.2656 26.75 17.2656H29.25ZM28.6719 11.977C28.8563 12.382 28.7063 12.8749 28.3344 13.0776L26.3344 14.1713C25.9656 14.3737 25.5156 14.2096 25.3281 13.8042C25.1438 13.3992 25.2938 12.9063 25.6656 12.7037L27.6656 11.6099C28.0344 11.4074 28.4844 11.5717 28.6719 11.977ZM11.6647 13.0776C11.2941 12.8749 11.1441 12.382 11.3291 11.977C11.5144 11.5717 11.965 11.4074 12.3353 11.6099L14.3344 12.7037C14.7062 12.9063 14.8562 13.3992 14.6719 13.8042C14.4844 14.2096 14.0344 14.3737 13.6656 14.1713L11.6647 13.0776Z" fill="white"/>
<defs>
<linearGradient id="paint0_linear_1433_238407" x1="5.1633e-07" y1="2.58823" x2="41.8562" y2="4.79511" gradientUnits="userSpaceOnUse">
<stop stop-color="#112549"/>
<stop offset="1" stop-color="#12D2B0"/>
</linearGradient>
</defs>
</svg>
