<svg xmlns="http://www.w3.org/2000/svg" width="16" height="16" fill="none" viewBox="0 0 16 16">
  <g clip-path="url(#a)">
    <path fill="#8293AA" d="M5 8c0-1.684 1.316-3 3-3 1.656 0 3 1.316 3 3a3 3 0 0 1-3 3c-1.684 0-3-1.344-3-3Zm3-1.5a1.5 1.5 0 1 0 0 3 1.5 1.5 0 0 0 0-3ZM9.16 0a1.5 1.5 0 0 1 1.459 1.148l.243 1.015c.266.13.52.277.76.44l1.003-.296a1.502 1.502 0 0 1 1.725.689l1.16 2.007c.343.6.234 1.36-.266 1.838l-.76.693a6.722 6.722 0 0 1 0 .903l.76.722c.5.478.61 1.238.265 1.838l-1.16 2.006c-.346.6-1.058.884-1.724.69l-1.003-.296c-.24.162-.494.31-.76.44l-.243 1.016A1.501 1.501 0 0 1 9.159 16H6.841a1.501 1.501 0 0 1-1.46-1.147l-.244-1.015a6.506 6.506 0 0 1-.759-.441l-1.031.297c-.637.193-1.349-.09-1.695-.69l-1.16-2.007c-.346-.6-.237-1.36.265-1.838l.758-.722a6.771 6.771 0 0 1 0-.903l-.758-.693a1.5 1.5 0 0 1-.265-1.838l1.16-2.007c.346-.6 1.058-.885 1.695-.689l1.031.296c.24-.163.494-.31.76-.44l.243-1.015A1.5 1.5 0 0 1 6.841 0h2.318ZM6.421 3.237l-.35.147a4.93 4.93 0 0 0-1.1.638l-.303.231-1.718-.506-1.16 2.006 1.297 1.234-.048.375a5.12 5.12 0 0 0 0 1.275l.048.375-1.297 1.235 1.16 2.006 1.718-.506.303.231c.334.256.703.472 1.1.638l.35.146.419 1.738h2.318l.42-1.738.35-.146a4.929 4.929 0 0 0 1.1-.638l.302-.231 1.719.506 1.16-2.006-1.298-1.235.047-.375c.028-.209.04-.421.04-.637 0-.216-.012-.428-.04-.638l-.047-.375 1.297-1.234-1.16-2.006-1.718.506-.303-.231a4.931 4.931 0 0 0-1.1-.638l-.35-.147L9.16 1.5H6.841l-.42 1.737Z"/>
  </g>
  <defs>
    <clipPath id="a">
      <path fill="#fff" d="M0 0h16v16H0z"/>
    </clipPath>
  </defs>
</svg>
