<svg width="40" height="40" viewBox="0 0 40 40" fill="none" xmlns="http://www.w3.org/2000/svg">
<rect width="40" height="40" rx="20" fill="black"/>
<path fill-rule="evenodd" clip-rule="evenodd" d="M25.7694 13.9074C25.6943 13.8339 25.6554 13.7378 25.6554 13.6458C25.6554 13.5499 25.6943 13.4577 25.7694 13.384C25.9228 13.2405 26.1707 13.2405 26.3245 13.384C26.403 13.4577 26.4423 13.5499 26.4423 13.6458C26.4423 13.7378 26.403 13.8339 26.3245 13.9074C26.2494 13.9776 26.1473 14.0143 26.0488 14.0143C25.9466 14.0143 25.8441 13.9776 25.7694 13.9074Z" fill="white"/>
<path fill-rule="evenodd" clip-rule="evenodd" d="M24.7784 14.9407C24.7084 14.867 24.6714 14.7712 24.6714 14.6791C24.6714 14.5833 24.7084 14.4912 24.7784 14.4174C24.9223 14.2736 25.1587 14.2736 25.3024 14.4174C25.3726 14.4912 25.4094 14.5833 25.4094 14.6791C25.4094 14.7712 25.3726 14.867 25.3024 14.9407C25.2285 15.0109 25.1363 15.0475 25.0404 15.0475C24.9445 15.0475 24.8523 15.0109 24.7784 14.9407Z" fill="white"/>
<path fill-rule="evenodd" clip-rule="evenodd" d="M23.6963 15.9701C23.626 15.8999 23.5893 15.8042 23.5893 15.712C23.5893 15.6165 23.626 15.5206 23.6963 15.4504C23.84 15.3069 24.0763 15.3069 24.22 15.4504C24.2903 15.5206 24.327 15.6165 24.327 15.712C24.327 15.8042 24.2903 15.8999 24.22 15.9701C24.1462 16.044 24.0539 16.0805 23.9582 16.0805C23.8622 16.0805 23.7701 16.044 23.6963 15.9701Z" fill="white"/>
<path fill-rule="evenodd" clip-rule="evenodd" d="M22.6703 17.0066C22.5958 16.9361 22.5562 16.8398 22.5562 16.7436C22.5562 16.6509 22.5958 16.5549 22.6703 16.4842C22.8236 16.3399 23.0757 16.3399 23.2291 16.4842C23.304 16.5549 23.3432 16.6509 23.3432 16.7436C23.3432 16.8398 23.304 16.9361 23.2291 17.0066C23.1504 17.0806 23.0519 17.1139 22.9496 17.1139C22.8513 17.1139 22.749 17.0806 22.6703 17.0066Z" fill="white"/>
<path fill-rule="evenodd" clip-rule="evenodd" d="M21.683 18.0401C21.6095 17.9699 21.5724 17.874 21.5724 17.7781C21.5724 17.6859 21.6095 17.5898 21.683 17.52C21.8235 17.3722 22.0594 17.3722 22.2033 17.52C22.277 17.5898 22.3103 17.6859 22.3103 17.7781C22.3103 17.874 22.277 17.9699 22.2033 18.0401C22.1333 18.114 22.037 18.1471 21.9413 18.1471C21.8489 18.1471 21.7532 18.114 21.683 18.0401Z" fill="white"/>
<path fill-rule="evenodd" clip-rule="evenodd" d="M20.4902 18.8108C20.4902 18.7185 20.5274 18.6227 20.6008 18.5492C20.745 18.4055 20.9773 18.4055 21.121 18.5492C21.1948 18.6227 21.2281 18.7185 21.2281 18.8108C21.2281 18.9064 21.1948 18.9987 21.121 19.0723C21.0511 19.1422 20.9555 19.1793 20.859 19.1793C20.767 19.1793 20.6711 19.1422 20.6008 19.0723C20.5274 18.9987 20.4902 18.9064 20.4902 18.8108Z" fill="white"/>
<path fill-rule="evenodd" clip-rule="evenodd" d="M18.5804 21.0862C18.5101 21.0164 18.4732 20.9205 18.4732 20.8282C18.4732 20.7324 18.5101 20.6403 18.5804 20.5665C18.7241 20.4232 18.96 20.4232 19.1001 20.5665C19.1742 20.6403 19.2111 20.7324 19.2111 20.8282C19.2111 20.9205 19.1742 21.0164 19.1001 21.0862C19.0303 21.1601 18.9344 21.1968 18.8422 21.1968C18.7461 21.1968 18.6538 21.1601 18.5804 21.0862Z" fill="white"/>
<path fill-rule="evenodd" clip-rule="evenodd" d="M17.5054 22.1195C17.4305 22.0497 17.3911 21.9536 17.3911 21.8616C17.3911 21.7657 17.4305 21.6737 17.5054 21.5998C17.6585 21.4563 17.9102 21.4563 18.064 21.5998C18.1385 21.6737 18.1781 21.7657 18.1781 21.8616C18.1781 21.9536 18.1385 22.0497 18.064 22.1195C17.9853 22.1934 17.8832 22.2301 17.7847 22.2301C17.6824 22.2301 17.5841 22.1934 17.5054 22.1195Z" fill="white"/>
<path fill-rule="evenodd" clip-rule="evenodd" d="M16.5141 23.1548C16.4439 23.0848 16.4072 22.9883 16.4072 22.8956C16.4072 22.7994 16.4439 22.7033 16.5141 22.6326C16.6578 22.4883 16.8942 22.4883 17.0381 22.6326C17.1079 22.7033 17.1451 22.7994 17.1451 22.8956C17.1451 22.9883 17.1079 23.0848 17.0381 23.1548C16.9642 23.2291 16.872 23.2624 16.7761 23.2624C16.6802 23.2624 16.588 23.2291 16.5141 23.1548Z" fill="white"/>
<path fill-rule="evenodd" clip-rule="evenodd" d="M15.4848 24.1881C15.4109 24.1179 15.3741 24.0216 15.3741 23.9256C15.3741 23.8331 15.4109 23.7373 15.4848 23.663C15.6285 23.5225 15.8612 23.5225 16.0049 23.663C16.0751 23.7373 16.1121 23.8331 16.1121 23.9256C16.1121 24.0216 16.0751 24.1179 16.0049 24.1881C15.931 24.2622 15.8388 24.2955 15.7429 24.2955C15.6509 24.2955 15.555 24.2622 15.4848 24.1881Z" fill="white"/>
<path fill-rule="evenodd" clip-rule="evenodd" d="M14.4099 25.2214C14.3312 25.1509 14.2921 25.055 14.2921 24.9588C14.2921 24.8663 14.3312 24.7705 14.4099 24.6962C14.5637 24.5557 14.8114 24.5557 14.965 24.6962C15.0437 24.7705 15.079 24.8663 15.079 24.9588C15.079 25.055 15.0437 25.1509 14.965 25.2214C14.8899 25.292 14.7878 25.3287 14.6854 25.3287C14.5869 25.3287 14.4848 25.292 14.4099 25.2214Z" fill="white"/>
<path fill-rule="evenodd" clip-rule="evenodd" d="M13.4149 26.2551C13.3411 26.1814 13.3082 26.0892 13.3082 25.9935C13.3082 25.8977 13.3411 25.8056 13.4149 25.732C13.5592 25.588 13.7914 25.588 13.9353 25.732C14.0089 25.8056 14.0459 25.8977 14.0459 25.9935C14.0459 26.0892 14.0089 26.1814 13.9353 26.2551C13.8654 26.3247 13.7692 26.3619 13.6769 26.3619C13.581 26.3619 13.4852 26.3247 13.4149 26.2551Z" fill="white"/>
<path fill-rule="evenodd" clip-rule="evenodd" d="M13.939 13.9074C14.0093 13.8339 14.046 13.7378 14.046 13.6458C14.046 13.5499 14.0093 13.4577 13.939 13.384C13.7953 13.2405 13.5628 13.2405 13.4187 13.384C13.3452 13.4577 13.3081 13.5499 13.3081 13.6458C13.3081 13.7378 13.3452 13.8339 13.4187 13.9074C13.4889 13.9776 13.5848 14.0143 13.6771 14.0143C13.7729 14.0143 13.869 13.9776 13.939 13.9074Z" fill="white"/>
<path fill-rule="evenodd" clip-rule="evenodd" d="M14.965 14.9407C15.0399 14.867 15.079 14.7712 15.079 14.6791C15.079 14.5833 15.0399 14.4912 14.965 14.4174C14.8116 14.2736 14.5595 14.2736 14.4061 14.4174C14.3312 14.4912 14.2921 14.5833 14.2921 14.6791C14.2921 14.7712 14.3312 14.867 14.4061 14.9407C14.4848 15.0109 14.5833 15.0475 14.6856 15.0475C14.7878 15.0475 14.8863 15.0109 14.965 14.9407Z" fill="white"/>
<path fill-rule="evenodd" clip-rule="evenodd" d="M16.005 15.9701C16.0752 15.8999 16.112 15.8042 16.112 15.712C16.112 15.6165 16.0752 15.5206 16.005 15.4504C15.8613 15.3069 15.6249 15.3069 15.4812 15.4504C15.4112 15.5206 15.3743 15.6165 15.3743 15.712C15.3743 15.8042 15.4112 15.8999 15.4812 15.9701C15.5551 16.044 15.6474 16.0805 15.7432 16.0805C15.8391 16.0805 15.9311 16.044 16.005 15.9701Z" fill="white"/>
<path fill-rule="evenodd" clip-rule="evenodd" d="M17.0382 17.0066C17.1081 16.9361 17.145 16.8398 17.145 16.7436C17.145 16.6509 17.1081 16.5549 17.0382 16.4842C16.8943 16.3399 16.6582 16.3399 16.5143 16.4842C16.444 16.5549 16.4073 16.6509 16.4073 16.7436C16.4073 16.8398 16.444 16.9361 16.5143 17.0066C16.5881 17.0806 16.6804 17.1139 16.7762 17.1139C16.8685 17.1139 16.9644 17.0806 17.0382 17.0066Z" fill="white"/>
<path fill-rule="evenodd" clip-rule="evenodd" d="M18.0601 18.0401C18.1386 17.9699 18.1781 17.874 18.1781 17.7781C18.1781 17.6859 18.1386 17.5898 18.0601 17.52C17.9101 17.3722 17.6586 17.3722 17.5052 17.52C17.4265 17.5898 17.391 17.6859 17.391 17.7781C17.391 17.874 17.4265 17.9699 17.5052 18.0401C17.5797 18.114 17.6824 18.1471 17.7846 18.1471C17.8831 18.1471 17.9852 18.114 18.0601 18.0401Z" fill="white"/>
<path fill-rule="evenodd" clip-rule="evenodd" d="M19.2112 18.8108C19.2112 18.7185 19.1738 18.6227 19.1006 18.5492C18.9563 18.4055 18.7241 18.4055 18.5804 18.5492C18.5066 18.6227 18.4733 18.7185 18.4733 18.8108C18.4733 18.9064 18.5066 18.9987 18.5804 19.0723C18.6501 19.1422 18.7459 19.1793 18.8422 19.1793C18.9345 19.1793 19.0303 19.1422 19.1006 19.0723C19.1738 18.9987 19.2112 18.9064 19.2112 18.8108Z" fill="white"/>
<path fill-rule="evenodd" clip-rule="evenodd" d="M20.1366 20.1057C20.2109 20.032 20.2442 19.9398 20.2442 19.8441C20.2442 19.748 20.2109 19.6558 20.1366 19.5825C19.9921 19.4386 19.7586 19.4386 19.6141 19.5825C19.5396 19.6558 19.5063 19.748 19.5063 19.8441C19.5063 19.9398 19.5396 20.032 19.6141 20.1057C19.6841 20.1755 19.7806 20.2125 19.8732 20.2125C19.9701 20.2125 20.0664 20.1755 20.1366 20.1057Z" fill="white"/>
<path fill-rule="evenodd" clip-rule="evenodd" d="M21.1632 21.0862C21.238 21.0164 21.2772 20.9205 21.2772 20.8282C21.2772 20.7324 21.238 20.6403 21.1632 20.5665C21.0098 20.4232 20.7581 20.4232 20.6085 20.5665C20.5298 20.6403 20.4902 20.7324 20.4902 20.8282C20.4902 20.9205 20.5298 21.0164 20.6085 21.0862C20.6832 21.1601 20.7853 21.1968 20.8838 21.1968C20.9863 21.1968 21.0846 21.1601 21.1632 21.0862Z" fill="white"/>
<path fill-rule="evenodd" clip-rule="evenodd" d="M22.2031 22.1195C22.2734 22.0497 22.3103 21.9536 22.3103 21.8616C22.3103 21.7657 22.2734 21.6737 22.2031 21.5998C22.0594 21.4563 21.8237 21.4563 21.6794 21.5998C21.6095 21.6737 21.5724 21.7657 21.5724 21.8616C21.5724 21.9536 21.6095 22.0497 21.6794 22.1195C21.7532 22.1934 21.8491 22.2301 21.9413 22.2301C22.037 22.2301 22.1293 22.1934 22.2031 22.1195Z" fill="white"/>
<path fill-rule="evenodd" clip-rule="evenodd" d="M23.2363 23.1548C23.3068 23.0848 23.3433 22.9883 23.3433 22.8956C23.3433 22.7994 23.3068 22.7033 23.2363 22.6326C23.0926 22.4883 22.8563 22.4883 22.7124 22.6326C22.6425 22.7033 22.6054 22.7994 22.6054 22.8956C22.6054 22.9883 22.6425 23.0848 22.7124 23.1548C22.7863 23.2291 22.8787 23.2624 22.9744 23.2624C23.0702 23.2624 23.1625 23.2291 23.2363 23.1548Z" fill="white"/>
<path fill-rule="evenodd" clip-rule="evenodd" d="M24.2165 24.1881C24.2904 24.1179 24.3271 24.0216 24.3271 23.9256C24.3271 23.8331 24.2904 23.7373 24.2165 23.663C24.0728 23.5225 23.8401 23.5225 23.6964 23.663C23.6262 23.7373 23.5892 23.8331 23.5892 23.9256C23.5892 24.0216 23.6262 24.1179 23.6964 24.1881C23.7703 24.2622 23.8625 24.2955 23.9584 24.2955C24.0504 24.2955 24.1465 24.2622 24.2165 24.1881Z" fill="white"/>
<path fill-rule="evenodd" clip-rule="evenodd" d="M25.2989 25.2214C25.3727 25.1509 25.4095 25.055 25.4095 24.9588C25.4095 24.8663 25.3727 24.7705 25.2989 24.6962C25.1546 24.5557 24.9225 24.5557 24.7785 24.6962C24.7047 24.7705 24.6716 24.8663 24.6716 24.9588C24.6716 25.055 24.7047 25.1509 24.7785 25.2214C24.8488 25.292 24.9447 25.3287 25.0405 25.3287C25.1328 25.3287 25.2286 25.292 25.2989 25.2214Z" fill="white"/>
<path fill-rule="evenodd" clip-rule="evenodd" d="M26.3285 26.2551C26.4072 26.1814 26.4425 26.0892 26.4425 25.9935C26.4425 25.8977 26.4072 25.8056 26.3285 25.732C26.1747 25.588 25.9268 25.588 25.7734 25.732C25.6947 25.8056 25.6553 25.8977 25.6553 25.9935C25.6553 26.0892 25.6947 26.1814 25.7734 26.2551C25.8481 26.3247 25.9506 26.3619 26.0491 26.3619C26.1512 26.3619 26.2534 26.3247 26.3285 26.2551Z" fill="white"/>
<path fill-rule="evenodd" clip-rule="evenodd" d="M16.3729 14.1855C17.415 13.5087 18.5685 13.1672 19.8348 13.1646C21.0847 13.1619 22.2398 13.5059 23.3005 14.1927L25.5219 11.9796C23.7948 10.6586 21.9 9.99799 19.8366 10C17.7625 10.002 15.8689 10.661 14.1552 11.9758L16.3729 14.1855Z" fill="white"/>
<path fill-rule="evenodd" clip-rule="evenodd" d="M14.1552 23.2731C13.4548 22.2058 13.104 21.0527 13.1062 19.8125C13.1087 18.5556 13.4572 17.4036 14.1479 16.3544L11.9449 14.1445C10.6505 15.8363 10.0022 17.7261 10 19.8137C9.99799 21.8823 10.6493 23.7721 11.9513 25.4838L14.1552 23.2731Z" fill="white"/>
<path fill-rule="evenodd" clip-rule="evenodd" d="M23.3153 25.4844C22.2619 26.1946 21.11 26.5557 19.8583 26.5644C18.5863 26.5729 17.4201 26.2142 16.3588 25.4914L14.1552 27.6987C15.869 29.0332 17.7739 29.6934 19.871 29.6767C21.947 29.6603 23.8308 28.9995 25.5219 27.6945L23.3153 25.4844Z" fill="white"/>
<path fill-rule="evenodd" clip-rule="evenodd" d="M25.4784 16.3574C26.1899 17.4277 26.5395 18.6006 26.5241 19.876C26.5094 21.1066 26.1584 22.2395 25.4742 23.2751L27.6919 25.4848C28.9982 23.7906 29.6602 21.9121 29.6766 19.8488C29.6933 17.7565 29.0331 15.8557 27.6986 14.1455L25.4784 16.3574Z" fill="white"/>
<path fill-rule="evenodd" clip-rule="evenodd" d="M27.7952 26.165C28.6509 26.165 29.3448 26.8589 29.3448 27.7145C29.3448 28.5701 28.6509 29.264 27.7952 29.264C26.9394 29.264 26.2457 28.5701 26.2457 27.7145C26.2457 26.8589 26.9394 26.165 27.7952 26.165Z" fill="white"/>
<path fill-rule="evenodd" clip-rule="evenodd" d="M11.9307 26.165C12.7727 26.165 13.4557 26.8587 13.4557 27.7145C13.4557 28.5703 12.7727 29.264 11.9307 29.264C11.0884 29.264 10.4058 28.5703 10.4058 27.7145C10.4058 26.8587 11.0884 26.165 11.9307 26.165Z" fill="white"/>
<path fill-rule="evenodd" clip-rule="evenodd" d="M27.8198 10.3252C28.6619 10.3252 29.3449 11.0189 29.3449 11.8747C29.3449 12.7305 28.6619 13.4242 27.8198 13.4242C26.9777 13.4242 26.2947 12.7305 26.2947 11.8747C26.2947 11.0189 26.9777 10.3252 27.8198 10.3252Z" fill="white"/>
<path fill-rule="evenodd" clip-rule="evenodd" d="M11.9061 10.3252C12.7619 10.3252 13.4556 11.0078 13.4556 11.8501C13.4556 12.6923 12.7619 13.3751 11.9061 13.3751C11.0503 13.3751 10.3566 12.6923 10.3566 11.8501C10.3566 11.0078 11.0503 10.3252 11.9061 10.3252Z" fill="white"/>
</svg>
