<svg width="16" height="17" viewBox="0 0 16 17" fill="none" xmlns="http://www.w3.org/2000/svg">
<path d="M6.53125 1.75C6.4375 1.75 6.375 1.8125 6.3125 1.875L5.71875 2.75H10.25L9.65625 1.875C9.625 1.8125 9.53125 1.75 9.4375 1.75H6.53125ZM12.0625 2.75H12.4688H14H14.25C14.6562 2.75 15 3.09375 15 3.5C15 3.9375 14.6562 4.25 14.25 4.25H13.875L13.125 14.4062C13.0312 15.4688 12.1875 16.25 11.125 16.25H4.84375C3.78125 16.25 2.9375 15.4688 2.84375 14.4062L2.09375 4.25H1.75C1.3125 4.25 1 3.9375 1 3.5C1 3.09375 1.3125 2.75 1.75 2.75H2H3.5H3.90625L5.0625 1.03125C5.375 0.5625 5.9375 0.25 6.53125 0.25H9.4375C10.0312 0.25 10.5938 0.5625 10.9062 1.03125L12.0625 2.75ZM12.375 4.25H3.59375L4.34375 14.3125C4.375 14.5625 4.59375 14.75 4.84375 14.75H11.125C11.375 14.75 11.5938 14.5625 11.625 14.3125L12.375 4.25Z" fill="#D83E3E"/>
</svg>
