<svg xmlns="http://www.w3.org/2000/svg" width="24" height="18" fill="none" viewBox="0 0 24 18">
  <path fill="currentColor" fill-rule="evenodd" d="M4.136 4.852a3.567 3.567 0 0 1 .135-.126l2.135-2.138.321-.321c.077-.077.14-.137.279-.272l.045-.046.07-.072a4.01 4.01 0 0 1 .998-.73c.366-.18.755-.31 1.166-.381.372-.06.748-.092 1.107-.096a11 11 0 0 1 .487-.007c.161-.002.29-.003.573-.003h6.323a62.22 62.22 0 0 1 1.043.01 7.8 7.8 0 0 1 1.137.097c.4.071.788.2 1.155.383a3.96 3.96 0 0 1 1.722 1.725c.182.366.31.755.383 1.167.059.371.09.747.095 1.106.003.076.005.152.006.253l.002.08.002.167v6.99l-.003.156c-.002.166-.003.241-.006.32a7.437 7.437 0 0 1-.1 1.14c-.07.406-.198.799-.385 1.174-.19.368-.435.706-.728 1a3.919 3.919 0 0 1-1.004.73 4.098 4.098 0 0 1-1.175.387 7.832 7.832 0 0 1-1.131.103l-.245.003-.246.003h-7.42a21.963 21.963 0 0 1-.469-.006 7.682 7.682 0 0 1-1.132-.1 4.265 4.265 0 0 1-1.166-.386 3.996 3.996 0 0 1-1.104-.842c-.14-.135-.202-.196-.279-.273l-2.5-2.498a4.331 4.331 0 0 1-.173-.17l-.188-.186-1.954-1.957-.185-.186c-.05-.05-.088-.09-.15-.157a6.37 6.37 0 0 1-.47-.514 1.69 1.69 0 0 1-.324-.499l-.019-.05a2.208 2.208 0 0 1 .017-1.392c.078-.186.188-.357.326-.503.147-.181.304-.353.452-.496.08-.085.117-.124.168-.174.09-.091.13-.13.185-.19l2.143-2.142.081-.08ZM18.054 1.92a62 62 0 0 0-.28 0h-6.322c-.276 0-.4 0-.563.003-.228 0-.327.001-.465.006-.315.004-.629.03-.93.079-.283.05-.557.14-.805.263-.25.13-.479.297-.678.497l-.05.053c-.048.05-.07.071-.093.093a18.65 18.65 0 0 0-.25.244l-.321.32-2.172 2.176a1.6 1.6 0 0 1-.064.058l-.041.038-.074.074-.19.189-1.942 1.942c-.055.058-.099.102-.197.2l-.16.167a4.666 4.666 0 0 0-.386.424l-.043.049a.395.395 0 0 0-.075.105.923.923 0 0 0 0 .514c.02.04.046.078.078.11l.038.044c.122.15.252.293.407.446.071.076.102.108.14.147l.187.186 1.954 1.957.202.2a3.245 3.245 0 0 0 .163.159l2.495 2.495c.068.068.125.124.25.245.025.022.046.043.095.094l.05.052c.198.2.427.367.668.492.257.128.531.218.806.266.311.051.625.079.944.083a24.604 24.604 0 0 0 .46.006h7.395a25.304 25.304 0 0 1 .48-.006 6.55 6.55 0 0 0 .947-.085c.283-.048.556-.138.812-.268a2.75 2.75 0 0 0 1.179-1.177c.128-.258.218-.533.266-.813.052-.313.08-.629.083-.964a10.758 10.758 0 0 0 .01-.457V5.661c-.002-.046-.002-.082-.003-.163l-.001-.078a10.196 10.196 0 0 0-.006-.24 6.456 6.456 0 0 0-.079-.93 2.98 2.98 0 0 0-.264-.807 2.692 2.692 0 0 0-1.166-1.169 2.935 2.935 0 0 0-.796-.265 6.611 6.611 0 0 0-.962-.081 10.8 10.8 0 0 0-.457-.006 22.055 22.055 0 0 0-.274-.003Zm-3.692 6.437 2.475-2.478a.564.564 0 1 1 .862.721l.007.006-2.545 2.548 2.483 2.48a.564.564 0 1 1-.732.854l-.006.006-2.544-2.541-2.541 2.544-.008-.007a.566.566 0 1 1-.693-.888l2.444-2.446-2.55-2.547.009-.008a.567.567 0 1 1 .887-.693l2.452 2.449Z" clip-rule="evenodd"/>
</svg>
