<svg xmlns="http://www.w3.org/2000/svg" width="14" height="17" fill="none" viewBox="0 0 14 17">
  <path fill="currentColor" d="M2.8 4.137c0-.401.314-.727.7-.727h7c.386 0 .7.326.7.727a.714.714 0 0 1-.7.728h-7a.714.714 0 0 1-.7-.728ZM2.8 7.046c0-.402.314-.728.7-.728h7c.386 0 .7.326.7.728a.714.714 0 0 1-.7.727h-7a.714.714 0 0 1-.7-.727ZM2.8 10.227c0-.401.314-.727.7-.727h2.8c.386 0 .7.326.7.727a.714.714 0 0 1-.7.727H3.5a.714.714 0 0 1-.7-.727Z"/>
  <path fill="currentColor" fill-rule="evenodd" d="M0 2.682C0 1.477.94.5 2.1.5h9.8c1.16 0 2.1.977 2.1 2.182v11.636c0 1.205-.94 2.182-2.1 2.182H2.1c-1.16 0-2.1-.977-2.1-2.182V2.682Zm2.1-.727h9.8c.386 0 .7.325.7.727v11.636a.714.714 0 0 1-.7.728H2.1a.714.714 0 0 1-.7-.728V2.682c0-.402.314-.727.7-.727Z" clip-rule="evenodd"/>
</svg>
