<svg xmlns="http://www.w3.org/2000/svg" width="16" height="14" fill="none" viewBox="0 0 16 14">
  <path fill="#ADBFCC" d="M13.715 0H2.286C1.302 0 .5.782.5 1.743v6.515C.5 9.218 1.302 10 2.286 10h4.938v2.478h-2.14a.769.769 0 0 0-.777.76c0 .421.348.762.776.762h5.834c.428 0 .776-.34.776-.761a.769.769 0 0 0-.776-.761H8.776V10h4.938c.984 0 1.786-.782 1.786-1.742V1.743C15.5.783 14.698 0 13.713 0h.002Zm.235 8.258c0 .121-.106.22-.235.22H2.286c-.129 0-.235-.099-.235-.22V1.743c0-.121.106-.22.235-.22h11.428c.129 0 .235.099.235.22v6.515h.001Z"/>
</svg>
