<svg xmlns="http://www.w3.org/2000/svg" width="16" height="15" fill="none" viewBox="0 0 16 15">
  <path fill="currentColor" d="M12.904.5H3.12a.304.304 0 0 0-.277.164L.063 4.68a.324.324 0 0 0 0 .383l7.67 9.315c.14.164.39.164.53 0l7.67-9.315a.379.379 0 0 0 .028-.383L13.18.664C13.098.555 13.014.5 12.905.5Zm-.556 1.311 1.779 2.623h-1.918L10.764 1.81h1.584Zm-5.614 0h2.53l1.445 2.623H5.316L6.734 1.81Zm-3.085 0h1.584L3.788 4.434h-1.89l1.75-2.623ZM2.453 5.745h1.418l1.918 4.37-3.336-4.37Zm2.863 0h5.365L8.011 12.41 5.316 5.745Zm4.92 4.37 1.89-4.37h1.418l-3.308 4.37Z"/>
</svg>
