<svg width="22" height="20" viewBox="0 0 22 20" fill="none" xmlns="http://www.w3.org/2000/svg">
<path d="M11 18.125C11.2734 18.125 12.0547 17.8516 12.8359 16.25C13.1875 15.5469 13.5 14.7266 13.6953 13.75H8.26562C8.5 14.7266 8.77344 15.5469 9.125 16.25C9.94531 17.8516 10.6875 18.125 11 18.125ZM7.95312 11.875H14.0078C14.0859 11.2891 14.125 10.6641 14.125 10C14.125 9.375 14.0859 8.75 14.0078 8.125H7.95312C7.875 8.75 7.875 9.375 7.875 10C7.875 10.6641 7.875 11.2891 7.95312 11.875ZM8.26562 6.25H13.6953C13.5 5.3125 13.1875 4.49219 12.8359 3.78906C12.0547 2.1875 11.2734 1.875 11 1.875C10.6875 1.875 9.94531 2.1875 9.125 3.78906C8.77344 4.49219 8.5 5.3125 8.26562 6.25ZM15.8828 8.125C15.9609 8.75 15.9609 9.375 15.9609 10C15.9609 10.6641 15.9609 11.2891 15.8828 11.875H18.8906C19.0469 11.2891 19.125 10.6641 19.125 10C19.125 9.375 19.0469 8.75 18.8906 8.125H15.8828ZM18.1875 6.25C17.3672 4.64844 16 3.35938 14.3594 2.61719C14.9062 3.63281 15.3359 4.88281 15.6094 6.25H18.1875ZM6.35156 6.25C6.625 4.88281 7.05469 3.63281 7.60156 2.61719C5.96094 3.35938 4.59375 4.64844 3.77344 6.25H6.35156ZM3.07031 8.125C2.95312 8.75 2.875 9.375 2.875 10C2.875 10.6641 2.91406 11.2891 3.07031 11.875H6.07812C6 11.2891 6 10.6641 6 10C6 9.375 6 8.75 6.07812 8.125H3.07031ZM14.3594 17.4219C16 16.6797 17.3672 15.3906 18.1875 13.75H15.6094C15.3359 15.1562 14.9062 16.4062 14.3594 17.4219ZM7.60156 17.4219C7.05469 16.4062 6.625 15.1562 6.35156 13.75H3.77344C4.59375 15.3906 5.96094 16.6797 7.60156 17.4219ZM11 20C7.40625 20 4.125 18.125 2.32812 15C0.53125 11.9141 0.53125 8.125 2.32812 5C4.125 1.91406 7.40625 0 11 0C14.5547 0 17.8359 1.91406 19.6328 5C21.4297 8.125 21.4297 11.9141 19.6328 15C17.8359 18.125 14.5547 20 11 20Z" fill="#ADBFCC"/>
</svg>
