<svg width="16" height="16" viewBox="0 0 16 16" fill="none" xmlns="http://www.w3.org/2000/svg">
<path d="M1.84766 13.6875H7.89062C8.21875 14.207 8.62891 14.6445 9.12109 15C9.03906 15 8.95703 15 8.875 15H1.875C0.890625 15 0.125 14.2344 0.125 13.25V2.75C0.125 1.79297 0.890625 1 1.875 1H6.38672C6.85156 1 7.28906 1.19141 7.61719 1.51953L10.1055 4.00781C10.4336 4.33594 10.625 4.77344 10.625 5.23828V6.44141C10.1328 6.57812 9.69531 6.76953 9.3125 7.04297V5.375H7.125C6.63281 5.375 6.25 4.99219 6.25 4.5V2.3125H1.875C1.62891 2.3125 1.4375 2.53125 1.4375 2.75V13.25C1.4375 13.4961 1.62891 13.6875 1.875 13.6875H1.84766ZM15.875 11.0625C15.875 13.25 14.0977 15 11.9375 15C9.75 15 7.97266 13.25 7.97266 11.0625C7.97266 8.90234 9.75 7.125 11.9375 7.125C14.0977 7.125 15.875 8.90234 15.875 11.0625ZM13.1406 9.88672L11.5 11.5547L10.707 10.7617C10.543 10.5977 10.2422 10.5977 10.0781 10.7617C9.91406 10.9258 9.91406 11.2266 10.0781 11.3906L11.1719 12.4844C11.3359 12.6484 11.6367 12.6484 11.8008 12.4844L13.7695 10.5156C13.9336 10.3516 13.9336 10.0508 13.7695 9.88672C13.6055 9.72266 13.3047 9.72266 13.1406 9.88672Z" fill="#ADBFCC"/>
</svg>
