<svg width="16" height="16" viewBox="0 0 16 16" fill="none" xmlns="http://www.w3.org/2000/svg">
<path d="M1.84766 13.6875H8.60156C8.90234 14.0977 9.25781 14.4805 9.69531 14.8086C9.44922 14.9453 9.14844 15 8.875 15H1.875C0.890625 15 0.125 14.2344 0.125 13.25V2.75C0.125 1.79297 0.890625 1 1.875 1H6.38672C6.85156 1 7.28906 1.19141 7.61719 1.51953L10.1055 4.00781C10.4336 4.33594 10.625 4.77344 10.625 5.23828V6.66016L9.3125 7.20703V5.375H7.125C6.63281 5.375 6.25 4.99219 6.25 4.5V2.3125H1.875C1.62891 2.3125 1.4375 2.53125 1.4375 2.75V13.25C1.4375 13.4961 1.62891 13.6875 1.875 13.6875H1.84766ZM11.6914 7.17969C11.8281 7.125 12.0195 7.125 12.1562 7.17969L15.4375 8.49219C15.7109 8.60156 15.875 8.84766 15.875 9.09375C15.875 10.8438 15.1641 13.7148 12.1836 14.9727C12.0195 15.0273 11.8281 15.0273 11.6641 14.9727C8.68359 13.7148 8 10.8438 8 9.09375C8 8.84766 8.13672 8.60156 8.41016 8.49219L11.6914 7.17969ZM11.9375 8.49219V13.6328C13.7969 12.7305 14.4258 10.9258 14.5352 9.53125L11.9375 8.49219Z" fill="#ADBFCC"/>
</svg>
