<svg xmlns="http://www.w3.org/2000/svg" width="36" height="36" fill="none" viewBox="0 0 36 36">
  <rect width="36" height="36" fill="currentColor" rx="18"/>
  <path fill="#ADBFCC" fill-rule="evenodd" d="M18.75 11.143a.75.75 0 0 0-1.5 0v1.535h-.917c-.812 0-1.595.316-2.174.883a3.012 3.012 0 0 0-.909 2.152c0 .81.329 1.584.909 2.153.579.567 1.361.883 2.174.883h.917v3.072H14a.75.75 0 0 0 0 1.5h3.25v1.536a.75.75 0 0 0 1.5 0V23.32h.917c.813 0 1.595-.317 2.174-.884.58-.568.909-1.342.909-2.152s-.329-1.584-.909-2.152a3.108 3.108 0 0 0-2.174-.884h-.917v-3.071h2.583a.75.75 0 0 0 0-1.5H18.75v-1.535Zm-1.5 3.035h-.917c-.424 0-.829.165-1.125.455-.295.29-.458.678-.458 1.08 0 .403.163.792.458 1.08.296.29.7.456 1.125.456h.917v-3.071Zm1.5 4.571v3.072h.917c.424 0 .829-.166 1.125-.456.295-.289.458-.678.458-1.08s-.163-.791-.458-1.08c-.296-.29-.7-.456-1.125-.456h-.917Z" clip-rule="evenodd"/>
</svg>
