<svg xmlns="http://www.w3.org/2000/svg" width="17" height="16" fill="none" viewBox="0 0 17 16">
  <path fill="currentColor" fill-rule="evenodd" d="M9.095 1.143a.75.75 0 0 0-1.5 0v1.535h-.917c-.813 0-1.595.317-2.175.884a3.012 3.012 0 0 0-.908 2.152c0 .81.328 1.584.908 2.152.58.568 1.362.884 2.175.884h.917v3.071h-3.25a.75.75 0 0 0 0 1.5h3.25v1.536a.75.75 0 0 0 1.5 0V13.32h.916c.813 0 1.596-.316 2.175-.883.58-.568.909-1.342.909-2.152s-.329-1.584-.909-2.152a3.108 3.108 0 0 0-2.175-.884h-.916V4.178h2.583a.75.75 0 0 0 0-1.5H9.095V1.143Zm-1.5 3.035h-.917c-.425 0-.83.166-1.125.456-.295.289-.458.678-.458 1.08s.163.791.458 1.08c.296.29.7.456 1.125.456h.917V4.178Zm1.5 4.572v3.071h.916c.425 0 .83-.165 1.126-.455.295-.29.458-.678.458-1.08 0-.403-.163-.792-.459-1.08-.295-.29-.7-.456-1.125-.456h-.916Z" clip-rule="evenodd"/>
</svg>
