<svg xmlns="http://www.w3.org/2000/svg" width="12" height="13" fill="none" viewBox="0 0 12 13">
  <path fill="currentColor" d="M5.839 7.404c.722 0 1.333-.611 1.333-1.334 0-.75-.611-1.333-1.333-1.333-.75 0-1.334.583-1.334 1.333 0 .723.584 1.334 1.334 1.334Zm1.333 3.333c0-.75-.611-1.333-1.333-1.333-.75 0-1.334.583-1.334 1.333 0 .722.584 1.333 1.334 1.333.722 0 1.333-.61 1.333-1.333Zm0-9.333C7.172.654 6.56.07 5.839.07c-.75 0-1.334.584-1.334 1.334 0 .722.584 1.333 1.334 1.333.722 0 1.333-.611 1.333-1.333Z"/>
</svg>
