<svg xmlns="http://www.w3.org/2000/svg" width="22" height="22" fill="none" viewBox="0 0 22 22">
  <path fill="#23F7DD" fill-rule="evenodd" d="M11.9 15.079a1.1 1.1 0 0 1-1.556 0l-4.4-4.4A1.1 1.1 0 0 1 7.5 9.123l2.522 2.522V.953c0-.526.492-.953 1.1-.953.607 0 1.1.427 1.1.953v10.693l2.522-2.523A1.1 1.1 0 1 1 16.3 10.68l-4.4 4.4ZM2.75 12.65a1.1 1.1 0 0 0-2.2 0v6.05a3.3 3.3 0 0 0 3.3 3.3h14.284a3.3 3.3 0 0 0 3.3-3.3v-6.05a1.1 1.1 0 0 0-2.2 0v6.05a1.1 1.1 0 0 1-1.1 1.1H3.851a1.1 1.1 0 0 1-1.1-1.1v-6.05Z" clip-rule="evenodd"/>
</svg>
