<svg xmlns="http://www.w3.org/2000/svg" width="16" height="16" fill="none" viewBox="0 0 16 16">
  <g clip-path="url(#a)">
    <path fill="currentColor" d="M1.137 11.278c.13-.44.368-.844.693-1.169L11.334.604a2.003 2.003 0 0 1 2.832 0l1.23 1.232a2.002 2.002 0 0 1 0 2.83l-9.505 9.503c-.041.04-.082.053-.125.118-.3.266-.657.435-1.044.575L.962 15.97a.705.705 0 0 1-.742-.216c-.194-.165-.267-.45-.19-.716l1.107-3.759Zm.72 2.866 2.443-.719c.072-.022.144-.078.212-.084l-1.134-.228a.628.628 0 0 1-.49-.491l-.228-1.134c-.034.068-.063.14-.084.212l-.719 2.444Zm3.79-1.853 6.322-6.322-1.966-1.966-6.294 6.35.294 1.616 1.644.322Z"/>
  </g>
  <defs>
    <clipPath id="a">
      <path fill="#fff" d="M0 0h16v16H0z"/>
    </clipPath>
  </defs>
</svg>
