<svg xmlns="http://www.w3.org/2000/svg" width="12" height="13" fill="none" viewBox="0 0 12 13">
  <path fill="#fff" fill-rule="evenodd" d="M9.462 2.845a.222.222 0 0 1-.069-.157c0-.058.024-.113.069-.157a.247.247 0 0 1 .333 0c.047.044.07.1.07.157a.216.216 0 0 1-.07.157.246.246 0 0 1-.333 0ZM8.867 3.464a.23.23 0 0 1-.064-.157c0-.057.022-.112.064-.157a.223.223 0 0 1 .314 0c.043.045.065.1.065.157a.23.23 0 0 1-.065.157.226.226 0 0 1-.314 0ZM8.218 4.082a.221.221 0 1 1 .314-.312.221.221 0 0 1-.314.312ZM7.602 4.704a.218.218 0 0 1-.068-.158c0-.056.023-.113.068-.156a.249.249 0 0 1 .335 0c.045.043.069.1.069.156a.217.217 0 0 1-.069.158.24.24 0 0 1-.167.064.244.244 0 0 1-.168-.064ZM7.01 5.324a.217.217 0 0 1 0-.312.217.217 0 0 1 .312 0c.044.042.064.1.064.155 0 .057-.02.115-.064.157a.214.214 0 0 1-.157.064.212.212 0 0 1-.155-.064ZM6.294 5.787c0-.056.022-.113.066-.157a.22.22 0 0 1 .377.157c0 .057-.02.112-.064.157a.223.223 0 0 1-.379-.157ZM5.148 7.152a.22.22 0 0 1 .312-.312.22.22 0 0 1 .067.157.214.214 0 0 1-.067.155.214.214 0 0 1-.155.066.219.219 0 0 1-.157-.066ZM4.503 7.771a.214.214 0 0 1-.068-.154.22.22 0 0 1 .068-.157.25.25 0 0 1 .335 0 .22.22 0 0 1 .069.157.215.215 0 0 1-.069.154.246.246 0 0 1-.335 0ZM3.908 8.393a.222.222 0 0 1 .315-.313.225.225 0 0 1 0 .313.217.217 0 0 1-.157.065.217.217 0 0 1-.158-.065ZM3.29 9.013a.217.217 0 0 1-.066-.158.224.224 0 0 1 .378-.158.224.224 0 0 1 0 .315.217.217 0 0 1-.156.065.212.212 0 0 1-.155-.064ZM2.646 9.633a.21.21 0 0 1 0-.315.25.25 0 0 1 .333 0 .215.215 0 0 1 0 .315.245.245 0 0 1-.333 0ZM2.049 10.253a.217.217 0 0 1-.064-.157.22.22 0 0 1 .376-.157.22.22 0 0 1 0 .314.222.222 0 0 1-.312 0ZM2.363 2.845a.23.23 0 0 0 .065-.157.22.22 0 0 0-.376-.157.22.22 0 0 0 .154.378.222.222 0 0 0 .157-.064ZM2.979 3.464a.223.223 0 0 0 .068-.157.22.22 0 0 0-.068-.157.25.25 0 0 0-.335 0 .22.22 0 0 0-.069.157c0 .056.024.113.069.157a.25.25 0 0 0 .335 0ZM3.603 4.082a.221.221 0 1 0-.314-.312.221.221 0 0 0 .314.312ZM4.223 4.704a.225.225 0 0 0 0-.314.223.223 0 0 0-.314 0 .223.223 0 0 0 0 .314c.044.044.1.064.157.064a.22.22 0 0 0 .157-.064ZM4.836 5.324a.209.209 0 0 0 0-.312.242.242 0 0 0-.333 0 .206.206 0 0 0-.068.155c0 .057.021.115.068.157a.236.236 0 0 0 .168.064c.059 0 .12-.02.165-.064ZM5.527 5.787a.224.224 0 0 0-.067-.157.22.22 0 0 0-.376.157c0 .057.02.112.064.157a.222.222 0 0 0 .379-.157ZM6.082 6.563a.216.216 0 0 0 .064-.156.222.222 0 1 0-.378.157.223.223 0 0 0 .314 0ZM6.698 7.152a.214.214 0 0 0 .068-.155.22.22 0 0 0-.068-.157.247.247 0 0 0-.333 0 .213.213 0 0 0-.07.157c0 .055.023.113.07.155a.242.242 0 0 0 .333 0ZM7.322 7.771a.22.22 0 1 0-.314 0 .22.22 0 0 0 .314 0ZM7.942 8.393a.221.221 0 1 0-.315-.312.221.221 0 0 0 .315.312ZM8.53 9.013a.217.217 0 0 0 .066-.158.224.224 0 0 0-.066-.157.224.224 0 0 0-.312 0 .224.224 0 0 0 0 .315c.044.044.1.064.157.064.055 0 .113-.02.155-.064ZM9.18 9.633a.217.217 0 0 0 .066-.158.224.224 0 0 0-.067-.157.224.224 0 0 0-.312 0 .222.222 0 0 0-.064.157c0 .058.02.116.064.158a.222.222 0 0 0 .312 0ZM9.797 10.253a.21.21 0 0 0 .068-.157.21.21 0 0 0-.068-.157.246.246 0 0 0-.333 0 .213.213 0 0 0-.07.157c0 .057.023.113.07.157a.248.248 0 0 0 .333 0ZM3.824 3.011A3.75 3.75 0 0 1 5.9 2.4a3.737 3.737 0 0 1 2.08.617l1.332-1.328C8.277.895 7.14.498 5.902.5c-1.244.001-2.38.397-3.409 1.185l1.33 1.326ZM2.493 8.464a3.7 3.7 0 0 1-.63-2.076 3.71 3.71 0 0 1 .626-2.075L1.167 2.987C.39 4.002 0 5.136 0 6.388-.001 7.63.39 8.763 1.17 9.791l1.323-1.327ZM7.99 9.79a3.681 3.681 0 0 1-2.075.649 3.607 3.607 0 0 1-2.1-.644l-1.322 1.324c1.028.8 2.171 1.197 3.43 1.187 1.245-.01 2.375-.406 3.39-1.19L7.99 9.792ZM9.287 4.314c.427.642.637 1.346.627 2.111a3.709 3.709 0 0 1-.63 2.04l1.331 1.326c.784-1.017 1.181-2.144 1.19-3.382.011-1.255-.385-2.396-1.186-3.422L9.287 4.314ZM10.677 10.199a.93.93 0 1 1 0 1.86.93.93 0 0 1 0-1.86ZM1.158 10.199c.506 0 .915.416.915.93 0 .513-.41.93-.915.93a.922.922 0 0 1-.915-.93c0-.514.41-.93.915-.93ZM10.692.695c.505 0 .915.416.915.93 0 .513-.41.93-.915.93a.923.923 0 0 1-.915-.93c0-.514.41-.93.915-.93ZM1.144.695c.513 0 .93.41.93.915a.922.922 0 0 1-.93.915.922.922 0 0 1-.93-.915c0-.505.416-.915.93-.915Z" clip-rule="evenodd"/>
</svg>
