<svg xmlns="http://www.w3.org/2000/svg" width="17" height="4" fill="none" viewBox="0 0 17 4">
  <path fill="currentColor" d="M9.872 2.215c0-.963-.815-1.777-1.778-1.777-1 0-1.778.814-1.778 1.777 0 1 .778 1.778 1.778 1.778.963 0 1.778-.778 1.778-1.778ZM14.316.438c-1 0-1.778.814-1.778 1.777 0 1 .778 1.778 1.778 1.778.963 0 1.778-.778 1.778-1.778 0-.963-.815-1.777-1.778-1.777Zm-12.444 0c-1 0-1.778.814-1.778 1.777 0 1 .778 1.778 1.778 1.778.962 0 1.777-.778 1.777-1.778 0-.963-.815-1.777-1.777-1.777Z"/>
</svg>
