<svg xmlns="http://www.w3.org/2000/svg" width="16" height="16" fill="none" viewBox="0 0 16 16">
  <path fill="#ADBFCC" d="M8.231.504a7.422 7.422 0 0 0-5.44 2.11A7.493 7.493 0 0 0 .5 8.039c0 3.706 2.747 6.909 6.39 7.453a.75.75 0 0 0 .22-1.482C4.197 13.572 2 11.005 2 8.037A6.01 6.01 0 0 1 3.835 3.69a5.878 5.878 0 0 1 4.35-1.689C11.391 2.1 14 4.934 14 8.322v.595c0 .764-.617 1.386-1.375 1.386a1.383 1.383 0 0 1-1.375-1.387V5.272c0-.414-.336-.722-.75-.722a.74.74 0 0 0-.726.633A3.314 3.314 0 0 0 7.75 4.5c-1.93 0-3.5 1.57-3.5 3.472 0 1.901 1.57 3.472 3.5 3.472.96 0 1.832-.39 2.465-1.02a2.868 2.868 0 0 0 2.41 1.323A2.884 2.884 0 0 0 15.5 8.86v-.54c0-4.19-3.262-7.724-7.269-7.817ZM7.75 10c-1.103 0-2-.897-2-1.972 0-1.103.897-1.972 2-1.972s2 .897 2 1.972S8.853 10 7.75 10Z"/>
</svg>
