<svg xmlns="http://www.w3.org/2000/svg" width="350" height="151" fill="none" viewBox="0 0 350 151">
  <g clip-path="url(#a)">
    <path fill="#23F7DD" fill-opacity=".16" d="M371.414 0s-14.715 10.03-25.562 12.186c-15.076 2.997-14.914-17.45-38.9-5.99-29.63 17.304-41.868 51.835-57.059 51.835-15.191 0-20.102-23.002-37.796-27.059-15.781-3.618-15.367 5.203-41.132 5.203-18.322 0-37.162-11.014-53.347 6.115-16.186 17.13-21.215 67.819-60.492 17.004-5.789-7.49-15.526 5.614-25.567 4.313-10.595-1.372-14.05-11.72-24.733-11.692-12.811.034-28.24 16.98-28.24 16.98V216h392.828V0Z"/>
  </g>
  <defs>
    <clipPath id="a">
      <path fill="#fff" d="M-21.414 0h392.828v216H-21.414z"/>
    </clipPath>
  </defs>
</svg>
