<svg width="16" height="16" viewBox="0 0 16 16" fill="none" xmlns="http://www.w3.org/2000/svg">
<path fill-rule="evenodd" clip-rule="evenodd" d="M2 3.07942C2 2.7942 2.11349 2.52058 2.31569 2.3183C2.51757 2.11644 2.79146 2.00205 3.07773 2.00003C3.36401 1.99801 3.63951 2.10852 3.84425 2.30751L8.06156 6.49957L12.1932 2.30751C12.3938 2.10852 12.6637 1.99801 12.9442 2.00003C13.2246 2.00205 13.4929 2.11644 13.6907 2.3183C13.8888 2.52058 14 2.7942 14 3.07942C14 3.36463 13.8888 3.63825 13.6907 3.84053L9.56406 8.02935L13.6907 12.2182C13.865 12.4247 13.956 12.6904 13.9457 12.9621C13.9353 13.2338 13.8244 13.4915 13.635 13.6838C13.4455 13.8761 13.1916 13.9887 12.9239 13.9992C12.6563 14.0097 12.3945 13.9173 12.1911 13.7404L8.06156 9.54868L3.84642 13.7404C3.63874 13.9173 3.37159 14.0097 3.09837 13.9992C2.82514 13.9887 2.56596 13.8761 2.37262 13.6838C2.17927 13.4915 2.06601 13.2338 2.05546 12.9621C2.0449 12.6904 2.13784 12.4247 2.31569 12.2182L6.52791 8.02935L2.31569 3.84053C2.11349 3.63825 2 3.36463 2 3.07942Z" fill="#D83E3E"/>
</svg>
