<svg xmlns="http://www.w3.org/2000/svg" xml:space="preserve" viewBox="0 0 1200 672">
  <path fill="#FFF" d="M549 1c34.354 0 68.708 0 103.4.453.322 81.682.304 162.91.3 244.139 0 .988.185 1.977.169 3.386-.116 12.323-.116 24.224-.116 36.355 49.155 0 97.589 0 146.18.165.485.001.813-.162 1.146-.38.005-.054-.102-.075.36.027 1.128.123 1.794.164 2.46.164 131.38.004 262.762.005 394.143-.008 1.32 0 2.639-.196 3.958-.301 0 34.354 0 68.708-.453 103.4-1.12.321-1.785.29-2.45.29-131.217-.003-262.432-.004-393.648.008-1.491 0-2.982.168-4.419.249.054-.01.043-.12-.019-.336-.453-.126-.845-.035-1.69.07-48.675.015-96.896.015-145.337.015 0 12.57 0 24.658-.12 37.242-.14 81.7-.16 162.902-.164 244.105 0 .986.196 1.971.3 2.957-34.354 0-68.708 0-103.4-.453-.322-81.679-.304-162.904-.3-244.129 0-.989-.18-1.978-.162-3.39.114-12.313.114-24.206.114-36.435-48.907 0-97.118 0-145.505-.178-.715.024-1.255.225-1.8.48-.005.054.102.07-.362-.037-1.129-.127-1.794-.167-2.46-.167-131.389-.004-262.778-.005-394.166.008-1.32 0-2.64.196-3.959.301 0-34.354 0-68.708.453-103.4 1.12-.321 1.785-.29 2.45-.29 131.226.003 262.45.004 393.675-.008 1.49 0 2.981-.174 4.418-.259-.054.008-.044.115.048.352.688.161 1.283.087 2.35-.025 48.461-.036 96.45-.036 144.63-.036 0-12.628 0-24.706.117-37.282.135-81.697.155-162.896.159-244.095 0-.986-.196-1.971-.3-2.957z"/>
  <path fill="#009B48" d="M652.984 425.442v-36.746c48.441 0 96.662 0 145.652.112.991.082 1.214.05 1.437.02 0 0 .011.109.19.372 19.32 11.004 38.453 21.759 57.604 32.482 112.878 63.206 225.76 126.407 338.657 189.581 1.383.774 2.98 1.166 4.476 1.737v60c-35.02 0-70.042 0-105.767-.246-121.006-67.628-241.303-135.02-361.616-202.382-26.847-15.031-53.754-29.956-80.633-44.93zM798.775 285.333H652.753c0-12.131 0-24.032.467-36.492 1.641-1.187 2.826-1.797 3.988-2.448 123.315-69.053 246.635-138.1 369.94-207.173C1049.794 26.533 1072.383 13.743 1095 1h106c0 19.687 0 39.375-.36 59.43-17.085 9.663-33.835 18.916-50.533 28.261a888245.282 888245.282 0 0 0-296.269 165.886c-17.995 10.08-35.91 20.307-53.86 30.466 0 0 .106.02-.234.029-.55.092-.76.177-.969.261zM549.024 248.55v36.784c-48.18 0-96.169 0-144.938-.11-1.23-.096-1.682-.08-2.134-.066 0 0-.01-.107-.175-.383a50303.234 50303.234 0 0 0-153.214-85.993c-40.012-22.371-80.106-44.593-120.099-66.998-39.43-22.09-78.771-44.343-118.182-66.469C7.315 63.65 4.1 62.428 1 61V1c35.354 0 70.708 0 106.593.344 11.632 6.71 22.679 13.177 33.849 19.423 37.107 20.75 74.287 41.37 111.386 62.136 29.57 16.552 59.024 33.31 88.596 49.856 39.715 22.221 79.498 44.321 119.245 66.485 29.457 16.425 58.904 32.87 88.355 49.306zM403.922 388.593h145.33c0 12.229 0 24.122-.461 36.588-37.275 21.159-74.092 41.736-110.9 62.332-42.18 23.604-84.34 47.248-126.533 70.83-31.757 17.75-63.569 35.4-95.328 53.147a42446.735 42446.735 0 0 0-99.115 55.554c-3.106 1.746-5.95 3.96-8.915 5.956H1c0-19.687 0-39.375.362-59.433 20.098-11.332 39.871-22.225 59.56-33.27 39.258-22.026 78.437-44.194 117.712-66.19 35.787-20.045 71.665-39.926 107.487-59.908 24.076-13.43 48.144-26.874 72.177-40.38 14.622-8.217 29.17-16.565 43.75-24.855 0 0-.106-.015.236-.007.774-.116 1.206-.24 1.638-.364z"/>
  <path fill="#D52B1E" d="M1094.531 1c-22.147 12.743-44.736 25.533-67.384 38.22-123.304 69.073-246.624 138.12-369.94 207.173-1.161.65-2.346 1.261-3.871 2.027-.45-.851-.635-1.84-.635-2.828.003-81.229.021-162.457.168-244.139C800.021 1 947.042 1 1094.531 1zM652.863 425.938c27 14.478 53.907 29.403 80.754 44.434a468441.595 468441.595 0 0 1 361.148 202.382C947.979 673 800.958 673 653.469 673c-.573-.986-.769-1.971-.769-2.957.004-81.203.024-162.406.163-244.105zM108.469 673c2.496-1.997 5.34-4.21 8.446-5.956a42446.735 42446.735 0 0 1 99.115-55.554c31.759-17.746 63.57-35.397 95.328-53.146 42.193-23.583 84.352-47.227 126.534-70.83 36.807-20.597 73.624-41.174 110.785-61.912.443.838.622 1.827.622 2.816-.003 81.225-.021 162.45-.168 244.129-146.819.453-293.506.453-440.662.453zM549.141 248.052c-29.568-15.938-59.015-32.383-88.472-48.808-39.747-22.164-79.53-44.264-119.245-66.485-29.572-16.546-59.026-33.304-88.596-49.856-37.099-20.765-74.279-41.386-111.386-62.136-11.17-6.246-22.217-12.713-33.38-19.423C254.687 1 401.374 1 548.531 1c.572.986.768 1.971.768 2.957-.004 81.2-.024 162.398-.159 244.095zM1 61.469c3.1.959 6.315 2.18 9.282 3.846 39.411 22.126 78.751 44.378 118.182 66.469 39.993 22.405 80.087 44.627 120.099 66.998a59877.471 59877.471 0 0 1 153.267 85.986c-1.271.36-2.761.534-4.252.534-131.224.012-262.45.011-393.674.009-.666 0-1.332-.032-2.45-.18C1 210.646 1 136.29 1 61.469zM401.585 388.858c-14.117 8.396-28.665 16.744-43.287 24.961-24.033 13.506-48.101 26.95-72.177 40.38-35.822 19.982-71.7 39.863-107.487 59.907-39.275 21.997-78.454 44.165-117.713 66.19A4322.307 4322.307 0 0 1 1.362 613.1C1 538.646 1 464.292 1 389.469c1.32-.574 2.64-.77 3.959-.77 131.388-.013 262.777-.012 394.166-.008.666 0 1.331.04 2.46.167zM800.44 285.145c17.489-10.26 35.403-20.487 53.398-30.568a888245.282 888245.282 0 0 1 296.27-165.886c16.697-9.345 33.447-18.598 50.533-27.792.359 74.455.359 148.81.359 223.632-1.32.574-2.639.77-3.958.77-131.381.013-262.763.012-394.144.008-.665 0-1.33-.04-2.458-.164zM1201 612.531c-1.497-.102-3.093-.494-4.476-1.268a1350081.024 1350081.024 0 0 1-338.657-189.581 11588.507 11588.507 0 0 1-57.657-32.472c1.257-.344 2.748-.512 4.239-.512 131.216-.012 262.431-.011 393.647-.009.666 0 1.332.032 2.45.18.454 74.485.454 148.84.454 223.662z"/>
  <path fill="#EEABA6" d="M402.044 285.395c.36-.252.811-.267 1.57-.135-.287.222-.882.296-1.57.135zM403.747 388.415c-.257.302-.689.426-1.458.488.203-.263.743-.464 1.458-.488zM798.933 285.498c.051-.25.26-.334.805-.372.008.21-.32.373-.805.372zM800.011 388.611c-.16.248-.384.279-.921.183.076-.218.468-.309.921-.183z"/>
</svg>
