<svg width="22" height="22" viewBox="0 0 22 22" fill="none" xmlns="http://www.w3.org/2000/svg">
<rect x="1" y="1" width="20" height="20" rx="10" fill="#F18937"/>
<path fill-rule="evenodd" clip-rule="evenodd" d="M10.1286 15.1629C10.1286 14.6807 10.5196 14.2898 11.0018 14.2898C11.4841 14.2898 11.875 14.6807 11.875 15.1629C11.875 15.6452 11.4841 16.0361 11.0018 16.0361C10.5196 16.0361 10.1286 15.6452 10.1286 15.1629ZM10.4807 13.1365C10.6255 13.2631 10.8117 13.3323 11.0041 13.3308C11.2124 13.3308 11.4122 13.248 11.5595 13.1007C11.7068 12.9534 11.7896 12.7536 11.7896 12.5453L11.7896 7.08982L11.7896 6.99164C11.7764 6.78332 11.6809 6.58877 11.5243 6.45079C11.3677 6.31282 11.1626 6.24271 10.9543 6.25591C10.746 6.2691 10.5515 6.36451 10.4135 6.52114C10.2755 6.67778 10.2054 6.88281 10.2186 7.09113L10.2186 12.5453L10.2186 12.6435C10.2426 12.8344 10.3359 13.0098 10.4807 13.1365Z" fill="white"/>
<rect x="1" y="1" width="20" height="20" rx="10" stroke="black"/>
</svg>
