<svg width="4" height="16" viewBox="0 0 4 16" fill="none" xmlns="http://www.w3.org/2000/svg">
<path fill-rule="evenodd" clip-rule="evenodd" d="M0.54336 14.5717C0.54336 13.7829 1.18282 13.1435 1.97163 13.1435C2.76044 13.1435 3.3999 13.7829 3.3999 14.5717C3.3999 15.3605 2.76044 16 1.97163 16C1.18282 16 0.54336 15.3605 0.54336 14.5717ZM1.11943 11.2563C1.35625 11.4635 1.66088 11.5766 1.97555 11.5742C2.3163 11.5742 2.64309 11.4388 2.88404 11.1979C3.12499 10.9569 3.26035 10.6301 3.26035 10.2894L3.26035 1.3659L3.26035 1.2053C3.23877 0.864546 3.08271 0.546325 2.8265 0.320638C2.5703 0.0949507 2.23493 -0.0197143 1.89418 0.00186552C1.55343 0.0234472 1.23521 0.179506 1.00952 0.435713C0.783833 0.691921 0.669167 1.02729 0.690748 1.36804L0.690748 10.2894L0.690748 10.45C0.730073 10.7622 0.882611 11.0491 1.11943 11.2563Z" fill="currentColor"/>
</svg>
