<svg width="18" height="15" viewBox="0 0 18 15" fill="none" xmlns="http://www.w3.org/2000/svg">
<path d="M5.03516 11.1641C4.76172 11.6016 4.625 12.0938 4.625 12.6133C4.35156 12.7227 4.05078 12.75 3.75 12.75C2.30078 12.75 1.125 11.5742 1.125 10.125V1.8125H0.90625C0.523438 1.8125 0.25 1.53906 0.25 1.15625C0.25 0.800781 0.523438 0.5 0.90625 0.5H1.125H2.4375H5.0625H6.375H6.59375C6.94922 0.5 7.25 0.800781 7.25 1.15625C7.25 1.53906 6.94922 1.8125 6.59375 1.8125H6.375V8.97656L5.03516 11.1641ZM2.4375 1.8125V4.875H5.0625V1.8125H2.4375ZM2.4375 6.1875V10.125C2.4375 10.8633 3.01172 11.4375 3.75 11.4375C4.46094 11.4375 5.0625 10.8633 5.0625 10.125V6.1875H2.4375ZM8.78125 0.5H14.4688C14.8242 0.5 15.125 0.800781 15.125 1.15625C15.125 1.53906 14.8242 1.8125 14.4688 1.8125H14.25V6.46094L17.4766 11.6836C17.6406 11.9844 17.75 12.3125 17.75 12.668C17.75 13.6797 16.9023 14.5 15.8906 14.5H7.33203C6.32031 14.5 5.5 13.6797 5.5 12.668C5.5 12.3125 5.58203 11.9844 5.77344 11.6836L9 6.46094V1.8125H8.78125C8.39844 1.8125 8.125 1.53906 8.125 1.15625C8.125 0.800781 8.39844 0.5 8.78125 0.5ZM12.9375 1.8125H10.3125V6.625C10.3125 6.76172 10.2578 6.87109 10.2031 6.98047L8.80859 9.25H14.4141L13.0195 6.98047C12.9648 6.87109 12.9375 6.76172 12.9375 6.625V1.8125ZM6.86719 12.3945C6.83984 12.4766 6.8125 12.5586 6.8125 12.668C6.8125 12.9688 7.03125 13.1875 7.33203 13.1875H15.8906C16.1914 13.1875 16.4102 12.9688 16.4102 12.668C16.4102 12.5586 16.3828 12.4766 16.3555 12.3945L15.2344 10.5625H7.98828L6.86719 12.3945Z" fill="#F18937"/>
</svg>
