<svg width="22" height="22" viewBox="0 0 22 22" fill="none" xmlns="http://www.w3.org/2000/svg">
<rect x="1" y="1" width="20" height="20" rx="10" fill="#D83E3E"/>
<path fill-rule="evenodd" clip-rule="evenodd" d="M10.1286 15.1634C10.1286 14.6812 10.5196 14.2902 11.0018 14.2902C11.4841 14.2902 11.875 14.6812 11.875 15.1634C11.875 15.6457 11.4841 16.0366 11.0018 16.0366C10.5196 16.0366 10.1286 15.6457 10.1286 15.1634ZM10.4807 13.137C10.6255 13.2636 10.8117 13.3328 11.0041 13.3313C11.2124 13.3313 11.4122 13.2485 11.5595 13.1012C11.7068 12.9539 11.7896 12.7541 11.7896 12.5458L11.7896 7.09031L11.7896 6.99213C11.7764 6.78381 11.6809 6.58926 11.5243 6.45128C11.3677 6.3133 11.1626 6.2432 10.9543 6.2564C10.746 6.26959 10.5515 6.365 10.4135 6.52163C10.2755 6.67827 10.2054 6.8833 10.2186 7.09162L10.2186 12.5458L10.2186 12.644C10.2426 12.8349 10.3359 13.0103 10.4807 13.137Z" fill="white"/>
<rect x="1" y="1" width="20" height="20" rx="10" stroke="black"/>
</svg>
