<svg xmlns="http://www.w3.org/2000/svg" width="16" height="17" fill="none" viewBox="0 0 16 17">
  <path fill="currentColor" d="M9.75 2.79a.75.75 0 1 1 0-1.5h4.5a.75.75 0 0 1 .75.75v4.5c0 .415-.334.75-.75.75a.748.748 0 0 1-.75-.75V3.847l-6.247 6.194c-.266.319-.74.319-1.034 0-.29-.265-.29-.74 0-1.034l6.222-6.219H9.75ZM1 4.04c0-.968.783-1.75 1.75-1.75h3.5a.75.75 0 1 1 0 1.5h-3.5a.25.25 0 0 0-.25.25v9.5c0 .137.112.25.25.25h9.5a.25.25 0 0 0 .25-.25v-3.5c0-.417.334-.75.75-.75s.75.333.75.75v3.5c0 .965-.784 1.75-1.75 1.75h-9.5A1.75 1.75 0 0 1 1 13.54v-9.5Z"/>
</svg>
