<svg width="20" height="21" viewBox="0 0 20 21" fill="none" xmlns="http://www.w3.org/2000/svg">
<path d="M10 5.6875C8.19531 5.6875 6.74609 6.50781 5.625 7.54688C4.55859 8.53125 3.84766 9.67969 3.46484 10.5C3.84766 11.3203 4.55859 12.4961 5.625 13.4805C6.74609 14.5195 8.19531 15.3125 10 15.3125C11.7773 15.3125 13.2266 14.5195 14.3477 13.4805C15.4141 12.4961 16.1523 11.3203 16.5078 10.5C16.1523 9.67969 15.4141 8.53125 14.375 7.54688C13.2266 6.50781 11.7773 5.6875 10 5.6875ZM4.72266 6.58984C6.00781 5.38672 7.78516 4.375 10 4.375C12.1875 4.375 13.9648 5.38672 15.25 6.58984C16.5352 7.79297 17.3828 9.1875 17.793 10.1719C17.875 10.3906 17.875 10.6367 17.793 10.8555C17.3828 11.8125 16.5352 13.2344 15.25 14.4375C13.9648 15.6406 12.1875 16.625 10 16.625C7.78516 16.625 6.00781 15.6406 4.72266 14.4375C3.4375 13.2344 2.58984 11.8125 2.17969 10.8555C2.09766 10.6367 2.09766 10.3906 2.17969 10.1719C2.58984 9.1875 3.4375 7.76562 4.72266 6.58984ZM10 12.6875C11.2031 12.6875 12.1875 11.7305 12.1875 10.5C12.1875 9.29688 11.2031 8.3125 10 8.3125C9.97266 8.3125 9.94531 8.3125 9.94531 8.3125C9.97266 8.47656 10 8.61328 10 8.75C10 9.73438 9.20703 10.5 8.25 10.5C8.08594 10.5 7.94922 10.5 7.8125 10.4453C7.8125 10.4727 7.8125 10.5 7.8125 10.5C7.8125 11.7305 8.76953 12.6875 10 12.6875ZM10 7C11.2305 7 12.3789 7.68359 13.0078 8.75C13.6367 9.84375 13.6367 11.1836 13.0078 12.25C12.3789 13.3438 11.2305 14 10 14C8.74219 14 7.59375 13.3438 6.96484 12.25C6.33594 11.1836 6.33594 9.84375 6.96484 8.75C7.59375 7.68359 8.74219 7 10 7Z" fill="#ADBFCC"/>
</svg>
