<svg xmlns="http://www.w3.org/2000/svg" width="16" height="16" fill="none" viewBox="0 0 16 16">
  <g clip-path="url(#a)">
    <path fill="currentColor" d="M8 1.875c-2.244 0-4.042 1.006-5.35 2.204C1.35 5.266.48 6.688.07 7.664a.857.857 0 0 0 0 .672c.41.976 1.28 2.398 2.58 3.585C3.958 13.12 5.756 14.125 8 14.125c2.245 0 4.042-1.006 5.35-2.204 1.3-1.19 2.17-2.608 2.583-3.585a.858.858 0 0 0 0-.672c-.413-.976-1.283-2.398-2.583-3.585C12.042 2.88 10.245 1.875 8 1.875ZM12 8c0 2.174-1.792 3.938-4 3.938S4 10.174 4 8c0-2.174 1.792-3.938 4-3.938S12 5.827 12 8ZM8 6.25C8 7.215 7.203 8 6.222 8c-.32 0-.62-.082-.878-.23-.005.077-.01.15-.01.23 0 1.45 1.194 2.625 2.666 2.625S10.667 9.449 10.667 8c0-1.45-1.195-2.625-2.667-2.625a2.22 2.22 0 0 0-.233.01c.147.255.233.55.233.865Z"/>
  </g>
  <defs>
    <clipPath id="a">
      <path fill="#fff" d="M0 0h16v16H0z"/>
    </clipPath>
  </defs>
</svg>
