<svg width="16" height="16" viewBox="0 0 16 16" fill="none" xmlns="http://www.w3.org/2000/svg">
<path d="M8.01391 4.88429C7.70783 4.91212 7.40174 4.93994 7.12348 5.02342C7.26261 5.24603 7.31826 5.52429 7.34609 5.77472C7.34609 6.63733 6.62261 7.33298 5.78783 7.33298C5.50957 7.33298 5.2313 7.27733 5.03652 7.1382C4.95304 7.41646 4.89739 7.69472 4.89739 8.00081C4.89739 9.72603 6.2887 11.1173 8.01391 11.1173C9.73913 11.1173 11.1304 9.72603 11.1304 8.00081C11.1304 6.30342 9.73913 4.91212 8.01391 4.91212V4.88429ZM15.9165 7.61125C14.4139 4.66168 11.4087 2.6582 8.01391 2.6582C4.5913 2.6582 1.58609 4.66168 0.0834783 7.61125C0.0278261 7.72255 0 7.86168 0 8.00081C0 8.16777 0.0278261 8.3069 0.0834783 8.4182C1.58609 11.3678 4.5913 13.3434 8.01391 13.3434C11.4087 13.3434 14.4139 11.3678 15.9165 8.4182C15.9722 8.3069 16 8.16777 16 8.02864C16 7.86168 15.9722 7.72255 15.9165 7.61125ZM8.01391 12.0078C5.25913 12.0078 2.72696 10.4773 1.3913 8.00081C2.72696 5.52429 5.25913 3.99386 8.01391 3.99386C10.7409 3.99386 13.273 5.52429 14.6087 8.00081C13.273 10.4773 10.7409 12.0078 8.01391 12.0078Z" fill="#23F7DD"/>
</svg>
