<svg xmlns="http://www.w3.org/2000/svg" width="16" height="17" fill="none" viewBox="0 0 16 17">
  <g clip-path="url(#a)">
    <path fill="currentColor"
      d="M8 2.375c-2.244 0-4.042 1.006-5.35 2.204C1.35 5.766.48 7.188.07 8.164a.857.857 0 0 0 0 .672c.41.976 1.28 2.398 2.58 3.585C3.958 13.62 5.756 14.625 8 14.625c2.245 0 4.042-1.006 5.35-2.204 1.3-1.19 2.17-2.608 2.583-3.585a.858.858 0 0 0 0-.672c-.413-.976-1.283-2.398-2.583-3.585C12.042 3.38 10.245 2.375 8 2.375ZM12 8.5c0 2.174-1.792 3.938-4 3.938S4 10.674 4 8.5c0-2.174 1.792-3.938 4-3.938s4 1.764 4 3.938ZM8 6.75c0 .965-.797 1.75-1.778 1.75-.32 0-.62-.082-.878-.23-.005.077-.01.15-.01.23 0 1.45 1.194 2.625 2.666 2.625s2.667-1.176 2.667-2.625c0-1.45-1.195-2.625-2.667-2.625a2.22 2.22 0 0 0-.233.01c.147.255.233.55.233.865Z" />
  </g>
  <defs>
    <clipPath id="a">
      <path fill="currentColor" d="M0 .5h16v16H0z" />
    </clipPath>
  </defs>
</svg>