<svg xmlns="http://www.w3.org/2000/svg" width="16" height="16" fill="none" viewBox="0 0 16 16">
  <path fill="#8293AA" d="M6.264.846a.5.5 0 0 1 .068.996l-.067.004H4.111a2.262 2.262 0 0 0-2.258 2.138l-.004.124v2.53a.5.5 0 0 1-.995.067L.85 6.637V4.108A3.262 3.262 0 0 1 3.967.85l.145-.004h2.152ZM11.89.846a3.262 3.262 0 0 1 3.259 3.117l.003.145v2.53a.5.5 0 0 1-.996.067l-.004-.068V4.108a2.262 2.262 0 0 0-2.138-2.258l-.124-.004H9.738A.5.5 0 0 1 9.67.851l.068-.005h2.152ZM1.35 9.61a.5.5 0 0 1 .496.433l.004.068v1.775c0 1.208.947 2.194 2.138 2.259l.124.003h2.152a.5.5 0 0 1 .068.995l-.067.005H4.111A3.262 3.262 0 0 1 .854 12.03l-.004-.145v-1.775a.5.5 0 0 1 .5-.5ZM14.652 9.61a.5.5 0 0 1 .495.433l.005.068v1.775a3.262 3.262 0 0 1-3.117 3.259l-.145.003H9.738a.5.5 0 0 1-.068-.996l.068-.004h2.152a2.262 2.262 0 0 0 2.258-2.138l.004-.124v-1.775a.5.5 0 0 1 .5-.5ZM5.35 4.941a.5.5 0 0 1 .495.432l.004.068v1.125a.5.5 0 0 1-.995.068l-.005-.068V5.441a.5.5 0 0 1 .5-.5ZM7.512 6.31a.5.5 0 0 1 .988.144l-.01.067-.496 2.298a.498.498 0 0 0 .42.598l.067.005a.5.5 0 0 1 0 1c-.92 0-1.615-.82-1.483-1.714l.019-.1.495-2.298ZM10.69 4.941a.5.5 0 0 1 .496.432l.005.068v1.125a.5.5 0 0 1-.996.068l-.004-.068V5.441a.5.5 0 0 1 .5-.5Z"/>
  <path fill="#8293AA" d="M6.263 10.506a.5.5 0 0 1 .65.072l.045.058a.921.921 0 0 0 .234.198c.244.159.561.256.969.256.409 0 .735-.099.992-.26.12-.074.198-.144.236-.186l.019-.022a.5.5 0 0 1 .805.593c-.097.132-.27.301-.529.463-.413.258-.922.412-1.523.412-.604 0-1.109-.155-1.513-.416a1.831 1.831 0 0 1-.515-.473.5.5 0 0 1 .13-.695Z"/>
</svg>
