<svg xmlns="http://www.w3.org/2000/svg" width="23" height="22" fill="none" viewBox="0 0 23 22">
  <path fill="currentColor" d="M8.897.27a.75.75 0 0 1 .102 1.493l-.102.007H5.668a3.393 3.393 0 0 0-3.387 3.206l-.005.186v3.794a.75.75 0 0 1-1.494.102l-.006-.102V5.162A4.893 4.893 0 0 1 5.45.274L5.668.27h3.229ZM17.335.27a4.893 4.893 0 0 1 4.888 4.674l.005.218v3.794a.75.75 0 0 1-1.494.102l-.006-.102V5.162a3.393 3.393 0 0 0-3.207-3.387l-.186-.005h-3.229a.75.75 0 0 1-.101-1.494l.101-.006h3.229ZM1.526 13.416a.75.75 0 0 1 .743.648l.007.102v2.663a3.393 3.393 0 0 0 3.206 3.388l.186.005h3.229a.75.75 0 0 1 .102 1.493l-.102.007H5.668A4.893 4.893 0 0 1 .78 17.047l-.004-.218v-2.663a.75.75 0 0 1 .75-.75ZM21.478 13.416a.75.75 0 0 1 .743.648l.007.102v2.663a4.893 4.893 0 0 1-4.675 4.888l-.218.005h-3.229a.75.75 0 0 1-.101-1.493l.101-.007h3.229a3.393 3.393 0 0 0 3.388-3.207l.005-.186v-2.663a.75.75 0 0 1 .75-.75ZM7.524 6.412a.75.75 0 0 1 .743.648l.007.102V8.85a.75.75 0 0 1-1.493.101l-.007-.101V7.162a.75.75 0 0 1 .75-.75ZM10.768 8.465a.75.75 0 0 1 1.482.216l-.015.1-.744 3.447a.747.747 0 0 0 .63.898l.1.007a.75.75 0 0 1 0 1.5 2.247 2.247 0 0 1-2.223-2.572l.027-.15.743-3.446ZM15.536 6.412a.75.75 0 0 1 .743.648l.007.102V8.85a.75.75 0 0 1-1.493.101l-.007-.101V7.162a.75.75 0 0 1 .75-.75Z"/>
  <path fill="currentColor" d="M8.895 14.76a.75.75 0 0 1 .973.108l.07.086c.033.05.148.167.35.298.366.237.842.382 1.453.382.614 0 1.103-.147 1.49-.388a1.76 1.76 0 0 0 .353-.28l.027-.032a.75.75 0 0 1 1.208.889c-.145.197-.405.451-.793.694-.619.387-1.383.617-2.285.617-.905 0-1.663-.231-2.268-.623-.382-.247-.634-.506-.773-.709a.75.75 0 0 1 .195-1.043Z"/>
</svg>
