<svg xmlns="http://www.w3.org/2000/svg" width="28" height="28" fill="none" viewBox="0 0 28 28">
  <g filter="url(#a)">
    <rect width="20" height="20" x="4" y="2" fill="#D83E3E" rx="10" shape-rendering="crispEdges"/>
    <path fill="#fff" fill-rule="evenodd" d="M17.536 8.464a.625.625 0 0 0-.884 0l-2.653 2.652-2.65-2.651a.625.625 0 0 0-.885.884l2.652 2.65-2.651 2.652a.625.625 0 1 0 .883.884L14 12.884l2.652 2.652a.625.625 0 1 0 .884-.884L14.883 12l2.653-2.652a.625.625 0 0 0 0-.884Z" clip-rule="evenodd"/>
    <rect width="19.5" height="19.5" x="4.25" y="2.25" stroke="#212426" stroke-width=".5" rx="9.75" shape-rendering="crispEdges"/>
  </g>
  <defs>
    <filter id="a" width="28" height="28" x="0" y="0" color-interpolation-filters="sRGB" filterUnits="userSpaceOnUse">
      <feFlood flood-opacity="0" result="BackgroundImageFix"/>
      <feColorMatrix in="SourceAlpha" result="hardAlpha" values="0 0 0 0 0 0 0 0 0 0 0 0 0 0 0 0 0 0 127 0"/>
      <feOffset dy="2"/>
      <feGaussianBlur stdDeviation="2"/>
      <feComposite in2="hardAlpha" operator="out"/>
      <feColorMatrix values="0 0 0 0 0 0 0 0 0 0.0941176 0 0 0 0 0.223529 0 0 0 0.06 0"/>
      <feBlend in2="BackgroundImageFix" result="effect1_dropShadow_8087_8374"/>
      <feBlend in="SourceGraphic" in2="effect1_dropShadow_8087_8374" result="shape"/>
    </filter>
  </defs>
</svg>
