<svg width="24" height="24" viewBox="0 0 24 24" fill="none" xmlns="http://www.w3.org/2000/svg">
<rect width="24" height="24" rx="12" fill="black"/>
<g clip-path="url(#clip0_10072_148082)">
<path d="M13.6875 9.375C13.9992 9.375 14.25 9.62578 14.25 9.9375C14.25 10.2492 13.9992 10.5 13.6875 10.5H10.3125C10.0008 10.5 9.75 10.2492 9.75 9.9375C9.75 9.62578 10.0008 9.375 10.3125 9.375H13.6875ZM13.6875 13.5C13.9992 13.5 14.25 13.7508 14.25 14.0625C14.25 14.3742 13.9992 14.625 13.6875 14.625H10.3125C10.0008 14.625 9.75 14.3742 9.75 14.0625C9.75 13.7508 10.0008 13.5 10.3125 13.5H13.6875ZM9.75 12C9.75 11.6883 10.0008 11.4375 10.3125 11.4375H13.6875C13.9992 11.4375 14.25 11.6883 14.25 12C14.25 12.3117 13.9992 12.5625 13.6875 12.5625H10.3125C10.0008 12.5625 9.75 12.3117 9.75 12ZM9.375 6.94664L10.3219 6.13542C10.5328 5.95486 10.8422 5.95486 11.0531 6.13542L12 6.94664L12.9469 6.13542C13.1578 5.95486 13.4672 5.95486 13.6781 6.13542L14.625 6.94664L15.5719 6.13542C15.7383 5.99247 15.9727 5.95969 16.1719 6.05147C16.3711 6.14327 16.5 6.34289 16.5 6.5625V17.4375C16.5 17.6578 16.3711 17.857 16.1719 17.9484C15.9727 18.0398 15.7383 18.007 15.5719 17.8641L14.625 17.0531L13.6781 17.8641C13.4672 18.0445 13.1578 18.0445 12.9469 17.8641L12 17.0531L11.0531 17.8641C10.8422 18.0445 10.5328 18.0445 10.3219 17.8641L9.375 17.0531L8.42859 17.8641C8.26172 18.007 8.02711 18.0398 7.82742 17.9484C7.62788 17.857 7.5 17.6578 7.5 17.4375V6.5625C7.5 6.34289 7.62788 6.14325 7.82742 6.05147C8.02711 5.95969 8.26172 5.99247 8.42859 6.13542L9.375 6.94664ZM9.00891 15.8859C9.21961 15.7055 9.53039 15.7055 9.74109 15.8859L10.6875 16.6969L11.6344 15.8859C11.8453 15.7055 12.1547 15.7055 12.3656 15.8859L13.3125 16.6969L14.2594 15.8859C14.4703 15.7055 14.7797 15.7055 14.9906 15.8859L15.375 16.2141V7.78547L14.9906 8.11453C14.7797 8.29523 14.4703 8.29523 14.2594 8.11453L13.3125 7.30336L12.3656 8.11453C12.1547 8.29523 11.8453 8.29523 11.6344 8.11453L10.6875 7.30336L9.74109 8.11453C9.53039 8.29523 9.21961 8.29523 9.00891 8.11453L8.625 7.78547V16.2141L9.00891 15.8859Z" fill="#ADBFCC"/>
</g>
<defs>
<clipPath id="clip0_10072_148082">
<rect width="9" height="12" fill="white" transform="translate(7.5 6)"/>
</clipPath>
</defs>
</svg>
