<svg width="16" height="16" viewBox="0 0 16 16" fill="none" xmlns="http://www.w3.org/2000/svg">
<path d="M13.5 5.5C13.5 2.4625 11.0375 0 8 0C4.9625 0 2.5 2.4625 2.5 5.5C2.5 8.2825 4.56813 10.575 7.25 10.9438V12.25H5.75C5.3375 12.25 5 12.5875 5 13C5 13.4125 5.33594 13.75 5.75 13.75H7.25V15.25C7.25 15.6656 7.5875 16 8 16C8.4125 16 8.75 15.6641 8.75 15.25V13.75H10.25C10.6641 13.75 11 13.4141 11 13C11 12.5859 10.6641 12.25 10.25 12.25H8.75V10.9431C11.4312 10.575 13.5 8.28125 13.5 5.5ZM4 5.5C4 3.29437 5.79437 1.5 8 1.5C10.2056 1.5 12 3.29437 12 5.5C12 7.70563 10.2056 9.5 8 9.5C5.79375 9.5 4 7.70625 4 5.5Z" fill="#ADBFCC"/>
</svg>
