<svg width="12" height="14" viewBox="0 0 12 14" fill="none" xmlns="http://www.w3.org/2000/svg">
<path d="M9.5 12.6875C9.71875 12.6875 9.9375 12.4961 9.9375 12.25V4.375H7.75C7.25781 4.375 6.875 3.99219 6.875 3.5V1.3125H2.5C2.25391 1.3125 2.0625 1.53125 2.0625 1.75V12.25C2.0625 12.4961 2.25391 12.6875 2.5 12.6875H9.5ZM0.75 1.75C0.75 0.792969 1.51562 0 2.5 0H7.01172C7.47656 0 7.91406 0.191406 8.24219 0.519531L10.7305 3.00781C11.0586 3.33594 11.25 3.77344 11.25 4.23828V12.25C11.25 13.2344 10.457 14 9.5 14H2.5C1.51562 14 0.75 13.2344 0.75 12.25V1.75Z" fill="currentColor"/>
</svg>
