<svg width="14" height="16" viewBox="0 0 14 16" fill="none" xmlns="http://www.w3.org/2000/svg">
<path d="M2.7998 3.63743C2.7998 3.23597 3.1134 2.91016 3.4998 2.91016H10.4998C10.8862 2.91016 11.1998 3.23597 11.1998 3.63743C11.1998 4.03888 10.8862 4.3647 10.4998 4.3647H3.4998C3.1134 4.3647 2.7998 4.03888 2.7998 3.63743Z" fill="#ADBFCC"/>
<path d="M2.7998 6.54759C2.7998 6.14613 3.1134 5.82031 3.4998 5.82031H10.4998C10.8862 5.82031 11.1998 6.14613 11.1998 6.54759C11.1998 6.94904 10.8862 7.27486 10.4998 7.27486H3.4998C3.1134 7.27486 2.7998 6.94904 2.7998 6.54759Z" fill="#ADBFCC"/>
<path d="M2.7998 9.72727C2.7998 9.32582 3.1134 9 3.4998 9H6.2998C6.6862 9 6.9998 9.32582 6.9998 9.72727C6.9998 10.1287 6.6862 10.4545 6.2998 10.4545H3.4998C3.1134 10.4545 2.7998 10.1287 2.7998 9.72727Z" fill="#ADBFCC"/>
<path fill-rule="evenodd" clip-rule="evenodd" d="M0 2.18182C0 0.976727 0.9401 0 2.1 0H11.9C13.0599 0 14 0.976727 14 2.18182V13.8182C14 15.0233 13.0599 16 11.9 16H2.1C0.9401 16 0 15.0233 0 13.8182V2.18182ZM2.1 1.45455H11.9C12.2864 1.45455 12.6 1.78036 12.6 2.18182V13.8182C12.6 14.2196 12.2864 14.5455 11.9 14.5455H2.1C1.7136 14.5455 1.4 14.2196 1.4 13.8182V2.18182C1.4 1.78036 1.7136 1.45455 2.1 1.45455Z" fill="#ADBFCC"/>
</svg>
