<svg xmlns="http://www.w3.org/2000/svg" width="24" height="18" fill="none" viewBox="0 0 24 18">
  <path fill="#fff" d="M11.996 11.25c2.153 0 3.867-1.637 3.867-3.656 0-2.02-1.746-3.657-3.867-3.657-2.153 0-3.866 1.637-3.866 3.657-.034 2.018 1.714 3.656 3.866 3.656Zm0-5.625c1.157 0 2.099.883 2.099 1.969 0 1.085-.944 1.968-2.099 1.968-1.155 0-2.1-.882-2.1-1.968 0-1.087.941-1.969 2.1-1.969Zm7.204 0c1.657 0 3-1.26 3-2.813C22.2 1.26 20.858 0 19.2 0c-1.657 0-3 1.26-3 2.813 0 1.553 1.343 2.812 3 2.812Zm-5.329 6.75H10.13c-2.944 0-5.329 2.099-5.329 4.686 0 .52.476.939 1.065.939h12.27c.589 0 1.065-.418 1.065-.939 0-2.587-2.385-4.686-5.329-4.686ZM6.68 16.313c.392-1.293 1.776-2.25 3.418-2.25h3.774c1.642 0 3.025.957 3.418 2.25H6.679ZM20.696 6.75h-2.319a3.3 3.3 0 0 0-1.345.29c.023.185.06.364.06.554 0 1.185-.479 2.257-1.243 3.093h7.489A.66.66 0 0 0 24 10.03c0-1.81-1.477-3.28-3.304-3.28Zm-13.8.844c0-.192.037-.374.06-.56-.409-.21-.859-.284-1.335-.284H3.303C1.479 6.75 0 8.22 0 10.03a.66.66 0 0 0 .66.658h7.482c-.766-.837-1.246-1.91-1.246-3.094ZM4.8 5.625c1.657 0 3-1.26 3-2.813C7.8 1.26 6.457 0 4.8 0s-3 1.26-3 2.813c0 1.553 1.343 2.812 3 2.812Z"/>
</svg>
