<svg width="24" height="24" viewBox="0 0 24 24" fill="none" xmlns="http://www.w3.org/2000/svg">
<path d="M12 7.96402C10.6781 7.98745 9.52032 8.41402 8.65313 9.29058C7.85157 10.0921 7.35844 11.2532 7.37579 12.4485C7.41094 14.804 7.19414 17.1595 6.76172 19.4517C6.67383 19.8618 6.9375 20.2542 7.34157 20.3001C7.74 20.3763 8.14407 20.1185 8.2261 19.7142C8.72391 17.3179 8.95266 14.8532 8.9175 12.3829C8.86407 11.639 9.16407 10.8984 9.71719 10.35C10.59 9.47714 11.6977 9.46542 12.0023 9.46542C13.7423 9.49471 15.1134 10.8834 15.1008 12.5648C15.1359 14.9259 15.0023 17.2945 14.5795 19.5539C14.5092 19.964 14.7846 20.3085 15.1945 20.421C15.2414 20.4269 15.2766 20.4269 15.3234 20.4269C15.6809 20.4269 15.997 20.1691 16.0617 19.8002C16.4543 17.4517 16.6359 14.9486 16.6008 12.5017C16.5984 10.0546 14.5453 8.0062 12 7.96402ZM11.9953 12C11.5852 12.0058 11.2514 12.3456 11.257 12.7617C11.3098 16.2009 10.8762 19.5164 9.95625 22.8445L9.89766 23.0437C9.81094 23.3578 9.97969 24 10.6219 24C10.9078 24 11.2486 23.7832 11.3423 23.4553L11.4009 23.2502C12.3558 19.8227 12.8128 16.3267 12.7542 12.7408C12.75 12.3234 12.375 11.9953 11.9953 12ZM5.27813 7.02183C4.10204 8.47495 3.46922 10.3078 3.49829 12.1875C3.52758 14.039 3.37524 15.8962 3.04711 17.6953C2.97094 18.1054 3.24047 18.4978 3.65039 18.5681C3.65508 18.5798 3.73829 18.5798 3.78516 18.5798C4.14258 18.5798 4.45875 18.3278 4.52344 17.9648C4.87032 16.0687 5.02969 14.114 4.99688 12.164C4.96875 10.6171 5.475 9.16402 6.44532 7.9687C6.70899 7.64648 6.65625 7.21402 6.33399 6.91402C6.01875 6.65152 5.54532 6.69839 5.27813 7.02183ZM23.9953 11.8546C23.9836 11.0812 23.8943 10.3017 23.7243 9.54558C23.6364 9.14719 23.2396 8.8898 22.8351 8.97792C22.4308 9.06581 22.1718 9.46402 22.26 9.86808C22.4064 10.4821 22.4836 11.204 22.4953 11.8781C22.5012 12.2355 22.5012 12.5929 22.5012 12.9501C22.4953 13.3661 22.7871 13.7057 23.2451 13.7057C23.6552 13.7057 23.9529 13.3777 24.0007 12.9618C24 12.5906 24 12.225 23.9953 11.8546ZM11.8453 0.00121422C8.56407 -0.0573748 5.55469 1.12964 3.30329 3.42136C1.12969 5.59683 -0.0407065 8.47495 0.00616378 11.5453C0.0120232 11.8968 0.0120232 12.2484 0.000304406 12.6046C-0.0114143 13.0148 0.316711 13.3603 0.726867 13.372H0.750304C1.1546 13.372 1.48859 13.0498 1.45812 12.6454C1.46984 12.2705 1.46973 11.8959 1.46387 11.5209C1.46485 8.85933 2.48016 6.36089 4.36079 4.47886C6.31875 2.52183 8.95782 1.45964 11.8219 1.50089C15.3197 1.55363 18.6047 3.28917 20.6156 6.15417C20.8559 6.49397 21.3263 6.58139 21.66 6.34116C21.9998 6.14897 22.0805 5.63334 21.8403 5.2935C19.5563 2.03573 15.825 0.0598127 11.8453 0.00121422ZM11.9016 3.9862C11.1844 3.97448 10.4766 4.05042 9.7875 4.21448C9.38321 4.26605 9.17344 4.7123 9.2311 5.11683C9.28266 5.52108 9.735 5.76698 10.1334 5.67323C10.7016 5.53847 11.2631 5.47402 11.8795 5.52792C15.7584 5.58652 18.9623 8.69151 19.0233 12.4607C19.0526 14.3179 18.9588 16.1929 18.7538 18.0248C18.7491 18.4349 18.9998 18.8039 19.3678 18.8507C19.3971 18.8566 19.4264 18.8566 19.4557 18.8566C19.7885 18.8566 20.1527 18.6175 20.1996 18.1947C20.4164 16.2963 20.5102 14.3571 20.4387 12.4338C20.4516 7.82339 16.5844 4.05652 11.9016 3.9862Z" fill="currentColor"/>
</svg>
