<svg xmlns="http://www.w3.org/2000/svg" width="13" height="16" fill="none" viewBox="0 0 13 16">
  <g clip-path="url(#a)">
    <path fill="#ADBFCC" d="M7.222.746c0-.742-.974-1.036-1.38-.407-2.952 4.602.908 7.12.908 8.633 0 .687-.563 1.25-1.25 1.25-.688 0-1.25-.563-1.25-1.25V5.69a.75.75 0 0 0-1.18-.614A5.991 5.991 0 0 0 .5 9.972C.5 13.309 3.191 16 6.5 16s6-2.691 6-6c0-5.322-5.278-6.031-5.278-9.254ZM6.5 14.472c-2.48 0-4.5-2.02-4.5-4.5 0-.895.266-2.024.75-2.75v1.75a2.754 2.754 0 0 0 2.75 2.75 2.754 2.754 0 0 0 2.75-2.75c0-2.008-2.75-3.75-2-6.5C7.5 5.222 11 6.303 11 9.972c0 2.51-2.019 4.5-4.5 4.5Z"/>
  </g>
  <defs>
    <clipPath id="a">
      <path fill="#fff" d="M.5 0h12v16H.5z"/>
    </clipPath>
  </defs>
</svg>
