<svg width="40" height="40" viewBox="0 0 40 40" fill="none" xmlns="http://www.w3.org/2000/svg">
<rect width="40" height="40" rx="16" fill="#23F7DD"/>
<path d="M15.7812 16.9062C15 18.2812 14.5 19.6875 14.5 20.8438C14.5 24.0625 16.9062 26.5 20 26.5C23.0312 26.5 25.5 24.0625 25.5 20.8438C25.5 19.9375 25.1562 18.7188 24.5938 17.5312C24.0938 16.4062 23.4375 15.4062 22.8125 14.75C22.6875 14.9062 22.5312 15.125 22.3438 15.3438C22.2812 15.4688 22.1875 15.5938 22.0938 15.7188C21.9688 15.9062 21.8125 16.125 21.7188 16.25C21.5938 16.4375 21.375 16.5312 21.125 16.5625C20.9062 16.5625 20.6875 16.4375 20.5312 16.25C20.4375 16.125 20.3125 15.9688 20.1875 15.8438C19.5938 15.0625 18.9062 14.1875 18.3125 13.5938C17.4688 14.4062 16.5312 15.5938 15.7812 16.9062ZM19.2188 12.375C19.8125 12.9375 20.5 13.7812 21.0938 14.5312L21.125 14.5C21.3438 14.1562 21.625 13.7812 21.875 13.5312C22.4062 13.0625 23.1875 13.0625 23.7188 13.5312C24.5312 14.3438 25.3438 15.5938 25.9375 16.9062C26.5625 18.1875 27 19.625 27 20.8438C27 24.875 23.875 28 20 28C16.0625 28 13 24.8438 13 20.8438C13 19.2812 13.625 17.625 14.4688 16.1562C15.3125 14.6875 16.4062 13.3125 17.4062 12.375C17.9375 11.9062 18.7188 11.9062 19.2188 12.375ZM20.0312 25C18.0625 25 16.5 23.75 16.4688 21.5938C16.4688 20.6562 17 19.8125 18.0625 18.5C18.2812 18.25 18.6562 18.25 18.8438 18.5C19.375 19.1562 20.2812 20.3438 20.8125 21C21 21.25 21.375 21.25 21.5625 21L22.375 20.0938C22.5625 19.8438 22.9375 19.875 23.0625 20.1562C23.8438 21.5938 23.5 23.4375 22.1875 24.3438C21.5312 24.7812 20.8438 25 20.0312 25Z" fill="black"/>
</svg>
