<svg width="20" height="20" viewBox="0 0 20 20" fill="none" xmlns="http://www.w3.org/2000/svg">
<path d="M5.78125 6.90625C5 8.28125 4.5 9.6875 4.5 10.8438C4.5 14.0625 6.90625 16.5 10 16.5C13.0312 16.5 15.5 14.0625 15.5 10.8438C15.5 9.9375 15.1562 8.71875 14.5938 7.53125C14.0938 6.40625 13.4375 5.40625 12.8125 4.75C12.6875 4.90625 12.5312 5.125 12.3438 5.34375C12.2812 5.46875 12.1875 5.59375 12.0938 5.71875C11.9688 5.90625 11.8125 6.125 11.7188 6.25C11.5938 6.4375 11.375 6.53125 11.125 6.5625C10.9062 6.5625 10.6875 6.4375 10.5312 6.25C10.4375 6.125 10.3125 5.96875 10.1875 5.84375C9.59375 5.0625 8.90625 4.1875 8.3125 3.59375C7.46875 4.40625 6.53125 5.59375 5.78125 6.90625ZM9.21875 2.375C9.8125 2.9375 10.5 3.78125 11.0938 4.53125L11.125 4.5C11.3438 4.15625 11.625 3.78125 11.875 3.53125C12.4062 3.0625 13.1875 3.0625 13.7188 3.53125C14.5312 4.34375 15.3438 5.59375 15.9375 6.90625C16.5625 8.1875 17 9.625 17 10.8438C17 14.875 13.875 18 10 18C6.0625 18 3 14.8438 3 10.8438C3 9.28125 3.625 7.625 4.46875 6.15625C5.3125 4.6875 6.40625 3.3125 7.40625 2.375C7.9375 1.90625 8.71875 1.90625 9.21875 2.375ZM10.0312 15C8.0625 15 6.5 13.75 6.46875 11.5938C6.46875 10.6562 7 9.8125 8.0625 8.5C8.28125 8.25 8.65625 8.25 8.84375 8.5C9.375 9.15625 10.2812 10.3438 10.8125 11C11 11.25 11.375 11.25 11.5625 11L12.375 10.0938C12.5625 9.84375 12.9375 9.875 13.0625 10.1562C13.8438 11.5938 13.5 13.4375 12.1875 14.3438C11.5312 14.7812 10.8438 15 10.0312 15Z" fill="currentColor"/>
</svg>
