<svg xmlns="http://www.w3.org/2000/svg" width="14" height="16" fill="none" viewBox="0 0 14 16">
  <path fill="currentColor" d="m12.598 5.808 1.331-2.64a.657.657 0 0 0-.595-.955h-4.99v-.819a.664.664 0 0 0-.666-.66H2.814V.66c0-.364-.3-.661-.667-.661a.664.664 0 0 0-.666.66V14.68H.666a.664.664 0 0 0-.666.66c0 .364.299.661.666.661h2.961a.664.664 0 0 0 .666-.66.664.664 0 0 0-.666-.661h-.814V7.927H7.01v.82a.66.66 0 0 0 .663.658h5.66a.664.664 0 0 0 .567-.314.656.656 0 0 0 .028-.642L12.6 5.81Zm-1.34.296.998 1.98H8.344v-.931a.55.55 0 0 0-.552-.547H2.814v-4.55h4.198v.931c0 .302.247.546.55.546h4.694l-.998 1.98a.656.656 0 0 0 0 .591Z"/>
</svg>
