<svg xmlns="http://www.w3.org/2000/svg" width="17" height="16" fill="none" viewBox="0 0 17 16">
  <path fill="currentColor" fill-rule="evenodd" d="M3.929 5.486a2.057 2.057 0 1 1 0-4.115 2.057 2.057 0 0 1 0 4.115ZM.5 3.429a3.429 3.429 0 1 1 6.857 0 3.429 3.429 0 0 1-6.857 0Zm12.571 11.2a2.057 2.057 0 1 1 0-4.115 2.057 2.057 0 0 1 0 4.114ZM9.643 12.57a3.429 3.429 0 1 1 6.857 0 3.429 3.429 0 0 1-6.857 0Zm1.371-9.142a2.057 2.057 0 1 0 4.114 0 2.057 2.057 0 0 0-4.114 0ZM13.071 0a3.429 3.429 0 1 0 0 6.857 3.429 3.429 0 0 0 0-6.857ZM3.93 14.628a2.057 2.057 0 1 1 0-4.114 2.057 2.057 0 0 1 0 4.114ZM.5 12.571a3.429 3.429 0 1 1 6.857 0 3.429 3.429 0 0 1-6.857 0Z" clip-rule="evenodd"/>
</svg>
