<svg width="40" height="40" viewBox="0 0 40 40" fill="none" xmlns="http://www.w3.org/2000/svg">
<rect width="40" height="40" rx="16" fill="#19CCC1"/>
<path d="M24.2188 23.1765C22.8674 23.1765 22.6367 23.1434 21.8127 23.4081C21.2524 23.6066 20.6262 23.7059 20 23.7059C19.3408 23.7059 18.7146 23.6066 18.1543 23.4081C17.3303 23.1434 17.0996 23.1765 15.7812 23.1765C13.4412 23.1765 11.5625 25.0956 11.5625 27.4118V27.9412C11.5625 28.5368 12.0239 29 12.6172 29H27.3828C27.9431 29 28.4375 28.5368 28.4375 27.9412V27.4118C28.4375 25.0956 26.5259 23.1765 24.2188 23.1765ZM26.8555 27.4118H13.1445C13.1445 26.7169 13.4082 26.0551 13.9026 25.5588C14.397 25.0625 15.0562 24.7647 15.7812 24.7647C17.1326 24.7647 17.1326 24.7316 17.627 24.9301C18.385 25.1618 19.176 25.2941 20 25.2941C20.791 25.2941 21.582 25.1618 22.3401 24.9301C22.8674 24.7316 22.8345 24.7647 24.2188 24.7647C25.6689 24.7647 26.8555 25.9559 26.8555 27.4118ZM20 21.5882C22.9004 21.5882 25.2734 19.239 25.2734 16.2941C25.2734 13.3824 22.9004 11 20 11C17.0667 11 14.7266 13.3824 14.7266 16.2941C14.7266 19.239 17.0667 21.5882 20 21.5882ZM20 12.5882C22.0105 12.5882 23.6914 14.2757 23.6914 16.2941C23.6914 18.3456 22.0105 20 20 20C17.9565 20 16.3086 18.3456 16.3086 16.2941C16.3086 14.2757 17.9565 12.5882 20 12.5882Z" fill="white"/>
</svg>
