<svg xmlns="http://www.w3.org/2000/svg" width="16" height="16" fill="none" viewBox="0 0 16 16">
  <path fill="#ADBFCC" d="M7.997 9.5c1.436 0 2.578-1.091 2.578-2.438 0-1.346-1.163-2.437-2.577-2.437-1.436 0-2.578 1.091-2.578 2.438C5.398 8.408 6.563 9.5 7.997 9.5Zm0-3.75c.772 0 1.4.589 1.4 1.313 0 .723-.63 1.312-1.4 1.312-.77 0-1.4-.588-1.4-1.313 0-.724.628-1.312 1.4-1.312Zm4.803 0c1.104 0 2-.84 2-1.875C14.8 2.84 13.905 2 12.8 2s-2 .84-2 1.875c0 1.035.895 1.875 2 1.875Zm-3.553 4.5H6.754c-1.963 0-3.553 1.4-3.553 3.124 0 .347.317.626.71.626h8.18c.393 0 .71-.279.71-.626 0-1.725-1.59-3.124-3.553-3.124Zm-4.795 2.625c.262-.862 1.184-1.5 2.279-1.5h2.517c1.094 0 2.016.638 2.278 1.5H4.452ZM13.797 6.5h-1.546a2.2 2.2 0 0 0-.896.193c.015.123.04.243.04.37 0 .79-.32 1.504-.829 2.062h4.992A.44.44 0 0 0 16 8.687 2.194 2.194 0 0 0 13.797 6.5Zm-9.2.563c0-.128.025-.25.04-.373-.272-.14-.572-.19-.89-.19H2.203C.986 6.5 0 7.48 0 8.687a.44.44 0 0 0 .44.438h4.988c-.51-.558-.83-1.273-.83-2.063ZM3.2 5.75c1.104 0 2-.84 2-1.875C5.2 2.84 4.305 2 3.2 2s-2 .84-2 1.875c0 1.035.895 1.875 2 1.875Z"/>
</svg>
