<svg xmlns="http://www.w3.org/2000/svg" xml:space="preserve" viewBox="0 0 600 400">
  <path fill="#FFF" d="M516 401H1c0-114.023 0-228.047.303-342.385 28.542 18.47 56.775 37.264 85.022 56.036 50.813 33.768 101.636 67.523 152.533 101.755.088 12.014.05 23.557.15 35.098.02 2.215.583 4.425.83 7.047 2.059 13.256 6.676 24.669 16.696 33.73 7.935 7.174 16.72 11.745 27.528 13.15 7.812.417 15.44.472 23.472.57 1.547-.073 2.749.002 3.822-.333 12.293-3.838 24.612-7.657 33.022-18.776 1.513.688 2.733 1.212 3.82 1.936a305019.58 305019.58 0 0 1 164.47 109.37c1.201.8 2.225 1.862 3.332 2.802zM88 1h513c0 113.357 0 226.713-.354 340.592-81.625-53.493-162.896-107.507-244.27-161.99-.206-5.839-.306-11.208-.57-16.985-8.71-.415-17.256-.423-26.145-.528-1.417-.48-2.492-.863-3.399-1.57 2.375-.96 4.55-1.75 6.793-2.19 3.426-.671 4.757-2.58 4.325-6.114.323-.506.413-.86.66-1.378.156-.165.232-.614.534-.84 1.352-3.814 2.403-7.404 3.704-11.196.516-1.631.781-3.06 1.396-4.645 1.336-2.133 2.325-4.11 3.67-6.18 2.443-1.45 3.616-3.33 4.057-5.91 1.13-.009 1.883.044 2.608.424-.03 1.543-.03 2.759-.03 3.975l1.993-.492c-.586-1.3-1.172-2.6-1.716-4.225-.027-.53-.096-.737-.085-1.064.081-.12-.054-.377.225-.57-.603-.573-1.485-.952-2.377-1.701.195-1.299.401-2.227.934-3.143.908.234 1.49.454 2.036.909.357.534.749.833 1.14 1.133-.04-.736-.08-1.472-.387-2.481a69.832 69.832 0 0 0-4.072-2.81c-.523-.44-.779-.745-.996-1.44.342-1.1.647-1.813 1.247-2.395.925.243 1.556.355 2.13.734.093.67.243 1.076.394 1.482l1.277-.993c-.466-.451-.932-.902-1.537-1.67-1.958-1.594-3.777-2.871-5.672-4.201l1.788-1.967c-1.128-.607-2.19-1.179-3.1-2.02 1.633-4.777-1.528-2.54-3.255-2.76-.412-.077-.719.068-.983.22.043.01.066-.074-.277-.2-.834-.913-1.324-1.702-1.81-2.727-.738-.115-1.48.006-2.223.126l.17.711c.584 0 1.167 0 1.856.362-.02 1.095-.144 1.827-.581 2.614-1.153.059-1.991.064-2.921-.294-.338-1.032-.583-1.704-.829-2.375-.193.562-.386 1.123-.802 1.64-.224-.045-.644.136-.488-.091.102-.402.049-.577.052-1.127-.34-1.167-.737-1.96-1.187-3.111-1.797-.359-3.54-.359-5.6-.364-.47.922-.621 1.85-.695 2.3-2.46-.567-4.513-1.04-6.668-1.817-.585-.98-.931-1.964-1.585-2.252-.848-.374-1.94-.193-3.065-.39-.336-.318-.56-.45-1.153-.743-2.628-.092-4.913.018-7.616.141-.568.53-.718 1.049-1.074 1.519-.49-.093-.768-.065-1.107-.395-.933-.562-1.795-.693-2.429-1.104-.21-2.71 7.39-6.4-.927-7.974-.222-1.925.07-3.859-.756-4.928-1.57-2.031-2.673-2.962-2.156-3.41 3.124-2.714-.418-4.1-.77-6.811l-5.246 3.704 1.406.255.847 6.443c-3.21-.782-1.436 2.384-2.927 3.25-4.425 2.268-3.49 5.084-1.427 8.399-2.013.494-3.842.636-6.058.74-1.552.552-2.716 1.141-4.225 1.717-1.09 1.065-1.837 2.144-2.97 3.194-4.212-2.217-8.042-1.815-12.244-.028-1.355.02-2.34.011-3.48-.315-.541.575-.93 1.468-1.31 2.33.007-.03.035-.085-.381-.091-1.703.183-3.864.917-4.138.476-2.247-3.607-4.752-1.427-7.505-.471-.47.785-.653 1.407-.987 2.237-.201.525-.253.844-.35 1.168-.046.005-.123-.047-.472-.238-1.54.402-2.733.997-3.925 1.59l.524 1.045c1.208-.257 2.416-.513 3.902-.686.775.371 1.272.66 1.713 1.235-.096.477-.136.668-.493.892-2.322.317-4.328.602-6.659.75A116593.12 116593.12 0 0 1 92.153 4.345C90.68 3.365 89.38 2.121 88 1m167.603 91.524s-.127.083 0 0z"/>
  <path fill="#0199CC" d="M356.48 180.07c81.27 54.015 162.54 108.03 244.166 161.987.354 19.55.354 39.156.354 58.943h-84.531c-1.576-.94-2.6-2.003-3.8-2.802a305019.58 305019.58 0 0 0-164.47-109.37c-1.088-.724-2.308-1.248-3.61-2.196 4.7-6.347 7.785-13.184 9.547-21.062.818-5.753 1.934-11.162 2.001-16.584.284-22.97.256-45.943.343-68.916zM87.531 1c1.85 1.121 3.149 2.364 4.622 3.345 49.803 33.158 99.622 66.29 149.774 99.884-.007.957-.625 1.45-.637 1.956-.038 1.576.154 3.157.257 4.736.691-.261 1.382-.523 2.098-.216-.532 1.525-1.09 2.48-1.994 3.388-1.081.683-1.815 1.415-2.549 2.147.893.545 1.787 1.09 2.856 1.989 2.318 3.195 4.46 6.035 6.666 9.198 1.443.539 2.819.756 3.98 1.274-.04.686.136 1.07.208 1.713-.38.775-.657 1.291-.894 2.16.395 1.693.752 3.033.897 4.61.914 3.564 2.04 6.891 3.208 10.368.169.346.347.449.758.78.018 2.722-.141 5.12-.05 7.822 4.24 1.438 8.23 2.574 12.581 3.824 2.294.755 4.227 1.395 6.172 2.014.013-.022-.037-.036-.555-.019-10.792.022-21.064-.015-31.336.077-1.492.013-2.98.64-4.54 1.446-.139 17.787-.206 35.113-.274 52.439-50.818-33.76-101.64-67.516-152.454-101.284C58.078 95.879 29.845 77.084 1.303 58.15 1 39.058 1 20.116 1 1h86.531z"/>
  <path fill="#005ABC" d="M275.447 161.956s.05.014.379.275c.6.322.87.384 1.462.604 1.797.122 3.272.086 5.21.1 10.132.017 19.799-.019 29.866.042 1.491.032 2.582-.032 4.094-.045 2.114.017 3.806-.016 5.939.045 2.834.059 5.23.024 8.09.035 8.419.07 16.372.096 24.375.579.059 30.406.104 60.354.031 90.302-.01 4.006-.613 8.01-.941 12.015-1.578 7.54-4.663 14.377-9.717 20.654-8.267 11.449-20.586 15.268-32.879 19.106-1.073.335-2.275.26-4.106.005-8.25-.449-15.811-.527-23.373-.604-10.623-1.043-19.408-5.614-27.343-12.788-10.02-9.061-14.637-20.474-16.679-34.206.101-12.509.103-24.131.143-35.753.07-19.754.162-39.508.693-59.228 10.2.038 19.953.1 29.704-.005 1.688-.018 3.368-.737 5.052-1.133m16.558 89.433c-.036.179-.073.358-.741.844-2.918 2.552-3.223 5.617-2.125 9.183 1.174 3.81 2.029 7.719 2.866 12.387-1.674 4.705-3.347 9.41-5.583 14.334-.422.629-.845 1.257-1.593 2.486-2.768 2.45-5.537 4.9-7.705 8.083h42.556c.06-.32.118-.641.176-.962-.914-.282-1.829-.564-3.128-1.4-2.535-2.122-5.07-4.243-7.861-6.854-.292-.218-.584-.437-1.184-1.276-1.953-4.749-3.905-9.497-5.744-15.091.874-3.719 1.339-7.6 2.732-11.112 1.554-3.917 1.18-7.019-1.703-10.652.098-.773.196-1.546 1.035-2.3 9.582-2.675 14.426-9.368 16.63-19.406l.38-5.776h-19.419c.933-.98 1.373-1.443 2.213-2.428 5.66-4.432 7.68-9.698 5.791-15.105-2.203-6.31-5.332-7.947-12.751-8.463-5.132-.356-10.51 4.19-11.52 9.284-1.179 5.948 1.488 11.896 6.746 14.95l1.107 2.025h-19.616c.51 3.248.95 6.053 1.422 9.614 2.725 8.229 7.812 13.87 16.923 15.876.07.19.139.379.112.904 0 0 .124.326-.016.855m8.759-61.643 1.928-6.495c1.1-.09 2.48.083 3.613-.368 1.313-.522 3.32-1.512 3.402-2.441.16-1.832 1.898-4.842-2.816-5.322-6.968.019-6.968.019-6.366-8.313l-7.325-.984-.48 7.966-7.475.518v7.905c3.074 0 5.842 0 8.782.853v6.724c2.439 0 4.206 0 6.737-.043m27.997 30.682-.87 7.254 7.822.566.528 7.373h7.595l.459-7.405c1.598-.101 2.921-.049 4.179-.31.887-.186 1.685-.797 2.484-2.05v-5.072c-8.234 1.753-8.148-3.564-8.191-8.452h-5.5c-.662 8.824-.662 8.824-8.506 8.096m4.609-35.46c-1.12.057-2.241.116-4.195.136l-1.572 7.446 8.093.67.516 7.474h7.547l.676-7.525 8.841-.752c-1.324-2.946-2.297-5.11-4.09-7.402-1.378.038-2.756.076-4.47-.65l-1.077-7.989h-6.682c-1.013 3.118-1.883 5.793-3.587 8.591m17.22 70.454-6.38-.79-.4-7.366h-7.596l-.536 7.565-8.073.484c.501 2.737.941 5.143 2.256 7.668 6.34-1.202 8.31 1.993 7.152 7.665h5.74c.477-7.018.477-7.018 8.167-8.191 0-2.05 0-4.166-.33-7.035m-83.701 5.75v-4.732c-7.622-.816-7.622-.816-8.587-8.545l-6.44.313c1.603 6.49-1.245 9.175-7.473 8.005-.151 2.376-.256 4.031-.81 6.21l7.019 2.508c1.645 2.092-2.04 6.583 3.97 7.26 7.32.823 4.773-4.839 6.103-8.277 1.966 0 3.782.093 5.57-.088.314-.032.51-1.218.648-2.653m-.051-40.701-6.312-2.25c-1.73-2.278 1.918-6.735-4.08-7.406-7.304-.818-4.79 4.802-6.071 8.242-1.804 0-3.472-.181-5.055.104-.51.093-.8 1.412-1.149 3.003l.29 5.524 6.734.42c2.035 2.692-1.592 7.902 4.253 7.852 5.778-.05 1.82-5.38 4.19-7.847l7.244-.461c0-2.496 0-4.428-.044-7.181m-2.404-27.468c2.902.354 3.383-1.141 3.728-3.778.906-6.917-4.949-4.428-7.904-5.802l-.627-7.506c-2.836.148-6.136-.634-7.485.644-1.523 1.443-1.29 4.738-1.742 6.853-2.613 1.781-7.112-1.804-7.624 4.332-.582 6.977 4.57 4.705 7.937 5.67l.638 7.217h7.679c2.424-2.519-1.747-7.94 5.4-7.63z"/>
  <path fill="#050B10" d="M240.243 163.06c-.083 19.754-.176 39.508-.245 59.262-.04 11.622-.042 23.244-.078 35.343-.329-1.736-.892-3.946-.911-6.161-.1-11.541-.063-23.084-.151-35.098-.011-17.797.056-35.123.475-52.906.537-.452.723-.446.91-.44z"/>
  <path fill="#253950" d="M284.062 305.431c7.377-.285 14.938-.207 22.783.199-7.343.273-14.97.218-22.783-.199z"/>
  <path fill="#A99B0B" d="M248.558 127.105c-2.14-2.84-4.282-5.681-6.452-9.154-.055-1.692-.081-2.75-.107-3.81.557-.955 1.114-1.91 1.65-3.508.179-1.579.08-2.786.636-3.399 1.376-1.515 3.053-2.758 4.608-4.11.04-.19.08-.382.359-1.02.471-.678.663-.938 1.03-1.146.746.141 1.276.2 2.14.183.854-.47 1.376-.863 2.128-1.422.744-.398 1.26-.632 2.133-.815 1.445-.293 2.531-.637 3.9-1.027.62-.655.956-1.264 1.345-2.21.11-.783.166-1.23.224-1.678.985.007 1.971.015 3.404.284 2.009 1.664 3.57 3.067 5.148 4.484-.689.78-1.29 1.46-2.328 2.199-7.891-.637-14.607.663-19.77 7.216-4.66 5.148-2.348 9.991.123 15.18-.01 1.481-.09 2.617-.17 3.753z"/>
  <path fill="#372F30" d="M285.304 89.139c1.83-.141 3.658-.283 5.982-.747 1.545.333 2.595.99 3.651 1.875.008.23.009.69-.138.762-.015.06.118.045.506.235 2.055 1.73 3.854 3.256 5.643 5.247-.044 6.644-.077 12.823-.354 19.218-.965.823-1.685 1.43-2.505 1.756-.764-.986-1.429-1.69-1.702-2.438 1.129-.619 1.866-1.194 2.603-1.77-1.107-.41-2.213-.822-3.339-1.657-.147-1.247-.275-2.07-.022-2.853 1.375-.418 2.37-.877 3.364-1.336-.965-.778-1.93-1.555-2.984-2.61-.112-.47-.134-.664.217-.845 1.092-.296 1.81-.604 3.503-1.33-2.013-.466-2.918-.676-3.808-1.213-.588-1.018-1.19-1.709-1.942-2.693-1.088-1.451-2.026-2.61-3.085-4.035-.656-.475-1.191-.682-1.826-1.056-.307-.138-.514-.108-.72-.08.19.167.382.333.613.713.04.214.116.643.054.872-.062.229-.171.69-.483.704-1.736.036-3.16.059-4.602-.194a6.46 6.46 0 0 1 .078-1.136c.468-2.004.882-3.696 1.296-5.39m8.335 5.364-.168-.1s.02.202.168.1z"/>
  <path fill="#0351A7" d="M294.93 90.037c-1.05-.656-2.1-1.312-3.46-1.999-2.558-2.99-3.493-5.807 1.143-7.73 3.511.74 6.455 1.137 9.4 1.533 8.307 1.193.709 4.884.753 7.78-.612.745-.693 1.059-.724 1.646-.364.408-.642.579-1.004.355-2.092-.791-4.1-1.188-6.108-1.585z"/>
  <path fill="#021F38" d="M354.136 265.57c.144-3.667.748-7.671.757-11.677.073-29.948.028-59.896.258-90.342.432-.507.625-.517.819-.526.1 5.369.2 10.738.405 16.577.018 23.44.046 46.414-.238 69.384-.067 5.422-1.183 10.83-2 16.584z"/>
  <path fill="#20140A" d="M338.272 150.223s-.076.449-.452.78c-.476.677-.574 1.02-.673 1.365.665 3.38-.666 5.29-4.092 5.96-2.243.44-4.418 1.231-7.196 2.242-1.662.408-2.753.439-3.866.077-.03-.654-.038-.916.27-1.333 2.731-.71 5.146-1.264 7.56-1.819l-.082-1.39c-5.62-1.055-11.269-1.988-16.84-3.26-1.278-.292-2.291-1.747-3.109-2.694.958-.135 1.598-.243 2.563-.253 1.394.365 2.464.634 3.624.919.09.017.261.08.306.377.74.353 1.435.408 2.13.464-.216-.29-.433-.58-.46-1.101.778-.29 1.367-.35 2.133-.092 4.088 1.73 7.998 3.144 12.076 4.788.754-.23 1.342-.688 1.905-1.194-.024-.048.052.026.415.002 1.364-1.392 2.365-2.76 3.466-4.046.1.08.322.208.322.208z"/>
  <path fill="#241A1A" d="M283.956 94.838c-.014.184-.028.367-.178.957-.135.407-.52.524-.833.448-.867.156-1.422.388-2.279.8-2.8 1.791-5.297 3.403-8.133 4.87a96.587 96.587 0 0 0-3.72-1.016l1.89-2.14c-1.577-1.417-3.138-2.82-4.778-4.51 3.755-2.049 7.585-2.451 12.153-.204 1.459.026 2.173-.005 3.15.16 1.084.343 1.906.49 2.728.635z"/>
  <path fill="#B5A60B" d="M302.004 81.46c-2.936-.015-5.88-.412-9.035-1.154.924-1.209-.85-4.375 2.36-3.593l-.847-6.443-1.406-.255 5.247-3.704c.351 2.71 3.893 4.097.769 6.81-.517.449.587 1.38 2.156 3.41.826 1.07.534 3.004.756 4.93z"/>
  <path fill="#2C2C29" d="m321.062 92.963 6.566 1.512c.074-.45.226-1.378.818-1.972.878 1.378 1.316 2.422 1.4 3.456-1.215.27-2.078.55-3.141.633-.66.42-1.12 1.037-1.58 1.962.32 1.042.642 1.775.964 2.897-1.313 1.82-2.624 3.253-4.175 4.462-.537-.803-.835-1.384-1.194-2.295-1.651-2.101-3.241-3.872-4.523-5.76.198-.54.087-.96.412-1.43 3.51.612 3.846-.952 3.466-3.365.55-.031.768-.066.987-.1z"/>
  <path fill="#BEBEBE" d="M248.576 103.157c-1.238 1.32-2.915 2.562-4.291 4.077-.556.613-.457 1.82-.66 2.83-.696.334-1.387.596-2.078.857-.103-1.579-.295-3.16-.257-4.736.012-.507.63-1 .962-1.82 1.996-.606 4.002-.89 6.324-1.208z"/>
  <path fill="#EEE" d="M346.987 128.07c-.988 1.976-1.977 3.953-3.587 6.152-1.54 1.383-2.457 2.544-3.556 3.432-.48-1.066-.777-1.859-.924-2.88.44-.679.727-1.129 1.334-1.717.616-.757.911-1.375 1.5-2.101 1.29-1.298 2.285-2.489 3.595-3.754.737-.017 1.16.042 1.594.293.012.191.044.574.044.574z"/>
  <path fill="#5D5D5D" d="m347.05 99.82 3.25 1.751-1.787 1.967c1.895 1.33 3.714 2.607 5.532 4.32-.001.435.062.796.062.796-.63-.113-1.26-.225-2.577-.4-1.21-.008-1.734.045-2.446-.248-.276-.59-.363-.836-.177-1.133a8.71 8.71 0 0 0 1.055-.395l-1.59-.102c-.096-.008-.211-.162-.347-.425-.446-.479-.756-.695-1.05-.928.018-.017-.022.02-.084-.269-.182-.446-.303-.603-.385-1.102-.008-.794-.053-1.246-.054-1.899-.067-.468-.252-.665-.398-1.045.408-.464.702-.676.995-.888z"/>
  <path fill="#241A1A" d="M342.027 139.003c-1.05 3.59-2.1 7.18-3.453 10.995-.302.225-.525.098-.635-.31-.7-2-1.29-3.593-1.856-5.546.284-.978.543-1.597 1.148-2.208 1.224-.956 2.102-1.92 3.28-2.945.706-.035 1.111-.01 1.516.014z"/>
  <path fill="#372F30" d="M355.807 162.617c-.03.417-.224.427-.706.476-8.242.015-16.195-.01-24.623-.276-.474-.24-.475-.63-.475-.63 8.547.007 17.094.015 25.804.43z"/>
  <path fill="#EEE" d="M330.2 95.97c-.438-1.045-.876-2.09-1.437-3.462 1.62-.328 3.363-.328 5.137.42.037 1.52.044 2.292-.187 3.126-.566.21-.751.464-1.095.828-.705-.04-1.107-.084-1.562-.351-.249-.51-.516-.623-.857-.561z"/>
  <path fill="#5D5D5D" d="M260.3 97.923c-1.086.344-2.172.688-3.771.73-1.146-.744-1.778-1.186-2.71-1.677-.5-.022-.7.006-1.169-.121-1.374-.02-2.479.116-3.654-.084-.061-.563-.053-.792-.044-1.02 2.465-.793 4.97-2.973 7.217.634.274.44 2.435-.293 3.901-.194.197.77.214 1.25.23 1.732z"/>
  <path fill="#EEE" d="M284.008 94.528c-.874.164-1.696.018-2.76-.723-.232-1.388-.22-2.18-.21-2.973 1.163-.589 2.327-1.178 3.879-1.73-.027 1.73-.441 3.422-.909 5.426zM347.201 99.551c-.445.48-.739.693-1.553 1.206-1.22-1.072-1.92-2.446-2.62-3.82 0 0-.022.083.217.257.428.055.617-.064.807-.183 1.62 0 4.782-2.237 3.149 2.54z"/>
  <path fill="#5D5D5D" d="M347.345 127.975c-.358.094-.39-.289-.287-.861.115-.837.126-1.102.284-1.637 1.059-2.03 1.971-3.788 3.028-5.544.144.003.432.013.448.284.07.443.126.616.174 1.069.006.467.02.653.034.84-.066 2.52-1.24 4.4-3.681 5.85z"/>
  <path fill="#4D471B" d="M331.11 96.754c.401.044.803.088 1.593.38.66.461.932.676 1.634 1.037.982.059 1.535-.029 2.295-.161.21-.046.636-.045.636-.045.839-.004 1.677-.009 2.974-.057.459-.044.72.077.53.523-.383.702-.577.96-.778 1.217-.007 0-.085.065-.482.144-3.197-.468-5.998-1.014-8.67-1.922.175-.613.221-.864.268-1.116z"/>
  <path fill="#372F30" d="M342.686 96.812c1.042 1.499 1.742 2.873 2.847 4.198.667.078.852.275.762.761-.427.226-.65.252-1.03.416-.356.32-.595.415-1.188.462-1.128-.519-1.944-1.097-2.543-1.886-.046-1.066-.31-1.922-.572-2.778 0 0-.261-.12-.406-.132-.02-.743.103-1.475.33-2.654a2.035 2.035 0 0 0-.015-.88c.49.79.981 1.579 1.815 2.493z"/>
  <path fill="#021F38" d="M329.661 162.089c.342.098.343.488.352.683-2.386.23-4.782.264-7.613-.102-.418-.811-.4-1.22-.384-1.63 1.09-.031 2.18-.062 3.674-.144 1.479.33 2.554.713 3.971 1.193z"/>
  <path fill="#5D5D5D" d="M320.96 92.658c-.117.34-.335.374-1.293.41-1.732-.006-2.723-.015-3.754-.337-.057-.735-.074-1.155.087-1.812.268-.412.357-.588.447-.764.987.058 2.08-.123 2.928.251.654.288 1 1.272 1.585 2.252z"/>
  <path fill="#372F30" d="M248.664 95.914c.28.065.27.294.336 1.173.382 1.41.69 2.168 1.018 3.142.02.215.047.646.047.646-.15.29-.342.551-.757.942-.68-.127-1.177-.416-2.002-1.067-.252-.735-.177-1.106-.102-1.478 0 0 .077.052.38-.078.282-.503.263-.877.243-1.25.184-.623.367-1.245.837-2.03z"/>
  <path fill="#5D5D5D" d="M342.278 138.801c-.656.178-1.061.153-1.826-.09-.382-.407-.404-.595-.426-.784.917-1.16 1.834-2.322 3.025-3.55.008 1.364-.257 2.793-.773 4.424z"/>
  <path fill="#EEE" d="m354.214 122.072 1.758 3.9-1.993.493c0-1.216 0-2.432.044-4.054.044-.407.19-.34.19-.34z"/>
  <path fill="#4D471B" d="M350.802 119.946s-.288-.01-.51-.376c.086-1.8.395-3.234 1.112-4.578l1.222.265c-.206.929-.412 1.857-.602 3.36.015.573-.05.975-.368.983-.496.121-.675.234-.854.346z"/>
  <path fill="#5D5D5D" d="M352.953 115.27c-.599-.071-.87-.13-1.564-.562-.453-.754-.485-1.133-.303-1.65.427-.393.64-.65.852-.905 1.18.801 2.358 1.603 3.478 2.794-.17.592-.281.795-.392.998-.581-.22-1.163-.441-2.071-.675z"/>
  <path fill="#BEBEBE" d="M246.855 99.08c.274.564.199.935.173 1.587-1.158.536-2.366.792-3.574 1.049l-.524-1.044c1.192-.594 2.384-1.189 3.925-1.591z"/>
  <path fill="#2C2C29" d="M280.692 90.819c.335.806.324 1.598.294 2.788-.735.43-1.449.462-2.52.464.39-1.108 1.135-2.187 2.226-3.252z"/>
  <path fill="#5D5D5D" d="M307.958 89.402c2.286-.11 4.571-.221 7.013.077.038.55-.081.691-.44.865-.697.184-1.155.335-1.771.255-.7-.352-1.241-.473-2.107-.61-.964.034-1.604.085-2.454.016-.21-.12-.24-.603-.24-.603z"/>
  <path fill="#4D471B" d="M349.272 108.351c.524-.052 1.048-.105 1.963-.226.086.643-.219 1.355-.756 2.489-.232.42-.627.393-.888.235-.28-.938-.3-1.718-.319-2.498z"/>
  <path fill="#151A20" d="M302.13 91.03c-.057-.35.024-.664.407-1.129 1.028-.056 1.89.075 2.522.79-.522.929-.812 1.272-1.082 1.483-.177-.37-.413-.412-.781-.509-.419-.38-.743-.508-1.067-.636z"/>
  <path fill="#EEE" d="M303.956 92.307c.29-.344.581-.687 1.172-1.184.571-.255.849-.283 1.495.108.44.787.52 1.227.502 2.015-.745.454-1.392.56-2.278.236-.456-.68-.673-.927-.89-1.175zM354.184 108.175c.606.332 1.072.783 1.538 1.234l-1.277.993c-.15-.406-.301-.811-.395-1.482.057-.266-.006-.627.134-.745zM355.682 115.22c.367.62.408 1.356.448 2.092-.392-.3-.784-.6-1.14-1.133.145-.437.255-.64.692-.959z"/>
  <path fill="#BEBEBE" d="M260.583 97.877c-.3-.435-.316-.917-.096-1.68.236-.282.208-.227.499-.235.49.008.69.024.89.041-.337.61-.673 1.22-1.293 1.874z"/>
  <path fill="#EEE" d="M340.781 94.836c-.79.085-1.374.085-1.958.085l-.17-.71c.742-.121 1.485-.242 2.223-.127-.005.236.112.667-.095.752z"/>
  <path fill="#241A1A" d="M333.95 95.993c-.006-.773-.013-1.545.003-2.707.42.404.817 1.197.88 2.37-.515.366-.699.352-.883.337zM261.928 95.667c-.252.32-.451.303-.95.325.09-.854.479-1.747 1.02-2.322.096.766.04 1.214-.07 1.997z"/>
  <path fill="#050B10" d="M307.223 92.898c-.08-.44-.16-.88-.394-1.619-.006-.816.144-1.334.712-1.865.417-.012.448.47.502.927.066 1.189.077 1.922-.132 2.563-.22-.09-.688-.006-.688-.006z"/>
  <path fill="#2C2C29" d="M337.177 97.603c.091.362-.336.361-.723.13-.486-.428-.585-.624-.684-.82l.578-1.685c.246.671.491 1.343.829 2.375zM351.973 119.592s.066-.402.061-.606c.877.176 1.759.555 1.995 1.008-1.115-.085-1.586-.244-2.056-.402z"/>
  <path fill="#BEBEBE" d="M351.656 119.6c.787.15 1.258.309 2.094.587.367.12.502.377.035.534-1.24.2-2.013.242-2.785.284a4.465 4.465 0 0 1-.182-.788c.163-.383.342-.496.838-.617z"/>
  <path fill="#5D5D5D" d="M333.713 96.054c.421-.046.605-.032 1.065-.023.329.169.382.344.001.781-.58.58-.726.896-.872 1.212-.272-.214-.543-.429-.9-.895-.045-.611.14-.866.706-1.075z"/>
  <path fill="#2C2C29" d="M350.992 121.286c.78-.323 1.553-.366 2.712-.444.456.17.525.376.552.906-.042.324-.189.256-.203.336-.769.026-1.523-.027-2.652-.019-.389-.126-.403-.312-.41-.78zM349.852 111.007s.395.028.59-.005c.45.274.705.58 1.228 1.019.055.388-.157.644-.824.91-.664-.282-.873-.575-1.06-1.132.038-.44.052-.616.066-.792z"/>
  <path fill="#BEBEBE" d="M334.337 98.17c-.284-.462-.137-.779.287-1.13.278-.036.698-.217.922-.172.323.24.422.437.7.91-.374.364-.927.452-1.909.393z"/>
  <path fill="#5D5D5D" d="M315.313 89.682c.437-.117.661.016.997.333.047.316-.042.492-.528.817-.72.034-.924-.189-1.01-.52.118-.142.237-.283.541-.63z"/>
  <path fill="#F7F7F7" d="M255.54 92.566c-.064.04.063-.042 0 0z"/>
  <path fill="#372F30" d="M343.946 96.79c-.084.34-.273.46-.744.396.025-.327.332-.472.744-.396z"/>
  <path fill="#BEBEBE" d="M247.677 98.15c.17.167.19.54-.048 1.039-.205-.194-.153-.513.048-1.038z"/>
  <path fill="#241A1A" d="M337.38 152.215c-.134-.191-.036-.535.283-1.046.13.187.04.54-.283 1.046z"/>
  <path fill="#D01125" d="M252.916 130.157c-.176-.385-.352-.77-.454-1.654-.236-1.614-.988-2.822-.773-3.824.554-2.578 1.537-5.064 2.336-7.604-.012-.018.016-.036.358.059.444-.303.545-.7.632-1.115-.014-.018.021.01.362.106.446-.299.551-.693.64-1.106-.017-.019.017.02.38.187 10.403-4.426 10.403-4.426 15.677 2.038-.737 4.108-1.329 7.944-1.966 12.155.423 1.115.893 1.856 1.558 2.7.516.4.836.698 1.214 1.387.107 1.176.159 1.962.182 3.01-.005.438.02.613-.013 1.034-.298.858-.538 1.47-.96 1.909-.5-.292-.828-.33-1.552-.352-1.431-.133-2.476-.205-3.68-.512-.698-.38-1.237-.525-1.977-.926-1.077.46-2.068 1.075-2.811 1.91-2.972 3.339-4.45 3.121-6.374-.978a80.015 80.015 0 0 0 3.562-1.782c-.279-1.055-.816-1.907-1.604-2.856-.722-.323-1.193-.549-1.89-.824-.226-.05-.683-.112-.728-.157-.045-.046-.019-.171-.055-.498-.713-.987-1.388-1.647-2.064-2.307m11.655 4.67 2.388-4.974-1.89-.644c-.399 1.833-.797 3.665-.498 5.618z"/>
  <path fill="#050B10" d="M321.993 160.647c.006.802-.011 1.212-.032 1.928-1.697.34-3.39.374-5.565.016-1.8-.164-3.116.062-4.433.29-9.666.035-19.333.07-29.547-.307-2.18-.241-3.815-.07-5.45.102-.27-.061-.54-.123-1.153-.423-2.274-.88-4.207-1.52-6.472-2.565-.322-.597-.31-.791.14-.945 17.745 3.021 35.099 2.376 52.466.726.008.262.016.524.046 1.178z"/>
  <path fill="#20140A" d="M269.042 158.703a32.75 32.75 0 0 1-.063.871c-4.019-.846-8.009-1.982-11.821-3.474a57.994 57.994 0 0 1 9.078-3.33c1.932-.929 3.464-1.993 5.2-3.002.203.055.621.02.83.155.208.135.69.258.909.467 1.406.386 2.593.564 4.21.706 2.44-.136 4.449-.236 6.803-.27 1.16-.229 1.977-.523 3.259-.823 4.856-.114 9.245-.222 13.997-.233 1.759.518 3.155.94 4.282 1.687-14.726.344-29.222.017-43.831 5.088l7.147 2.158z"/>
  <path fill="#6C6206" d="M255.988 133.169c.472.225.943.45 1.715 1.106.632 1.195.964 1.96 1.296 2.726l-3.304 1.58c1.924 4.1 3.402 4.317 6.374.978.743-.835 1.734-1.45 2.781-1.87.17.297.117.38-.146.56-.374.799-.484 1.42-.632 2.21-.037.168-.152.494-.429.652-.716.863-1.156 1.568-1.74 2.516-.698.976-1.25 1.709-2.052 2.53-.457.368-.666.646-1.255.91a37.252 37.252 0 0 0-2.617.336c-1.125-3.328-2.25-6.655-2.864-10.142 1.127-1.18 1.743-2.2 2.485-3.338.256-.313.343-.525.388-.754z"/>
  <path fill="#8D810B" d="M258.977 147.081c.208-.278.417-.556 1.068-.665 3.431.791 4.777 2.177 2.56 5.06l3.232 1.158c-2.834 1.036-5.668 2.073-8.929 3.163-.268-2.344-.109-4.743.21-7.5.726-.645 1.292-.93 1.86-1.216z"/>
  <path fill="#021F38" d="M240.69 163.094a24.86 24.86 0 0 0-1.286-.056c1.21-.347 2.697-.975 4.19-.988 10.27-.092 20.543-.055 31.335-.077-1.166.379-2.846 1.098-4.534 1.116-9.751.105-19.504.043-29.704.005z"/>
  <path fill="#241A1A" d="M254.037 117.092c-.811 2.523-1.794 5.01-2.348 7.587-.215 1.002.537 2.21.99 3.523a12.084 12.084 0 0 1-4.055-.775c.015-1.458.095-2.594.487-4.052 1.849-2.31 3.387-4.296 4.926-6.283z"/>
  <path fill="#FFF" d="M241.65 114.093c.375 1.107.4 2.166.28 3.503-1.041-.267-1.935-.811-2.828-1.356.734-.732 1.468-1.464 2.549-2.147z"/>
  <path fill="#C8C8C8" d="M255.474 134.042c-.616 1.02-1.232 2.04-2.148 2.982-.656-1.417-1.013-2.757-1.104-4.615 1.108-.218 1.951.082 2.794.382 0 0-.026.125.08.444.195.48.287.644.378.807z"/>
  <path fill="#6C6206" d="M254.98 132.464c-.807.027-1.65-.273-2.797-.408-.028-.35.248-.867.629-1.642.78.403 1.455 1.063 2.168 2.05z"/>
  <path fill="#B5A60B" d="M258.596 147.068c-.186.298-.752.584-1.656.905-.57.028-.748-.075-.917-.42.701-.266 1.447-.382 2.573-.485z"/>
  <path fill="#BAAA0B" d="M319.984 230.21c-1.555 9.48-6.4 16.174-16.836 18.823-4.373-.013-7.893 0-11.413.015-8.937-1.425-14.024-7.065-16.56-15.948.19-3.045.19-5.437.19-7.736h44.62v4.846z"/>
  <path fill="#C8C8C8" d="M291.988 221.446c-5.173-2.385-7.84-8.333-6.66-14.28 1.009-5.095 6.387-9.641 11.519-9.285 7.42.516 10.548 2.153 12.751 8.463 1.889 5.407-.13 10.673-6.427 15.3-4.152.064-7.668-.067-11.183-.198z"/>
  <path fill="#B5A60B" d="M301.826 273.968c1.952 4.749 3.904 9.497 5.97 14.845.075.79.037.979-.202 1.172-.2.003-.599.017-1.067.02-6.823-.005-13.178-.015-19.532-.013.001.011.022.003.023-.343-.01-.808-.022-1.27-.034-1.732 1.674-4.705 3.347-9.41 5.463-14.607 1.133-2.027 1.823-3.56 2.607-5.303l5.265.245 1.507 5.716z"/>
  <path fill="#C1C1C1" d="M266.882 221.293v6.359l-7.244.461c-2.37 2.467 1.588 7.797-4.19 7.847-5.845.05-2.218-5.16-4.253-7.852l-6.734-.42c-.104-1.975-.197-3.75.11-6.031 6.308.17 9.653-1.863 8.107-8.535h5.447l.578 7.653 8.179.518zM244.028 261.898l.36-5.686c6.23 1.17 9.077-1.515 7.473-8.005l6.441-.313c.965 7.73.965 7.73 8.587 8.545 0 1.563 0 3.148-.203 5.448-2.785.938-5.365 1.162-8.05 1.394-.2 2.337-.38 4.424-.566 6.573h-5.13l-.517-6.272-8.395-1.684z"/>
  <path fill="#C9C9C9" d="M350.92 256.173v6.283c-7.69 1.173-7.69 1.173-8.166 8.19h-5.74c1.157-5.671-.813-8.866-7.606-8.16-.453-2.386-.453-4.277-.453-6.223l7.884-.4.34-7.534h5.702l.362 7.844h7.677z"/>
  <path fill="#AFA00A" d="M301.882 273.546c-.5-1.265-.945-2.952-1.563-5.294l-5.265-.245c-.784 1.743-1.474 3.276-2.528 4.902-1.358-3.774-2.213-7.683-3.387-11.493-1.098-3.566-.793-6.631 2.902-9.316 4.125-.078 7.472-.022 10.82.034 2.99 2.858 3.364 5.96 1.81 9.877-1.393 3.512-1.858 7.393-2.789 11.535z"/>
  <path fill="#A99B0B" d="M306.995 290.002s.4-.014.933.009c.754.005.975-.013 1.196-.03 2.534 2.12 5.07 4.241 7.505 6.953-13.434.74-26.77.89-40.105 1.04 2.768-2.45 5.537-4.9 8.778-7.655.887-.31 1.301-.317 1.715-.324 0 0-.02.008.268.3 6.762.096 13.236-.098 19.71-.293z"/>
  <path fill="#C9C9C9" d="M345.052 185.13c1.378-.039 2.756-.077 4.713.304.88 1.952 1.18 3.486 1.506 5.147l-8.144 1.797-.35 7.126h-5.796v-7.467h-8.392l1.42-6.895c1.12-.058 2.24-.117 4.08-.064 1.46-.701 2.65-1.419 2.842-2.343.347-1.677.099-3.477.099-5.12H343c0 2.534-.075 4.683.092 6.812.022.283 1.276.47 1.96.702zM329.307 220.922c7.298.234 7.298.234 7.96-8.59h5.5c.043 4.888-.043 10.205 8.191 8.452 0 1.95 0 3.511-.428 5.59-2.688.518-4.947.518-7.313.518-.156 3.013-.28 5.428-.403 7.781h-5.676l-.363-7.936h-7.952l.484-5.815z"/>
  <path fill="#C8C8C8" d="M300.021 167.34c-.098 7.799-.098 7.799 7.397 8.183.528 1.997.528 3.591.528 5.348l-7.946.478v8.44h-5.973c0-2.287 0-4.505-.254-7.544-2.66-.964-5.065-1.109-7.751-1.27l.251-5.64c2.797-.157 5.191-.292 7.97-.45v-7.854l5.778.308z"/>
  <path fill="#253950" d="M263.99 193.005c-6.703-.312-2.532 5.11-4.956 7.628h-7.68l-.637-7.217c-3.367-.965-8.519 1.307-7.937-5.67.512-6.136 5.01-2.55 7.624-4.332.452-2.115.22-5.41 1.742-6.853 1.35-1.278 4.65-.496 7.485-.644l.627 7.506c2.955 1.374 8.81-1.115 7.904 5.802-.345 2.637-.826 4.132-4.172 3.78m2.633-2.735v-4.36l-7.915-.601-.62-8.002-5.729.263c2.209 7.607-2.07 8.903-8.101 8.18l.321 5.447 7.78.552.626 8.04 5.22-.333.505-7.635c2.84-.32 5.12-.577 7.913-1.551z"/>
  <path fill="#151A20" d="M292.03 221.78c3.473-.203 6.989-.072 10.941.125-.004.529-.444.992-1.377 1.972h19.419c-.15 2.288-.265 4.032-.704 6.054-.325-1.209-.325-2.696-.325-4.567h-44.619c0 2.3 0 4.69-.205 7.359-.646-2.53-1.086-5.335-1.596-8.583h19.616c-.514-.939-.81-1.482-1.15-2.36z"/>
  <path fill="#214267" d="M266.86 220.882c-2.594.245-5.21.08-8.157-.107l-.578-7.653h-5.447c1.546 6.672-1.799 8.705-8.129 8.118-.03-.667.26-1.986.77-2.079 1.584-.285 3.252-.104 5.056-.104 1.281-3.44-1.233-9.06 6.07-8.242 5.999.671 2.352 5.128 4.081 7.407 2.02.72 4.166 1.484 6.334 2.66zM243.803 262.16c2.893.273 5.56.808 8.62 1.422l.518 6.272h5.13c.184-2.149.364-4.236.566-6.573 2.684-.232 5.264-.456 8.105-1.003.01.33-.187 1.515-.502 1.547-1.787.181-3.603.088-5.57.088-1.33 3.438 1.217 9.1-6.103 8.276-6.009-.676-2.324-5.167-3.97-7.26-2.37-.846-4.694-1.677-6.794-2.77z"/>
  <path fill="#151A20" d="M329.591 185.123c-.02 2.145-.458 4.27-1.002 6.914h8.392v7.467h5.797l.349-7.126 8.144-1.797c-.326-1.661-.626-3.195-1.096-5.084.804 1.81 1.777 3.974 3.101 6.92l-8.841.752-.676 7.525h-7.547l-.516-7.474-8.093-.67c.547-2.593 1.06-5.02 1.988-7.427z"/>
  <path fill="#050B10" d="M329.034 220.675c.124 2.04-.025 3.832-.21 6.062h7.95l.364 7.936h5.676l.403-7.781c2.366 0 4.625 0 7.332-.102-.39.319-1.188.93-2.075 1.115-1.258.262-2.581.21-4.18.31l-.458 7.406h-7.595l-.528-7.373-7.821-.566c.295-2.464.582-4.859 1.142-7.007z"/>
  <path fill="#4D471B" d="M276.824 298.34c13.036-.516 26.371-.666 39.998-1.129 1.205-.03 2.12.251 3.034.533l-.176.962c-14.185 0-28.37 0-42.856-.366z"/>
  <path fill="#050B10" d="M350.755 255.797c-2.284.376-4.733.376-7.512.376l-.362-7.844h-5.702l-.34 7.534-7.884.4c0 1.946 0 3.837.016 6.163-.425-1.969-.865-4.375-1.366-7.112l8.073-.484.536-7.565h7.597l.399 7.366c2.23.276 4.304.533 6.545 1.166z"/>
  <path fill="#214267" d="M300.382 189.768c-.382-2.624-.382-5.269-.382-8.419 2.68-.16 5.095-.306 7.946-.478 0-1.757 0-3.351-.104-5.379 3.763.108 2.025 3.118 1.865 4.95-.081.929-2.09 1.919-3.402 2.441-1.132.45-2.513.278-3.613.368-.705 2.375-1.316 4.435-2.31 6.517z"/>
  <path fill="#151A20" d="M300.273 167.073c-2.036.171-3.82.076-6.03-.042v7.855l-7.97.45-.251 5.639c2.686.161 5.092.306 7.665.844-2.6.393-5.368.393-8.442.393v-7.905l7.475-.518.48-7.966c2.58.346 4.952.665 7.073 1.25zM344.884 184.747c-.516.15-1.77-.037-1.792-.32-.167-2.13-.091-4.278-.091-6.811h-5.971c0 1.642.248 3.442-.099 5.119-.191.924-1.383 1.642-2.425 2.28.568-2.846 1.438-5.521 2.451-8.639h6.682c.382 2.833.73 5.41 1.245 8.37z"/>
  <path fill="#8D810B" d="M302.914 251.746c-3.4.332-6.748.276-10.557.2-.425-.2-.388-.378.155-.774 3.138-.217 5.77-.217 8.4-.217l-.016-.756h-8.78c-.068-.19-.138-.38-.294-.86 3.433-.305 6.953-.32 10.956-.316.386.79.288 1.563.136 2.723z"/>
  <path fill="#BAAA0B" d="M292.07 250.366c2.973-.167 5.9-.167 8.826-.167l.016.756c-2.63 0-5.262 0-8.33-.048-.437-.047-.56-.373-.513-.54z"/>
  <path fill="#021F38" d="M277.288 162.835a13.391 13.391 0 0 1 4.664-.313c-1.392.399-2.867.435-4.664.313zM312.364 162.977c.916-.324 2.232-.55 3.61-.437-1.028.405-2.119.47-3.61.437z"/>
  <path fill="#8D810B" d="M287.018 289.65c-.415.352-.829.358-1.553.369.112-.625.535-1.253 1.238-1.992.293.352.304.814.315 1.622zM308.995 289.735c-.092.263-.313.28-.868.273-.294-.216-.256-.406-.176-.884.332-.07.624.148 1.044.611z"/>
  <path fill="#F7F7F7" d="M268.376 100.956c1.564.231 2.691.522 4.2 1.305-.508 1.467-1.398 2.44-2.306 3.434.434.343 1.008.797 1.188 1.248-1.91-.157-3.425-.312-4.94-.466l.656 1.029c-1.68 1.208-3.281 2.55-5.06 3.589-1.834 1.072-3.84 1.852-5.985 2.49-2.533-2.025-4.854-3.78-7.175-5.536 4.815-6.43 11.53-7.73 19.422-7.093z"/>
  <path fill="#0199CC" d="M248.606 108.172c2.669 1.632 4.99 3.388 7.376 5.691.06.757.056.966.052 1.176 0 0-.034-.039-.308-.021-.413.349-.551.68-.69 1.011 0 0-.035-.028-.312-.008-.412.352-.548.685-.683 1.018 0 0-.028.018-.016.036-1.527 2.004-3.065 3.99-4.985 5.954-2.782-4.866-5.094-9.71-.434-14.857z"/>
  <path fill="#2C2C29" d="M252.92 97.01c.2-.028.4-.056.855.327.352 1.123.449 1.835.546 2.547-.523.394-1.045.788-1.93.948-.372-.441-.382-.648-.24-1.14.357-1.085.563-1.884.769-2.682z"/>
  <path fill="#C9C9C9" d="M254.55 99.72c-.326-.548-.423-1.26-.476-2.333.677.08 1.31.522 2.096 1.215-.36.485-.876.719-1.62 1.117z"/>
  <path fill="#241A1A" d="M252 99.978c.01.206.019.413.059.929-.5.25-1.031.192-1.778.05-.216-.082-.243-.513.07-.76.758-.237 1.203-.228 1.649-.22z"/>
  <path fill="#6C6206" d="M291.015 94.973c.938 1.158 1.876 2.316 2.933 4.113.614 1.73 1.11 2.823 1.714 4.145.136.397.163.565.19.733.023.193.045.386.175.856.109.276.106.314-.186.22a4.589 4.589 0 0 0-1.176.016c.15.35.301.702.415 1.365-.05.73-.064 1.149-.29 1.668-.496.283-.662.54-.732 1.26.503 1.163 1.026 1.936 1.35 3 .062 1.106.324 1.924.587 2.742.665.704 1.33 1.408 1.671 2.49-1.462.471-2.602.567-4.078.737-.795-3.568-1.252-7.211-1.677-11.196.044-.797.054-1.253.004-2.145-.344-2.323-.629-4.209-.9-6.452-.716-1.13-1.444-1.905-2.171-2.68 0 0 .109-.462.491-.65.816-.2 1.248-.211 1.68-.222z"/>
  <path fill="#A99B0B" d="M288.532 95.858c1.04.762 1.767 1.536 2.151 2.71-.783.361-1.222.324-1.739-.07-2.116-2.17-3.918-2.5-5.407.666-5.048.713-7.098 4.29-8.98 8.385-.936-.015-1.82-.309-2.705-.603l-1.582-1.25c.908-.994 1.798-1.968 2.645-3.29 2.454-1.96 4.951-3.572 8.057-5.337 1.167-.352 1.726-.551 2.286-.75 0 0 .385-.117.537-.249 1.577-.153 3.001-.176 4.737-.212zM293.925 118.243c1.14-.095 2.279-.19 3.84-.381 1.144-.703 1.864-1.31 2.886-1.781.599.736.897 1.336 1.155 2.239-.5 2.736-.96 5.17-1.612 7.4-.623-.012-1.055.18-1.833.317-1.687.622-3.028 1.3-4.586 1.973-.216-.002-.647.028-.707-.265-.1-.488-.141-.683-.138-1.217.361-2.987.678-5.636.995-8.285z"/>
  <path fill="#8D810B" d="M301.847 118.018c-.299-.6-.597-1.201-.952-2.153-.024-6.53.009-12.71.086-19.355.044-.467.077-.523.337-.417.742.396 1.223.687 1.696 1.317.007.794.02 1.247-.143 2.042-.035 2.746.107 5.15.055 7.923-.489 3.792-.784 7.218-1.08 10.643z"/>
  <path fill="#151A20" d="M294.937 90.267c2.001.167 4.01.564 6.035 1.684.076 1.387.135 2.05.15 3.042-.052.551-.058.772-.064.994 0 0-.033.056-.066.057-1.833-1.524-3.632-3.05-5.711-4.807-.28-.232-.335-.28-.335-.28s-.001-.46-.009-.69z"/>
  <path fill="#EEE" d="M296.387 115.047c-.655-.774-.917-1.592-.956-2.674.225-.263.24-.329.24-.329l3.319 1.233c-.737.576-1.474 1.151-2.603 1.77zM295.003 107.988c.013-.418.027-.836.337-1.614.463-.653.628-.946.793-1.24 0 0 .003-.038-.016-.037.947.779 1.911 1.556 2.876 2.334-.995.459-1.99.918-3.381 1.367-.398-.01-.39.062-.308-.19-.045-.375-.173-.497-.301-.62z"/>
  <path fill="#151A20" d="M295.553 103c-.496-1.091-.991-2.183-1.456-3.62.634.344 1.236 1.035 1.71 2.357l-.254 1.264z"/>
  <path fill="#5D5D5D" d="M295.662 103.23c-.067-.44-.025-.652.13-1.166 1.019-.094 1.924.116 3.937.582-1.693.726-2.411 1.034-3.503 1.33-.4-.18-.428-.348-.564-.745z"/>
  <path fill="#CE1124" d="M295.651 111.62c.02.424.005.49-.02.464-.547-.799-1.07-1.572-1.286-2.74.497-.423.687-.454.877-.484 0 0-.008-.071.01-.102.144.792.272 1.615.42 2.862z"/>
  <path fill="#5D5D5D" d="M290.894 94.705c-.311.279-.743.29-1.497.26-.32-.04-.396-.47-.373-.745.024-.275.144-.404.144-.404.535.207 1.07.414 1.726.889zM288.985 94.006c-.255-.104-.446-.27-.638-.436.207-.03.414-.059.72.08.1.166-.02.295-.082.356z"/>
  <path fill="#151A20" d="M295.025 91.032c-.108.042-.24.056-.226-.003.147-.073.201-.024.226.003zM293.565 94.553c-.073.051-.094-.152-.094-.152s.168.101.094.152z"/>
  <path fill="#EEE" d="M301.166 94.664a21.672 21.672 0 0 1-.11-2.318c.344-.5.622-.67.986-1.08.411-.109.735.02 1.033.693.276 1.047.578 1.549.782 2.374-.963.327-1.827.329-2.691.33z"/>
  <path fill="#D01125" d="M269.481 158.743c-2.613-.696-4.787-1.353-7.586-2.198 14.61-5.071 29.105-4.744 44.184-5.159a25.602 25.602 0 0 1 3.396-1.208c1.135.92 2.148 2.375 3.426 2.667 5.571 1.272 11.22 2.205 16.84 3.26l.083 1.39c-2.415.555-4.83 1.11-7.561 1.819-17.683 1.805-35.037 2.45-52.782-.57z"/>
  <path fill="#AFA00A" d="M309.792 150.15c-1.242.298-2.167.569-3.444.91-1.749-.35-3.145-.772-4.98-1.636-.774-1.574-1.111-2.705-1.296-4.027.622-.475 1.09-.76 1.283-.876-.814-.406-1.706-.851-2.511-1.617.05-.538.013-.756.01-1.199.035-.225-.024-.677.278-.71a7.555 7.555 0 0 1 1.245-.055c.783-.008 1.23-.051 2.113-.065 3.16.389 5.882.748 8.68 1.39.622.474 1.169.664 1.578 1.206-.331 2.345-.525 4.337-.718 6.33-.64.107-1.28.215-2.238.35zM331.997 155.023c-3.91-1.414-7.821-2.827-11.63-4.65.459-.573.817-.735 1.175-.897-.2-.196-.4-.393-.604-.948-.288-1.443-.573-2.526-.95-3.863-.432-.666-.769-1.08-1.057-1.751.054-.431.06-.605.48-.837 3.153.277 5.89.613 8.601.944-.028-.004-.078.021-.268.279-1.098.53-2.005.803-2.983 1.098 1.151.573 2.208 1.1 2.906 1.65-1.03 1.491-1.7 2.958-2.37 4.424l2.228.548c.145-1.682.29-3.364.857-5.04 1.824.016 3.227.027 4.624.03-.006-.01-.023-.02.118.256.709.537 1.277.798 2.191 1.219l-4.59 1.4 3.396 5.2s-.076-.074-.366-.052c-.779.344-1.268.667-1.758.99z"/>
  <path fill="#6C6206" d="m328.025 146.024-3.264-1.626a46.573 46.573 0 0 0 3.358-1.12c3.023.221 5.48.722 7.939 1.224.59 1.593 1.18 3.185 1.782 5.105-.99 1.695-1.992 3.062-3.356 4.454-1.404-1.57-2.446-3.165-3.759-5.175l4.59-1.401c-.914-.42-1.482-.682-2.079-1.286-.094-.29-.16-.235-.224-.182-1.403-.01-2.806-.02-4.613-.026-.404.006-.374.033-.374.033z"/>
  <path fill="#397D6A" d="M318.882 143.17c.337.415.674.829 1.077 1.851-.903 1.662-1.872 2.714-3.107 3.938-.498.728-.73 1.285-.963 1.841-1.07-.268-2.14-.537-3.534-.902-.132-2.09.062-4.082.82-6.439 1.991-.4 3.416-.434 5.058-.426.216.044.65.138.65.138z"/>
  <path fill="#C9C9C9" d="M315.979 150.817c.142-.573.375-1.13 1.256-1.83a35.55 35.55 0 0 1 3.707-.1l.6.59c-.358.161-.716.323-1.353.578-.867.152-1.456.212-2.491.465-.784.255-1.12.316-1.458.376 0 0-.172-.062-.261-.079z"/>
  <path fill="#6C6206" d="M332.164 155.253c.323-.553.812-.876 1.615-1.173-.273.485-.86.944-1.615 1.173z"/>
  <path fill="#A99B0B" d="M316.285 151.194c.292-.358.63-.419 1.223-.443.474.327.69.617.908.907-.696-.056-1.392-.111-2.131-.464z"/>
  <path fill="#4D471B" d="M282.945 96.243c-.247.275-.806.474-1.671.647.25-.259.804-.491 1.671-.647z"/>
  <path fill="#F7F7F7" d="M322.153 106.136c1.312-1.432 2.623-2.865 4.364-4.728 5.748 1.119 11.322 2.12 16.279 4.442 2.611 1.223 4.144 4.749 6.196 7.645-.62 3.1-1.27 5.79-2.243 8.446-.486.102-.652.237-1.114.18-1.675-1.896-3.053-3.6-4.455-5.218-.024.087-.006-.091.085-.428-.299-.44-.689-.545-1.166-.595-.088.054.07-.08.154-.446-5.696-2.906-11.478-5.447-17.344-8.179-.308-.5-.532-.81-.756-1.119z"/>
  <path fill="#A99B0B" d="M348.96 113.085c-2.02-2.486-3.553-6.012-6.164-7.235-4.957-2.321-10.531-3.323-16.278-4.83-.75-.69-1.073-1.424-1.111-2.553.658-.517 1.032-.637 1.795-.673 1.43.202 2.47.32 3.512.438 2.8.546 5.6 1.092 8.815 1.537.414-.101.377-.134.754.175.596.55.815.79 1.034 1.03.816.578 1.632 1.156 2.718 1.694.27-.042.18-.037.206.19.307.102.587-.022.86-.35-.01-.203.322-.44.322-.44.222-.045.445-.071.828-.096.202.434.247.886.123 1.835.08.744.33.99.58 1.237 0 0 .039-.038.054.31.395.52.774.69 1.153.86 0 0 .115.154.236.302.12.147.238.408.238.408.086.246.173.491.449 1.082.208 1.125.227 1.905.507 2.843.247.334.233.51.011 1.076-.424.606-.569.863-.642 1.16zM303.048 99.11c-.014-.453-.027-.906.273-1.788.521-.475.73-.521 1.372-.518 2.837.047 5.237.045 7.781.081.143.039.376.22.627.494.973.387 1.696.502 2.508.556.09-.06.28.04.28.04 1.59 1.77 3.18 3.542 4.542 5.681-.421.387-.615.405-1.06.334a15.284 15.284 0 0 1-2.333-2.243c-1.117-.778-2.089-1.25-3.23-2.051-3.43-1.982-6.604-3.035-9.267.845-.648-.554-1.07-.993-1.493-1.43z"/>
  <path fill="#EEE" d="M315.953 93.044c.991.009 1.982.018 3.382.021 1.12 2.41.784 3.975-2.714 3.402-.423.09-.55.017-.388-.429.036-1.325-.091-2.205-.232-3.06-.014.023-.048.066-.048.066z"/>
  <path fill="#8D810B" d="M319.623 104.08c.193-.019.387-.037.87-.094.586.543.884 1.124 1.421 1.927.463.532.687.842.961 1.599.06.62.07.791-.212 1.25-.404 1.606-.518 2.925-.892 4.326-.436.125-.613.167-.837-.072a6.581 6.581 0 0 1-.05-1.198c-.276-1.142-.574-1.938-.925-3.15a318.511 318.511 0 0 1-.336-4.588z"/>
  <path fill="#BEBEBE" d="M316.07 96.484s.128.072.115.033c.099.38.21.802.012 1.34-.308.117-.499.019-.83-.204-1.06-.331-1.788-.44-2.517-.548 0 0-.233-.181-.474-.408-.24-.226-.392-.621-.355-.86.038-.24-.015-.723.054-.795.07-.073.222-.202.429-.4.126-.37.045-.543.234-.807.836-.04 1.403.012 1.903.464.433.995.931 1.59 1.43 2.185z"/>
  <path fill="#5D5D5D" d="M330.842 97.87c-1.17.244-2.21.126-3.607-.305-.355-.313-.33-.776-.33-.776.863-.28 1.726-.56 2.942-.83.693-.05.96.062 1.209.572.007.475-.039.726-.214 1.34z"/>
  <path fill="#372F30" d="M326.705 96.592c.2.197.175.66.142.888-.408.35-.782.47-1.438.678.177-.529.636-1.146 1.296-1.566z"/>
  <path fill="#CE1124" d="M336.083 144.142c-2.483-.142-4.941-.643-7.774-1.122-.375.022-.325-.003-.473-.24-.715-.754-1.282-1.27-1.508-1.805 1.416-.2 2.493-.382 3.788-.434.45-.449.68-1.026.969-1.952-.024-1.728-.106-3.108-.475-4.515a7.01 7.01 0 0 0-1.773.247c-.603 4.331-3.366 5.047-7.064 4.692-.464-.367-.688-.63-.885-1.272.605-2.523 1.184-4.666 2.008-7.136-.183-4.742-.61-9.156-.819-13.861 1.615-.13 3.01.029 4.714.223-.413-4.273 2.272-4.32 5.038-3.698 2.826.636 5.563 1.67 8.34 2.53 0 0-.158.135-.126.401.4.382.765.497 1.131.612 0 0-.018.178-.124.443 1.004 2.396 2.113 4.528 3.183 7.005a32.666 32.666 0 0 0-.045 2.01c.285.523.566.765.846 1.007-.995 1.19-1.99 2.38-3.403 3.388-.62-.752-.824-1.32-1.027-1.89-.882.846-1.763 1.691-2.697 2.873-1.295 1.283-2.539 2.23-3.727 3.54.965 1.544 2.06 2.633 2.713 3.943.372.745.02 1.851-.007 2.795a18.54 18.54 0 0 0-.803 2.216z"/>
  <path fill="#AFA00A" d="M334.125 134.826c1.243-.948 2.487-1.895 4.11-3.247.82.268 1.26.942 1.7 1.616-.288.45-.575.9-1.18 1.865a85.45 85.45 0 0 0-1.477 2.77l-3.153-3.004z"/>
  <path fill="#5B3A08" d="M334.18 135.188c.906.554 1.868 1.47 3.098 2.642a181.9 181.9 0 0 1 1.324-2.541c.465.506.762 1.299 1.242 2.365.204.462.226.65.308 1.116a12.653 12.653 0 0 1-2.92 3.164c-.32-.952.033-2.058-.339-2.803-.652-1.31-1.748-2.4-2.713-3.943zM340.254 133.057c-.76-.536-1.2-1.21-1.967-1.815.554-.776 1.435-1.621 2.317-2.466.203.569.406 1.137.733 1.996-.172.91-.467 1.528-1.083 2.285z"/>
  <path fill="#4D471B" d="M345.349 127.202c-.595-.167-.876-.409-.875-.948.474-.299.665-.3 1.169-.322a44.37 44.37 0 0 0 1.552-.185c-.01.265-.022.53-.148 1.175-.538.322-.96.263-1.698.28zM348.907 106.873c-.272.051-.39-.21-.414-.35.473-.108.971-.077 1.47-.045a8.71 8.71 0 0 1-1.056.395zM346.891 104.754c-.187.043-.437-.203-.555-.605.252.002.373.159.555.605zM348.025 105.951c-.243.093-.622-.077-1.034-.579.278-.116.588.1 1.034.58z"/>
  <path fill="#FFF" d="M252.15 99.691c-.596.278-1.041.269-1.819.291-.641-.727-.95-1.485-1.261-2.56 1.101-.451 2.206-.587 3.58-.567.064.953-.142 1.752-.5 2.836z"/>
  <path fill="#AFA00A" d="M347.342 125.477c-.56.325-.974.38-1.685.192-.101-.728.095-1.212.399-1.729.106-.032.227-.218.422-.365.327-.631.46-1.115.592-1.6.651-2.69 1.302-5.38 1.922-8.48.041-.707.186-.964.587-1.307.394.168.603.46 1.053.88.272.507.304.886.35 1.55-.295 1.718-.604 3.152-.835 4.95-.834 2.12-1.746 3.88-2.805 5.909z"/>
  <path fill="#BEBEBE" d="M341.534 100.763c-.436-.03-.655-.27-1.234-.774-.359-.264-.3-.34-.3-.34.195-.258.389-.516.773-1.218.452.41.715 1.266.76 2.332z"/>
  <path fill="#372F30" d="M339.994 99.648c.006 0-.053.077-.07.032-.018-.045.02-.012.002.01-.017.023.06-.042.068-.042z"/>
  <path fill="#EEE" d="M345.265 102.187c.158-.119-.173.118-.377.161-.36.124-.517.204-.674.283 0 0 .092-.005.133-.023.323-.006.562-.101.918-.421zM314.708 93.899c-.567-.052-1.134-.104-2.062-.393-.15-1.05.06-1.863.272-2.676.458-.151.916-.302 1.614-.486.326.3.53.522 1.072.724.235.508.252.928.309 1.663.04.313.074.27-.173.334a5.49 5.49 0 0 0-1.032.834zM308.131 92.995c-.011-.732-.022-1.465.122-2.534.796-.387 1.436-.438 2.5-.088.253 1.444.083 2.486-.352 3.45-.934-.329-1.602-.578-2.27-.828z"/>
  <path fill="#372F30" d="M310.666 93.902c.17-1.043.34-2.085.41-3.512.443-.264.984-.143 1.684.209-.054 1.044-.265 1.857-.384 2.999.173.501.254.674-.24.741-.874-.216-1.172-.326-1.47-.437z"/>
  <path fill="#5D5D5D" d="M303.955 94.01c-.302-.502-.604-1.004-.786-1.8.395-.448.631-.407.808-.036.197.38.414.628.802 1.375.172.499.035.633-.178.58-.213-.052-.646-.12-.646-.12z"/>
  <path fill="#5D5D5D" d="M310.4 93.823c.564.19.862.3 1.528.714.369.303.216.432-.228.447-1.306.142-2.169.27-3.032.4l.04.412 3.276.28a8 8 0 0 0 .25.583c-2.304.19-4.704.192-7.444-.104-.217-.99-.097-1.681.024-2.373l.205-.201c.714-.174 1.36-.28 2.106-.735.098-.348.566-.432.786-.342.888.34 1.556.59 2.49.919z"/>
  <path fill="#241A1A" d="M271.458 106.943c1.278.297 2.163.59 3.24.979 5.887-.774 11.582-1.641 17.278-2.509-.01.456-.021.912-.497 1.611-7.122-.716-13.107.92-18.536 5.338.021 1.553.1 2.683.074 3.995-.273.426-.504.57-.797.615-5.42-6.192-5.42-6.192-15.823-1.766-.359-.377-.354-.586-.203-1.073 2.08-1.186 4.086-1.966 5.92-3.038 1.779-1.04 3.38-2.38 5.06-3.59-.22-.342-.438-.685-.657-1.028 1.516.154 3.032.309 4.941.466z"/>
  <path fill="#AFA00A" d="M272.074 117.244c.44-.317.67-.461 1.137-.911.299-.206.69-.185.88.143.204 5.956 3.89 9.373 7.825 12.392l-2.75 5.009c-1.068-.402-2.12-.797-3.11-1.513.347-4.881-.39-5.3-5.33-3.296-.19-.018-.572-.044-.572-.044.591-3.836 1.183-7.672 1.92-11.78z"/>
  <path fill="#CE1124" d="M264.222 134.767c.05-1.893.448-3.725.847-5.558l1.89.644c-.796 1.658-1.592 3.316-2.737 4.914z"/>
  <path fill="#5B3A08" d="M272.27 139.612c.241-.612.481-1.224.984-2.264.431-.745.6-1.061.76-1.364-.011.014-.041.03.363.033.929.085 1.454.168 2.031.427.053.177.05.546-.282.682-.899.797-1.466 1.458-2.328 2.463 1.398.247 2.303.407 3.204.764-.005.198-.028.593-.448.596-1.825.067-3.23.13-4.585-.199.134-.64.218-.89.302-1.138z"/>
  <path fill="#6C6206" d="M272.09 139.439c.097.422.013.67-.381 1.439-.801.838-1.293 1.157-1.788 1.398-.003-.079.08-.211-.12-.513-1.15-.446-2.1-.59-3.225-.796-.395-.203-.544-.396-.696-.948-.352-.853-.633-1.401-.913-1.95 0 0 .053-.083.083-.124.57.105 1.11.25 1.977.927 1.518.446 2.707.361 3.896.277.338-.04.667-.002 1.167.29z"/>
  <path fill="#F7F7F7" d="M272.823 133.094c-.32-.297-.641-.595-1.235-1.229-.272-.336-.407-.81-.139-.991 1.173-.686 2.078-1.19 2.982-1.694l.748.962c-.73.905-1.46 1.81-2.245 2.765-.057.048-.11.187-.11.187z"/>
  <path fill="#CE1124" d="M259.257 136.799c-.59-.563-.922-1.329-1.303-2.427.487.52 1.024 1.372 1.303 2.427z"/>
  <path fill="#5B3A08" d="M270.537 139.087c-.803.146-1.992.231-3.35.019.874-.224 1.919-.152 3.35-.019z"/>
  <path fill="#4D471B" d="M273.09 136.233a95.947 95.947 0 0 0-.21-2.747c-.057-.392-.003-.53.314-.44.505.149.694.206.842.599a59.938 59.938 0 0 0-.063 2.37s.03-.017-.193.033c-.224.05-.69.185-.69.185z"/>
  <path fill="#8D810B" d="M271.181 131.056s.135.473.213.706c-.393-.507-.863-1.248-1.286-2.363.046-.375.427-.35.602.006.273.787.372 1.219.471 1.65z"/>
  <path fill="#5D5D5D" d="M255.6 133.923c-.217-.044-.309-.207-.46-.643-.06-.273.397-.21.623-.16.18.278.093.49-.163.803z"/>
  <path fill="#241A1A" d="M254.383 117.134c-.207-.428-.071-.76.355-1.096.19.396.089.793-.355 1.096zM255.377 116.125c-.202-.427-.064-.758.366-1.088.185.395.08.79-.366 1.088z"/>
  <path fill="#8D810B" d="M273.062 136.496c.029-.263.494-.398.728-.461.065.252-.105.568-.48 1.066-.229.008-.253-.167-.248-.605z"/>
  <path fill="#B5A60B" d="M266.236 152.77c-1.412-.499-2.425-.862-3.63-1.295 2.216-2.882.87-4.268-2.312-5.148.359-.991.911-1.724 1.964-2.797 1.575-.71 2.652-1.08 3.959-1.496.231-.048.698-.121 1.08-.053a42.78 42.78 0 0 0 2.704.084s-.083.132-.056.6c.386 2.46.746 4.452 1.197 6.582.091.137.091.467.091.467-1.533 1.063-3.065 2.127-4.997 3.056z"/>
  <path fill="#8D810B" d="M299.92 145.588c.337 1.13.674 2.262 1.086 3.74-4.314.453-8.703.56-13.565.44-.473-.227-.534-.69-.144-.77 1.937-2.119 6.846 1.178 6.781-3.78 2.153.21 3.998.29 5.842.37zM283.842 150.76c-2.008.1-4.017.2-6.442.05-.414-.438-.41-.628-.015-.816 1.784-.34 3.18-.682 4.881-1 .513.02.718.016 1.153.011.229-.002.68.08.624.357-.104.652-.152 1.025-.2 1.398z"/>
  <path fill="#BEBEBE" d="M271.436 149.768c-.203-.054-.203-.384-.26-.935.568-1.992 1.193-3.433 1.816-4.64-.003.233-.095.691-.421.93-.41 1.581-.493 2.922-.52 4.358.055.094.006.307.006.307s-.418.035-.621-.02z"/>
  <path fill="#4D471B" d="M276.995 149.992c-.004.19-.009.38-.027.855a6.907 6.907 0 0 1-3.5-.574c.493-.36.912-.392 1.69-.356.846.065 1.334.06 1.827.06l.01.015zM284.188 150.826c-.297-.439-.249-.812.206-1.458 1.109-.279 1.81-.285 2.513-.29 0 0 .06.463.067.697-.81.528-1.625.822-2.786 1.051z"/>
  <path fill="#EEE" d="M274.799 149.847c-.419.034-.838.067-1.55.217-.294.117-.775-.006-.983-.14-.209-.136-.16-.35.065-.59.972.01 1.72.262 2.468.513z"/>
  <path fill="#CE1124" d="M266.915 141.913s-.467.073-1.012.077c-1.024-.343-1.503-.69-1.983-1.037 0 0 .115-.326.46-.529a4.483 4.483 0 0 1 1.572-.1c.08.247.23.44.696.858.247.279.267.73.267.73z"/>
  <path fill="#5B3A08" d="M263.643 141.111c.757.19 1.236.536 2.03.927-.763.413-1.84.782-3.27 1.249.084-.608.524-1.313 1.24-2.176zM265.88 140.02c-.338.27-.747.236-1.464.236-.196-.587-.086-1.208.288-2.008.543.37.824.918 1.176 1.771z"/>
  <path fill="#8D810B" d="M306.527 290.006c-6.006.19-12.48.385-19.243.277 6.065-.293 12.42-.283 19.243-.277z"/>
  <path fill="#BEBEBE" d="M266.367 190.628c-2.536.616-4.817.873-7.657 1.193l-.505 7.635-5.22.333-.625-8.04-7.781-.552-.321-5.447c6.03.723 10.31-.573 8.101-8.18l5.729-.263.62 8.002 7.915.602c0 1.528 0 2.943-.256 4.717z"/>
  <path fill="#D01125" d="M276.458 136.99s.003-.369.12-.802c-.158-1.374-.433-2.314-.707-3.332 0-.077.121-.172.121-.172l3.174 1.193 2.75-5.01c-3.936-3.018-7.621-6.435-7.64-12.704-.428-1.835-.852-3.03-1.276-4.223 5.372-3.996 11.357-5.632 18.447-4.575.889 3.742 1.346 7.385 2.14 10.953.021 2.574-.296 5.223-1.051 8.238-3.102 1.774-8.18 3.551-8.03 4.531.899 5.903-2.26 6.221-6.835 5.911-.64-.024-.897-.009-1.169.003a9.044 9.044 0 0 1-.044-.01z"/>
  <path fill="#EEE" d="M291.915 104.977c-5.635 1.304-11.33 2.171-17.166 2.666 1.69-4.19 3.74-7.766 9.231-8.432 2.12-.222 3.58-.289 5.041-.356.44.037.88.074 1.65.07.615 1.843.9 3.73 1.244 6.052z"/>
  <path fill="#5D5D5D" d="M295.841 105.04c.127.388-.038.681-.464 1.022-.41-.304-.561-.655-.712-1.006.295-.037.59-.073 1.176-.016z"/>
  <path fill="#372F30" d="M295.304 108.608c-.272.282-.462.313-.939.348-.237-.327-.071-.584.424-.867.342.022.47.144.515.519z"/>
  <path fill="#4D471B" d="M288.944 98.498c-1.383.424-2.844.491-4.747.51.83-3.01 2.631-2.68 4.747-.51z"/>
  <path fill="#CE1124" d="M320.011 109.085c.299.795.597 1.59.665 2.926-.052 1.407.125 2.276.288 3.43-.023.67-.031 1.052-.325 1.649-2.943 4.273-5.6 8.332-8.258 12.39l-1.792-.286c1.482 1.553 2.965 3.106 4.733 4.726.681 1.137 1.078 2.208 1.768 3.372.859.694 1.424 1.292 2.072 2.039.214.34.392.462.613.799-.295.514-.583.744-1.167.925-.694-.057-1.092-.064-1.666-.32-3.516-5.02-8.206-4.6-13.417-3.65-1.36-.07-2.352-.084-3.482-.397-.48-.862-.82-1.426-1.123-2.293.794-1.009 1.549-1.715 2.34-2.455-.294-.48-.786-1.288-1.278-2.44-.008-.802-.017-1.26.019-2.033.158-.725.271-1.134.384-1.544.46-2.434.92-4.867 1.421-7.603.336-3.727.631-7.153 1.561-10.939 5.972.327 11.308 1.015 16.644 1.704z"/>
  <path fill="#5B3A08" d="M278.056 137.039c4.19.27 7.349-.05 6.45-5.952-.15-.98 4.928-2.757 7.985-4.193.436.168.477.363.482 1.236-1.54 1.352-3.045 2.026-5.334 3.052.566 1.493 1.2 3.165 1.484 4.908-.422.468-.495.865-.884 1.2-1.443.13-2.57.324-3.697.518l.12.983c.787.127 1.574.255 2.346.558-.014.176-.055.527-.479.55-2.38.094-4.337.166-6.648.172-.593-.1-.831-.133-1.04-.389.03-.222.098-.666.41-.679a46.345 46.345 0 0 0 1.981-.265l-.222-.654c-.681.321-1.363.642-2.4.95-.865-.447-1.376-.878-1.602-1.272.54-.216.794-.47 1.048-.723z"/>
  <path fill="#CE1124" d="m289.474 136.019-1.835-4.837c2.29-1.026 3.794-1.7 5.394-2.76.095-.384.526-.414.767-.087.282.759.324 1.19.345 1.996.276 1.822.573 3.27.862 4.952-.01.232.003.697-.302.691-.71.037-1.114.08-1.96.072-1.338-.025-2.234 0-3.165.01a4.516 4.516 0 0 0-.106-.037z"/>
  <path fill="#BEBEBE" d="M294.167 129.958a137.4 137.4 0 0 1-.151-1.62c1.317-1.002 2.658-1.679 4.458-2.054.8.7 1.141 1.1 1.482 1.498.009.458.018.916-.233 1.911-.906 1.076-1.553 1.615-2.362 2.096-.393-.093-.62-.073-1.053-.216-.854-.685-1.498-1.15-2.141-1.615m2.167-1.28.733.982.62-.602c-.315-.255-.63-.51-1.353-.38z"/>
  <path fill="#6C6206" d="M300 127.467c-.385-.084-.726-.483-1.18-1.128.32-.44.75-.63 1.374-.619.078.613-.035 1.022-.193 1.747z"/>
  <path fill="#F7F7F7" d="M319.959 108.667c-5.284-.27-10.62-.959-16.398-1.654-.583-2.41-.725-4.815-.69-7.561.6.096 1.022.535 2.04 1.242 1.381.337 2.166.404 3.24.774 3.204.397 6.119.491 9.033.585.646.616 1.291 1.232 2.187 1.937.346 1.48.44 2.87.588 4.677z"/>
  <path fill="#372F30" d="M304.601 94.13c.092.744-.028 1.436-.246 2.376-.305.295-.513.341-1.027.476-.787-.202-1.268-.493-2.01-.89-.254-.327-.248-.548-.197-1.099.909-.331 1.773-.333 2.736-.66.098-.324.531-.256.744-.204z"/>
  <path fill="#5B3A08" d="M303.893 137.14c4.843-1.006 9.533-1.426 13.018 3.845.165.664.184.83-.228 1.005-2.15.004-3.869-.002-5.588-.008-2.723-.36-5.446-.718-8.687-1.42-1.214-.76-1.91-1.176-2.607-1.897-.1-.486-.194-.666.105-.818 1.592-.217 2.79-.462 3.987-.708z"/>
  <path fill="#CE1124" d="M300.072 145.397c-1.996.11-3.84.03-6.099-.312-.608-.435-.669-.646-.37-.928.626-.243 1.026-.454 1.773-.839 1.358-.146 2.37-.12 3.38-.094l2.599 1.297c-.193.117-.661.4-1.283.876z"/>
  <path fill="#8D810B" d="M295.028 143.492c-.4.21-.8.422-1.55.302-1.42-.854-2.489-1.377-3.517-2.127.04-.228.039-.69.024-.902-.014-.212-.08-.631.371-.672 3.529.243 6.607.528 9.685.812-.202.02-.404.039-1.259.091-1.707.353-2.76.672-3.86 1.37.006.628.056.877.106 1.126z"/>
  <path fill="#6C6206" d="M300.377 140.94c-3.414-.32-6.492-.604-10.39-.875-1.557-.054-2.295-.122-3.034-.189 0 0 .041-.35.378-.58.774-.243 1.21-.256 2.075-.264 1.576-.031 2.725-.067 4.285-.088 2.311.02 4.212.023 6.113.027.695.415 1.39.831 2.168 1.56-.365.358-.812.4-1.595.409z"/>
  <path fill="#4D471B" d="M311.17 142.265c1.644-.277 3.363-.271 5.718-.162.906.299 1.07.56 1.128.887l-4.702.117c-.975-.178-1.522-.368-2.144-.842z"/>
  <path fill="#C9C9C9" d="M295.376 143.318c-.398-.075-.448-.324-.066-.971 1.459-.404 2.484-.41 3.51-.417.037.218.074.436.024.974-1.099.294-2.11.268-3.468.414z"/>
  <path fill="#4D471B" d="M298.855 141.705c-1.06.232-2.086.238-3.5.264.666-.3 1.72-.62 3.124-.94.35-.001.41.45.376.676z"/>
  <path fill="#5B3A08" d="M318.903 141.104c.289-.23.577-.46 1.246-.924.875-.211 1.37-.189 1.855-.174-.01-.009-.029-.02.2.248 1.382.406 2.533.543 3.71.695l.073.044a42.1 42.1 0 0 1 1.877 1.792c-2.562-.095-5.3-.431-8.47-.967-.452-.372-.472-.543-.491-.714z"/>
  <path fill="#6C6206" d="M327.978 145.985c-.162 1.671-.308 3.353-.453 5.035l-2.228-.548c.67-1.466 1.34-2.933 2.37-4.424.358-.024.328-.051.311-.063z"/>
  <path fill="#253950" d="M320.938 148.528c-1.015.344-2.035.33-3.437.287.586-1.08 1.555-2.132 2.552-3.54.312.727.597 1.81.885 3.253z"/>
  <path fill="#8D810B" d="M318.608 141.055c.314.22.334.391.37.821.012.433.007.607-.047 1.038-.049.257-.482.163-.698.12-.275-.371-.439-.632-.913-.94-.225-.279-.244-.445-.232-.86.428-.243.826-.236 1.52-.18z"/>
  <path fill="#AFA00A" d="M333.006 146.01c.07-.046.136-.1.09-.087-.113.067-.096.078-.09.086z"/>
  <path fill="#372F30" d="M320.925 116.875c.008-.382.016-.765.053-1.745.02-1.01.012-1.42.004-1.833.176-.042.353-.084 1.078-.476.664-1.681.779-3.013.893-4.346-.009-.172-.018-.344.007-.772 5.815 2.284 11.597 4.825 17.293 7.731-2.86-.494-5.598-1.53-8.424-2.165-2.766-.621-5.451-.575-5.038 3.698-1.704-.194-3.099-.353-4.95-.247-.455.266-.916.155-.916.155zM344.272 123.915c-1.11-2.132-2.218-4.264-3.198-6.747 1.508 1.353 2.886 3.057 4.56 5.201.365.764.483 1.068.65 1.353 0 0-.122.186-.508.221-.76.015-1.132-.007-1.504-.028z"/>
  <path fill="#5D5D5D" d="M346.478 123.575c-.36-.138-.48-.442-.548-1.013.167-.384.333-.52.82-.62.187.518.055 1.002-.272 1.633z"/>
  <path fill="#372F30" d="M341.265 116.475c-.457.222-.823.107-1.134-.33.445-.215.835-.11 1.134.33z"/>
  <path fill="#5D5D5D" d="M344.24 102.858c.13-.306.288-.386.657-.306-.069.284-.349.408-.656.306z"/>
  <path fill="#4D471B" d="M307.861 101.165c-.784-.067-1.569-.134-2.724-.354 2.067-4.15 5.24-3.097 8.684-1.128.183.317.212.297-.197.315-2.15.348-3.891.677-5.664 1.047l-.099.12z"/>
  <path fill="#4D471B" d="M317.038 101.747c-2.768.212-5.683.118-8.887-.28-.29-.302-.224-.382.217-.411 2.182-.379 3.923-.727 5.665-1.076 0 0-.029.02-.042.032.958.485 1.93.957 3.047 1.735z"/>
  <path fill="#6C6206" d="M313.1 97.379c.479-.165 1.207-.057 2.177.334-.48.168-1.203.053-2.176-.334z"/>
  <path fill="#5D5D5D" d="M314.641 94.299c.329-.657.59-.914 1.113-1.258.388.792.515 1.672.479 2.997-.66-.15-1.16-.744-1.592-1.74z"/>
  <path fill="#241A1A" d="M322.663 108.762c.176 1.046.061 2.378-.343 3.977-.175-1.052-.061-2.371.343-3.977zM320.934 113.016c.056.693.064 1.105.058 1.828-.19-.557-.368-1.426-.338-2.487.216-.003.224.188.28.66z"/>
  <path fill="#F7F7F7" d="M312.021 95.836c-1.129.147-2.22.053-3.312-.04l-.04-.413c.862-.128 1.725-.257 2.963-.327.374.058.427.54.39.78z"/>
  <path fill="#A99B0B" d="M320.639 117.09c.286-.215.747-.104.983-.08.663 4.439 1.091 8.853 1.163 13.61-.357.341-.585.35-.68.42-.096.07-.3-.052-.174-.338-.128-.82-.383-1.355-.851-2.158-1.192-.035-2.17.199-3.396.436-.246.003-.73.09-.992.288-.727 1.66-1.191 3.122-1.656 4.585l-4.447-4.66c.597.097 1.195.192 1.792.288 2.658-4.059 5.315-8.118 8.258-12.391z"/>
  <path fill="#8D810B" d="M315.322 133.92a12 12 0 0 1 1.343-4.29c.976 1.19 1.716 2.216 2.658 3.316.203.075.521.365.576.727.357 1.723.66 3.085.963 4.447.223.263.447.526.91 1.117.238.329.24.777.24.777a43.063 43.063 0 0 1-1.857-.118c-.6-.103-.78-.225-1.02-.937-.351-1.218-.59-1.917-.83-2.615l-1.509.854c-.396-1.07-.793-2.141-1.474-3.278z"/>
  <path fill="#5B3A08" d="M322.004 140.006c.008.008.006-.44.008-.664 3.459.026 6.222-.69 6.818-4.71.744.504 1.15.833 1.558 1.163l.51-1.694c.081 1.38.163 2.76-.119 4.618-.536.884-.709 1.288-.882 1.693-1.076.181-2.153.363-3.57.563-.34.018-.389-.012-.622-.305-1.398-.424-2.564-.554-3.73-.685 0 0 .02.012.029.02zM320.888 137.74c-.329-.982-.632-2.344-.654-4.205.842-1.189 1.404-1.877 1.966-2.566 0 0 .228-.008.34-.023-.468 2.129-1.047 4.272-1.652 6.795z"/>
  <path fill="#AFA00A" d="M330.61 134.074c.118.592-.052 1.156-.222 1.72-.407-.329-.814-.658-1.214-1.298.388-.356.768-.403 1.436-.422z"/>
  <path fill="#241A1A" d="M344.233 124.26c.411-.324.784-.302 1.436-.284.083.48-.113.965-.324 1.712-.206.265-.397.267-.875.285-.283-.445-.279-.907-.237-1.713z"/>
  <path fill="#8D810B" d="M330.116 140.54c-.046-.533.127-.937.606-1.472.075.447-.156 1.024-.606 1.473z"/>
  <path fill="#5B3A08" d="M272.943 112.362c.481.772.905 1.966 1.143 3.473-.185.313-.576.292-.77.316-.273-1.106-.352-2.236-.373-3.789z"/>
  <path fill="#BEBEBE" d="M271.45 130.874c-.368-.25-.467-.682-.55-1.45 4.766-2.36 5.503-1.941 5.156 2.94-.064.32-.185.415-.496.466-.703.193-1.093.335-1.484.478-.188-.056-.377-.113-.826-.31.47-1.045 1.2-1.95 1.929-2.856l-.748-.962c-.904.504-1.81 1.008-2.982 1.694z"/>
  <path fill="#6C6206" d="M290 140.977s.002.462-.368.748c-1.11 1.223-1.85 2.16-2.59 3.097l.047-1.454c-1.89-.34-3.78-.681-6.026-1.079-.682.437-1.008.93-1.481 1.363-.148-.061-.43.09-.622-.12-.73-.369-1.267-.529-1.84-.904-.035-.215-.063-.65.083-.76.021-.38-.104-.65-.229-.922 0 0 .023-.395.326-.655.706-.302 1.109-.344 1.512-.386.238.033.476.066 1.344.425 3.701.432 6.773.54 9.844.647z"/>
  <path fill="#A99B0B" d="M276.554 140.95c.545.267.67.539.248.916-1.7.497-2.854.888-4.03 1.503-.024.225.181.628.204.632.023.004.019-.042.019-.042-.626 1.441-1.25 2.882-1.91 4.737-.394-1.58-.754-3.572-1.137-5.953.468-.708.96-1.027 1.711-1.474 1.665-.19 3.07-.253 4.895-.32z"/>
  <path fill="#CE1124" d="M278.842 139.682c-.433.265-.836.307-1.537.411-1.204-.097-2.109-.257-3.507-.504.862-1.005 1.43-1.666 2.328-2.463.332-.136.361-.128.407.06.047.19.19.538.19.538.511.432 1.022.863 1.903 1.284.37-.012.313.008.313.008s-.067.444-.097.666z"/>
  <path fill="#8D810B" d="M274.036 133.645c.43-.48.821-.622 1.524-.738.585.967.86 1.907.965 3.104-.694.174-1.219.091-2.148.006-.397-.68-.389-1.358-.34-2.372z"/>
  <path fill="#5B3A08" d="M267.297 141.98c-.382-.067-.402-.52-.474-.735.878-.071 1.829.072 2.979.518-.575.296-1.35.291-2.505.218z"/>
  <path fill="#AFA00A" d="m281.419 142.347 5.67 1.02-.047 1.455c.74-.937 1.48-1.874 2.55-2.87 1.397.465 2.467.988 3.66 1.874.052.613.113.824.412 1.128.48 5.222-4.43 1.925-6.367 4.044-1.092.085-1.794.091-2.847.092-.351-.005-.802-.087-1.15-.473-.663-2.142-.977-3.897-1.446-5.698-.37-.156-.463-.332-.435-.572z"/>
  <path fill="#4D471B" d="M282.008 142.964c.315 1.756.629 3.511 1.062 5.655-.086.391-.291.395-.814.358-.317-.04-.342-.067-.3-.3.043-.23-.055-.692.035-1.101.066-1.81.042-3.211.017-4.612zM281.949 148.954c-1.385.358-2.78.7-4.564 1.04-.39-.002-.396-.01-.285-.193.309-.383.522-.566 1.159-.748 1.49-.06 2.572-.102 3.655-.143 0 0 .025.028.035.044z"/>
  <path fill="#397D6A" d="M279.151 143.742s.283-.151.835.044c.682 1.52.81 2.846.562 4.187-1.135.045-1.894.075-3.061.103-2.702.113-4.925.136-4.59-3.192 0 0 .092-.458.095-.691.003-.234.007-.188.277-.201.459-.065.647-.117 1.247-.108 1.82-.007 3.227-.074 4.635-.142z"/>
  <path fill="#5D5D5D" d="M272.571 145.123c-.01 3.09 2.214 3.066 4.847 3.198.372.415.402.582.433.75a3.794 3.794 0 0 0-.755.724c-.604.182-1.092.187-1.939.122-1.106-.32-1.854-.572-2.882-.677-.197-1.195-.113-2.536.296-4.117z"/>
  <path fill="#8D810B" d="M277.008 137.762c-.285-.038-.428-.386-.46-.572.226-.2.482-.216 1.123-.192.13.294-.123.548-.663.764z"/>
  <path fill="#5B3A08" d="M297.523 131.847c.647-.539 1.294-1.078 2.2-1.81.75.615 1.243 1.422 1.536 1.903-.79.74-1.545 1.446-2.563 2.513-.263.36-.688.54-.692.138a39.302 39.302 0 0 0-.48-2.744z"/>
  <path fill="#AFA00A" d="M303.525 137.084c-.83.3-2.027.546-3.77.74-.9-.13-1.138-.336-.976-.682.655-.059 1.028-.107 1.402-.155.992.014 1.984.028 3.344.097z"/>
  <path fill="#5B3A08" d="M317.09 137.292c.21-.379.712-.663 1.215-.948.24.698.479 1.397.746 2.467-.537-.227-1.102-.825-1.96-1.519z"/>
  <path fill="#8D810B" d="M300.043 136.688c-.236.347-.61.395-1.387.442-.405-.002-.618-.122-.635-.456a59.85 59.85 0 0 1-.024-1.673l.011-.007s.425-.181.65-.238c.565.506.906 1.07 1.385 1.932z"/>
  <path fill="#CE1124" d="M288.978 139.028c-.437.012-.873.025-1.633.091-1.11-.073-1.896-.2-2.682-.328l-.12-.983c1.126-.194 2.253-.387 3.752-.497.374.085.673.21.695.586.01.628 0 .88-.012 1.13z"/>
  <path fill="#A99B0B" d="m288.968 137.52-.355-.146c.015-.419.088-.816.51-1.284.35-.071.422-.047.71.217 1.309.106 2.332-.053 3.354-.211.404-.043.809-.085 1.55-.096.337.032.397.09.375.368-.587.72-1.152 1.162-2.174 1.603-1.627-.15-2.798-.3-3.97-.45z"/>
  <path fill="#AFA00A" d="M289.985 140.765a65.349 65.349 0 0 1-9.475-.37c1.682-.33 3.639-.402 6.02-.496 1.162.044 1.9.112 3.007.207.369.028.434.447.448.66z"/>
  <path fill="#8D810B" d="M278.981 139.022c.666-.296 1.348-.617 2.03-.938l.221.654c-.557.084-1.114.168-1.982.265-.31.013-.253-.007-.269.019z"/>
  <path fill="#4D471B" d="M294.145 130.331c.665.092 1.309.557 1.988 1.619-.012 1.423-.06 2.251-.36 3.063-.421.001-.59.02-.757.037-.298-1.448-.595-2.897-.87-4.719z"/>
  <path fill="#6C6206" d="M292.745 136.046c-.58.208-1.603.367-2.878.274.644-.275 1.54-.299 2.878-.274z"/>
  <path fill="#BAAA0B" d="M295.007 135.283c.177-.25.345-.269.754-.283.242.003.218-.022.139.269-.175.468-.271.645-.467.847-.1.026-.3-.027-.3-.027s-.059-.057-.09-.083c-.033-.026-.045-.49-.036-.723z"/>
  <path fill="#BAAA0B" d="M296.014 135.016c.06-.815.107-1.643.33-2.847.397-.453.624-.473 1.017-.38.321.838.48 1.619.643 2.802.004.403-.005.408-.343.349a13.826 13.826 0 0 0-1.682.038l.035.038z"/>
  <path fill="#FFF" d="M296.538 128.485c.519.063.834.318 1.15.573-.208.2-.414.401-.62.602-.245-.327-.49-.655-.53-1.175z"/>
  <path fill="#CE1124" d="M295.112 136.368c.022-.279.221-.226.6-.055 1.028.346 1.677.52 2.326.695 0 0 .213.12.337.132.242.348.48.555.986.656.246.203.34.383.44.869-1.898.302-3.799.298-6.137.033-.438-.26-.27-.726-.27-.726.566-.442 1.131-.883 1.718-1.604z"/>
  <path fill="#5B3A08" d="M292.938 137.971c.457 0 .288.466.315.712-1.122.282-2.27.318-3.847.349-.417-.255-.405-.507-.416-1.135 1.15-.226 2.32-.076 3.948.074z"/>
  <path fill="#8D810B" d="M322.205 140.254c.936-.138 2.102-.008 3.476.402-.944.141-2.095.004-3.476-.402z"/>
  <path fill="#B5A60B" d="M313.624 99.998c-1.333.33-3.074.68-5.224 1.018 1.333-.34 3.074-.67 5.224-1.018z"/>
  <path fill="#EEE" d="M322.104 131.04a15.174 15.174 0 0 1-1.925 2.133c-.335.138-.653-.152-.89-.59-.61-1.493-.984-2.55-1.358-3.606.978-.234 1.957-.468 2.912-.318.305 1.033.634 1.681.962 2.33 0 0 .204.121.3.05z"/>
  <path fill="#C8C8C8" d="M317.684 128.98c.62 1.053.995 2.11 1.403 3.529-.706-.663-1.446-1.689-2.16-3.076.026-.362.511-.45.757-.453zM321.931 130.702c-.454-.362-.783-1.01-.875-1.774.492.42.747.954.875 1.774z"/>
  <path fill="#EEE" d="M280.925 147.958c-.128-1.326-.257-2.651-.79-4.11-.08-.629.246-1.122.928-1.559.328.298.421.474.79.63a15.048 15.048 0 0 1-.106 4.65c-.334.405-.822.39-.822.39zM278.96 143.532c-1.217.278-2.625.345-4.453.2-.42-.214-.438-.52-.058-.597 1.155-.148 1.93-.22 2.706-.291.538.16 1.076.32 1.805.688z"/>
  <path fill="#4D471B" d="M277.12 142.628c-.74.287-1.516.359-2.988.453-.91.036-1.124.05-1.337.063 1.153-.39 2.307-.78 3.861-1.169.401.003.429.438.464.653z"/>
  <path fill="#BEBEBE" d="M272.772 143.369c.236-.238.45-.252.98-.21.317.053.335.359.344.512-.18.204-.368.256-.85.317-.293.009-.498-.394-.474-.62z"/>
  <path fill="#C9C9C9" d="M280.548 147.973c.377-.015.865 0 1.109.006s.342.467.3.699c-1.126.273-2.208.315-3.698.375-.439-.15-.469-.317-.431-.73.826-.275 1.585-.305 2.72-.35z"/>
  <path fill="#5B3A08" d="M298.02 136.674c-.631.16-1.28-.015-2.208-.387-.183-.373-.087-.55.088-1.018.527-.324.975-.356 1.759-.327.338.507.341.952.362 1.732z"/>
</svg>
