<svg width="16" height="17" viewBox="0 0 16 17" fill="none" xmlns="http://www.w3.org/2000/svg">
<path d="M4.99995 8.5C4.99995 6.81563 6.31557 5.5 7.99995 5.5C9.6562 5.5 10.9999 6.81563 10.9999 8.5C10.9999 10.1562 9.6562 11.5 7.99995 11.5C6.31557 11.5 4.99995 10.1562 4.99995 8.5ZM7.99995 7C7.17182 7 6.49995 7.67188 6.49995 8.5C6.49995 9.32812 7.17182 10 7.99995 10C8.82807 10 9.49995 9.32812 9.49995 8.5C9.49995 7.67188 8.82807 7 7.99995 7ZM9.15932 0.500009C9.85307 0.500009 10.4562 0.974688 10.6187 1.64813L10.8624 2.66281C11.1281 2.7925 11.3812 2.93969 11.6218 3.1025L12.6249 2.80719C13.2906 2.61125 14.0031 2.89594 14.3499 3.49594L15.5093 5.50313C15.8531 6.10313 15.7437 6.8625 15.2437 7.34062L14.4843 8.03438C14.4937 8.20625 14.4999 8.35313 14.4999 8.5C14.4999 8.64688 14.4937 8.79375 14.4843 8.9375L15.2437 9.65938C15.7437 10.1375 15.8531 10.8969 15.5093 11.4969L14.3499 13.5031C14.0031 14.1031 13.2906 14.3875 12.6249 14.1938L11.6218 13.8969C11.3812 14.0594 11.1281 14.2062 10.8624 14.3375L10.6187 15.3531C10.4562 16.025 9.85307 16.5 9.15932 16.5H6.84057C6.14682 16.5 5.5437 16.025 5.3812 15.3531L5.13745 14.3375C4.87182 14.2062 4.6187 14.0594 4.37807 13.8969L3.34682 14.1938C2.71026 14.3875 1.99807 14.1031 1.65151 13.5031L0.492133 11.4969C0.145571 10.8969 0.255196 10.1375 0.757133 9.65938L1.51463 8.9375C1.50495 8.79375 1.49995 8.64688 1.49995 8.47188C1.49995 8.35313 1.50495 8.20625 1.51463 8.03438L0.757133 7.34062C0.255165 6.8625 0.145571 6.10313 0.492133 5.50313L1.65151 3.49594C1.99807 2.89594 2.71026 2.61125 3.34682 2.80719L4.37807 3.1025C4.6187 2.93969 4.87182 2.7925 5.13745 2.66281L5.3812 1.64813C5.5437 0.974375 6.14682 0.5 6.84057 0.5L9.15932 0.500009ZM6.42182 3.7375L6.07182 3.88438C5.67495 4.05 5.3062 4.26562 4.97182 4.52187L4.6687 4.75313L2.95057 4.24688L1.79088 6.25313L3.08776 7.4875L3.03995 7.8625C3.0137 8.07188 2.99995 8.28438 2.99995 8.5C2.99995 8.71562 3.0137 8.92812 3.03995 9.1375L3.08776 9.5125L1.7912 10.7469L2.95057 12.7531L4.6687 12.2469L4.97182 12.4781C5.3062 12.7344 5.67495 12.95 6.07182 13.1156L6.42182 13.2625L6.84057 15H9.15932L9.57807 13.2625L9.92807 13.1156C10.3249 12.95 10.6937 12.7344 11.0281 12.4781L11.3312 12.2469L13.0499 12.7531L14.2093 10.7469L12.9124 9.5125L12.9593 9.1375C12.9874 8.92812 12.9999 8.71562 12.9999 8.5C12.9999 8.28438 12.9874 8.07188 12.9593 7.8625L12.9124 7.4875L14.2093 6.25313L13.0499 4.24688L11.3312 4.75313L11.0281 4.52187C10.6937 4.26562 10.3249 4.05 9.92807 3.88438L9.57807 3.7375L9.15932 2H6.84057L6.42182 3.7375Z" fill="#23F7DD"/>
</svg>
