<svg width="40" height="40" viewBox="0 0 40 40" fill="none" xmlns="http://www.w3.org/2000/svg">
<rect width="40" height="40" rx="16" fill="#23F7DD"/>
<path d="M19.3164 14.2305L20 15.3516L20.6562 14.2305C21.0938 13.4648 21.8867 13 22.7617 13H22.8438C24.1562 13 25.25 14.0938 25.25 15.4062C25.25 15.8164 25.1406 16.1719 24.9766 16.5H26.125C27.082 16.5 27.875 17.293 27.875 18.25V25.25C27.875 26.2344 27.082 27 26.125 27H13.875C12.8906 27 12.125 26.2344 12.125 25.25V18.25C12.125 17.293 12.8906 16.5 13.875 16.5H14.9961C14.832 16.1719 14.75 15.8164 14.75 15.4062C14.75 14.0938 15.8164 13 17.1562 13H17.2109C18.0859 13 18.8789 13.4648 19.3164 14.2305ZM20.8203 16.5H22.8438C23.4453 16.5 23.9375 16.0352 23.9375 15.4062C23.9375 14.8047 23.4453 14.3125 22.8438 14.3125H22.7617C22.3516 14.3125 21.9961 14.5312 21.7773 14.8867L20.8203 16.5ZM20 18.4141L18.3047 20.4375C18.0586 20.7109 17.6484 20.7383 17.375 20.5195C17.1016 20.2734 17.0742 19.8633 17.293 19.5898L18.7695 17.8125H13.875C13.6289 17.8125 13.4375 18.0312 13.4375 18.25V21.75H26.5625V18.25C26.5625 18.0312 26.3438 17.8125 26.125 17.8125H21.2031L22.6797 19.5898C22.8984 19.8633 22.8711 20.2734 22.5977 20.5195C22.3242 20.7383 21.9141 20.7109 21.668 20.4375L20 18.4141ZM13.4375 23.5V25.25C13.4375 25.4961 13.6289 25.6875 13.875 25.6875H26.125C26.3438 25.6875 26.5625 25.4961 26.5625 25.25V23.5H13.4375ZM19.1523 16.5L18.1953 14.8867C17.9766 14.5312 17.6211 14.3125 17.2109 14.3125H17.1562C16.5273 14.3125 16.0625 14.8047 16.0625 15.4062C16.0625 16.0352 16.5273 16.5 17.1562 16.5H19.1523Z" fill="black"/>
</svg>
