<svg xmlns="http://www.w3.org/2000/svg" width="16" height="16" fill="none" viewBox="0 0 16 16">
  <path fill="currentColor" d="M14.5 4.5h-.844c.219-.375.344-.781.344-1.25C14 1.75 12.75.5 11.25.5c-1.313 0-2.156.688-3.219 2.156C6.937 1.187 6.094.5 4.812.5a2.754 2.754 0 0 0-2.75 2.75c0 .469.094.875.313 1.25H1.5A1.5 1.5 0 0 0 0 6v4c0 .281.219.5.5.5H1v3.375c0 .906.719 1.625 1.625 1.625h10.719c.906 0 1.656-.719 1.656-1.625V10.5h.5c.25 0 .5-.219.5-.5V6c0-.813-.688-1.5-1.5-1.5ZM7.25 14H2.625a.134.134 0 0 1-.125-.125V10.5H6V9H1.5V6h5.75v8ZM4.781 4.5c-.687 0-1.25-.531-1.25-1.25 0-.688.563-1.25 1.25-1.25.688 0 1.188.25 2.657 2.406L7.5 4.5H4.781Zm3.813-.094C10.063 2.25 10.563 2 11.25 2c.688 0 1.25.563 1.25 1.25 0 .719-.563 1.25-1.25 1.25H8.531l.063-.094ZM14.5 9H10v1.5h3.5v3.375c0 .063-.063.125-.156.125H8.75V6h5.75v3Z"/>
</svg>
