<svg xmlns="http://www.w3.org/2000/svg" width="17" height="16" fill="none" viewBox="0 0 17 16">
  <path fill="#4C6485" d="M14.845 4.5H14a2.42 2.42 0 0 0 .344-1.25c0-1.5-1.25-2.75-2.75-2.75-1.313 0-2.157.688-3.219 2.156C7.282 1.187 6.438.5 5.157.5a2.754 2.754 0 0 0-2.75 2.75c0 .469.094.875.313 1.25h-.875A1.5 1.5 0 0 0 .345 6v4c0 .281.218.5.5.5h.5v3.375c0 .906.718 1.625 1.625 1.625h10.718c.907 0 1.657-.719 1.657-1.625V10.5h.5c.25 0 .5-.219.5-.5V6c0-.813-.688-1.5-1.5-1.5ZM7.595 14H2.97a.134.134 0 0 1-.125-.125V10.5h3.5V9h-4.5V6h5.75v8ZM5.126 4.5c-.688 0-1.25-.531-1.25-1.25 0-.688.562-1.25 1.25-1.25.687 0 1.187.25 2.656 2.406l.063.094H5.126Zm3.812-.094C10.408 2.25 10.908 2 11.595 2s1.25.563 1.25 1.25c0 .719-.563 1.25-1.25 1.25H8.876l.062-.094ZM14.845 9h-4.5v1.5h3.5v3.375c0 .063-.063.125-.157.125H9.095V6h5.75v3Z"/>
</svg>
