<svg xmlns="http://www.w3.org/2000/svg" width="16" height="16" fill="none" viewBox="0 0 16 16">
  <path fill="currentColor" d="M1 14c0 .563.438 1 1 1h5v-5H1v4Zm8 1h5c.531 0 1-.438 1-1v-4H9v5Zm6-10h-1.344c.219-.375.344-.781.344-1.25C14 2.25 12.75 1 11.25 1c-1.313 0-2.156.688-3.219 2.156C6.937 1.687 6.094 1 4.812 1a2.754 2.754 0 0 0-2.75 2.75c0 .469.094.875.313 1.25H1c-.563 0-1 .469-1 1v2.5c0 .281.219.5.5.5h15c.25 0 .5-.219.5-.5V6c0-.531-.469-1-1-1ZM4.781 5c-.687 0-1.25-.531-1.25-1.25 0-.688.563-1.25 1.25-1.25.625 0 1.094.125 2.719 2.5H4.781Zm6.469 0H8.531c1.625-2.375 2.063-2.5 2.719-2.5.688 0 1.25.563 1.25 1.25 0 .719-.563 1.25-1.25 1.25Z"/>
</svg>
