<svg width="16" height="17" viewBox="0 0 16 17" fill="none" xmlns="http://www.w3.org/2000/svg">
<path d="M4.85313 5.35313C4.65938 5.55 4.34062 5.55 4.14687 5.35313C3.95 5.15938 3.95 4.84062 4.14687 4.64687L5.14687 3.64687C5.34062 3.45125 5.65938 3.45125 5.85313 3.64687C6.05 3.84062 6.05 4.15938 5.85313 4.35313L4.85313 5.35313ZM0 8.5C0 4.08125 3.58125 0.5 8 0.5C12.4187 0.5 16 4.08125 16 8.5C16 12.9187 12.4187 16.5 8 16.5C3.58125 16.5 0 12.9187 0 8.5ZM8 15C8.18125 15 8.35938 14.9937 8.53438 14.9781C8.5125 14.9062 8.5 14.8281 8.5 14.75C8.5 14.3344 8.16562 14 7.75 14H7.08437C6.70937 14 6.35 13.85 6.08437 13.5844L5.58437 13.0844C5.20937 12.7094 5 12.2031 5 11.6719V11.5719C5 10.9031 5.33437 10.2781 5.89062 9.90625L6.74687 9.33438C7.075 9.11563 7.45937 9 7.85625 9H8.50937C8.9875 9 9.45 9.17188 9.78438 9.48125L10.6406 10.1938C10.8719 10.3906 11.1687 10.5 11.4719 10.5C11.8094 10.5 12.1344 10.6344 12.3469 10.8469L12.7937 11.2937C12.925 11.425 13.1062 11.5 13.2937 11.5C13.4437 11.5 13.5844 11.5469 13.7 11.6281C13.8969 11.2719 14.0594 10.8938 14.1594 10.5H13.9563C13.5031 10.5 13.0688 10.3188 12.75 10L12.1781 9.42813C12.0625 9.3125 12 9.15938 12 9C12 8.84062 12.0625 8.65937 12.1781 8.57187L12.4125 8.3375C12.4406 8.28125 12.5 8.20625 12.5 8.125C12.5 8.04375 12.4406 7.94062 12.4125 7.9125L12.2063 7.70625C12.075 7.575 11.8938 7.5 11.7063 7.5H11.3531C11.1594 7.5 11 7.34062 11 7.14687C11 7.05312 11.0375 6.9625 11.1031 6.89687L11.25 6.75C11.4094 6.59062 11.6281 6.5 11.8531 6.5H12.5C12.775 6.5 13 6.275 13 6C13 5.725 12.775 5.5 12.5 5.5H11.5813C11.2594 5.5 11 5.75938 11 6.08125C11 6.33125 10.8406 6.55312 10.6031 6.63125L9.94063 6.85313C9.70938 6.93125 9.59688 7.19688 9.70938 7.41563L9.74375 7.4875C9.8625 7.72188 9.69063 8 9.42813 8C9.31563 8 9.20938 7.94688 9.14375 7.85938L8.63437 7.17812C8.55 7.06562 8.41875 7 8.275 7C8.10625 7 7.95312 7.09687 7.875 7.24687L7.75 7.5C7.59688 7.80625 7.27812 8 6.93437 8C6.425 8 6 7.58437 6 7.07188V6.94063C6 6.65938 6.1125 6.3875 6.30937 6.19063L6.87187 5.62813C6.95312 5.54688 7 5.43437 7 5.31875C7 5.12812 7.12188 4.95937 7.3 4.9L8.13125 4.62187C8.37188 4.54375 8.59375 4.37812 8.775 4.225L9.39688 3.60344C9.4625 3.53719 9.5 3.44719 9.5 3.35344C9.5 3.15844 9.34063 3 9.14688 3H9.11563C9.04063 3 8.96562 3.0225 8.90312 3.06437L7.59688 3.93438C7.53438 3.97813 7.45937 4 7.38438 4C7.17188 4 7 3.82812 7 3.61625V3.33344C7 3.12344 7.1 2.92594 7.26562 2.8L8.32187 2.00781C8.21562 2.00281 8.10938 2 8 2C4.40938 2 1.5 4.90938 1.5 8.5C1.5 12.0906 4.40938 15 8 15Z" fill="#ADBFCC"/>
</svg>
