<svg width="44" height="24" viewBox="0 0 44 24" fill="none" xmlns="http://www.w3.org/2000/svg">
<path d="M32.2979 0.972C33.7431 0.972 35.1473 1.266 36.4697 1.842C37.7511 2.4 38.8979 3.198 39.8926 4.212C40.8814 5.226 41.6596 6.408 42.2037 7.722C42.7654 9.078 43.0521 10.518 43.0521 12C43.0521 13.482 42.7654 14.922 42.2037 16.278C41.6596 17.592 40.8814 18.768 39.8926 19.788C38.9037 20.802 37.7511 21.6 36.4697 22.158C35.1473 22.734 33.7431 23.028 32.2979 23.028H11.7021C10.2569 23.028 8.85266 22.734 7.53032 22.158C6.24894 21.6 5.10213 20.802 4.10745 19.788C3.11862 18.774 2.34043 17.592 1.79628 16.278C1.23457 14.922 0.947872 13.482 0.947872 12C0.947872 10.518 1.23457 9.078 1.79628 7.722C2.34043 6.408 3.11862 5.232 4.10745 4.212C5.09628 3.198 6.24894 2.4 7.53032 1.842C8.85266 1.266 10.2569 0.972 11.7021 0.972H32.2979ZM32.2979 0H11.7021C5.26596 0 0 5.4 0 12C0 18.6 5.26596 24 11.7021 24H32.2979C38.734 24 44 18.6 44 12C44 5.4 38.734 0 32.2979 0Z" fill="white"/>
<path d="M20.756 12.8497V16.4797H19.604V7.51562H22.658C23.432 7.51562 24.092 7.77363 24.632 8.28963C25.184 8.80563 25.46 9.43564 25.46 10.1796C25.46 10.9416 25.184 11.5717 24.632 12.0817C24.098 12.5917 23.438 12.8437 22.658 12.8437H20.756V12.8497ZM20.756 8.61963V11.7457H22.682C23.138 11.7457 23.522 11.5897 23.822 11.2837C24.128 10.9776 24.284 10.6056 24.284 10.1856C24.284 9.77164 24.128 9.40564 23.822 9.09964C23.522 8.78163 23.144 8.62563 22.682 8.62563H20.756V8.61963Z" fill="white"/>
<path d="M28.4719 10.1406C29.3239 10.1406 29.9959 10.3686 30.4879 10.8246C30.9799 11.2806 31.2259 11.9046 31.2259 12.6966V16.4767H30.1279V15.6247H30.0799C29.6059 16.3267 28.9699 16.6747 28.1779 16.6747C27.4999 16.6747 26.9359 16.4767 26.4799 16.0747C26.0239 15.6727 25.7959 15.1747 25.7959 14.5747C25.7959 13.9386 26.0359 13.4346 26.5159 13.0626C26.9959 12.6846 27.6379 12.4986 28.4359 12.4986C29.1199 12.4986 29.6839 12.6246 30.1219 12.8766V12.6126C30.1219 12.2106 29.9659 11.8746 29.6479 11.5926C29.3299 11.3106 28.9579 11.1726 28.5319 11.1726C27.8899 11.1726 27.3799 11.4426 27.0079 11.9886L25.9939 11.3526C26.5519 10.5426 27.3799 10.1406 28.4719 10.1406ZM26.9839 14.5927C26.9839 14.8927 27.1099 15.1447 27.3679 15.3427C27.6199 15.5407 27.9199 15.6427 28.2619 15.6427C28.7479 15.6427 29.1799 15.4627 29.5579 15.1027C29.9359 14.7427 30.1279 14.3227 30.1279 13.8366C29.7679 13.5546 29.2699 13.4106 28.6279 13.4106C28.1599 13.4106 27.7699 13.5246 27.4579 13.7466C27.1399 13.9807 26.9839 14.2627 26.9839 14.5927Z" fill="white"/>
<path d="M37.49 10.3438L33.6499 19.1758H32.4619L33.8899 16.0858L31.3579 10.3438H32.6119L34.4359 14.7478H34.4599L36.2359 10.3438H37.49Z" fill="white"/>
<path d="M16.1739 12.1197C16.1739 11.7441 16.1403 11.3847 16.0779 11.0391H11.249V13.0191L14.03 13.0197C13.9172 13.6785 13.5542 14.2401 12.998 14.6145V15.8991H14.6534C15.6201 15.0045 16.1739 13.6821 16.1739 12.1197Z" fill="#4285F4"/>
<path d="M12.9983 14.6056C12.5375 14.9164 11.9441 15.0982 11.2499 15.0982C9.90887 15.0982 8.77126 14.1946 8.36386 12.9766H6.65625V14.3014C7.50226 15.9802 9.24107 17.1322 11.2499 17.1322C12.6383 17.1322 13.8047 16.6756 14.6537 15.8896L12.9983 14.6056Z" fill="#34A853"/>
<path d="M8.20328 11.9957C8.20328 11.6537 8.26028 11.3231 8.36408 11.0123V9.6875H6.65647C6.30666 10.3817 6.10986 11.1653 6.10986 11.9957C6.10986 12.8261 6.30726 13.6097 6.65647 14.3039L8.36408 12.9791C8.26028 12.6683 8.20328 12.3377 8.20328 11.9957Z" fill="#FABB05"/>
<path d="M11.2499 8.89339C12.0077 8.89339 12.6863 9.15439 13.2221 9.66439L14.6891 8.19858C13.7981 7.36878 12.6365 6.85938 11.2499 6.85938C9.24167 6.85938 7.50226 8.01138 6.65625 9.69019L8.36386 11.015C8.77126 9.79699 9.90887 8.89339 11.2499 8.89339Z" fill="#E94235"/>
</svg>
