<svg width="16" height="17" viewBox="0 0 16 17" fill="none" xmlns="http://www.w3.org/2000/svg">
<path d="M7.99803 15.8565C12.8468 13.5362 14.7359 8.25373 14.7499 5.43843C14.7556 4.72687 14.2915 4.11712 13.6728 3.85471L11.7322 3.01929L9.90238 2.24441C9.78425 2.19083 8.14658 1.24999 8.01439 1.25C7.88502 1.24999 6.23138 2.17034 6.0863 2.24441L4.25974 3.01929L2.3272 3.85471C1.70902 4.11712 1.24637 4.72687 1.25002 5.43843C1.2638 8.25373 3.15184 13.5362 7.99803 15.8565ZM7.99803 15.8565C7.53116 16.0787 8.46772 16.0787 7.99803 15.8565Z" stroke="#23F7DD" stroke-width="1.3" stroke-linecap="round" stroke-dasharray="0.03 1.87"/>
<path d="M8.37662 7.50024L11.5 5.88022L10.9749 4.90039L8.11487 6.02344C8.04122 6.0524 7.95958 6.0524 7.88594 6.02344L5.0251 4.90039L4.5 5.88022L7.62339 7.50024L4.5 9.11947L5.0251 10.0993L7.88514 8.97625C7.95878 8.94729 8.04042 8.94729 8.11407 8.97625L10.9741 10.0993L11.4992 9.11947L8.37582 7.49946L8.37662 7.50024Z" fill="#23F7DD"/>
</svg>
