<svg xmlns="http://www.w3.org/2000/svg" width="45" height="45" fill="none" viewBox="0 0 40 40">
  <rect width="40" height="40" fill="#D83E3E" rx="16"/>
  <path fill="#fff" d="m20.42 12.092 5.918 2.51c.692.293 1.21.974 1.204 1.77-.016 3.145-1.295 8.85-6.713 11.442a1.941 1.941 0 0 1-1.659 0c-5.415-2.593-6.697-8.297-6.713-11.442-.004-.796.513-1.477 1.204-1.77l5.92-2.51a.998.998 0 0 1 .84 0Zm-.42 1.46-5.75 2.411c-.187.107-.285.27-.284.428.014 2.875 1.207 7.834 5.858 10.062.11.053.242.053.355 0 4.65-2.228 5.842-7.187 5.855-10.063.003-.157-.098-.32-.312-.427L20 13.553Z"/>
  <path fill="#fff" d="m20.377 19 3.123-1.62-.525-.98-2.86 1.123a.312.312 0 0 1-.23 0l-2.86-1.123-.525.98L19.623 19 16.5 20.62l.525.98 2.86-1.124a.313.313 0 0 1 .23 0l2.86 1.123.524-.98L20.376 19V19Z"/>
</svg>
