<svg width="16" height="17" viewBox="0 0 16 17" fill="none" xmlns="http://www.w3.org/2000/svg">
<g clip-path="url(#clip0_11391_8965)">
<path d="M14.5781 3.11572L8.57812 0.615719C8.39453 0.537594 8.19812 0.5 8.00187 0.5C7.80562 0.5 7.60938 0.537375 7.425 0.6155L1.42531 3.11572C0.866563 3.34603 0.5 3.89353 0.5 4.47166C0.5 12.5435 6.41875 16.4998 7.99687 16.4998C9.5375 16.4998 15.5 12.6029 15.5 4.47166C15.5 3.89353 15.1344 3.34603 14.5781 3.11572ZM8 14.9998C4.95312 13.731 2 9.79041 2 4.49978L8 1.99978L14 4.49978C14 9.93103 10.925 13.781 8 14.9998Z" fill="#ADBFCC"/>
<path d="M11.1279 10.217V7.22H7.64489V8.471H9.66089V9.524C9.45389 9.659 8.99489 9.803 8.31089 9.803C6.98789 9.803 6.24989 8.966 6.24989 7.769C6.24989 6.662 6.94289 5.807 8.02289 5.807C8.79689 5.807 9.21089 6.149 9.37289 6.338H10.9839C10.7949 5.618 10.0029 4.475 8.02289 4.475C6.06989 4.475 4.70189 5.852 4.70189 7.769C4.70189 9.785 6.08789 11.117 8.27489 11.117C9.79589 11.117 10.7679 10.532 11.1279 10.217Z" fill="#ADBFCC"/>
</g>
<defs>
<clipPath id="clip0_11391_8965">
<rect width="16" height="16" fill="white" transform="translate(0 0.5)"/>
</clipPath>
</defs>
</svg>
