<svg width="16" height="16" viewBox="0 0 16 16" fill="none" xmlns="http://www.w3.org/2000/svg">
<path d="M8.42037 0.0917888L14.3379 2.60203C15.0292 2.89523 15.5478 3.57655 15.5415 4.37162C15.5258 7.51736 14.2467 13.2212 8.8289 15.8138C8.30723 16.0621 7.69443 16.0621 7.16962 15.8138C1.75463 13.2212 0.472454 7.51736 0.457055 4.37162C0.45297 3.57655 0.969925 2.89523 1.66067 2.60203L7.5813 0.0917888C7.71014 0.0319225 7.8547 -9.42569e-06 7.99926 2.08704e-09C8.14696 -9.42569e-06 8.28838 0.0319225 8.42037 0.0917888ZM7.99926 1.5524L2.24959 3.96309C2.06292 4.06993 1.96487 4.23335 1.9655 4.39048C1.97964 7.26595 3.17225 12.225 7.82328 14.4531C7.93327 14.5065 8.06526 14.5065 8.17839 14.4531C12.8294 12.225 14.0205 7.26595 14.033 4.39048C14.0362 4.23335 13.9356 4.06993 13.7219 3.96309L7.99926 1.5524Z" fill="#23F7DD"/>
<path d="M8.37662 7.00024L11.5 5.38022L10.9749 4.40039L8.11487 5.52344C8.04122 5.5524 7.95958 5.5524 7.88594 5.52344L5.0251 4.40039L4.5 5.38022L7.62339 7.00024L4.5 8.61947L5.0251 9.5993L7.88514 8.47625C7.95878 8.44729 8.04042 8.44729 8.11407 8.47625L10.9741 9.5993L11.4992 8.61947L8.37582 6.99946L8.37662 7.00024Z" fill="#23F7DD"/>
</svg>
