<svg width="12" height="12" viewBox="0 0 12 12" fill="none" xmlns="http://www.w3.org/2000/svg">
<g id="guardians">
<path id="Vector" d="M6.31576 0.0688416L10.7539 1.95152C11.2724 2.17142 11.6613 2.68241 11.6566 3.27872C11.6448 5.63802 10.6855 9.91587 6.62217 11.8604C6.23091 12.0465 5.77131 12.0465 5.3777 11.8604C1.31646 9.91587 0.354829 5.63802 0.34328 3.27872C0.340216 2.68241 0.727932 2.17142 1.24599 1.95152L5.68646 0.0688416C5.7831 0.0239418 5.89151 -7.06927e-06 5.99993 1.56528e-09C6.11071 -7.06927e-06 6.21677 0.0239418 6.31576 0.0688416ZM5.99993 1.1643L1.68768 2.97231C1.54768 3.05245 1.47414 3.17501 1.47461 3.29286C1.48522 5.44946 2.37967 9.16872 5.86795 10.8398C5.95044 10.8799 6.04943 10.8799 6.13428 10.8398C9.62255 9.16872 10.5158 5.44946 10.5253 3.29286C10.5276 3.17501 10.4522 3.05245 10.2919 2.97231L5.99993 1.1643Z" fill="#23F7DD"/>
<path id="Vector_2" d="M6.28246 5.25018L8.625 4.03517L8.23118 3.30029L6.08615 4.14258C6.03092 4.1643 5.96968 4.1643 5.91445 4.14258L3.76883 3.30029L3.375 4.03517L5.71754 5.25018L3.375 6.4646L3.76883 7.19948L5.91385 6.35719C5.96908 6.33547 6.03032 6.33547 6.08555 6.35719L8.23058 7.19948L8.6244 6.4646L6.28186 5.24959L6.28246 5.25018Z" fill="#23F7DD"/>
</g>
</svg>
