<svg xmlns="http://www.w3.org/2000/svg" width="40" height="40" fill="none" viewBox="0 0 40 40">
  <rect width="40" height="40" fill="#23F7DD" rx="16"/>
  <path fill="#000" stroke="#000" stroke-width=".031" d="M26.05 16.39c.002-.164-.103-.332-.32-.441h-.002l-5.722-2.411.003-.006-.015.006-5.75 2.41-.002.001c-.19.11-.292.278-.292.441.014 2.879 1.208 7.845 5.867 10.077a.43.43 0 0 0 .369 0c4.659-2.232 5.85-7.198 5.863-10.076Zm0 0h-.017.016Zm-5.636-4.284 5.918 2.51c.686.292 1.2.968 1.194 1.756-.015 3.143-1.294 8.839-6.703 11.428a1.925 1.925 0 0 1-1.646 0c-5.407-2.59-6.688-8.285-6.704-11.428-.004-.788.509-1.464 1.194-1.755l5.92-2.51.001-.001a.983.983 0 0 1 .826 0Z"/>
  <path fill="#000" d="m20.377 19 3.123-1.62-.525-.98-2.86 1.123a.312.312 0 0 1-.23 0l-2.86-1.123-.525.98L19.623 19 16.5 20.62l.525.98 2.86-1.124a.313.313 0 0 1 .23 0l2.86 1.123.524-.98L20.376 19V19Z"/>
</svg>
