<svg xmlns="http://www.w3.org/2000/svg" width="13" height="12" fill="none" viewBox="0 0 13 12">
  <path fill="#fff" d="m7.293 1.64-2.99 2.99a.983.983 0 0 1-.693.288.944.944 0 0 1-.948-.953.965.965 0 0 1 .287-.685L5.94.287A.982.982 0 0 1 6.623 0h.012a.94.94 0 0 1 .673.275.968.968 0 0 1-.014 1.365ZM11.74 6.087l-2.99 2.99a.979.979 0 0 1-.692.288.946.946 0 0 1-.95-.96.972.972 0 0 1 .287-.68l2.99-2.99a.974.974 0 0 1 .683-.29.94.94 0 0 1 .682.275l.002.002a.966.966 0 0 1-.011 1.365ZM10.135 4.327c-.028.024-.056.05-.082.075L7.06 7.392c-.024.027-.047.05-.07.078L4.553 5.035c.028-.023.054-.047.08-.073l2.99-2.99c.026-.026.052-.052.076-.08l2.435 2.435ZM6 7.147a53.421 53.421 0 0 1-4.752 4.682.736.736 0 0 1-.47.17c-.013 0-.024 0-.036-.003a.749.749 0 0 1-.492-.219.737.737 0 0 1-.052-.997 46.925 46.925 0 0 1 2.52-2.706 49.067 49.067 0 0 1 2.163-2.047L6 7.147Z"/>
</svg>
