<svg xmlns="http://www.w3.org/2000/svg" width="16" height="17" fill="none" viewBox="0 0 16 17">
  <path fill="currentColor" d="M6.57 1.015c.583.097.978.649.88 1.231l-.327 1.968h3.184l.385-2.32a1.072 1.072 0 0 1 2.113.352l-.325 1.968h1.949a1.07 1.07 0 1 1 0 2.142h-2.307l-.713 4.284h1.948a1.07 1.07 0 1 1 0 2.142H11.05l-.385 2.32a1.072 1.072 0 0 1-2.113-.352l.329-1.964H5.693l-.385 2.32a1.072 1.072 0 0 1-2.113-.352l.325-1.972H1.571a1.07 1.07 0 1 1 0-2.142h2.307l.714-4.284h-1.95a1.07 1.07 0 1 1 0-2.142H4.95l.385-2.32c.097-.581.65-.976 1.232-.88h.003Zm.195 5.341L6.05 10.64h3.184l.714-4.284H6.765Z"/>
</svg>
