<svg xmlns="http://www.w3.org/2000/svg" width="21" height="20" fill="none" viewBox="0 0 21 20">
  <g clip-path="url(#a)">
    <path fill="currentColor" fill-rule="evenodd" d="M18.32 13.93a8.923 8.923 0 0 0 .958-4.047v-.532A9.03 9.03 0 0 0 10.759.833h-.532a8.923 8.923 0 0 0-4.046.958 9.05 9.05 0 0 0-5.005 8.092 8.923 8.923 0 0 0 .958 4.047L.111 20l6.07-2.024a8.923 8.923 0 0 0 4.046.958 9.052 9.052 0 0 0 8.092-5.004Zm-7.993-7.244a1.667 1.667 0 0 0-1.854 1.09.833.833 0 0 1-1.573-.554 3.333 3.333 0 0 1 6.478 1.11c0 1.276-.946 2.118-1.62 2.569a6.71 6.71 0 0 1-1.406.707l-.029.01-.009.003-.003.001h-.002l-.264-.79.263.79a.833.833 0 0 1-.527-1.58l.013-.005.062-.023a5.042 5.042 0 0 0 .977-.5c.574-.383.879-.79.879-1.182v-.001a1.667 1.667 0 0 0-1.385-1.645Zm-.216 6.646a.833.833 0 1 0 0 1.667h.008a.833.833 0 0 0 0-1.667h-.008Z" clip-rule="evenodd"/>
  </g>
  <defs>
    <clipPath id="a">
      <path fill="currentColor" d="M.111 0h20v20h-20z"/>
    </clipPath>
  </defs>
</svg>
