<svg width="18" height="18" viewBox="0 0 18 18" fill="none" xmlns="http://www.w3.org/2000/svg">
<g clip-path="url(#clip0_12799_121465)">
<path d="M15.75 0H2.25C1.01074 0 0 1.01074 0 2.21836V12.3117C0 13.6125 1.01074 14.5934 2.25 14.5934H5.625V17.5148C5.625 17.8606 6.01242 18.0598 6.29719 17.8541L10.6875 14.5934H15.75C16.9893 14.5934 18 13.5826 18 12.375V2.21836C18 1.01074 16.991 0 15.75 0ZM16.3125 12.375C16.3125 12.6826 16.0576 12.9375 15.75 12.9375H10.125L7.3125 15.0469V12.9375H2.25C1.94238 12.9375 1.6875 12.6826 1.6875 12.375V2.25C1.6875 1.94238 1.94238 1.6875 2.25 1.6875H15.75C16.0576 1.6875 16.3125 1.94238 16.3125 2.25V12.375ZM8.75742 9.42188C8.27578 9.42188 7.875 9.82266 7.875 10.3359C7.875 10.8492 8.27578 11.25 8.75742 11.25C9.30234 11.25 9.70312 10.8492 9.70312 10.3359C9.70312 9.82266 9.30234 9.42188 8.75742 9.42188ZM9.76289 3.375H8.23711C7.09453 3.375 6.1875 4.275 6.1875 5.40703C6.1875 5.78461 6.50974 6.10418 6.89062 6.10418C7.27151 6.10418 7.59375 5.78672 7.59375 5.40703C7.59375 5.05849 7.88674 4.76824 8.23816 4.76824H9.76148C10.113 4.76824 10.4059 5.05863 10.4059 5.40703C10.4059 5.63931 10.2887 5.84262 10.0837 5.95898L8.41289 6.94688C8.17847 7.09211 8.06133 7.32445 8.06133 7.55684V8.0216C8.06133 8.39918 8.38357 8.71875 8.76445 8.71875C9.1452 8.71875 9.46758 8.39925 9.46758 8.0216V7.96289L10.8151 7.14973C11.4328 6.77461 11.8125 6.10664 11.8125 5.40703C11.8125 4.275 10.9055 3.375 9.76289 3.375Z" fill="currentColor"/>
</g>
<defs>
<clipPath id="clip0_12799_121465">
<rect width="18" height="18" fill="currentColor"/>
</clipPath>
</defs>
</svg>
