<svg xmlns="http://www.w3.org/2000/svg" width="16" height="16" fill="none" viewBox="0 0 16 16">
  <path fill="#8293AA" d="M9.034 4H7.41C6.22 4 5.25 4.969 5.25 6.188c0 .406.344.75.75.75a.76.76 0 0 0 .75-.75c0-.375.284-.688.66-.688h1.624c.375 0 .716.313.716.688a.67.67 0 0 1-.344.593L7.625 7.844a.77.77 0 0 0-.375.656V9c0 .406.344.75.75.75A.76.76 0 0 0 8.75 9v-.063l1.41-.874a2.194 2.194 0 0 0 1.09-1.876C11.25 4.97 10.281 4 9.034 4ZM8 10.5c-.563 0-1 .438-1 1 0 .563.41 1 1 1 .534 0 1-.438 1-1 0-.563-.466-1-1-1ZM13 1H3a2 2 0 0 0-2 2v10a2 2 0 0 0 2 2h10a2 2 0 0 0 2-2V3a2 2 0 0 0-2-2Zm.5 12a.5.5 0 0 1-.5.5H3a.5.5 0 0 1-.5-.5V3a.5.5 0 0 1 .5-.5h10a.5.5 0 0 1 .5.5v10Z"/>
</svg>
