<svg xmlns="http://www.w3.org/2000/svg" width="20" height="20" fill="none" viewBox="0 0 20 20">
  <g clip-path="url(#a)">
    <path fill="currentColor" fill-rule="evenodd" d="M18.208 13.93a8.923 8.923 0 0 0 .959-4.047v-.532A9.03 9.03 0 0 0 10.648.833h-.532a8.923 8.923 0 0 0-4.047.958 9.051 9.051 0 0 0-5.004 8.092 8.923 8.923 0 0 0 .958 4.047L0 20l6.07-2.024a8.923 8.923 0 0 0 4.046.958 9.051 9.051 0 0 0 8.092-5.004Zm-7.992-7.244a1.667 1.667 0 0 0-1.854 1.09.833.833 0 0 1-1.573-.554 3.333 3.333 0 0 1 6.478 1.11c0 1.276-.946 2.118-1.62 2.569a6.7 6.7 0 0 1-1.406.707l-.029.01-.01.003-.002.001h-.002l-.264-.79.263.79a.833.833 0 0 1-.528-1.58l.014-.005.062-.023a5.043 5.043 0 0 0 .977-.5c.574-.383.878-.79.878-1.182v-.001a1.666 1.666 0 0 0-1.384-1.645ZM10 13.332A.833.833 0 0 0 10 15h.008a.833.833 0 1 0 0-1.667H10Z" clip-rule="evenodd"/>
  </g>
  <defs>
    <clipPath id="a">
      <path fill="currentColor" d="M0 0h20v20H0z"/>
    </clipPath>
  </defs>
</svg>
