<svg width="40" height="40" viewBox="0 0 40 40" fill="none" xmlns="http://www.w3.org/2000/svg">
<rect width="40" height="40" rx="16" fill="#19CCC1"/>
<g clip-path="url(#clip0_3780_270473)">
<path d="M20.2891 10.6298C17.7422 10.5493 15.3203 11.4899 13.4887 13.2684C11.6418 15.0587 10.625 17.4688 10.625 20.047C10.625 24.6798 14.0582 28.6837 18.6133 29.3634C18.6602 29.3712 18.7031 29.3751 18.75 29.3751C19.2066 29.3751 19.6062 29.0412 19.6758 28.5763C19.7521 28.0641 19.3993 27.5868 18.8871 27.5106C15.2461 26.9649 12.5 23.7579 12.5 20.047C12.5 17.979 13.3148 16.0509 14.7941 14.6134C16.2602 13.1911 18.1633 12.4325 20.2316 12.5028C24.2383 12.6251 27.5 16.168 27.5 20.4024V21.1466C27.5 22.1016 26.7293 22.8794 25.7812 22.8794C24.8332 22.8794 24.0625 22.1016 24.0625 21.1446V16.5899C24.0625 16.0723 23.6426 15.6876 23.125 15.6876C22.6594 15.6876 22.2898 16.0335 22.2172 16.4786C21.5 15.9337 20.6328 15.6251 19.6875 15.6251C17.2754 15.6251 15.3125 17.588 15.3125 19.9649C15.3125 22.3419 17.2754 24.3048 19.6875 24.3048C20.8887 24.3048 21.9773 23.8173 22.7688 23.0305C23.4098 24.0227 24.5176 24.6837 25.7812 24.6837C27.7629 24.6837 29.375 23.0649 29.375 21.0759V20.4024C29.375 15.1641 25.2969 10.7462 20.2891 10.6298ZM19.6875 22.5001C18.3086 22.5001 17.1875 21.379 17.1875 20.0352C17.1875 18.6567 18.3086 17.5704 19.6875 17.5704C21.0664 17.5704 22.1875 18.6915 22.1875 20.0352C22.1875 21.379 21.0664 22.5001 19.6875 22.5001Z" fill="white"/>
</g>
<defs>
<clipPath id="clip0_3780_270473">
<rect width="20" height="20" fill="white" transform="translate(10 10)"/>
</clipPath>
</defs>
</svg>
