<svg width="20" height="21" viewBox="0 0 20 21" fill="none" xmlns="http://www.w3.org/2000/svg">
<path d="M2.28906 3.66406L5.35156 6.04297C6.58203 5.11328 8.11328 4.375 10 4.375C12.1875 4.375 13.9648 5.38672 15.25 6.58984C16.5352 7.76562 17.3828 9.1875 17.793 10.1719C17.875 10.3906 17.875 10.6367 17.793 10.8555C17.4375 11.7305 16.6992 12.9883 15.6055 14.082L18.4766 16.3516C18.7773 16.5703 18.832 16.9805 18.5859 17.2539C18.3672 17.5547 17.957 17.6094 17.6836 17.3633L1.49609 4.67578C1.19531 4.45703 1.14062 4.04688 1.38672 3.77344C1.60547 3.47266 2.01562 3.41797 2.28906 3.66406ZM6.41797 6.89062L7.67578 7.875C8.30469 7.32812 9.09766 7 10 7C11.9141 7 13.5 8.58594 13.5 10.5C13.5 11.1016 13.3633 11.6484 13.0898 12.1133L14.5664 13.2617C15.5234 12.332 16.1797 11.2656 16.5078 10.5C16.1523 9.67969 15.4141 8.53125 14.3477 7.54688C13.2266 6.50781 11.7773 5.6875 10 5.6875C8.60547 5.6875 7.42969 6.17969 6.41797 6.89062ZM12.0234 11.293C12.1328 11.0469 12.1875 10.7734 12.1875 10.5C12.1875 9.29688 11.2031 8.3125 10 8.3125C9.97266 8.3125 9.94531 8.3125 9.94531 8.3125C9.97266 8.47656 10 8.61328 10 8.75C10 9.05078 9.91797 9.29688 9.80859 9.54297L12.0234 11.293ZM13.4453 15.75C12.4336 16.2969 11.2852 16.625 10 16.625C7.78516 16.625 6.00781 15.6406 4.72266 14.4375C3.4375 13.2344 2.58984 11.8125 2.17969 10.8555C2.09766 10.6367 2.09766 10.3906 2.17969 10.1719C2.45312 9.54297 2.89062 8.75 3.51953 7.92969L4.53125 8.75C4.03906 9.37891 3.68359 10.0078 3.46484 10.5C3.84766 11.3203 4.55859 12.4961 5.625 13.4805C6.74609 14.5195 8.19531 15.3125 10 15.3125C10.8203 15.3125 11.5859 15.1484 12.2969 14.8477L13.4453 15.75ZM11.0391 13.8633C10.7109 13.9453 10.3555 14 9.97266 14C8.05859 14 6.47266 12.4414 6.47266 10.5C6.47266 10.4453 6.5 10.3633 6.5 10.2812L8.03125 11.4844C8.30469 12.0586 8.85156 12.4961 9.50781 12.6328L11.0391 13.8633Z" fill="#ADBFCC"/>
</svg>
