<svg xmlns="http://www.w3.org/2000/svg" width="10" height="16" fill="none" viewBox="0 0 10 16">
  <path fill="#fff" fill-rule="evenodd" d="M7.5.94c.812 0 1.482.624 1.554 1.418l.006.141V4c0 .664-.348 1.473-.83 1.96l-.124.116-1.979 1.618-.312.267 2.29 1.964c.504.431.891 1.222.948 1.907l.007.168v1.5c0 .813-.624 1.482-1.418 1.554l-.142.006h-5a1.562 1.562 0 0 1-1.554-1.418L.94 13.5V12c0-.663.348-1.472.831-1.96l.124-.115 2.008-1.642.283-.243-2.291-1.964c-.504-.431-.891-1.222-.948-1.907L.94 4V2.5c0-.812.624-1.481 1.418-1.553L2.5.939h5ZM6.07 8.258l-.294-.265L5.769 8l.302.259Zm-2.067-.455L4.232 8l-.005.004-.224-.2ZM5 8.738l-2.377 2.037c-.26.223-.502.713-.553 1.09L2.06 12v1.5c0 .216.156.396.361.433l.08.007h5a.442.442 0 0 0 .432-.36l.007-.08V12c0-.343-.214-.846-.467-1.13l-.096-.095L5 8.738Zm2.5-6.68h-5a.44.44 0 0 0-.433.362l-.007.079v1.5c0 .342.214.846.467 1.13l.096.096 2.338 2.07 2.416-2.071c.26-.223.503-.713.553-1.09l.01-.135v-1.5a.44.44 0 0 0-.44-.44Z" clip-rule="evenodd"/>
  <path fill="#fff" d="m4.646 10.353-1.293 1.293A1.39 1.39 0 0 0 3 12.5v.5h4v-.5c0-.275-.159-.659-.354-.854l-1.293-1.293a.501.501 0 0 0-.707.001Z"/>
</svg>
