<svg width="16" height="16" viewBox="0 0 16 16" fill="none" xmlns="http://www.w3.org/2000/svg">
<path d="M8 16C12.4183 16 16 12.4183 16 8C16 3.58172 12.4183 0 8 0C3.58172 0 0 3.58172 0 8C0 12.4183 3.58172 16 8 16Z" fill="#23F7DD"/>
<path d="M6.85418 10.711C6.99307 10.8507 7.22918 10.8507 7.36807 10.711L11.4514 6.60633C11.5903 6.46672 11.5903 6.22937 11.4514 6.08975L10.9514 5.58713C10.8125 5.44752 10.5903 5.44752 10.4514 5.58713L7.11807 8.93792L5.54862 7.37422C5.40974 7.2346 5.18751 7.2346 5.04862 7.37422L4.54862 7.87684C4.40974 8.01645 4.40974 8.2538 4.54862 8.39342L6.85418 10.711Z" fill="black"/>
</svg>
