<svg width="16" height="16" viewBox="0 0 16 16" fill="none" xmlns="http://www.w3.org/2000/svg">
<path d="M7.36678 2.35362L7.52941 1.94955L7.69204 2.35362L7.77688 2.56439L7.99144 2.63911L8.31058 2.75025L7.99144 2.8614L7.77689 2.93611L7.69205 3.14687L7.52941 3.55089L7.36677 3.14687L7.28111 2.93408L7.06395 2.86021L6.74066 2.75025L7.06395 2.64029L7.28113 2.56642L7.36678 2.35362ZM14.2267 1.75026L14.2273 1.75077L15.2444 2.696C15.2445 2.6961 15.2447 2.69621 15.2448 2.69631C15.5824 3.01122 15.582 3.50603 15.2446 3.82002L4.02718 14.2503C3.66938 14.583 3.07172 14.5836 2.71211 14.2502C2.71202 14.2501 2.71193 14.25 2.71185 14.2499L1.69528 13.3041L1.69469 13.3036C1.35725 12.9907 1.35568 12.4963 1.69533 12.1793C1.69544 12.1792 1.69555 12.1791 1.69566 12.179L12.9105 1.75116C12.9106 1.7511 12.9107 1.75103 12.9107 1.75097C13.2725 1.41582 13.8693 1.41713 14.2267 1.75026ZM13.9157 1.95093L13.575 1.62583L13.2301 1.94652L10.0036 4.94657L9.61041 5.31221L10.0031 5.67841L11.0178 6.62465L11.3596 6.94337L11.7007 6.62386L14.9036 3.62327L15.2896 3.2617L14.9069 2.89662L13.9157 1.95093ZM3.03495 14.0354L3.37447 14.3428L3.71044 14.0315L10.7016 7.5528L11.0973 7.18615L10.7017 6.8194L9.68406 5.8759L9.34363 5.56027L9.00365 5.87639L2.01247 12.377L1.61345 12.748L2.01731 13.1137L3.03495 14.0354ZM2.04704 4.09748L2.26122 4.02277L2.34607 3.81239L2.82342 2.62871L3.30102 3.81246L3.38588 4.02277L3.6 4.09747L4.75519 4.50051L3.6 4.90355L3.38589 4.97825L3.30104 5.18853L2.82342 6.3721L2.34605 5.18861L2.26121 4.97825L2.04704 4.90354L0.891681 4.50051L2.04704 4.09748ZM2.9693 2.26697C2.96928 2.26701 2.96926 2.26706 2.96924 2.26711L2.9693 2.26697ZM12.4 11.9046L11.2448 11.5015L12.4 11.0985L12.6141 11.0238L12.699 10.8135L13.1765 9.63023L13.654 10.8135L13.7388 11.0238L13.9529 11.0985L15.1081 11.5015L13.9529 11.9046L13.7388 11.9793L13.654 12.1896L13.1765 13.3729L12.699 12.1896L12.6141 11.9793L12.4 11.9046Z" fill="black" stroke="#23F7DD"/>
</svg>
