<svg width="16" height="16" viewBox="0 0 16 16" fill="none" xmlns="http://www.w3.org/2000/svg">
<path d="M8 16C12.4183 16 16 12.4183 16 8C16 3.58172 12.4183 0 8 0C3.58172 0 0 3.58172 0 8C0 12.4183 3.58172 16 8 16Z" fill="#D83E3E"/>
<path fill-rule="evenodd" clip-rule="evenodd" d="M10.8285 5.17185C10.6333 4.97659 10.3167 4.97659 10.1214 5.17185L7.99953 7.29375L5.87853 5.17275C5.68327 4.97749 5.36669 4.97749 5.17142 5.17275C4.97616 5.36801 4.97616 5.6846 5.17142 5.87986L7.29242 8.00085L5.17167 10.1216C4.97641 10.3169 4.97641 10.6334 5.17167 10.8287C5.36694 11.024 5.68352 11.024 5.87878 10.8287L7.99953 8.70796L10.1212 10.8296C10.3164 11.0249 10.633 11.0249 10.8283 10.8296C11.0235 10.6343 11.0235 10.3178 10.8283 10.1225L8.70663 8.00085L10.8285 5.87896C11.0238 5.6837 11.0238 5.36711 10.8285 5.17185Z" fill="black"/>
</svg>
