<svg width="16" height="16" viewBox="0 0 16 16" fill="none" xmlns="http://www.w3.org/2000/svg">
<g clip-path="url(#clip0_27241_21519)">
<path d="M13.5984 5.80844L14.9293 3.16844C15.0329 2.96587 15.0218 2.71927 14.9012 2.52551C14.7791 2.32954 14.5674 2.21284 14.3342 2.21284H9.34441V1.3945C9.34441 1.03046 9.04537 0.733945 8.67822 0.733945H3.81355V0.660551C3.81355 0.296514 3.5145 0 3.14736 0C2.78021 0 2.48116 0.296514 2.48116 0.660551V14.6789H1.66619C1.29905 14.6789 1 14.9754 1 15.3395C1 15.7035 1.29905 16 1.66619 16H4.62704C4.99419 16 5.29323 15.7035 5.29323 15.3395C5.29323 14.9754 4.99419 14.6789 4.62704 14.6789H3.81281V7.92661H8.01129V8.74789C8.01129 9.11046 8.30812 9.40477 8.67378 9.40477H14.3342C14.5666 9.40477 14.7791 9.28734 14.9012 9.09138C15.0218 8.89762 15.0329 8.65101 14.9293 8.44918L13.5984 5.80844ZM12.2579 6.10422L13.2557 8.08367H9.34441V7.15303C9.34441 6.85064 9.09718 6.60551 8.79221 6.60551H3.81355V2.05505H8.01203V2.98716C8.01203 3.28881 8.25852 3.53321 8.56275 3.53321H13.2557L12.2579 5.51266C12.1639 5.69908 12.1639 5.9178 12.2579 6.10422Z" fill="currentColor"/>
</g>
<defs>
<clipPath id="clip0_27241_21519">
<rect width="16" height="16" fill="white"/>
</clipPath>
</defs>
</svg>
