<svg xmlns="http://www.w3.org/2000/svg" width="16" height="13" fill="none" viewBox="0 0 16 13">
  <path fill="#ADBFCC" d="M5.778 6.222a1.778 1.778 0 1 0 0-3.555 1.778 1.778 0 0 0 0 3.555Zm7.11-.666h-2.666a.667.667 0 0 0 0 1.333h2.667a.667.667 0 0 0 0-1.333ZM6.668 7.11H4.889a2.222 2.222 0 0 0-2.222 2.222c0 .245.2.445.444.445h5.333a.444.444 0 0 0 .445-.445 2.222 2.222 0 0 0-2.222-2.222Zm6.222-3.778h-2.667a.667.667 0 0 0 0 1.334h2.667a.667.667 0 0 0 0-1.334ZM14.222 0H1.778C.796 0 0 .796 0 1.778v8.889c0 .982.796 1.777 1.778 1.777h12.444c.982 0 1.778-.795 1.778-1.777v-8.89C16 .797 15.203 0 14.222 0Zm.445 10.667c0 .245-.2.444-.445.444H1.778a.445.445 0 0 1-.445-.444v-8.89c0-.244.2-.444.445-.444h12.444c.245 0 .445.2.445.445v8.889Z"/>
</svg>
