<svg xmlns="http://www.w3.org/2000/svg" width="32" height="26" viewBox="0 0 32 26" fill="none">
  <g clip-path="url(#clip0_27200_34)">
  <path fill-rule="evenodd" clip-rule="evenodd" d="M6 8C8.2125 8 10 6.2125 10 4C10 1.7875 8.2125 0 6 0C3.7875 0 2 1.7875 2 4C2 6.2125 3.7875 8 6 8ZM17.9966 8.05885C18.4466 7.39583 19.1966 7 19.9965 7C20.7965 7 21.5464 7.39583 21.9964 8.05885L31.5958 22.3089C32.0858 23.0312 32.1358 23.9714 31.7158 24.7432C31.2958 25.5151 30.4859 26 29.5959 26H15.1968H10.3971H2.39761C1.47767 26 0.637724 25.4755 0.237749 24.6542C-0.162226 23.8328 -0.0522328 22.8531 0.527731 22.1406L6.92733 14.224C7.37731 13.6599 8.07726 13.3333 8.79722 13.3333C9.51717 13.3333 10.2071 13.6599 10.6671 14.224L12.397 16.3714L17.9966 8.05885Z" fill="#1F1F1F"/>
  </g>
  <defs>
  <clipPath id="clip0_27200_34">
  <rect width="32" height="26" fill="white"/>
  </clipPath>
  </defs>
</svg>