<svg width="16" height="16" viewBox="0 0 16 16" fill="none" xmlns="http://www.w3.org/2000/svg">
<path d="M14.5 2H1.5C0.65625 2 0 2.6875 0 3.5V12.5C0 13.3438 0.65625 14 1.5 14H14.5C15.3125 14 16 13.3438 16 12.5V3.5C16 2.6875 15.3125 2 14.5 2ZM14.3125 12.5H1.6875C1.5625 12.5 1.5 12.4375 1.5 12.3125V3.6875C1.5 3.59375 1.5625 3.5 1.6875 3.5H14.3125C14.4062 3.5 14.5 3.59375 14.5 3.6875V12.3125C14.5 12.4375 14.4062 12.5 14.3125 12.5ZM4 4.75C3.28125 4.75 2.75 5.3125 2.75 6C2.75 6.71875 3.28125 7.25 4 7.25C4.6875 7.25 5.25 6.71875 5.25 6C5.25 5.3125 4.6875 4.75 4 4.75ZM3 11H13V8.5L10.25 5.78125C10.0938 5.625 9.875 5.625 9.71875 5.78125L6 9.5L4.75 8.28125C4.59375 8.125 4.375 8.125 4.21875 8.28125L3 9.5V11Z" fill="#ADBFCC"/>
</svg>
