<svg width="15" height="15" viewBox="0 0 15 15" fill="currentColor" xmlns="http://www.w3.org/2000/svg">
    <path d="M7.6665 1.8125C5.61572 1.8125 3.75635 2.90625 2.71729 4.65625C1.70557 6.43359 1.70557 8.59375 2.71729 10.3438C3.75635 12.1211 5.61572 13.1875 7.6665 13.1875C9.68994 13.1875 11.5493 12.1211 12.5884 10.3438C13.6001 8.59375 13.6001 6.43359 12.5884 4.65625C11.5493 2.90625 9.68994 1.8125 7.6665 1.8125ZM7.6665 14.5C5.15088 14.5 2.854 13.1875 1.59619 11C0.338379 8.83984 0.338379 6.1875 1.59619 4C2.854 1.83984 5.15088 0.5 7.6665 0.5C10.1548 0.5 12.4517 1.83984 13.7095 4C14.9673 6.1875 14.9673 8.83984 13.7095 11C12.4517 13.1875 10.1548 14.5 7.6665 14.5ZM6.57275 9.6875H7.229V7.9375H6.57275C6.18994 7.9375 5.9165 7.66406 5.9165 7.28125C5.9165 6.92578 6.18994 6.625 6.57275 6.625H7.88525C8.24072 6.625 8.5415 6.92578 8.5415 7.28125V9.6875H8.76025C9.11572 9.6875 9.4165 9.98828 9.4165 10.3438C9.4165 10.7266 9.11572 11 8.76025 11H6.57275C6.18994 11 5.9165 10.7266 5.9165 10.3438C5.9165 9.98828 6.18994 9.6875 6.57275 9.6875ZM7.6665 5.75C7.17432 5.75 6.7915 5.36719 6.7915 4.875C6.7915 4.41016 7.17432 4 7.6665 4C8.13135 4 8.5415 4.41016 8.5415 4.875C8.5415 5.36719 8.13135 5.75 7.6665 5.75Z"
          fill="currentColor"/>
</svg>
