<svg width="16" height="16" viewBox="0 0 16 16" fill="none" xmlns="http://www.w3.org/2000/svg">
<path d="M8 2.3125C5.94922 2.3125 4.08984 3.40625 3.05078 5.15625C2.03906 6.93359 2.03906 9.09375 3.05078 10.8438C4.08984 12.6211 5.94922 13.6875 8 13.6875C10.0234 13.6875 11.8828 12.6211 12.9219 10.8438C13.9336 9.09375 13.9336 6.93359 12.9219 5.15625C11.8828 3.40625 10.0234 2.3125 8 2.3125ZM8 15C5.48438 15 3.1875 13.6875 1.92969 11.5C0.671875 9.33984 0.671875 6.6875 1.92969 4.5C3.1875 2.33984 5.48438 1 8 1C10.4883 1 12.7852 2.33984 14.043 4.5C15.3008 6.6875 15.3008 9.33984 14.043 11.5C12.7852 13.6875 10.4883 15 8 15ZM6.90625 10.1875H7.5625V8.4375H6.90625C6.52344 8.4375 6.25 8.16406 6.25 7.78125C6.25 7.42578 6.52344 7.125 6.90625 7.125H8.21875C8.57422 7.125 8.875 7.42578 8.875 7.78125V10.1875H9.09375C9.44922 10.1875 9.75 10.4883 9.75 10.8438C9.75 11.2266 9.44922 11.5 9.09375 11.5H6.90625C6.52344 11.5 6.25 11.2266 6.25 10.8438C6.25 10.4883 6.52344 10.1875 6.90625 10.1875ZM8 6.25C7.50781 6.25 7.125 5.86719 7.125 5.375C7.125 4.91016 7.50781 4.5 8 4.5C8.46484 4.5 8.875 4.91016 8.875 5.375C8.875 5.86719 8.46484 6.25 8 6.25Z" fill="#ADBFCC"/>
</svg>
