<svg width="16" height="16" viewBox="0 0 16 16" fill="none" xmlns="http://www.w3.org/2000/svg">
<path d="M7.99891 16C6.41671 15.9998 4.8701 15.5304 3.55465 14.6512C2.2392 13.772 1.21399 12.5225 0.608654 11.0607C0.00332052 9.59889 -0.154951 7.99039 0.153854 6.43861C0.462659 4.88684 1.22467 3.46147 2.34353 2.34276C3.4624 1.22405 4.88786 0.462235 6.43968 0.153642C7.9915 -0.154952 9.59998 0.0035386 11.0617 0.609072C12.5235 1.2146 13.7728 2.23998 14.6518 3.55555C15.5308 4.87112 16 6.4178 16 8C15.998 10.1213 15.1543 12.1551 13.6542 13.655C12.1541 15.1549 10.1202 15.9983 7.99891 16Z" fill="white"/>
<path fill-rule="evenodd" clip-rule="evenodd" d="M8.72878 5.81751C8.72878 6.21939 8.40299 6.54518 8.00111 6.54518C7.59923 6.54518 7.27344 6.21939 7.27344 5.81751C7.27344 5.41563 7.59923 5.08984 8.00111 5.08984C8.40299 5.08984 8.72878 5.41563 8.72878 5.81751ZM8.43547 7.50571C8.31482 7.40014 8.15962 7.34251 7.9993 7.34377C7.8257 7.34377 7.6592 7.41273 7.53645 7.53549C7.41369 7.65825 7.34473 7.82474 7.34473 7.99835V10.5446V10.6265C7.35572 10.8001 7.43523 10.9622 7.56576 11.0772C7.69629 11.1922 7.86715 11.2506 8.04076 11.2396C8.21436 11.2286 8.37649 11.1491 8.49147 11.0185C8.60645 10.888 8.66487 10.7172 8.65388 10.5436V7.99835V7.91652C8.63384 7.75746 8.55613 7.61128 8.43547 7.50571Z" fill="black"/>
</svg>
