<svg xmlns="http://www.w3.org/2000/svg" width="16" height="16" fill="none" viewBox="0 0 16 16">
  <path fill="#D83E3E" d="M5.469 5.469c.293-.29.768-.29 1.034 0L7.972 6.94l1.497-1.472c.293-.29.769-.29 1.034 0 .319.293.319.768 0 1.034L9.06 7.972l1.444 1.497c.319.293.319.769 0 1.034-.265.319-.74.319-1.034 0L7.972 9.06l-1.469 1.444c-.266.319-.74.319-1.034 0-.29-.265-.29-.74 0-1.034L6.94 7.972 5.469 6.503c-.29-.266-.29-.74 0-1.034ZM16 8a8 8 0 0 1-8 8 8 8 0 0 1-8-8 8 8 0 0 1 8-8 8 8 0 0 1 8 8ZM8 1.5C4.41 1.5 1.5 4.41 1.5 8s2.91 6.5 6.5 6.5 6.5-2.91 6.5-6.5S11.59 1.5 8 1.5Z"/>
</svg>
