<svg xmlns="http://www.w3.org/2000/svg" width="18" height="16" fill="none" viewBox="0 0 18 16">
    <path fill="currentColor" fill-rule="evenodd"
          d="M7.5 3.375c-.622 0-1.125.503-1.125 1.125V7c0 .621.504 1.125 1.125 1.125h6c.621 0 1.125-.504 1.125-1.125V4.5c0-.622-.503-1.125-1.125-1.125h-6Zm.125 3.5v-2.25h5.75v2.25h-5.75Z"
          clip-rule="evenodd"/>
    <path fill="currentColor"
          d="M7 9.375a.626.626 0 0 0 0 1.25h2.5a.625.625 0 1 0 0-1.25H7ZM11.5 9.375a.626.626 0 0 0 0 1.25H14a.625.625 0 1 0 0-1.25h-2.5ZM7 11.375a.626.626 0 0 0 0 1.25h2.5a.625.625 0 1 0 0-1.25H7ZM11.5 11.375a.625.625 0 1 0 0 1.25H14a.625.625 0 1 0 0-1.25h-2.5Z"/>
    <path fill="currentColor" fill-rule="evenodd"
          d="M5.5.875c-.897 0-1.625.729-1.625 1.625V13a.876.876 0 0 1-1.75 0V3.5a.626.626 0 0 0-1.25 0V13c0 1.171.953 2.125 2.125 2.125h11.5a2.628 2.628 0 0 0 2.625-2.625v-10c0-.896-.728-1.625-1.625-1.625h-10ZM5.125 2.5c0-.206.169-.375.375-.375h10c.206 0 .375.169.375.375v10c0 .758-.617 1.375-1.375 1.375H4.937c.121-.267.188-.563.188-.875V2.5Z"
          clip-rule="evenodd"/>
</svg>
