<svg width="26" height="26" viewBox="0 0 26 26" fill="none" xmlns="http://www.w3.org/2000/svg">
<path d="M12.9968 24.7705C20.7548 21.058 23.7774 12.606 23.7999 8.10151C23.8089 6.96301 23.0664 5.98741 22.0764 5.56756L18.9715 4.23089L16.0438 2.99108C15.8548 2.90536 13.2345 1.40001 13.023 1.40002C12.816 1.40001 10.1702 2.87257 9.93803 2.99108L7.01554 4.23089L3.92348 5.56756C2.93438 5.98741 2.19414 6.96301 2.19999 8.10151C2.22204 12.606 5.24289 21.058 12.9968 24.7705ZM12.9968 24.7705C12.2498 25.126 13.7483 25.126 12.9968 24.7705Z" stroke="white" stroke-width="2" stroke-linecap="round" stroke-dasharray="0.05 2.99"/>
<g clip-path="url(#clip0_14636_207471)">
<path d="M13.6025 11.4006L18.5999 8.78315L17.7597 7.20001L13.1837 9.01455C13.0659 9.06134 12.9352 9.06134 12.8174 9.01455L8.24006 7.20001L7.3999 8.78315L12.3973 11.4006L7.3999 14.0169L8.24006 15.6L12.8161 13.7855C12.9339 13.7387 13.0646 13.7387 13.1824 13.7855L17.7585 15.6L18.5986 14.0169L13.6012 11.3994L13.6025 11.4006Z" fill="white"/>
</g>
<defs>
<clipPath id="clip0_14636_207471">
<rect width="11.2" height="11.2" fill="white" transform="translate(7.3999 5.79999)"/>
</clipPath>
</defs>
</svg>
