<svg width="14" height="16" viewBox="0 0 14 16" fill="none" xmlns="http://www.w3.org/2000/svg">
<path d="M6.89375 8.16875L3.80938 11.25L5.25313 12.7188C5.57188 13.0125 5.57188 13.4875 5.25313 13.7531C4.9875 14.0719 4.5125 14.0719 4.21875 13.7531L2.75 12.3094L1.81062 13.25L3.25312 14.7188C3.57187 15.0125 3.57187 15.4875 3.25312 15.7531C2.9875 16.0719 2.5125 16.0719 2.21969 15.7531L0.219656 13.7531C-0.0732187 13.4875 -0.0732187 13.0125 0.219656 12.7188L5.83125 7.10625C5.30938 6.37187 5 5.47188 5 4.5C5 2.01469 7.01562 0 9.5 0C11.9844 0 14 2.01469 14 4.5C14 6.98438 11.9844 9 9.5 9C8.52812 9 7.62813 8.69063 6.89375 8.16875ZM9.5 7.5C11.1562 7.5 12.5 6.15625 12.5 4.5C12.5 2.84312 11.1562 1.5 9.5 1.5C7.81563 1.5 6.5 2.84312 6.5 4.5C6.5 6.15625 7.81563 7.5 9.5 7.5Z" fill="currentColor"/>
</svg>
