<svg width="40" height="40" viewBox="0 0 40 40" fill="none" xmlns="http://www.w3.org/2000/svg">
<rect width="40" height="40" rx="16" fill="#23F7DD"/>
<g clip-path="url(#clip0_25361_405671)">
<path d="M26.5781 14.616L20.5781 12.116C20.3945 12.0378 20.1981 12.0002 20.0019 12.0002C19.8056 12.0002 19.6094 12.0376 19.425 12.1157L13.4253 14.616C12.8666 14.8463 12.5 15.3938 12.5 15.9719C12.5 24.0438 18.4187 28 19.9969 28C21.5375 28 27.5 24.1032 27.5 15.9719C27.5 15.3938 27.1344 14.8463 26.5781 14.616ZM20 26.5C16.9531 25.2313 14 21.2907 14 16L20 13.5L26 16C26 21.4313 22.925 25.2813 20 26.5ZM18.2531 19.7188C18.1344 19.5719 17.9406 19.4719 17.75 19.4719C17.3216 19.4719 17 19.8222 17 20.2219C17 20.4407 17.0719 20.6344 17.2188 20.7532L18.7188 22.2532C18.8594 22.4219 19.0531 22.4719 19.25 22.4719C19.3311 22.4719 19.6081 22.4564 19.8194 22.2102L22.8194 18.7102C22.9407 18.5687 23 18.3949 23 18.2221C23 17.9907 22.8191 17.4724 22.2507 17.4724C22.0395 17.4724 21.8294 17.5608 21.6807 17.7337L19.2094 20.6469L18.2531 19.7188Z" fill="black"/>
</g>
<defs>
<clipPath id="clip0_25361_405671">
<rect width="16" height="16" fill="white" transform="translate(12 12)"/>
</clipPath>
</defs>
</svg>
