<svg xmlns="http://www.w3.org/2000/svg" width="16" height="16" fill="none" viewBox="0 0 16 16">
  <g clip-path="url(#a)">
    <path fill="#8293AA" d="M4.853 4.853a.496.496 0 0 1-.706 0 .496.496 0 0 1 0-.706l1-1a.498.498 0 0 1 .706 0 .496.496 0 0 1 0 .706l-1 1ZM0 8a8 8 0 0 1 8-8 8 8 0 0 1 8 8 8 8 0 0 1-8 8 8 8 0 0 1-8-8Zm8 6.5c.181 0 .36-.006.534-.022a.79.79 0 0 1-.034-.228.748.748 0 0 0-.75-.75h-.666c-.375 0-.734-.15-1-.416l-.5-.5A1.994 1.994 0 0 1 5 11.172v-.1c0-.669.334-1.294.89-1.666l.857-.572a1.995 1.995 0 0 1 1.11-.334h.652c.479 0 .941.172 1.275.481l.857.713c.23.197.528.306.83.306.338 0 .663.134.876.347l.447.447a.71.71 0 0 0 .5.206c.15 0 .29.047.406.128.197-.356.36-.734.46-1.128h-.204c-.453 0-.887-.181-1.206-.5l-.572-.572A.603.603 0 0 1 12 8.5c0-.16.063-.34.178-.428l.234-.234c.029-.057.088-.132.088-.213a.384.384 0 0 0-.088-.213l-.206-.206a.71.71 0 0 0-.5-.206h-.353a.355.355 0 0 1-.25-.603l.147-.147c.16-.16.378-.25.603-.25h.647c.275 0 .5-.225.5-.5s-.225-.5-.5-.5h-.919a.58.58 0 0 0-.581.581c0 .25-.16.472-.397.55l-.662.222a.402.402 0 0 0-.232.563l.035.071a.354.354 0 0 1-.6.372l-.51-.68a.446.446 0 0 0-.359-.179.453.453 0 0 0-.4.247L7.75 7a.913.913 0 0 1-.816.5A.936.936 0 0 1 6 6.572V6.44c0-.282.112-.553.31-.75l.562-.563A.44.44 0 0 0 7 4.818c0-.19.122-.359.3-.418l.831-.278c.24-.078.463-.244.644-.397l.622-.622a.354.354 0 0 0-.25-.603h-.031a.384.384 0 0 0-.213.064l-1.306.87A.384.384 0 0 1 7 3.116v-.283c0-.21.1-.407.266-.533l1.056-.792A6.499 6.499 0 0 0 1.5 8c0 3.59 2.91 6.5 6.5 6.5Z"/>
  </g>
  <defs>
    <clipPath id="a">
      <path fill="#fff" d="M0 0h16v16H0z"/>
    </clipPath>
  </defs>
</svg>
