<svg xmlns="http://www.w3.org/2000/svg" width="16" height="16" fill="none" viewBox="0 0 16 16">
  <path fill="#8293AA" d="M15 11V1.5c0-.827-.672-1.5-1.5-1.5h-10A2.503 2.503 0 0 0 1 2.5v11C1 14.878 2.122 16 3.5 16h10.75a.75.75 0 0 0 0-1.5H14v-2.092c.581-.208 1-.758 1-1.408Zm-2.5 3.5h-9a1 1 0 0 1 0-2h9v2Zm1-3.5h-10c-.356 0-.694.074-1 .209V2.5a1 1 0 0 1 1-1h10V11ZM5.75 5h5.5c.416 0 .75-.334.75-.75a.748.748 0 0 0-.75-.75h-5.5a.752.752 0 0 0-.75.75c0 .412.338.75.75.75Zm0 2.5h5.5c.416 0 .75-.334.75-.75a.748.748 0 0 0-.75-.75h-5.5a.752.752 0 0 0-.75.75c0 .412.338.75.75.75Z"/>
</svg>
