<svg width="40" height="40" viewBox="0 0 40 40" fill="none" xmlns="http://www.w3.org/2000/svg">
<rect width="40" height="40" rx="16" fill="url(#paint0_linear_8219_221176)"/>
<path d="M26.5 26.5H13.5C13.2188 26.5 13 26.75 13 27V27.5C13 27.7813 13.2188 28 13.5 28H26.5C26.75 28 27 27.7813 27 27.5V27C27 26.75 26.75 26.5 26.5 26.5ZM28.5 16C27.6563 16 27 16.6875 27 17.5C27 17.75 27.0313 17.9375 27.125 18.125L24.875 19.5C24.6875 19.5938 24.5313 19.625 24.3438 19.625C24 19.625 23.6563 19.4375 23.4688 19.125L20.9375 14.6563C21.2813 14.4063 21.5 13.9688 21.5 13.5C21.5 12.6875 20.8125 12 20 12C19.1563 12 18.5 12.6875 18.5 13.5C18.5 13.9688 18.7188 14.4063 19.0313 14.6563L16.5 19.125C16.3125 19.4375 15.9688 19.625 15.625 19.625C15.4375 19.625 15.2813 19.5938 15.125 19.5L12.8438 18.125C12.9375 17.9375 13 17.7188 13 17.5C13 16.6875 12.3125 16 11.5 16C10.6563 16 10 16.6875 10 17.5C10 18.3438 10.6563 19 11.5 19C11.5625 19 11.6563 19 11.7188 19L14 25H26L28.25 19C28.3125 19 28.4063 19 28.5 19C29.3125 19 30 18.3438 30 17.5C30 16.6875 29.3125 16 28.5 16ZM24.9375 23.5H15.0313L13.9063 20.5L14.3438 20.7813C14.7188 21 15.1875 21.125 15.625 21.125C16.5313 21.125 17.3438 20.6563 17.7813 19.875L20 16.0313L22.1875 19.875C22.625 20.6563 23.4375 21.125 24.3438 21.125C24.8125 21.125 25.25 21 25.625 20.7813L26.0625 20.5L24.9375 23.5Z" fill="white"/>
<defs>
<linearGradient id="paint0_linear_8219_221176" x1="5.32238e-07" y1="3.05881" x2="41.8099" y2="5.23553" gradientUnits="userSpaceOnUse">
<stop stop-color="#6F3CD2"/>
<stop offset="1" stop-color="#3D50F1"/>
</linearGradient>
</defs>
</svg>
