<svg xmlns="http://www.w3.org/2000/svg" width="33" height="32" fill="none" viewBox="0 0 33 32">
  <g clip-path="url(#a)">
    <path fill="currentColor" d="M16.5 8a.748.748 0 0 0-.75.75v2c0 .416.334.75.75.75s.75-.334.75-.75v-2A.748.748 0 0 0 16.5 8Zm0 12.5a.748.748 0 0 0-.75.75v2c0 .416.334.75.75.75s.75-.334.75-.75v-2a.748.748 0 0 0-.75-.75Zm7.25-3.75c.416 0 .75-.334.75-.75a.748.748 0 0 0-.75-.75h-2A.748.748 0 0 0 21 16c0 .416.334.75.75.75h2ZM12 16a.748.748 0 0 0-.75-.75h-2a.748.748 0 0 0-.75.75c0 .416.334.75.75.75h2c.416 0 .75-.334.75-.75Zm10.156-4.597a.75.75 0 0 0-1.06-1.06l-1.415 1.416a.75.75 0 0 0 1.06 1.06l1.415-1.416Zm-8.837 7.778a.747.747 0 0 0-1.06 0l-1.415 1.416a.75.75 0 0 0 1.06 1.06l1.415-1.416a.747.747 0 0 0 0-1.06Zm7.778 2.475a.75.75 0 0 0 1.06-1.06l-1.416-1.415a.75.75 0 0 0-1.06 1.06l1.416 1.415Zm-7.778-8.837a.747.747 0 0 0 0-1.06l-1.416-1.415a.75.75 0 0 0-1.06 1.06l1.416 1.415a.747.747 0 0 0 1.06 0ZM16.5 19.5c1.934 0 3.5-1.566 3.5-3.5s-1.566-3.5-3.5-3.5A3.498 3.498 0 0 0 13 16c0 1.934 1.566 3.5 3.5 3.5Z"/>
  </g>
  <defs>
    <clipPath id="a">
      <path fill="#fff" d="M8.5 8h16v16h-16z"/>
    </clipPath>
  </defs>
</svg>
