<svg width="20" height="20" viewBox="0 0 20 20" fill="none" xmlns="http://www.w3.org/2000/svg">
<path d="M2.15625 2.125L3.65625 3.125C4 3.375 4.09375 3.84375 3.875 4.1875C3.625 4.53125 3.15625 4.625 2.8125 4.375L1.3125 3.375C0.96875 3.15625 0.875 2.6875 1.125 2.34375C1.34375 2 1.8125 1.90625 2.15625 2.125ZM18.6562 3.375L17.1562 4.375C16.8125 4.625 16.3438 4.53125 16.125 4.1875C15.875 3.84375 15.9688 3.375 16.3125 3.125L17.8125 2.125C18.1562 1.90625 18.625 2 18.875 2.34375C19.0938 2.6875 19 3.15625 18.6562 3.375ZM0.75 7H2.75C3.15625 7 3.5 7.34375 3.5 7.75C3.5 8.1875 3.15625 8.5 2.75 8.5H0.75C0.3125 8.5 0 8.1875 0 7.75C0 7.34375 0.3125 7 0.75 7ZM17.25 7H19.25C19.6562 7 20 7.34375 20 7.75C20 8.1875 19.6562 8.5 19.25 8.5H17.25C16.8125 8.5 16.5 8.1875 16.5 7.75C16.5 7.34375 16.8125 7 17.25 7ZM3.65625 12.375L2.15625 13.375C1.8125 13.625 1.34375 13.5312 1.125 13.1875C0.875 12.8438 0.96875 12.375 1.3125 12.125L2.8125 11.125C3.15625 10.9062 3.625 11 3.875 11.3438C4.09375 11.6875 4 12.1562 3.65625 12.375ZM17.1562 11.1562L18.6562 12.1562C19 12.375 19.0938 12.8438 18.875 13.1875C18.625 13.5312 18.1562 13.625 17.8125 13.4062L16.3125 12.4062C15.9688 12.1562 15.875 11.6875 16.125 11.3438C16.3438 11 16.8125 10.9062 17.1562 11.1562ZM14 7.5C14 5.3125 12.1875 3.5 10 3.5C7.78125 3.5 6 5.3125 6 7.5C6 8.375 6.25 9.15625 6.6875 9.78125C6.8125 9.96875 6.9375 10.1562 7.09375 10.3438C7.5 10.9062 7.96875 11.5625 8.34375 12.2188C8.65625 12.8125 8.84375 13.4375 8.90625 14H7.40625C7.3125 13.625 7.21875 13.2812 7.03125 12.9375C6.71875 12.375 6.34375 11.8438 5.9375 11.3125C5.78125 11.0938 5.625 10.875 5.46875 10.6562C4.84375 9.75 4.5 8.6875 4.5 7.5C4.5 4.46875 6.9375 2 10 2C13.0312 2 15.5 4.46875 15.5 7.5C15.5 8.6875 15.125 9.75 14.5 10.6562C14.3438 10.875 14.1875 11.0938 14.0312 11.3125C13.6562 11.8438 13.25 12.375 12.9375 12.9375C12.75 13.2812 12.6562 13.625 12.5938 14H11.0625C11.1562 13.4375 11.3125 12.8125 11.625 12.2188C12 11.5625 12.4688 10.9062 12.875 10.3438C13.0312 10.1562 13.1562 9.96875 13.2812 9.78125C13.7188 9.15625 14 8.375 14 7.5ZM8.5 7.5C8.5 7.78125 8.25 8 8 8C7.71875 8 7.5 7.78125 7.5 7.5C7.5 6.125 8.59375 5 10 5C10.25 5 10.5 5.25 10.5 5.5C10.5 5.78125 10.25 6 10 6C9.15625 6 8.5 6.6875 8.5 7.5ZM12.5 15.5C12.5 16.9062 11.375 18 10 18C8.59375 18 7.5 16.9062 7.5 15.5V15H12.5V15.5Z" fill="#23F7DD"/>
</svg>
