<svg xmlns="http://www.w3.org/2000/svg" width="11" height="12" fill="none" viewBox="0 0 11 12">
  <path fill="currentColor" d="M6.813 1.875a.562.562 0 1 1 0-1.125h3.375c.311 0 .562.252.562.563v3.375c0 .311-.25.562-.563.562a.561.561 0 0 1-.562-.563V2.67L4.94 7.315c-.2.239-.556.239-.776 0-.218-.2-.218-.556 0-.776L8.83 1.875H6.812ZM.25 2.813C.25 2.087.838 1.5 1.563 1.5h2.625a.562.562 0 1 1 0 1.125H1.563a.188.188 0 0 0-.188.188v7.124c0 .104.084.188.188.188h7.125a.188.188 0 0 0 .187-.188V7.313c0-.312.25-.563.563-.563.311 0 .562.25.562.563v2.625c0 .724-.588 1.312-1.313 1.312H1.564A1.313 1.313 0 0 1 .25 9.937V2.814Z"/>
</svg>
