<svg width="16" height="16" viewBox="0 0 16 16" fill="none" xmlns="http://www.w3.org/2000/svg">
<path d="M10.5 6C10.5 7.38125 9.38125 8.5 8 8.5C6.61875 8.5 5.5 7.38125 5.5 6C5.5 4.61875 6.61875 3.5 8 3.5C9.38125 3.5 10.5 4.61875 10.5 6ZM8 5C7.44688 5 7 5.44688 7 6C7 6.55312 7.44688 7 8 7C8.55312 7 9 6.55312 9 6C9 5.44688 8.55312 5 8 5ZM14 6C14 8.73125 10.3438 13.5938 8.74062 15.6C8.35625 16.0781 7.64375 16.0781 7.25938 15.6C5.62813 13.5938 2 8.73125 2 6C2 2.68625 4.68625 0 8 0C11.3125 0 14 2.68625 14 6ZM8 1.5C5.51562 1.5 3.5 3.51562 3.5 6C3.5 6.3875 3.64031 6.9875 3.97812 7.7875C4.30562 8.5625 4.77063 9.41875 5.30625 10.2844C6.19375 11.7281 7.225 13.0969 8 14.1156C8.775 13.0969 9.80625 11.7281 10.6938 10.2844C11.2281 9.41875 11.6938 8.5625 12.0219 7.7875C12.3594 6.9875 12.5 6.3875 12.5 6C12.5 3.51562 10.4844 1.5 8 1.5Z" fill="#ADBFCC"/>
</svg>
