<svg width="13" height="13" viewBox="0 0 13 13" fill="currentColor" xmlns="http://www.w3.org/2000/svg">
    <path d="M4.93758 4.25V5.5H8.06258V4.25C8.06258 3.39062 7.35946 2.6875 6.50008 2.6875C5.62118 2.6875 4.93758 3.39062 4.93758 4.25ZM4.00008 5.5V4.25C4.00008 2.88281 5.11336 1.75 6.50008 1.75C7.86727 1.75 9.00008 2.88281 9.00008 4.25V5.5H9.62508C10.3087 5.5 10.8751 6.06641 10.8751 6.75V10.5C10.8751 11.2031 10.3087 11.75 9.62508 11.75H3.37508C2.67196 11.75 2.12508 11.2031 2.12508 10.5V6.75C2.12508 6.06641 2.67196 5.5 3.37508 5.5H4.00008ZM3.06258 6.75V10.5C3.06258 10.6758 3.1993 10.8125 3.37508 10.8125H9.62508C9.78133 10.8125 9.93758 10.6758 9.93758 10.5V6.75C9.93758 6.59375 9.78133 6.4375 9.62508 6.4375H3.37508C3.1993 6.4375 3.06258 6.59375 3.06258 6.75Z"
          fill="currentColor"/>
</svg>
