<svg width="16" height="16" viewBox="0 0 16 16" fill="none" xmlns="http://www.w3.org/2000/svg">
<path d="M14.25 1C14.6656 1 15 1.33594 15 1.75C15 2.16406 14.6656 2.5 14.25 2.5H2.75C2.05969 2.5 1.5 3.05969 1.5 3.75V12.25C1.5 12.9406 2.05969 13.5 2.75 13.5H13.25C13.9406 13.5 14.5 12.9406 14.5 12.25V6.75C14.5 6.05937 13.9406 5.5 13.25 5.5H3.75C3.33437 5.5 3 5.16563 3 4.75C3 4.33437 3.33437 4 3.75 4H13.25C14.7688 4 16 5.23125 16 6.75V12.25C16 13.7688 14.7688 15 13.25 15H2.75C1.23125 15 0 13.7688 0 12.25V3.75C0 2.23125 1.23125 1 2.75 1H14.25ZM11 9.5C11 8.94688 11.4469 8.5 12 8.5C12.5531 8.5 13 8.94688 13 9.5C13 10.0531 12.5531 10.5 12 10.5C11.4469 10.5 11 10.0531 11 9.5Z" fill="#23F7DD"/>
</svg>
