<svg xmlns="http://www.w3.org/2000/svg" width="16" height="16" fill="none" viewBox="0 0 16 16">
  <g clip-path="url(#a)">
    <path fill="#8293AA" d="m14.578 2.615-6-2.5A1.807 1.807 0 0 0 8.003 0c-.165 0-.425.052-.578.115l-6 2.5C.865 2.847.5 3.395.5 3.973.5 12.037 6.412 16 7.972 16 9.597 16 15.5 11.994 15.5 3.972c0-.578-.366-1.126-.922-1.357ZM8.003 1.501s.003 0 0 0ZM7.972 14.5c-2.863-1.203-5.97-5.003-5.97-10.497 0-.001 0 .002 0 0l5.962-2.489c.01-.003.024-.01.04-.012L14 3.972c0 6.356-3.925 9.662-6.028 10.528Zm-1.722-8c0 .697.41 1.294 1 1.575v2.175a.75.75 0 0 0 1.5 0V8.075A1.746 1.746 0 0 0 8 4.75 1.75 1.75 0 0 0 6.25 6.5Z"/>
  </g>
  <defs>
    <clipPath id="a">
      <path fill="#fff" d="M0 0h16v16H0z"/>
    </clipPath>
  </defs>
</svg>
