<svg width="40" height="40" viewBox="0 0 40 40" fill="none" xmlns="http://www.w3.org/2000/svg">
<rect width="40" height="40" rx="20" fill="#131313"/>
<path d="M17.5 16V18H22.5V16C22.5 14.625 21.375 13.5 20 13.5C18.5938 13.5 17.5 14.625 17.5 16ZM16 18V16C16 13.8125 17.7812 12 20 12C22.1875 12 24 13.8125 24 16V18H25C26.0938 18 27 18.9062 27 20V26C27 27.125 26.0938 28 25 28H15C13.875 28 13 27.125 13 26V20C13 18.9062 13.875 18 15 18H16ZM14.5 20V26C14.5 26.2812 14.7188 26.5 15 26.5H25C25.25 26.5 25.5 26.2812 25.5 26V20C25.5 19.75 25.25 19.5 25 19.5H15C14.7188 19.5 14.5 19.75 14.5 20Z" fill="#ADBFCC"/>
</svg>
