<svg width="17" height="16" viewBox="0 0 17 16" fill="none" xmlns="http://www.w3.org/2000/svg">
<path d="M3.83724 7H13.1706C13.907 7 14.5039 7.59695 14.5039 8.33333V13C14.5039 13.7364 13.907 14.3333 13.1706 14.3333H3.83724C3.10086 14.3333 2.50391 13.7364 2.50391 13V8.33333C2.50391 7.59695 3.10086 7 3.83724 7Z" stroke="black" stroke-width="2" stroke-linecap="round" stroke-linejoin="round"/>
<path d="M11.5156 7V4.33333C11.5156 3.44928 11.1644 2.60143 10.5393 1.97631C9.91419 1.35119 9.06635 1 8.18229 1C7.29824 1 6.45039 1.35119 5.82527 1.97631C5.20015 2.60143 4.84896 3.44928 4.84896 4.33333V7" stroke="black" stroke-width="2" stroke-linecap="round" stroke-linejoin="round"/>
</svg>
