<svg width="165" height="32" viewBox="0 0 165 32" fill="none" xmlns="http://www.w3.org/2000/svg">
<path d="M31.0213 4.05695H46.1039C52.3469 4.05695 55.7421 6.99141 55.7421 12.2751C55.7421 17.5588 52.3469 20.5917 46.1039 20.5917H35.6645V31.5501H31.0186V4.05695H31.0213ZM35.6673 8.21388V16.432H46.0062C49.3511 16.432 50.9509 14.8185 50.9509 12.3216C50.9509 9.82469 49.4041 8.21114 46.0062 8.21114H35.6673V8.21388Z" fill="white"/>
<path d="M84.0594 19.1518C84.0594 26.4435 78.3948 31.9969 71.0233 31.9969C63.6518 31.9969 57.9873 26.4435 57.9873 19.1518C57.9873 11.86 63.6014 6.30658 71.0233 6.30658C78.4453 6.30658 84.0594 11.86 84.0594 19.1518ZM79.3478 19.1518C79.3478 14.2416 75.9872 10.4737 71.0261 10.4737C66.0651 10.4737 62.7045 14.3414 62.7045 19.1518C62.7045 23.9621 66.0623 27.8298 71.0261 27.8298C75.99 27.8298 79.3478 24.0619 79.3478 19.1518Z" fill="white"/>
<path d="M140.669 16.077H149.041C149.041 12.3091 146.167 10.2741 142.156 10.2741C138.146 10.2741 136.459 12.5559 136.063 13.3488H131.505C132.15 10.4238 135.418 6.30658 142.156 6.30658C149.291 6.30658 153.353 10.324 153.353 16.0271V25.1016C153.353 26.8372 153.949 27.4832 155.533 27.6302V31.6975C152.016 31.5977 149.886 30.3085 149.241 27.8797C148.053 29.7151 145.477 31.9969 141.115 31.9969C135.318 31.9969 130.81 28.7725 130.81 23.7154C130.81 18.6582 134.526 16.077 140.669 16.077ZM149.041 22.1766V19.648H140.868C137.501 19.648 135.318 20.9872 135.318 23.7154C135.318 26.4435 137.994 28.2291 141.511 28.2291C145.474 28.2291 149.041 26.2938 149.041 22.1794V22.1766Z" fill="white"/>
<path d="M159.578 0H164.073V31.5496H159.578V0Z" fill="white"/>
<path d="M127.665 31.547H121.875C116.185 31.547 113.313 28.8251 113.313 23.3815V11.1609H106.088V7.103H113.313V1.35229H117.817V7.103H127.665V11.1609H117.817V22.3442C117.817 25.9069 118.954 27.3923 122.865 27.3923H127.665V31.5497V31.547Z" fill="white"/>
<path d="M92.6307 31.5505H88.1045V6.95639H92.6307V11.4283C93.3263 9.65846 95.4162 6.7616 101.184 6.7616H103.838V11.2335H101.086C94.7712 11.2335 92.6335 13.3234 92.6335 17.645V31.5505H92.6307Z" fill="white"/>
<path d="M13.443 10.8165L24.274 5.19875L22.4531 1.80096L12.5353 5.69539C12.2799 5.7958 11.9968 5.7958 11.7414 5.69539L1.8209 1.80096L0 5.19875L10.831 10.8165L0 16.4315L1.8209 19.8293L11.7387 15.9349C11.994 15.8345 12.2772 15.8345 12.5325 15.9349L22.4503 19.8293L24.2712 16.4315L13.4402 10.8138L13.443 10.8165Z" fill="#23F7DD"/>
</svg>
