<svg xmlns="http://www.w3.org/2000/svg" width="16" height="16" fill="none" viewBox="0 0 16 16">
  <path fill="#ADBFCC" d="M8 13.688A5.687 5.687 0 0 0 13.688 8 5.687 5.687 0 0 0 8 2.312 5.687 5.687 0 0 0 2.486 9.4a1.53 1.53 0 0 0-.611 1.225v.766A7 7 0 0 1 8 1a7 7 0 0 1 7 6.999 7 7 0 0 1-7.859 6.948c.11-.156.2-.328.268-.514l.274-.755c.106.006.21.008.317.008Zm.336-4.277-.83.287-1.795-.396a.44.44 0 0 1 .203-.854l2.652.627c.224.052.43.145.61.268a1.506 1.506 0 0 0-.84.068ZM6.698 6.25a.876.876 0 1 1-1.751-.002.876.876 0 0 1 1.751.002Zm2.625.438a.874.874 0 1 1 1.749-.002.874.874 0 0 1-1.749.002ZM6.917 4.958a1.78 1.78 0 0 0-2.031-.188l-.17.11a.436.436 0 1 1-.432-.761l.191-.11a2.626 2.626 0 0 1 3.01.285l.362.312a.434.434 0 0 1 .046.615.434.434 0 0 1-.615.046l-.36-.309Zm-2.854 6.99 4.582-1.72c.315-.126.717.046.845.385.126.314-.046.716-.385.845l-1.791.67-.009.033-.719 1.974A1.31 1.31 0 0 1 5.353 15h-1.29a1.313 1.313 0 0 1-1.313-1.313v-3.062a.656.656 0 1 1 1.313 0v1.323Z"/>
</svg>
