<svg xmlns="http://www.w3.org/2000/svg" width="16" height="16" fill="none" viewBox="0 0 16 16">
  <path fill="#ADBFCC" fill-rule="evenodd" d="M6.192 9.125c0-1.526 1.88-2.6 4.1-2.6 2.22 0 4.1 1.074 4.1 2.6s-1.88 2.6-4.1 2.6c-2.22 0-4.1-1.074-4.1-2.6Zm7 0c0-.683-1.255-1.4-2.9-1.4-1.646 0-2.9.717-2.9 1.4 0 .683 1.254 1.4 2.9 1.4 1.645 0 2.9-.717 2.9-1.4Z" clip-rule="evenodd"/>
  <path fill="#ADBFCC" d="M13.792 8.9a.6.6 0 0 1 .592.503l.008.097v2.216c0 1.423-1.883 2.384-4.1 2.384-2.144 0-3.974-.898-4.094-2.244l-.006-.14V9.548a.6.6 0 0 1 1.192-.097l.008.097v2.168c0 .541 1.26 1.184 2.9 1.184 1.569 0 2.79-.588 2.893-1.113l.007-.071V9.5a.6.6 0 0 1 .6-.6Z"/>
  <path fill="#ADBFCC" fill-rule="evenodd" d="M1.942 4.292c0-1.526 1.88-2.6 4.1-2.6 2.22 0 4.1 1.074 4.1 2.6s-1.88 2.6-4.1 2.6c-2.22 0-4.1-1.074-4.1-2.6Zm7 0c0-.684-1.255-1.4-2.9-1.4-1.646 0-2.9.716-2.9 1.4 0 .683 1.254 1.4 2.9 1.4 1.645 0 2.9-.717 2.9-1.4Z" clip-rule="evenodd"/>
  <path fill="#ADBFCC" d="M9.542 7.712a.6.6 0 0 1-.592-.503l-.008-.097V4.5a.6.6 0 0 1 1.192-.097l.008.097v2.612a.6.6 0 0 1-.6.6ZM2.542 3.913a.6.6 0 0 1 .592.503l.008.097V7.1c0 .422 1.264 1 2.899 1 .18 0 .362-.008.543-.023a.6.6 0 0 1 .1 1.196 7.895 7.895 0 0 1-.642.027c-2.145 0-3.97-.801-4.094-2.063L1.942 7.1V4.513a.6.6 0 0 1 .6-.6Z"/>
  <path fill="#ADBFCC" d="M2.542 6.4a.6.6 0 0 1 .592.503L3.142 7v2.4c0 .422 1.264 1 2.899 1 .192 0 .384-.009.576-.026a.6.6 0 0 1 .106 1.195c-.226.02-.453.03-.681.031-2.145 0-3.97-.801-4.094-2.063L1.942 9.4V7a.6.6 0 0 1 .6-.6Z"/>
</svg>
