<svg width="16" height="16" viewBox="0 0 16 16" fill="none" xmlns="http://www.w3.org/2000/svg">
<path d="M14.2499 1H10.7499C10.3374 1 9.99992 1.33594 9.99992 1.75C9.99992 2.16406 10.3359 2.5 10.7499 2.5H12.4393L9.80617 5.13438C8.82805 4.39375 7.66867 4 6.49992 4C5.06555 4 3.68492 4.5375 2.61086 5.60938C0.463047 7.75719 0.463047 11.2406 2.61086 13.3875C3.68492 14.4625 5.06555 15 6.49992 15C7.9343 15 9.30961 14.4631 10.3843 13.3891C12.3505 11.4228 12.5002 8.35156 10.8668 6.19531L13.4999 3.55938V5.25C13.4999 5.66563 13.8374 6 14.2499 6C14.6624 6 14.9999 5.66563 14.9999 5.25V1.75C14.9999 1.33594 14.6655 1 14.2499 1ZM9.32805 12.3281C8.5718 13.0844 7.56867 13.5 6.49992 13.5C5.43117 13.5 4.42711 13.0841 3.67148 12.3284C2.1118 10.7688 2.1118 8.23156 3.67148 6.67219C4.42805 5.91562 5.43117 5.5 6.49992 5.5C7.56867 5.5 8.57305 5.91625 9.32836 6.67188C9.32824 6.67175 9.32848 6.672 9.32836 6.67188C9.3283 6.67181 9.32842 6.67194 9.32836 6.67188C10.8874 8.23125 10.8874 10.7688 9.32805 12.3281Z" fill="#ADBFCC"/>
</svg>
