<svg width="40" height="40" viewBox="0 0 40 40" fill="none" xmlns="http://www.w3.org/2000/svg">
<rect width="40" height="40" rx="16" fill="#19CCC1"/>
<path d="M10 20.0005C10 17.238 12.2384 15.0005 15 15.0005H18.25C18.6656 15.0005 19 15.3349 19 15.7505C19 16.1661 18.6656 16.5005 18.25 16.5005H15C13.0669 16.5005 11.5 18.0661 11.5 20.0005C11.5 21.9349 13.0669 23.5005 15 23.5005H18.25C18.6656 23.5005 19 23.8349 19 24.2505C19 24.6661 18.6656 25.0005 18.25 25.0005H15C12.2384 25.0005 10 22.763 10 20.0005ZM25 25.0005H21.75C21.3344 25.0005 21 24.6661 21 24.2505C21 23.8349 21.3344 23.5005 21.75 23.5005H25C26.9344 23.5005 28.5 21.9349 28.5 20.0005C28.5 18.0661 26.9344 16.5005 25 16.5005H21.75C21.3344 16.5005 21 16.1661 21 15.7505C21 15.3349 21.3344 15.0005 21.75 15.0005H25C27.7625 15.0005 30 17.238 30 20.0005C30 22.763 27.7625 25.0005 25 25.0005ZM23.25 19.2505C23.6656 19.2505 24 19.5849 24 20.0005C24 20.4161 23.6656 20.7505 23.25 20.7505H16.75C16.3344 20.7505 16 20.4161 16 20.0005C16 19.5849 16.3344 19.2505 16.75 19.2505H23.25Z" fill="white"/>
</svg>
