<svg xmlns="http://www.w3.org/2000/svg" width="17" height="16" fill="none" viewBox="0 0 17 16">
  <path fill="currentColor" d="M2.568 10.666H.79a.458.458 0 0 0-.445.446v3.555a.44.44 0 0 0 .445.444h1.778a.457.457 0 0 0 .444-.444v-3.555a.479.479 0 0 0-.444-.446Zm-.445 3.556h-.889v-2.665h.889v2.665Zm13.778-8h-1.778a.457.457 0 0 0-.444.445v8a.438.438 0 0 0 .444.444H15.9a.456.456 0 0 0 .444-.444v-8a.477.477 0 0 0-.444-.445Zm-.445 8h-.889V7.111h.89v7.111ZM14.29 3.362c.216.134.468.202.722.193a1.334 1.334 0 0 0 1.334-1.332A1.35 1.35 0 0 0 15.01.889a1.334 1.334 0 0 0-1.332 1.334c.003.15.021.298.055.444l-2.472 2a1.286 1.286 0 0 0-.695-.222 1.303 1.303 0 0 0-.722.222l-2.472-2c.044-.145.072-.294.084-.444A1.351 1.351 0 0 0 6.124.889a1.334 1.334 0 0 0-1.333 1.334c-.01.2.028.402.11.585L2.236 5.475a1.271 1.271 0 0 0-.556-.14A1.339 1.339 0 0 0 .346 6.67a1.317 1.317 0 0 0 1.333 1.334 1.333 1.333 0 0 0 1.334-1.334 1.272 1.272 0 0 0-.14-.555L5.54 3.447c.184.082.385.12.586.11.245.006.487-.062.694-.193l2.472 2a2.091 2.091 0 0 0-.056.418 1.317 1.317 0 0 0 1.334 1.333 1.334 1.334 0 0 0 1.333-1.333 2.233 2.233 0 0 0-.083-.418l2.47-2.003Zm.722-1.584a.479.479 0 0 1 .445.445.457.457 0 0 1-.445.444.438.438 0 0 1-.31-.755.458.458 0 0 1 .31-.134ZM1.678 7.11a.438.438 0 0 1-.31-.755.457.457 0 0 1 .31-.134.478.478 0 0 1 .445.445.456.456 0 0 1-.445.444Zm4.445-4.444a.44.44 0 0 1-.311-.755.458.458 0 0 1 .311-.134.478.478 0 0 1 .444.445.457.457 0 0 1-.444.444Zm4.444 3.555a.439.439 0 0 1-.31-.755.457.457 0 0 1 .31-.134.478.478 0 0 1 .444.445.456.456 0 0 1-.444.444Zm-3.555 0H5.234a.457.457 0 0 0-.444.445v8a.438.438 0 0 0 .444.444h1.778a.456.456 0 0 0 .444-.444v-8a.478.478 0 0 0-.444-.445Zm-.445 8h-.889V7.111h.89v7.111Zm4.889-4.444H9.679a.458.458 0 0 0-.444.444v4.445a.438.438 0 0 0 .444.444h1.778a.457.457 0 0 0 .445-.444v-4.445a.478.478 0 0 0-.446-.444Zm-.445 4.444h-.888v-3.556h.888v3.556Z"/>
</svg>
