<svg xmlns="http://www.w3.org/2000/svg" width="17" height="16" fill="none" viewBox="0 0 17 16">
  <path fill="#4C6485" d="M2.754 10.666H.976a.458.458 0 0 0-.445.445v3.556a.44.44 0 0 0 .445.444h1.778a.457.457 0 0 0 .444-.444V11.11a.479.479 0 0 0-.444-.445Zm13.333-4.444H14.31a.457.457 0 0 0-.444.444v8a.438.438 0 0 0 .444.445h1.778a.456.456 0 0 0 .444-.444v-8a.478.478 0 0 0-.444-.445Zm-1.611-2.861c.216.135.467.202.722.194a1.334 1.334 0 0 0 1.333-1.333A1.35 1.35 0 0 0 15.198.89a1.334 1.334 0 0 0-1.333 1.333c.003.15.022.299.055.444l-2.472 2a1.285 1.285 0 0 0-.694-.222 1.303 1.303 0 0 0-.722.223l-2.472-2c.043-.145.071-.294.083-.445A1.351 1.351 0 0 0 6.311.89a1.334 1.334 0 0 0-1.334 1.333c-.01.201.029.402.111.586L2.421 5.474a1.271 1.271 0 0 0-.555-.139A1.338 1.338 0 0 0 .532 6.67a1.317 1.317 0 0 0 1.334 1.333A1.333 1.333 0 0 0 3.199 6.67a1.272 1.272 0 0 0-.139-.556l2.667-2.666c.184.082.384.12.585.11.246.005.487-.062.695-.194l2.472 2a2.092 2.092 0 0 0-.056.419 1.317 1.317 0 0 0 1.333 1.333 1.333 1.333 0 0 0 1.334-1.333 2.233 2.233 0 0 0-.084-.418l2.47-2.003ZM7.198 6.222H5.42a.457.457 0 0 0-.444.444v8a.439.439 0 0 0 .444.445h1.778a.456.456 0 0 0 .444-.444v-8a.478.478 0 0 0-.444-.445Zm4.444 3.556H9.865a.458.458 0 0 0-.444.444v4.445a.439.439 0 0 0 .444.444h1.778a.457.457 0 0 0 .445-.444v-4.445a.478.478 0 0 0-.446-.444Z"/>
</svg>
