<svg width="113" height="32" viewBox="0 0 113 32" fill="none" xmlns="http://www.w3.org/2000/svg">
<g clip-path="url(#clip0_10072_147244)">
<path d="M24.7233 9.70825H17.7256V22.2875H24.7233V9.70825Z" fill="#FF5F00"/>
<path d="M18.1712 16C18.1701 14.7885 18.4445 13.5927 18.9737 12.503C19.5029 11.4133 20.273 10.4584 21.2257 9.7104C20.0459 8.78277 18.6291 8.20588 17.137 8.04569C15.645 7.8855 14.138 8.14845 12.7883 8.80451C11.4386 9.46056 10.3006 10.4833 9.50447 11.7557C8.70833 13.0281 8.28613 14.4989 8.28613 16C8.28613 17.5011 8.70833 18.9719 9.50447 20.2443C10.3006 21.5168 11.4386 22.5394 12.7883 23.1955C14.138 23.8516 15.645 24.1145 17.137 23.9543C18.6291 23.7941 20.0459 23.2172 21.2257 22.2896C20.273 21.5416 19.5029 20.5867 18.9737 19.497C18.4445 18.4073 18.1701 17.2115 18.1712 16Z" fill="#EB001B"/>
<path d="M34.1648 16C34.1648 17.5011 33.7427 18.9719 32.9466 20.2443C32.1505 21.5167 31.0126 22.5394 29.6629 23.1955C28.3132 23.8516 26.8062 24.1145 25.3142 23.9543C23.8222 23.7941 22.4053 23.2172 21.2256 22.2896C22.1774 21.5409 22.9469 20.5858 23.4761 19.4963C24.0052 18.4067 24.2801 17.2113 24.2801 16C24.2801 14.7887 24.0052 13.5933 23.4761 12.5038C22.9469 11.4142 22.1774 10.4591 21.2256 9.71041C22.4053 8.78277 23.8222 8.20588 25.3142 8.04569C26.8062 7.8855 28.3132 8.14846 29.6629 8.80452C31.0126 9.46059 32.1505 10.4833 32.9466 11.7557C33.7427 13.0281 34.1648 14.4989 34.1648 16Z" fill="#F79E1B"/>
<path d="M33.4018 20.9563V20.6987H33.5057V20.6463H33.2412V20.6987H33.3451V20.9563H33.4018ZM33.9153 20.9563V20.6458H33.8342L33.741 20.8593L33.6477 20.6458H33.5666V20.9563H33.6238V20.722L33.7113 20.924H33.7706L33.8581 20.7215V20.9563H33.9153Z" fill="#F79E1B"/>
<path d="M42.3099 24.0441H42.0137V21.3447V15.9456V10.5465V7.84717H42.3099V13.2461V18.6452V24.0441Z" fill="white"/>
<path d="M50.5059 20.9591H49.6748V11.4184H50.5059V20.9591ZM56.5691 11.4184C57.2981 11.408 58.0237 11.5209 58.7151 11.7523C59.3159 11.9543 59.8681 12.2792 60.3365 12.7064C60.7855 13.1256 61.1367 13.6386 61.3651 14.209C61.8467 15.4849 61.8467 16.8926 61.3651 18.1684C61.1367 18.7388 60.7856 19.2519 60.3365 19.6711C59.8682 20.0984 59.3159 20.4233 58.7151 20.6252C58.0237 20.8567 57.2981 20.9696 56.5691 20.9591H53.0878V11.4184H56.5691ZM53.9189 12.2089V20.1686H56.5691C57.1939 20.1797 57.8159 20.0841 58.4085 19.8858C58.9074 19.7167 59.3648 19.4439 59.7505 19.0851C60.117 18.7351 60.3989 18.3063 60.5749 17.8311C60.9472 16.7678 60.9472 15.6096 60.5749 14.5464C60.3984 14.0705 60.1165 13.6407 59.7505 13.2891C59.366 12.9288 58.9082 12.6556 58.4085 12.4883C57.8154 12.2924 57.1936 12.198 56.5691 12.2089L53.9189 12.2089ZM71.3863 11.3094C71.7855 11.3083 72.1834 11.354 72.5719 11.4457C72.9439 11.5331 73.304 11.6646 73.6447 11.8375C73.972 12.0034 74.2765 12.2106 74.5509 12.4542C74.819 12.6926 75.0518 12.968 75.2423 13.2721L74.5474 13.7354C74.3841 13.4856 74.1882 13.2588 73.9649 13.0608C73.7394 12.8604 73.49 12.6887 73.2223 12.5496C72.946 12.4065 72.6532 12.2978 72.3504 12.2259C72.0346 12.1504 71.711 12.1127 71.3863 12.1135C70.8445 12.1088 70.3068 12.2082 69.8024 12.4065C69.3258 12.5943 68.8924 12.8772 68.5285 13.238C68.1614 13.606 67.8719 14.044 67.677 14.526C67.2637 15.596 67.2637 16.7816 67.677 17.8516C67.8718 18.3336 68.1614 18.7716 68.5285 19.1396C68.8924 19.5003 69.3258 19.7832 69.8024 19.971C70.3067 20.1694 70.8445 20.2689 71.3863 20.264C71.7097 20.265 72.032 20.2284 72.347 20.155C72.6488 20.085 72.9406 19.9773 73.2156 19.8347C73.4833 19.6957 73.7327 19.524 73.9582 19.3236C74.1826 19.1242 74.3786 18.8948 74.5407 18.6421L75.2219 19.1396C75.0235 19.4377 74.7864 19.7081 74.5168 19.9437C74.2432 20.1822 73.9412 20.386 73.6176 20.5503C73.2813 20.7209 72.9256 20.8502 72.5583 20.9353C71.522 21.1713 70.4389 21.0917 69.4482 20.707C68.8698 20.4784 68.3429 20.1367 67.8983 19.7018C67.456 19.263 67.1072 18.739 66.873 18.1616C66.3781 16.8941 66.3781 15.4868 66.873 14.2193C67.1067 13.6406 67.4555 13.1154 67.8983 12.6757C68.3429 12.2408 68.8698 11.8991 69.4482 11.6705C70.0649 11.4261 70.723 11.3035 71.3863 11.3094ZM77.797 15.6571C77.9188 15.4549 78.0691 15.2713 78.2433 15.112C78.4096 14.9603 78.5965 14.833 78.7984 14.7338C78.9979 14.6362 79.2083 14.5631 79.4252 14.5158C79.64 14.4684 79.8593 14.4444 80.0793 14.4441C80.4526 14.4398 80.8238 14.5009 81.1761 14.6247C81.4931 14.7364 81.784 14.9114 82.0311 15.1392C82.2728 15.3667 82.4613 15.6448 82.583 15.9536C82.7164 16.2955 82.7823 16.66 82.7772 17.0269V20.9591H82.0005V17.2655C82.0046 16.9691 81.9586 16.6742 81.8643 16.3931C81.781 16.1467 81.6436 15.922 81.4623 15.7356C81.2793 15.5524 81.0584 15.4117 80.8151 15.3233C80.5354 15.2236 80.24 15.1751 79.943 15.1801C79.6554 15.1779 79.37 15.2299 79.1017 15.3335C78.8475 15.4312 78.6157 15.5796 78.4205 15.7697C78.2248 15.9618 78.0696 16.1911 77.9641 16.4442C77.8503 16.7172 77.7935 17.0106 77.797 17.3063V20.9591H77.0204V11.1458H77.797L77.797 15.6571ZM87.3961 14.4441C87.8049 14.4405 88.2099 14.5229 88.5848 14.6861C88.9439 14.8427 89.2664 15.0725 89.5317 15.3607C89.8057 15.6628 90.0196 16.0144 90.162 16.3966C90.32 16.8183 90.4008 17.265 90.4004 17.7153C90.4004 17.7743 90.3993 17.8301 90.3971 17.8822C90.3947 17.9345 90.3913 17.9856 90.3869 18.0356H85.0117C85.0317 18.3799 85.116 18.7173 85.2603 19.0305C85.3906 19.3102 85.5747 19.5614 85.802 19.7699C86.0246 19.9722 86.285 20.1286 86.5683 20.2299C86.8644 20.3357 87.1769 20.3888 87.4914 20.3866C87.9064 20.3938 88.3181 20.3101 88.6973 20.1413C89.0539 19.9763 89.3789 19.7503 89.6578 19.4734L90.0734 20.005C89.8843 20.197 89.6754 20.3683 89.4501 20.5162C89.2469 20.6485 89.0298 20.7581 88.8028 20.8432C88.5859 20.9242 88.361 20.9813 88.1318 21.0136C87.9039 21.0455 87.674 21.0614 87.4438 21.0613C87.0007 21.066 86.5609 20.9838 86.1493 20.8194C85.7658 20.6659 85.418 20.435 85.1275 20.1413C84.8364 19.8428 84.6091 19.488 84.4598 19.0987C84.2964 18.6702 84.2155 18.2146 84.2214 17.7561C84.2166 17.3007 84.2987 16.8485 84.4633 16.4239C84.6142 16.0333 84.8411 15.6766 85.1308 15.3744C85.4168 15.0798 85.7599 14.8468 86.1391 14.6895C86.5374 14.524 86.9649 14.4405 87.3961 14.4441ZM87.3825 15.1324C87.0757 15.1286 86.7713 15.1854 86.4865 15.2994C86.2219 15.4072 85.9803 15.5645 85.7747 15.7628C85.5665 15.9657 85.3969 16.2047 85.274 16.4681C85.1413 16.752 85.0573 17.0561 85.0254 17.3678H89.6103C89.5874 17.0539 89.5113 16.7462 89.3853 16.4579C89.2708 16.1948 89.1078 15.9556 88.905 15.7526C88.7048 15.5537 88.4671 15.3965 88.2058 15.2901C87.9445 15.1836 87.6646 15.13 87.3825 15.1324ZM94.8692 14.4441C95.3235 14.4398 95.7741 14.5267 96.1943 14.6997C96.5923 14.864 96.9476 15.1169 97.2332 15.4392L96.7291 15.9639C96.487 15.7194 96.2017 15.5218 95.8877 15.3812C95.56 15.2392 95.2059 15.1684 94.8488 15.1733C94.5131 15.1705 94.1804 15.2366 93.8713 15.3675C93.5756 15.4926 93.3081 15.6757 93.0844 15.9059C92.8581 16.1412 92.6809 16.4192 92.5631 16.7237C92.3135 17.3893 92.3135 18.1229 92.5631 18.7885C92.6786 19.0903 92.8541 19.3654 93.0789 19.5974C93.3038 19.8293 93.5733 20.0132 93.8713 20.1379C94.1804 20.2688 94.5131 20.3349 94.8488 20.3322C95.2113 20.3362 95.5704 20.2618 95.9014 20.1141C96.216 19.9726 96.5031 19.7765 96.7495 19.5349L97.2332 20.0664C96.945 20.3873 96.5889 20.6398 96.1908 20.8058C95.3415 21.1453 94.3943 21.1465 93.5441 20.8092C93.1547 20.6508 92.8017 20.4148 92.5065 20.1154C92.2114 19.8161 91.9803 19.4597 91.8274 19.068C91.5049 18.222 91.5049 17.2869 91.8274 16.4409C91.9795 16.0483 92.2103 15.6911 92.5055 15.3911C92.8007 15.0911 93.1542 14.8546 93.5441 14.6963C93.9646 14.5246 94.4151 14.4389 94.8692 14.4441ZM99.5697 17.2519H100.612L103.31 14.5464H104.291L101.239 17.5722L104.345 20.9591H103.358L100.612 17.9538H99.5697V20.9591H98.7931V11.1458H99.5697V17.2519Z" fill="white"/>
</g>
<defs>
<clipPath id="clip0_10072_147244">
<rect width="112" height="32" fill="white" transform="translate(0.288086)"/>
</clipPath>
</defs>
</svg>
