<svg xmlns="http://www.w3.org/2000/svg" width="71" height="44" fill="none" viewBox="0 0 71 44">
  <path fill="#FF5F00" d="M44.88 5.228H26.07v33.544h18.81V5.228Z"/>
  <path fill="#EB001B" d="M27.265 22c-.003-3.23.735-6.42 2.157-9.325a21.328 21.328 0 0 1 6.053-7.447 21.585 21.585 0 0 0-10.99-4.44c-4.01-.427-8.06.274-11.688 2.024a21.44 21.44 0 0 0-8.826 7.87A21.215 21.215 0 0 0 .697 22c0 4.003 1.134 7.925 3.274 11.318a21.44 21.44 0 0 0 8.826 7.87 21.64 21.64 0 0 0 11.689 2.023 21.585 21.585 0 0 0 10.99-4.439 21.328 21.328 0 0 1-6.054-7.447A21.164 21.164 0 0 1 27.265 22Z"/>
  <path fill="#F79E1B" d="M70.252 22c0 4.003-1.134 7.925-3.274 11.318a21.44 21.44 0 0 1-8.825 7.87 21.638 21.638 0 0 1-11.689 2.023 21.584 21.584 0 0 1-10.989-4.439 21.366 21.366 0 0 0 6.049-7.449 21.203 21.203 0 0 0 0-18.646 21.366 21.366 0 0 0-6.049-7.45A21.584 21.584 0 0 1 46.465.789c4.01-.427 8.06.274 11.688 2.024a21.44 21.44 0 0 1 8.825 7.87A21.214 21.214 0 0 1 70.253 22ZM68.202 35.22v-.688h.279v-.14h-.71v.14h.278v.687h.153Zm1.38 0v-.829h-.218l-.251.57-.25-.57h-.219v.828h.154v-.625l.235.539h.16l.235-.54v.626h.153Z"/>
</svg>
