<svg width="18" height="16" viewBox="0 0 18 16" fill="none" xmlns="http://www.w3.org/2000/svg">
<path d="M11.7 2.84863V8.5C11.7 9.53418 10.8928 10.3721 9.9 10.3721L6.3 10.375L3.23719 12.1797C3.17531 12.2295 3.105 12.25 3.0375 12.25C2.86312 12.25 2.7 12.1064 2.7 11.8984V10.375H1.8C0.808594 10.375 0 9.53418 0 8.5V2.84863C0 1.84229 0.808594 1 1.8 1H9.9C10.8928 1 11.7 1.84229 11.7 2.84863ZM4.05 10.085L5.94562 8.96875H9.9C10.1447 8.96875 10.35 8.75781 10.35 8.5V2.875C10.35 2.61865 10.1447 2.40625 9.9 2.40625H1.8C1.55391 2.40625 1.35 2.61865 1.35 2.875V8.5C1.35 8.75781 1.55391 8.96875 1.8 8.96875H4.05V10.085ZM7.2 12.25V11.3125H8.55V12.25C8.55 12.5049 8.7525 12.7188 9 12.7188H12.0544L13.95 13.835V12.7188H16.2C16.4447 12.7188 16.65 12.5049 16.65 12.25V6.625C16.65 6.37012 16.4447 6.15625 16.2 6.15625H12.6V4.75H16.2C17.1928 4.75 18 5.59082 18 6.59863V12.25C18 13.2842 17.1928 14.125 16.2 14.125H15.3V15.6484C15.3 15.8564 15.1369 16 14.9625 16C14.895 16 14.8247 15.9795 14.7628 15.9297L11.7 14.125L9 14.1221C8.01 14.1221 7.2 13.2842 7.2 12.25Z" fill="#ADBFCC"/>
</svg>
