<svg xmlns="http://www.w3.org/2000/svg" width="200" height="200" fill="none" viewBox="0 0 200 200">
  <path fill="#8D9FB8" d="M116.716 29.985a2.993 2.993 0 0 0-3-2.985c-1.657 0-3 1.337-3 2.985a2.992 2.992 0 0 0 3 2.985c1.656 0 3-1.336 3-2.985ZM166.601 134.963a1.838 1.838 0 0 0-1.843-1.834 1.838 1.838 0 0 0-1.843 1.834c0 1.013.825 1.834 1.843 1.834a1.838 1.838 0 0 0 1.843-1.834ZM74.716 168.485c0-2.198-1.791-3.98-4-3.98-2.21 0-4 1.782-4 3.98s1.79 3.98 4 3.98c2.209 0 4-1.782 4-3.98ZM156.914 137.541c0-2.198-1.791-3.98-4-3.98s-4 1.782-4 3.98 1.791 3.98 4 3.98 4-1.782 4-3.98ZM43.4 84.522c0-2.748-2.24-4.975-5-4.975-2.762 0-5 2.227-5 4.975 0 2.748 2.238 4.975 5 4.975 2.76 0 5-2.227 5-4.975ZM126.716 43.916c0-2.748-2.239-4.976-5-4.976-2.762 0-5 2.228-5 4.976 0 2.747 2.238 4.975 5 4.975 2.761 0 5-2.228 5-4.975Z" opacity=".2"/>
  <path fill="#FC922B" d="M100.399 143.465c23.748 0 43-19.252 43-43s-19.252-43-43-43-43 19.252-43 43 19.252 43 43 43Z"/>
  <path fill="#FCFDFF" fill-rule="evenodd" d="m100.399 84.67-16.72 28.958h33.44l-16.72-28.959Zm1.52-2.633c-.675-1.17-2.364-1.17-3.04 0l-18.24 31.591c-.675 1.17.17 2.633 1.52 2.633h36.48c1.351 0 2.195-1.463 1.52-2.633l-18.24-31.591Zm-1.52 22.469c-.727 0-1.317-.59-1.317-1.317v-8.775a1.316 1.316 0 0 1 2.633 0v8.775c0 .727-.589 1.317-1.316 1.317Zm-2.194 4.186a2.194 2.194 0 1 0 4.387 0 2.194 2.194 0 0 0-4.387 0Z" clip-rule="evenodd"/>
  <path fill="#FC922B" d="M68.674 28.963a1.003 1.003 0 0 1 1.732 0l4.33 7.462a.995.995 0 0 1-.866 1.493h-8.66a.995.995 0 0 1-.866-1.493l4.33-7.462ZM123.449 165.472a1.003 1.003 0 0 1 1.732 0l3.464 5.971a.995.995 0 0 1-.866 1.492h-6.928a.995.995 0 0 1-.866-1.492l3.464-5.971ZM39.133 127.563a1.003 1.003 0 0 1 1.732 0l2.598 4.478a.995.995 0 0 1-.866 1.493H37.4a.995.995 0 0 1-.866-1.493l2.598-4.478ZM158.648 78.524a1.002 1.002 0 0 1 1.732 0l3.465 5.97a.996.996 0 0 1-.866 1.493h-6.929a.995.995 0 0 1-.866-1.492l3.464-5.97Z"/>
</svg>
