<svg width="16" height="16" viewBox="0 0 16 16" fill="none" xmlns="http://www.w3.org/2000/svg">
<path d="M5.77778 8.02111C5.77778 6.52389 6.77222 5.35444 8 5.35444C9.22778 5.35444 10.2222 6.52389 10.2222 8.02111C10.2222 9.49333 9.22778 10.6878 8 10.6878C6.77222 10.6878 5.77778 9.49333 5.77778 8.02111ZM0 12.6183V4.04889C0 3.37639 0.705 2.93028 1.34306 3.10556C3.56111 3.69056 5.78056 3.14917 8 2.58361C10.4139 1.96833 12.8278 1.35305 15.2417 2.25055C15.7167 2.42667 16 2.90889 16 3.42389V11.9683C16 12.6656 15.2944 13.1128 14.6583 12.9128C12.4389 12.3267 10.2194 12.8933 8 13.4572C5.58611 14.0739 3.17222 14.6878 0.758056 13.7906C0.283611 13.6156 0 13.1322 0 12.6183ZM7.75556 12.1433C9.30833 11.7461 11.0722 11.2961 12.9028 11.3461C13.0167 10.4739 13.7639 9.79889 14.6667 9.79889V4.91C13.6861 4.91 12.8917 4.11556 12.8889 3.13611C11.5833 3.08889 10.2 3.40056 8.61944 3.80167C8.49722 3.83222 8.37222 3.86556 8.24444 3.89889C6.69167 4.29611 4.92778 4.74611 3.09722 4.69611C2.98333 5.56833 2.23694 6.24333 1.33333 6.24333V11.1322C2.31389 11.1322 3.10833 11.9267 3.11111 12.9072C4.39167 12.9544 5.8 12.6406 7.38056 12.2406C7.50278 12.21 7.62778 12.1767 7.75556 12.1433Z" fill="#ADBFCC"/>
</svg>
