<svg width="16" height="17" viewBox="0 0 16 17" fill="none" xmlns="http://www.w3.org/2000/svg">
<path d="M12.1836 5.24609L8.90234 8.52734L12.1562 11.7812C12.4297 12.0273 12.4297 12.4375 12.1562 12.6836C11.9102 12.957 11.5 12.957 11.2539 12.6836L7.97266 9.42969L4.71875 12.6836C4.47266 12.957 4.0625 12.957 3.81641 12.6836C3.54297 12.4375 3.54297 12.0273 3.81641 11.7539L7.07031 8.5L3.81641 5.24609C3.54297 5 3.54297 4.58984 3.81641 4.31641C4.0625 4.07031 4.47266 4.07031 4.74609 4.31641L8 7.59766L11.2539 4.34375C11.5 4.07031 11.9102 4.07031 12.1836 4.34375C12.4297 4.58984 12.4297 5 12.1836 5.24609Z" fill="currentColor"/>
</svg>
