<svg width="40" height="40" viewBox="0 0 40 40" fill="none" xmlns="http://www.w3.org/2000/svg">
<rect width="40" height="40" rx="16" fill="#23F7DD"/>
<g clip-path="url(#clip0_13990_198816)">
<path d="M24.2286 12C25.1321 12 25.95 12.5321 26.3179 13.3575L27.8036 16.7C27.9321 16.9929 28 17.3071 28 17.6286V25.7143C28 26.975 26.975 28 25.7143 28H14.2857C13.0232 28 12 26.975 12 25.7143V17.6286C12 17.3071 12.0671 16.9929 12.197 16.7L13.6825 13.3575C14.0493 12.5318 14.8679 12 15.7714 12H24.2286ZM24.2286 13.7143H20.8571V16.5714H25.8714L24.75 14.0536C24.6607 13.8471 24.4536 13.7143 24.2286 13.7143ZM26.2857 18.2857H13.7143V25.7143C13.7143 26.0286 13.97 26.2857 14.2857 26.2857H25.7143C26.0286 26.2857 26.2857 26.0286 26.2857 25.7143V18.2857ZM14.13 16.5714H19.1429V13.7143H15.7714C15.5454 13.7143 15.3407 13.8471 15.2489 14.0536L14.13 16.5714Z" fill="black"/>
</g>
<defs>
<clipPath id="clip0_13990_198816">
<rect width="16" height="16" fill="white" transform="translate(12 12)"/>
</clipPath>
</defs>
</svg>
