<svg width="40" height="40" viewBox="0 0 40 40" fill="none" xmlns="http://www.w3.org/2000/svg">
<rect width="40" height="40" rx="16" fill="#23F7DD"/>
<path d="M10.7704 15.9029L12.0416 13.2784C12.134 13.0876 12.3331 12.9775 12.5382 13.0039L20.0002 13.9387L17.4577 18.314C17.2321 18.7326 16.7779 18.9152 16.3541 18.7925L11.3749 17.3225C10.7878 17.1494 10.4973 16.4663 10.7704 15.9029ZM20.0002 13.9387L27.463 13.0039C27.6673 12.9775 27.8654 13.0876 27.9599 13.2784L29.2312 15.9029C29.5025 16.4663 29.2129 17.1494 28.6245 17.3225L23.6462 18.7925C23.2225 18.9152 22.7683 18.7326 22.5427 18.314L20.0002 13.9387ZM27.8044 18.613V23.8665C27.8044 24.559 27.3472 25.1633 26.6948 25.3333L20.4727 26.9386C20.1617 27.0205 19.8386 27.0205 19.5276 26.9386L13.3056 25.3333C12.6529 25.1633 12.1959 24.559 12.1959 23.8665V18.613L13.6592 19.0443V23.8665L19.2685 25.3144V17.7443C19.2685 17.3256 19.5947 16.9888 20.0002 16.9888C20.4056 16.9888 20.7318 17.3256 20.7318 17.7443V25.3144L26.3411 23.8665V19.0443L27.8044 18.613Z" fill="black"/>
</svg>
