<svg width="40" height="40" viewBox="0 0 40 40" fill="none" xmlns="http://www.w3.org/2000/svg">
<rect width="40" height="40" rx="20" fill="#131313"/>
<path d="M19.125 14.75C19.125 15.2148 18.9336 15.6523 18.6328 15.9531L19.3711 17.5391C19.6992 17.4297 20.0547 17.375 20.4375 17.375C21.5039 17.375 22.4609 17.8125 23.1719 18.4961L25.2773 16.9375C25.25 16.8008 25.25 16.6641 25.25 16.5C25.25 15.543 26.0156 14.75 27 14.75C27.957 14.75 28.75 15.543 28.75 16.5C28.75 17.4844 27.957 18.25 27 18.25C26.6445 18.25 26.3438 18.168 26.0703 18.0039L23.9375 19.5625C24.2109 20.082 24.375 20.6836 24.375 21.3125C24.375 21.832 24.2656 22.3242 24.1016 22.7617L25.9336 23.8555C26.2344 23.6367 26.5898 23.5 26.9727 23.5C27.957 23.5 28.7227 24.293 28.7227 25.25C28.7227 26.2344 27.957 27 26.9727 27C26.0156 27 25.2227 26.2344 25.2227 25.25C25.2227 25.168 25.25 25.0859 25.25 24.9766L23.418 23.8828C22.707 24.7305 21.6133 25.25 20.4375 25.25C18.4688 25.25 16.8555 23.8555 16.5547 21.9688H14.6133C14.3398 22.625 13.7109 23.0625 13 23.0625C12.0156 23.0625 11.25 22.2969 11.25 21.3125C11.25 20.3555 12.0156 19.5625 13 19.5625C13.7109 19.5625 14.3398 20.0273 14.6133 20.6562H16.5547C16.7188 19.5898 17.3203 18.6875 18.1953 18.0859L17.457 16.5C17.4297 16.5 17.4023 16.5 17.375 16.5C16.3906 16.5 15.625 15.7344 15.625 14.75C15.625 13.793 16.3906 13 17.375 13C18.332 13 19.125 13.793 19.125 14.75ZM20.4375 23.9375C21.3672 23.9375 22.2148 23.4453 22.707 22.625C23.1719 21.832 23.1719 20.8203 22.707 20C22.2148 19.207 21.3672 18.6875 20.4375 18.6875C19.4805 18.6875 18.6328 19.207 18.1406 20C17.6758 20.8203 17.6758 21.832 18.1406 22.625C18.6328 23.4453 19.4805 23.9375 20.4375 23.9375Z" fill="#ADBFCC"/>
</svg>
