<svg width="40" height="40" viewBox="0 0 40 40" fill="none" xmlns="http://www.w3.org/2000/svg">
<rect width="40" height="40" rx="16" fill="url(#paint0_linear_2132_278849)"/>
<path d="M10.3892 18.8493C9.87026 19.7464 9.87026 20.8487 10.3892 21.7458L13.9415 27.8969C14.4604 28.794 15.4139 29.3451 16.4518 29.3451H23.5522C24.5861 29.3451 25.5436 28.794 26.0626 27.8969L29.6108 21.7458C30.1297 20.8487 30.1297 19.7464 29.6108 18.8493L26.0585 12.6983C25.5396 11.8011 24.5861 11.25 23.5482 11.25H16.4478C15.4139 11.25 14.4564 11.8011 13.9374 12.6983L10.3892 18.8493ZM16.0696 21.255C16.2506 21.0579 16.5041 20.9453 16.7696 20.9412C17.0351 20.9372 17.2926 21.0458 17.4776 21.2389L19.0425 22.8722L21.923 19.4045C22.108 19.1832 22.3776 19.0545 22.6672 19.0545C22.9569 19.0545 23.2264 19.1832 23.4114 19.4045L26.3321 22.9205L24.1114 26.7705C23.9948 26.9716 23.7856 27.0923 23.5522 27.0923H16.4478C16.2184 27.0923 16.0052 26.9716 15.8886 26.7705L14.0058 23.5119L16.0656 21.255H16.0696ZM17.4253 18.0447C16.5363 18.0447 15.8162 17.3246 15.8162 16.4356C15.8162 15.5465 16.5363 14.8264 17.4253 14.8264C18.3144 14.8264 19.0345 15.5465 19.0345 16.4356C19.0345 17.3246 18.3144 18.0447 17.4253 18.0447Z" fill="white"/>
<defs>
<linearGradient id="paint0_linear_2132_278849" x1="5.1633e-07" y1="2.58823" x2="41.8562" y2="4.79511" gradientUnits="userSpaceOnUse">
<stop stop-color="#27DFDF"/>
<stop offset="0.630208" stop-color="#615EF4"/>
<stop offset="1" stop-color="#4D5BDB"/>
</linearGradient>
</defs>
</svg>
