<svg width="16" height="15" viewBox="0 0 16 15" fill="none" xmlns="http://www.w3.org/2000/svg">
  <path
    d="M0.311375 6.07945C-0.103792 6.79714 -0.103792 7.67897 0.311375 8.39666L3.15317 13.3175C3.56834 14.0352 4.33109 14.4761 5.16142 14.4761H10.8418C11.6689 14.4761 12.4349 14.0352 12.85 13.3175L15.6886 8.39666C16.1038 7.67897 16.1038 6.79714 15.6886 6.07945L12.8468 1.1586C12.4317 0.440913 11.6689 0 10.8386 0H5.1582C4.33109 0 3.56512 0.440913 3.14995 1.1586L0.311375 6.07945ZM4.85568 8.00402C5.0005 7.84632 5.20326 7.75621 5.41567 7.75299C5.62808 7.74977 5.83405 7.83667 5.9821 7.99115L7.23403 9.2978L9.53837 6.52358C9.68641 6.34658 9.90204 6.24359 10.1338 6.24359C10.3655 6.24359 10.5811 6.34658 10.7292 6.52358L13.0657 9.33642L11.2891 12.4164C11.1958 12.5773 11.0285 12.6738 10.8418 12.6738H5.1582C4.97476 12.6738 4.80418 12.5773 4.71085 12.4164L3.20467 9.80951L4.85246 8.00402H4.85568ZM5.94026 5.43578C5.22901 5.43578 4.65292 4.8597 4.65292 4.14845C4.65292 3.43719 5.22901 2.86111 5.94026 2.86111C6.65151 2.86111 7.2276 3.43719 7.2276 4.14845C7.2276 4.8597 6.65151 5.43578 5.94026 5.43578Z"
    fill="currentColor" />
</svg>
