<svg width="14" height="15" viewBox="0 0 14 15" fill="none" xmlns="http://www.w3.org/2000/svg">
<path d="M3.30859 5.29297C2.625 6.49609 2.1875 7.72656 2.1875 8.73828C2.1875 11.5547 4.29297 13.6875 7 13.6875C9.65234 13.6875 11.8125 11.5547 11.8125 8.73828C11.8125 7.94531 11.5117 6.87891 11.0195 5.83984C10.582 4.85547 10.0078 3.98047 9.46094 3.40625C9.35156 3.54297 9.21484 3.73438 9.05078 3.92578C8.99609 4.03516 8.91406 4.14453 8.83203 4.25391C8.72266 4.41797 8.58594 4.60938 8.50391 4.71875C8.39453 4.88281 8.20312 4.96484 7.98438 4.99219C7.79297 4.99219 7.60156 4.88281 7.46484 4.71875C7.38281 4.60938 7.27344 4.47266 7.16406 4.36328C6.64453 3.67969 6.04297 2.91406 5.52344 2.39453C4.78516 3.10547 3.96484 4.14453 3.30859 5.29297ZM6.31641 1.32812C6.83594 1.82031 7.4375 2.55859 7.95703 3.21484L7.98438 3.1875C8.17578 2.88672 8.42188 2.55859 8.64062 2.33984C9.10547 1.92969 9.78906 1.92969 10.2539 2.33984C10.9648 3.05078 11.6758 4.14453 12.1953 5.29297C12.7422 6.41406 13.125 7.67188 13.125 8.73828C13.125 12.2656 10.3906 15 7 15C3.55469 15 0.875 12.2383 0.875 8.73828C0.875 7.37109 1.42188 5.92188 2.16016 4.63672C2.89844 3.35156 3.85547 2.14844 4.73047 1.32812C5.19531 0.917969 5.87891 0.917969 6.31641 1.32812ZM7.02734 12.375C5.30469 12.375 3.9375 11.2812 3.91016 9.39453C3.91016 8.57422 4.375 7.83594 5.30469 6.6875C5.49609 6.46875 5.82422 6.46875 5.98828 6.6875C6.45312 7.26172 7.24609 8.30078 7.71094 8.875C7.875 9.09375 8.20312 9.09375 8.36719 8.875L9.07812 8.08203C9.24219 7.86328 9.57031 7.89062 9.67969 8.13672C10.3633 9.39453 10.0625 11.0078 8.91406 11.8008C8.33984 12.1836 7.73828 12.375 7.02734 12.375Z" fill="white"/>
<path d="M1 2L13 14" stroke="white" stroke-width="1.5" stroke-linecap="round"/>
</svg>
