<svg width="40" height="40" viewBox="0 0 40 40" fill="none" xmlns="http://www.w3.org/2000/svg">
<rect width="40" height="40" rx="16" fill="#F36542"/>
<g clip-path="url(#clip0_2468_5241)">
<path fill-rule="evenodd" clip-rule="evenodd" d="M16.4001 13.4913C17.355 12.5365 18.6501 12 20.0005 12C21.351 12 22.6461 12.5365 23.601 13.4913C24.5558 14.4462 25.0923 15.7413 25.0923 17.0917C25.0923 19.5304 25.6139 21.0449 26.0946 21.9261C26.3359 22.3686 26.5709 22.6588 26.7342 22.8312C26.816 22.9175 26.8803 22.9748 26.919 23.007C26.9383 23.0232 26.9513 23.0331 26.9569 23.0372L26.959 23.0388C27.2198 23.2179 27.3352 23.5455 27.2433 23.8491C27.1504 24.1559 26.8676 24.3657 26.5471 24.3657H13.454C13.1335 24.3657 12.8507 24.1559 12.7578 23.8491C12.6659 23.5455 12.7813 23.2179 13.0421 23.0388L13.0442 23.0372C13.0498 23.0331 13.0627 23.0232 13.0821 23.007C13.1208 22.9748 13.1851 22.9175 13.2669 22.8312C13.4302 22.6588 13.6652 22.3686 13.9065 21.9261C14.3872 21.0449 14.9088 19.5304 14.9088 17.0917C14.9088 15.7413 15.4452 14.4462 16.4001 13.4913ZM19.175 26.1828C18.9734 25.8353 18.5283 25.717 18.1808 25.9186C17.8333 26.1202 17.7151 26.5653 17.9166 26.9128C18.1085 27.2435 18.3838 27.518 18.7151 27.7088C19.0463 27.8996 19.4219 28 19.8042 28C20.1865 28 20.5621 27.8996 20.8934 27.7088C21.2246 27.518 21.5 27.2435 21.6918 26.9128C21.8934 26.5653 21.7751 26.1202 21.4276 25.9186C21.0801 25.717 20.635 25.8353 20.4334 26.1828C20.3695 26.293 20.2777 26.3845 20.1673 26.4481C20.0568 26.5117 19.9316 26.5452 19.8042 26.5452C19.6768 26.5452 19.5516 26.5117 19.4412 26.4481C19.3307 26.3845 19.239 26.293 19.175 26.1828Z" fill="white"/>
</g>
<defs>
<clipPath id="clip0_2468_5241">
<rect width="16" height="16" fill="white" transform="translate(12 12)"/>
</clipPath>
</defs>
</svg>
