<svg xmlns="http://www.w3.org/2000/svg" width="28" height="28" fill="none" viewBox="0 0 28 28">
  <g filter="url(#a)">
    <rect width="20" height="20" x="4" y="2" fill="#0F0E0E" rx="10" shape-rendering="crispEdges"/>
    <path fill="#fff" fill-rule="evenodd" d="M10.4 7.5h7.2c.495 0 .9.405.9.9v5.4c0 .495-.405.9-.9.9h-6.3l-1.8 1.8V8.4c0-.495.405-.9.9-.9Zm1.35 5.4h4.5c.247 0 .45-.203.45-.45a.451.451 0 0 0-.45-.45h-4.5a.451.451 0 0 0-.45.45c0 .248.202.45.45.45Zm0-1.35h4.5c.247 0 .45-.203.45-.45a.451.451 0 0 0-.45-.45h-4.5a.451.451 0 0 0-.45.45c0 .247.202.45.45.45Zm0-1.35h4.5c.247 0 .45-.203.45-.45a.451.451 0 0 0-.45-.45h-4.5a.451.451 0 0 0-.45.45c0 .247.202.45.45.45Z" clip-rule="evenodd"/>
    <rect width="19.5" height="19.5" x="4.25" y="2.25" stroke="#212426" stroke-width=".5" rx="9.75" shape-rendering="crispEdges"/>
  </g>
  <defs>
    <filter id="a" width="28" height="28" x="0" y="0" color-interpolation-filters="sRGB" filterUnits="userSpaceOnUse">
      <feFlood flood-opacity="0" result="BackgroundImageFix"/>
      <feColorMatrix in="SourceAlpha" result="hardAlpha" values="0 0 0 0 0 0 0 0 0 0 0 0 0 0 0 0 0 0 127 0"/>
      <feOffset dy="2"/>
      <feGaussianBlur stdDeviation="2"/>
      <feComposite in2="hardAlpha" operator="out"/>
      <feColorMatrix values="0 0 0 0 0 0 0 0 0 0.0941176 0 0 0 0 0.223529 0 0 0 0.06 0"/>
      <feBlend in2="BackgroundImageFix" result="effect1_dropShadow_8087_8383"/>
      <feBlend in="SourceGraphic" in2="effect1_dropShadow_8087_8383" result="shape"/>
    </filter>
  </defs>
</svg>
