<svg xmlns="http://www.w3.org/2000/svg" width="16" height="16" fill="none" viewBox="0 0 16 16">
  <g clip-path="url(#a)">
    <path fill="#8293AA" fill-rule="evenodd" d="M8 0a5.092 5.092 0 0 0-5.092 5.092c0 2.438-.522 3.953-1.002 4.834a4.32 4.32 0 0 1-.64.905 2.197 2.197 0 0 1-.223.206l-.002.002a.727.727 0 0 0 .412 1.327h13.093a.727.727 0 0 0 .412-1.327l-.002-.002a2.194 2.194 0 0 1-.223-.206 4.317 4.317 0 0 1-.64-.905c-.48-.881-1.002-2.396-1.002-4.834A5.092 5.092 0 0 0 8 0Zm4.983 10.91H3.016c.056-.09.111-.186.167-.287.61-1.12 1.18-2.878 1.18-5.531a3.637 3.637 0 1 1 7.273 0c0 2.653.57 4.412 1.18 5.53.056.102.111.198.167.289Zm-5.809 3.273a.727.727 0 1 0-1.258.73 2.182 2.182 0 0 0 3.775 0 .727.727 0 0 0-1.259-.73.728.728 0 0 1-1.258 0Z" clip-rule="evenodd"/>
  </g>
  <defs>
    <clipPath id="a">
      <path fill="#fff" d="M0 0h16v16H0z"/>
    </clipPath>
  </defs>
</svg>
