<svg xmlns="http://www.w3.org/2000/svg" width="16" height="16" fill="none" viewBox="0 0 16 16">
  <g clip-path="url(#a)">
    <path fill="currentColor" d="m15.706 6.206-1.914-1.914A.997.997 0 0 0 13.088 4H8c-1.103 0-2.028.897-2 2v7.972C6 15.103 6.897 16 8 16h6c1.1 0 2-.9 2-2V6.916c0-.266-.106-.522-.294-.71ZM14.5 14a.5.5 0 0 1-.5.5H8a.5.5 0 0 1-.5-.5V6.003a.5.5 0 0 1 .5-.5h4V7a1 1 0 0 0 1 1h1.5v6ZM9.928 3A1.993 1.993 0 0 0 8 1.5H6.725A1.748 1.748 0 0 0 5 0c-.878 0-1.603.654-1.725 1.5H2a2 2 0 0 0-2 2V12a2 2 0 0 0 2 2h3v-1.5H2a.5.5 0 0 1-.5-.5V3.5c0-.275.224-.5.5-.5h.5v.5a1 1 0 0 0 1 1h1.917A2.986 2.986 0 0 1 8 3h1.928ZM5 2.25a.5.5 0 1 1 .001-1.001A.5.5 0 0 1 5 2.25Z"/>
  </g>
  <defs>
    <clipPath id="a">
      <path fill="#fff" d="M0 0h16v16H0z"/>
    </clipPath>
  </defs>
</svg>
