<svg width="14" height="10" viewBox="0 0 14 10" fill="none" xmlns="http://www.w3.org/2000/svg">
<path fill-rule="evenodd" clip-rule="evenodd" d="M12.5857 0.346512L9.78531 0.788994C9.35478 0.857568 9.06058 1.2702 9.12621 1.71186L9.14955 1.81926C9.25944 2.20158 9.62982 2.45228 10.0261 2.38962L10.9289 2.24715L7.55834 6.33492L5.08343 4.10725C4.7607 3.81678 4.27269 3.84386 3.98271 4.16899L0.20825 8.37113C-0.0870286 8.6984 -0.0675826 9.21191 0.252751 9.51319C0.39893 9.65457 0.590481 9.73069 0.789734 9.73069L0.919048 9.71976C1.08915 9.69078 1.24793 9.60494 1.37053 9.47088L4.62046 5.8449L7.12189 8.09645C7.2797 8.2397 7.48873 8.31157 7.7009 8.29524L7.82614 8.27533C7.98949 8.23558 8.13645 8.14391 8.2447 8.01148L12.2739 3.12162L12.4344 4.23116C12.4903 4.62838 12.8239 4.92195 13.214 4.92195C13.2522 4.92195 13.2905 4.91872 13.3317 4.91219C13.7592 4.85014 14.0564 4.43665 13.9908 3.99489L13.5729 1.08627C13.5645 0.859324 13.4526 0.637179 13.2638 0.487099C13.0691 0.334824 12.8192 0.283804 12.5857 0.346512Z" fill="#ADBFCC"/>
</svg>
