<svg xmlns="http://www.w3.org/2000/svg" width="17" height="16" fill="none" viewBox="0 0 17 16">
  <path fill="currentColor" d="M1.637 11.278c.13-.44.368-.844.693-1.169L11.834.603a2.003 2.003 0 0 1 2.832 0l1.23 1.233a2.001 2.001 0 0 1 0 2.83l-9.505 9.503c-.041.04-.082.053-.125.118-.3.266-.657.435-1.044.575l-3.76 1.107a.705.705 0 0 1-.742-.216c-.194-.166-.267-.45-.19-.716l1.107-3.76Zm.72 2.865 2.443-.718c.072-.022.144-.078.212-.085l-1.134-.228a.628.628 0 0 1-.49-.49l-.228-1.135a1.31 1.31 0 0 0-.084.213l-.719 2.444Zm3.79-1.853 6.322-6.322-1.966-1.965-6.294 6.35.294 1.616 1.644.321Z"/>
</svg>
