<svg width="16" height="17" viewBox="0 0 16 17" fill="none" xmlns="http://www.w3.org/2000/svg">
<path d="M0.480469 13.5039L1.10938 11.3711C1.21875 10.9883 1.4375 10.6328 1.71094 10.3594L10.0234 2.04688C10.707 1.36328 11.8281 1.36328 12.5117 2.04688L13.5781 3.11328C13.6602 3.19531 13.7422 3.30469 13.7969 3.38672C14.2617 4.07031 14.1797 5 13.5781 5.60156L5.26562 13.9141C5.23828 13.9414 5.18359 13.9688 5.15625 14.0234C4.88281 14.2422 4.58203 14.4062 4.25391 14.5156L2.12109 15.1445L0.945312 15.4727C0.726562 15.5547 0.480469 15.5 0.316406 15.3086C0.125 15.1445 0.0703125 14.8984 0.152344 14.6797L0.480469 13.5039ZM2.17578 12.3828L1.73828 13.8867L3.24219 13.4492L3.87109 13.2578C4.0625 13.2031 4.19922 13.1211 4.33594 12.9844L10.5977 6.72266L8.90234 5.02734L2.64062 11.2891C2.61328 11.2891 2.61328 11.3164 2.58594 11.3438C2.47656 11.4531 2.42188 11.5898 2.36719 11.7539L2.17578 12.3828ZM6.90625 14.1875H15.2188C15.5742 14.1875 15.875 14.4883 15.875 14.8438C15.875 15.2266 15.5742 15.5 15.2188 15.5H6.90625C6.52344 15.5 6.25 15.2266 6.25 14.8438C6.25 14.4883 6.52344 14.1875 6.90625 14.1875Z" fill="#23F7DD"/>
</svg>
