<svg xmlns="http://www.w3.org/2000/svg" width="16" height="16" fill="none" viewBox="0 0 16 16">
  <path fill="#ADBFCC" d="M11.75 10.823c-1.201 0-1.406-.029-2.139.206A4.873 4.873 0 0 1 8 11.294a4.922 4.922 0 0 1-1.64-.265c-.733-.235-.938-.206-2.11-.206-2.08 0-3.75 1.706-3.75 3.765v.47c0 .53.41.942.938.942h13.124a.946.946 0 0 0 .938-.941v-.47c0-2.06-1.7-3.766-3.75-3.766Zm2.344 3.765H1.906c0-.617.235-1.206.674-1.647a2.344 2.344 0 0 1 1.67-.706c1.201 0 1.201-.03 1.64.147a7.19 7.19 0 0 0 2.11.324c.703 0 1.406-.118 2.08-.324.469-.176.44-.147 1.67-.147a2.355 2.355 0 0 1 2.344 2.353ZM8 9.412a4.692 4.692 0 0 0 4.688-4.706C12.688 2.118 10.578 0 8 0 5.393 0 3.312 2.118 3.312 4.706A4.673 4.673 0 0 0 8 9.412Zm0-8c1.787 0 3.281 1.5 3.281 3.294A3.301 3.301 0 0 1 8 8a3.282 3.282 0 0 1-3.281-3.294c0-1.794 1.465-3.294 3.281-3.294Z"/>
</svg>
