<svg xmlns="http://www.w3.org/2000/svg" width="16" height="16" fill="none" viewBox="0 0 16 16">
  <path fill="#8293AA" d="M14.034 11.5a.75.75 0 0 1-1.024.274L8.75 9.3v4.95c0 .414-.336.75-.722.75-.386 0-.778-.334-.778-.75V9.3l-4.287 2.476c-.12.04-.248.099-.375.099a.75.75 0 0 1-.376-1.4L6.5 8 2.213 5.524A.785.785 0 0 1 1.909 4.5c.234-.356.694-.484 1.053-.275L7.25 6.7V1.75a.751.751 0 0 1 1.5 0V6.7l4.287-2.476c.363-.208.82-.08.997.276a.75.75 0 0 1-.274 1.024L9.472 8l4.287 2.476c.388.205.51.665.275 1.024Z"/>
</svg>
