<svg width="17" height="17" viewBox="0 0 17 17" fill="none" xmlns="http://www.w3.org/2000/svg">
  <path
    d="M15.5652 0.175119C15.8808 0.393869 16.0464 0.771994 15.987 1.15012L13.987 14.1501C13.9402 14.4532 13.7558 14.7189 13.487 14.8689C13.2183 15.0189 12.8964 15.0376 12.612 14.9189L8.66515 13.2782L7.41203 15.6064C7.24953 15.9095 6.90265 16.0626 6.56828 15.9782C6.2339 15.8939 5.99953 15.5939 5.99953 15.2501V12.2501C5.99953 12.0845 6.05578 11.922 6.1589 11.7907L11.3245 5.14699C11.4027 4.92512 11.1214 4.70012 10.9183 4.88449L5.32453 9.94387L4.32453 10.847C4.03703 11.1064 3.62765 11.1782 3.26828 11.0282L0.612026 9.92199C0.262026 9.77512 0.0245263 9.44387 0.0026513 9.06262C-0.0192237 8.68137 0.174526 8.32199 0.505776 8.13137L14.5058 0.131369C14.8402 -0.0592555 15.2527 -0.0405055 15.5683 0.175119H15.5652Z"
    fill="currentColor" />
</svg>
