<svg xmlns="http://www.w3.org/2000/svg" width="23" height="17" fill="none" viewBox="0 0 23 17">
  <path fill="currentColor" d="M22.75 12.046c0-.225-.016-.453-.05-.683l-.968-6.576c-.235-1.802-1-4.537-10.248-4.537-9.226 0-9.951 2.717-10.219 4.538l-.964 6.576a4.64 4.64 0 0 0-.051.689c0 2.412 1.878 4.447 4.267 4.447 1.624-.005 3.111-.961 3.823-2.466l.486-1.016h5.376l.484 1.015c.713 1.506 2.192 2.463 3.816 2.467 2.396 0 4.248-2.039 4.248-4.454Zm-1.69 0c0 .652-.226 1.29-.643 1.794-.48.585-1.187.92-1.93.92h-.015c-.977 0-1.857-.571-2.297-1.492l-.645-1.343a1.047 1.047 0 0 0-.98-.648H8.479c-.429 0-.82.25-1.01.646l-.645 1.344c-.165.344-.83 1.492-2.321 1.492-.743 0-1.445-.34-1.922-.92a2.818 2.818 0 0 1-.611-2.213l.968-6.576c.172-1.155.978-2.061 2.059-2.312a28.806 28.806 0 0 1 6.488-.747c2.155 0 4.373.25 6.517.748 1.082.25 1.887 1.156 2.06 2.312l.967 6.576c.053.14.032.277.032.419ZM15.257 7.57c-.62 0-1.095.521-1.095 1.16 0 .64.506 1.16 1.095 1.16.59 0 1.095-.52 1.095-1.16 0-.639-.444-1.16-1.095-1.16ZM8.95 6.344H7.824l-.001-1.161c0-.479-.38-.87-.844-.87-.434 0-.846.391-.846.87l.001 1.16H5.006c-.464 0-.844.392-.844.871 0 .48.38.87.844.87h1.128l-.001 1.162c0 .478.38.87.846.87.464 0 .844-.392.844-.87l.001-1.162H8.95a.861.861 0 0 0 .846-.87c0-.479-.35-.87-.846-.87Zm8.561-2.032c-.62 0-1.095.522-1.095 1.161 0 .64.506 1.16 1.095 1.16.62 0 1.095-.52 1.095-1.16 0-.639-.443-1.16-1.095-1.16Z"/>
</svg>
