<svg xmlns="http://www.w3.org/2000/svg" width="17" height="16" fill="none" viewBox="0 0 17 16">
  <mask id="a" fill="#fff">
    <path fill-rule="evenodd" d="m15.677 5.465.829 5.396a2.54 2.54 0 0 1-.598 2.021 2.452 2.452 0 0 1-.862.631c-.33.143-.685.212-1.043.2a2.842 2.842 0 0 1-1.665-.511 2.927 2.927 0 0 1-1.073-1.394l-.188-.544H5.992l-.188.544a2.927 2.927 0 0 1-1.075 1.395c-.49.341-1.073.52-1.667.51a2.408 2.408 0 0 1-1.044-.2 2.45 2.45 0 0 1-.862-.63 2.54 2.54 0 0 1-.599-2.022l.835-5.396a3.364 3.364 0 0 1 .874-1.702 3.265 3.265 0 0 1 1.648-.93 19.78 19.78 0 0 1 9.239 0c.627.139 1.2.462 1.649.93.449.468.753 1.06.875 1.702ZM4.34 5.833a.5.5 0 0 1 .5-.5h.143a.5.5 0 0 1 .5.5v.643h.642a.5.5 0 0 1 .5.5v.143a.5.5 0 0 1-.5.5h-.642v.643a.5.5 0 0 1-.5.5H4.84a.5.5 0 0 1-.5-.5v-.643h-.643a.5.5 0 0 1-.5-.5v-.143a.5.5 0 0 1 .5-.5h.643v-.643Zm9.524.453a.952.952 0 1 1-1.905 0 .952.952 0 0 1 1.905 0Zm-2.477 3.238a.952.952 0 1 0 0-1.905.952.952 0 0 0 0 1.905Z" clip-rule="evenodd"/>
  </mask>
  <path fill="#4C6485" fill-rule="evenodd" d="m15.677 5.465.829 5.396a2.54 2.54 0 0 1-.598 2.021 2.452 2.452 0 0 1-.862.631c-.33.143-.685.212-1.043.2a2.842 2.842 0 0 1-1.665-.511 2.927 2.927 0 0 1-1.073-1.394l-.188-.544H5.992l-.188.544a2.927 2.927 0 0 1-1.075 1.395c-.49.341-1.073.52-1.667.51a2.408 2.408 0 0 1-1.044-.2 2.45 2.45 0 0 1-.862-.63 2.54 2.54 0 0 1-.599-2.022l.835-5.396a3.364 3.364 0 0 1 .874-1.702 3.265 3.265 0 0 1 1.648-.93 19.78 19.78 0 0 1 9.239 0c.627.139 1.2.462 1.649.93.449.468.753 1.06.875 1.702ZM4.34 5.833a.5.5 0 0 1 .5-.5h.143a.5.5 0 0 1 .5.5v.643h.642a.5.5 0 0 1 .5.5v.143a.5.5 0 0 1-.5.5h-.642v.643a.5.5 0 0 1-.5.5H4.84a.5.5 0 0 1-.5-.5v-.643h-.643a.5.5 0 0 1-.5-.5v-.143a.5.5 0 0 1 .5-.5h.643v-.643Zm9.524.453a.952.952 0 1 1-1.905 0 .952.952 0 0 1 1.905 0Zm-2.477 3.238a.952.952 0 1 0 0-1.905.952.952 0 0 0 0 1.905Z" clip-rule="evenodd"/>
  <path fill="#4C6485" d="m16.506 10.861 1.485-.211-.003-.017-1.482.228Zm-.83-5.396 1.483-.228a1.318 1.318 0 0 0-.009-.052l-1.473.28Zm.75 6.474 1.44.426-1.44-.426Zm-.518.943 1.127.99-1.127-.99Zm-.862.631.599 1.375-.6-1.375Zm-1.043.2.05-1.5h-.072l.022 1.5Zm-1.665-.511.857-1.231-.857 1.231Zm-1.073-1.394-1.418.49.01.028 1.408-.518Zm-.188-.544 1.418-.49a1.5 1.5 0 0 0-1.418-1.01v1.5Zm-5.085 0v-1.5a1.5 1.5 0 0 0-1.417 1.01l1.417.49Zm-.188.544 1.407.518.01-.027-1.417-.49Zm-1.075 1.395-.856-1.232.856 1.232Zm-1.667.51.024-1.5H3.01l.051 1.5Zm-1.906-.83 1.126-.99-1.126.99Zm-.52-.943-1.439.426 1.439-.426Zm-.08-1.079-1.482-.23-.002.019 1.485.211Zm.836-5.396-1.474-.28a1.498 1.498 0 0 0-.008.05l1.482.23Zm.874-1.702L1.183 2.725l1.083 1.038Zm1.648-.93.325 1.464.027-.006-.352-1.458Zm4.61-.547-.002 1.5h.002v-1.5Zm4.629.547-.35 1.458.025.006.325-1.464Zm1.649.93 1.083-1.038-1.083 1.038ZM5.484 6.476h-1.5a1.5 1.5 0 0 0 1.5 1.5v-1.5Zm0 1.143v-1.5a1.5 1.5 0 0 0-1.5 1.5h1.5Zm-1.143 0h1.5a1.5 1.5 0 0 0-1.5-1.5v1.5Zm-1.143-.5h-1.5 1.5Zm1.143-.643v1.5a1.5 1.5 0 0 0 1.5-1.5h-1.5Zm13.647 4.157-.829-5.396-2.965.455.83 5.397 2.964-.456Zm-.123 1.732a4.04 4.04 0 0 0 .126-1.715l-2.97.422c.02.148.01.3-.032.442l2.876.851Zm-.83 1.507c.383-.436.666-.95.83-1.507l-2.876-.851a1.007 1.007 0 0 1-.209.379l2.255 1.979Zm-1.39 1.016a3.95 3.95 0 0 0 1.39-1.016l-2.255-1.98a.95.95 0 0 1-.334.246l1.199 2.75Zm-1.692.324c.581.02 1.16-.092 1.692-.324l-1.199-2.75a.909.909 0 0 1-.394.076l-.099 2.998Zm-2.471-.779a4.343 4.343 0 0 0 2.542.78l-.043-3a1.343 1.343 0 0 1-.786-.242l-1.713 2.462Zm-1.625-2.107a4.427 4.427 0 0 0 1.625 2.107l1.713-2.462a1.427 1.427 0 0 1-.522-.68l-2.816 1.035Zm-.198-.573.188.544 2.836-.977-.188-.545-2.836.978Zm-3.667 1.01h5.085v-3H5.992v3Zm1.23-.464.188-.545-2.835-.98-.189.544 2.835.981Zm-1.637 2.136a4.427 4.427 0 0 0 1.626-2.109l-2.815-1.035c-.103.28-.288.517-.523.68l1.712 2.464Zm-2.546.778c.91.014 1.799-.259 2.546-.778l-1.712-2.464c-.234.163-.51.246-.787.242l-.047 3Zm-1.619-.324a3.91 3.91 0 0 0 1.693.323l-.102-2.998a.908.908 0 0 1-.394-.076L1.42 14.89ZM.029 13.873c.383.437.858.784 1.391 1.016l1.197-2.75a.95.95 0 0 1-.335-.246L.03 13.873Zm-.832-1.507c.165.556.448 1.071.832 1.507l2.253-1.98a1.008 1.008 0 0 1-.208-.379l-2.877.852Zm-.125-1.716a4.04 4.04 0 0 0 .125 1.716l2.877-.852a1.04 1.04 0 0 1-.032-.442l-2.97-.422Zm.838-5.415-.836 5.397 2.965.459.835-5.397-2.964-.459Zm1.273-2.51a4.864 4.864 0 0 0-1.265 2.46l2.948.559c.068-.36.237-.687.483-.943L1.183 2.725Zm2.406-1.357a4.765 4.765 0 0 0-2.406 1.357l2.166 2.076c.245-.256.555-.43.89-.504l-.65-2.929ZM8.524.786a21.097 21.097 0 0 0-4.962.588l.704 2.917a18.096 18.096 0 0 1 4.256-.505l.002-3Zm4.98.588A21.28 21.28 0 0 0 8.522.786l.001 3c1.44-.001 2.876.168 4.279.505l.7-2.917Zm2.38 1.351a4.766 4.766 0 0 0-2.406-1.357l-.65 2.929c.335.074.646.248.891.504l2.166-2.076Zm1.266 2.46a4.865 4.865 0 0 0-1.265-2.46l-2.166 2.076c.246.257.416.584.484.943l2.947-.56ZM4.84 3.833a2 2 0 0 0-2 2h3a1 1 0 0 1-1 1v-3Zm.144 0H4.84v3h.143v-3Zm2 2a2 2 0 0 0-2-2v3a1 1 0 0 1-1-1h3Zm0 .643v-.643h-3v.643h3Zm-.858-1.5h-.642v3h.642v-3Zm2 2a2 2 0 0 0-2-2v3a1 1 0 0 1-1-1h3Zm0 .143v-.143h-3v.143h3Zm-2 2a2 2 0 0 0 2-2h-3a1 1 0 0 1 1-1v3Zm-.642 0h.642v-3h-.642v3Zm1.5-.857v-.643h-3v.643h3Zm-2 2a2 2 0 0 0 2-2h-3a1 1 0 0 1 1-1v3Zm-.143 0h.143v-3H4.84v3Zm-2-2a2 2 0 0 0 2 2v-3a1 1 0 0 1 1 1h-3Zm0-.643v.643h3v-.643h-3Zm.857 1.5h.643v-3h-.643v3Zm-2-2a2 2 0 0 0 2 2v-3a1 1 0 0 1 1 1h-3Zm0-.143v.143h3v-.143h-3Zm2-2a2 2 0 0 0-2 2h3a1 1 0 0 1-1 1v-3Zm.643 0h-.643v3h.643v-3Zm-1.5.857v.643h3v-.643h-3Zm10.071 2.905a2.452 2.452 0 0 0 2.453-2.452h-3c0-.303.245-.548.547-.548v3ZM10.46 6.286a2.452 2.452 0 0 0 2.452 2.452v-3c.303 0 .548.245.548.548h-3Zm2.452-2.453a2.452 2.452 0 0 0-2.452 2.453h3a.548.548 0 0 1-.548.547v-3Zm2.453 2.453a2.452 2.452 0 0 0-2.453-2.453v3a.548.548 0 0 1-.547-.547h3ZM10.84 8.57c0-.302.245-.547.547-.547v3a2.452 2.452 0 0 0 2.453-2.453h-3Zm.547.548a.548.548 0 0 1-.547-.548h3a2.452 2.452 0 0 0-2.453-2.452v3Zm.548-.548a.548.548 0 0 1-.548.548v-3a2.452 2.452 0 0 0-2.452 2.452h3Zm-.548-.547c.303 0 .548.245.548.547h-3a2.452 2.452 0 0 0 2.452 2.453v-3Z" mask="url(#a)"/>
</svg>
