<svg xmlns="http://www.w3.org/2000/svg" width="25" height="20" fill="none" viewBox="0 0 25 20">
  <path fill="currentColor" fill-rule="evenodd" d="M24.322 12.635c.036.236.053.47.053.7 0 2.475-1.955 4.563-4.483 4.563a4.495 4.495 0 0 1-4.029-2.527l-.51-1.04H9.677l-.513 1.04a4.507 4.507 0 0 1-4.036 2.527c-2.521 0-4.504-2.084-4.504-4.556 0-.234.018-.468.054-.706L1.696 5.9C1.98 4.033 2.746 1.25 12.483 1.25c9.763 0 10.569 2.802 10.817 4.648l1.022 6.737ZM8.62 7.493h1.188c.524 0 .892.402.893.893 0 .49-.403.891-.893.891H8.62l-.001 1.19c0 .49-.4.891-.891.891a.895.895 0 0 1-.893-.891l.001-1.19h-1.19a.894.894 0 0 1-.891-.891c0-.491.4-.892.89-.892h1.191l-.001-1.19c0-.49.435-.891.893-.891.49 0 .89.4.89.891l.002 1.19Zm6.69 2.447c0-.655.501-1.19 1.156-1.19.687 0 1.156.535 1.156 1.19 0 .655-.534 1.189-1.156 1.189-.622 0-1.156-.534-1.156-1.19Zm3.534-4.527c-.655 0-1.155.534-1.155 1.189s.534 1.189 1.155 1.189C19.5 7.79 20 7.257 20 6.6c0-.654-.468-1.188-1.156-1.188Z" clip-rule="evenodd"/>
</svg>
