<svg xmlns="http://www.w3.org/2000/svg" width="17" height="16" fill="none" viewBox="0 0 17 16">
  <path fill="#4C6485" fill-rule="evenodd" d="M12.591 7.812a.618.618 0 0 0-.188-.43.618.618 0 0 0-.43-.187H9.15V4.37a.618.618 0 0 0-.188-.429.618.618 0 0 0-.43-.188h-.375a.623.623 0 0 0-.618.617v2.824H4.716a.623.623 0 0 0-.618.617v.376c0 .353.265.617.618.617H7.54v2.824c0 .352.265.617.618.617h.375a.623.623 0 0 0 .618-.617V8.805h2.823a.623.623 0 0 0 .618-.617v-.376ZM16.345 8c0-4.42-3.581-8-8-8-4.42 0-8 3.58-8 8s3.58 8 8 8c4.419 0 8-3.58 8-8Zm-1.486 0c0 3.588-2.926 6.514-6.514 6.514A6.506 6.506 0 0 1 1.83 8c0-3.559 2.895-6.514 6.514-6.514 3.558 0 6.514 2.926 6.514 6.514Z" clip-rule="evenodd"/>
</svg>
