<svg xmlns="http://www.w3.org/2000/svg" width="16" height="16" fill="none" viewBox="0 0 16 16">
  <g clip-path="url(#a)">
    <path fill="#8293AA" d="m14.578 2.616-6-2.5A1.47 1.47 0 0 0 8.002 0c-.196 0-.393.038-.577.116l-6 2.5A1.49 1.49 0 0 0 .5 3.972C.5 12.044 6.419 16 7.997 16c1.54 0 7.503-3.897 7.503-12.028a1.49 1.49 0 0 0-.922-1.356ZM8 14.5C4.953 13.231 2 9.29 2 4l6-2.5L14 4c0 5.431-3.075 9.281-6 10.5ZM6.253 7.719a.67.67 0 0 0-.503-.247.75.75 0 0 0-.75.75c0 .219.072.412.219.531l1.5 1.5c.14.169.334.219.531.219a.755.755 0 0 0 .57-.262l3-3.5a.748.748 0 0 0 .18-.488c0-.231-.18-.75-.75-.75a.75.75 0 0 0-.57.262L7.21 8.647l-.957-.928Z"/>
  </g>
  <defs>
    <clipPath id="a">
      <path fill="#fff" d="M0 0h16v16H0z"/>
    </clipPath>
  </defs>
</svg>
