<svg width="16" height="16" viewBox="0 0 16 16" fill="none" xmlns="http://www.w3.org/2000/svg">
<path d="M8.0134 0.0625C3.62238 0.0625 0.0620975 3.61664 0.0620975 8.0017C0.0620975 12.3868 3.62238 15.9409 8.0134 15.9409C11.6256 15.9409 14.7488 13.5165 15.6836 10.101L15.7466 9.85532L15.9651 8.94364L14.1417 8.50666L13.9232 9.41835C13.2749 12.1235 10.8401 14.0659 8.0134 14.0659C4.65719 14.0659 1.9371 11.3505 1.9371 8.0017C1.9371 4.6529 4.65719 1.9375 8.0134 1.9375C9.29677 1.9375 10.5172 2.33474 11.536 3.05984L11.7675 3.23296L12.5048 3.812L13.6629 2.3374L12.9256 1.75835C11.5352 0.666418 9.81916 0.0625 8.0134 0.0625Z" fill="#23F7DD"/>
</svg>
