<svg xmlns="http://www.w3.org/2000/svg" width="14" height="14" fill="none" viewBox="0 0 14 14">
  <path fill="currentColor" d="M3.25 2.25c.275 0 .5.253.5.5v.5c0 .303-.225.5-.5.5h-.5a.484.484 0 0 1-.5-.5v-.5c0-.247.224-.5.5-.5h.5ZM0 1.5C0 .7.672 0 1.5 0h3C5.328 0 6 .7 6 1.5v3C6 5.356 5.328 6 4.5 6h-3C.672 6 0 5.356 0 4.5v-3Zm1.5 3h3v-3h-3v3Zm.75 6.25c0-.247.224-.5.5-.5h.5c.275 0 .5.253.5.5v.5c0 .303-.225.5-.5.5h-.5a.484.484 0 0 1-.5-.5v-.5ZM0 9.5C0 8.7.672 8 1.5 8h3C5.328 8 6 8.7 6 9.5v3c0 .856-.672 1.5-1.5 1.5h-3C.672 14 0 13.356 0 12.5v-3Zm1.5 3h3v-3h-3v3Zm9.75-10.25c.275 0 .5.253.5.5v.5c0 .303-.225.5-.5.5h-.5a.484.484 0 0 1-.5-.5v-.5c0-.247.225-.5.5-.5h.5ZM12.5 0c.828 0 1.5.7 1.5 1.5v3c0 .856-.672 1.5-1.5 1.5h-3C8.672 6 8 5.356 8 4.5v-3C8 .7 8.672 0 9.5 0h3Zm0 1.5h-3v3h3v-3ZM12 14h-1v-1h1v1Zm1-1h1v1h-1v-1Zm1-1h-3v-1h-1v3H8V8h3v1h2V8h1v4Z"/>
</svg>
