<svg width="42" height="30" viewBox="0 0 42 30" fill="none" xmlns="http://www.w3.org/2000/svg">
  <path d="M42 18.75C42 25.0312 36.9375 30 30.75 30H30C28.3125 30 27 28.6875 27 27C27 25.4062 28.3125 24 30 24H30.75C33.5625 24 36 21.6562 36 18.75V18H30C26.625 18 24 15.375 24 12V6C24 2.71875 26.625 0 30 0H36C39.2812 0 42 2.71875 42 6V9V12V18.75ZM18 18.75C18 25.0312 12.9375 30 6.75 30H6C4.3125 30 3 28.6875 3 27C3 25.4062 4.3125 24 6 24H6.75C9.5625 24 12 21.6562 12 18.75V18H6C2.625 18 0 15.375 0 12V6C0 2.71875 2.625 0 6 0H12C15.2812 0 18 2.71875 18 6V9V12V18.75Z" fill="white"/>
</svg>
