<svg width="40" height="40" viewBox="0 0 40 40" fill="none" xmlns="http://www.w3.org/2000/svg">
<rect width="40" height="40" rx="20" fill="#131313"/>
<path fill-rule="evenodd" clip-rule="evenodd" d="M19.383 14.7701L19.383 23.3721L15.6249 19.614C15.3246 19.3137 14.8317 19.3137 14.5314 19.614C14.231 19.9143 14.231 20.3995 14.5314 20.6998L19.6063 25.7747C19.9066 26.0751 20.3918 26.0751 20.6921 25.7747L25.7747 20.7075C26.0751 20.4072 26.0751 19.922 25.7747 19.6217C25.4744 19.3214 24.9893 19.3214 24.6889 19.6217L20.9232 23.3721L20.9232 14.7701C20.9232 14.3465 20.5766 14 20.1531 14C19.7295 14 19.383 14.3465 19.383 14.7701Z" fill="#ADBFCC"/>
</svg>
