<svg width="16" height="16" viewBox="0 0 16 16" fill="none" xmlns="http://www.w3.org/2000/svg">
<g clip-path="url(#clip0_20613_5535)">
<path d="M10.25 4.5C10.6656 4.5 11 4.83437 11 5.25C11 5.66563 10.6656 6 10.25 6H5.75C5.33437 6 5 5.66563 5 5.25C5 4.83437 5.33437 4.5 5.75 4.5H10.25ZM10.25 10C10.6656 10 11 10.3344 11 10.75C11 11.1656 10.6656 11.5 10.25 11.5H5.75C5.33437 11.5 5 11.1656 5 10.75C5 10.3344 5.33437 10 5.75 10H10.25ZM5 8C5 7.58437 5.33437 7.25 5.75 7.25H10.25C10.6656 7.25 11 7.58437 11 8C11 8.41562 10.6656 8.75 10.25 8.75H5.75C5.33437 8.75 5 8.41562 5 8ZM4.5 1.26219L5.7625 0.180562C6.04375 -0.0601875 6.45625 -0.0601875 6.7375 0.180562L8 1.26219L9.2625 0.180562C9.54375 -0.0601875 9.95625 -0.0601875 10.2375 0.180562L11.5 1.26219L12.7625 0.180562C12.9844 -0.0100438 13.2969 -0.05375 13.5625 0.068625C13.8281 0.191031 14 0.457188 14 0.75V15.25C14 15.5437 13.8281 15.8094 13.5625 15.9312C13.2969 16.0531 12.9844 16.0094 12.7625 15.8188L11.5 14.7375L10.2375 15.8188C9.95625 16.0594 9.54375 16.0594 9.2625 15.8188L8 14.7375L6.7375 15.8188C6.45625 16.0594 6.04375 16.0594 5.7625 15.8188L4.5 14.7375L3.23812 15.8188C3.01562 16.0094 2.70281 16.0531 2.43656 15.9312C2.1705 15.8094 2 15.5437 2 15.25V0.75C2 0.457188 2.1705 0.191 2.43656 0.068625C2.70281 -0.05375 3.01562 -0.0100438 3.23812 0.180562L4.5 1.26219ZM4.01187 13.1812C4.29281 12.9406 4.70719 12.9406 4.98813 13.1812L6.25 14.2625L7.5125 13.1812C7.79375 12.9406 8.20625 12.9406 8.4875 13.1812L9.75 14.2625L11.0125 13.1812C11.2937 12.9406 11.7063 12.9406 11.9875 13.1812L12.5 13.6187V2.38063L11.9875 2.81938C11.7063 3.06031 11.2937 3.06031 11.0125 2.81938L9.75 1.73781L8.4875 2.81938C8.20625 3.06031 7.79375 3.06031 7.5125 2.81938L6.25 1.73781L4.98813 2.81938C4.70719 3.06031 4.29281 3.06031 4.01187 2.81938L3.5 2.38063V13.6187L4.01187 13.1812Z" fill="currentColor"/>
</g>
<defs>
<clipPath id="clip0_20613_5535">
<rect width="12" height="16" fill="white" transform="translate(2)"/>
</clipPath>
</defs>
</svg>
