<svg xmlns="http://www.w3.org/2000/svg" width="16" height="16" fill="none" viewBox="0 0 16 16">
  <path fill="currentColor" d="M2.438.068a.749.749 0 0 1 .8.113L4.5 1.262 5.763.181a.749.749 0 0 1 .975 0L8 1.262 9.263.181a.749.749 0 0 1 .975 0l1.263 1.081L12.763.181a.749.749 0 0 1 1.238.569v14.5a.75.75 0 0 1-1.238.57l-1.262-1.082-1.263 1.081a.749.749 0 0 1-.975 0L8 14.738l-1.262 1.081a.749.749 0 0 1-.975 0L4.5 14.738l-1.262 1.081A.749.749 0 0 1 2 15.25V.75a.75.75 0 0 1 .438-.682ZM5 4.5c-.275 0-.5.225-.5.5s.225.5.5.5h6c.276 0 .5-.225.5-.5s-.224-.5-.5-.5H5ZM4.5 11c0 .275.225.5.5.5h6c.276 0 .5-.225.5-.5s-.224-.5-.5-.5H5c-.275 0-.5.225-.5.5ZM5 7.5c-.275 0-.5.225-.5.5s.225.5.5.5h6c.276 0 .5-.225.5-.5s-.224-.5-.5-.5H5Z"/>
</svg>
