<svg width="16" height="16" viewBox="0 0 16 16" fill="none" xmlns="http://www.w3.org/2000/svg">
<path d="M1.5 3.34375C2.9375 1.34375 5.3125 0 8 0C12.4062 0 16 3.59375 16 8C16 12.4375 12.4062 16 8 16C6.34375 16 4.84375 15.5312 3.5625 14.6875C3.21875 14.4688 3.125 14 3.375 13.6562C3.59375 13.3125 4.0625 13.2188 4.40625 13.4375C5.4375 14.125 6.65625 14.5 8 14.5C11.5625 14.5 14.5 11.5938 14.5 8C14.5 4.4375 11.5625 1.5 8 1.5C5.6875 1.5 3.65625 2.71875 2.5 4.5H4.25C4.65625 4.5 5 4.84375 5 5.25C5 5.6875 4.65625 6 4.25 6H0.75C0.3125 6 0 5.6875 0 5.25V1.75C0 1.34375 0.3125 1 0.75 1C1.15625 1 1.5 1.34375 1.5 1.75V3.34375ZM8 4H7.96875C8.40625 4 8.71875 4.34375 8.71875 4.75V7.71875L10.75 9.75C11.0625 10.0312 11.0625 10.5 10.75 10.7812C10.4688 11.0938 10 11.0938 9.71875 10.7812L7.46875 8.53125C7.3125 8.40625 7.25 8.21875 7.25 8V4.75C7.25 4.34375 7.5625 4 8 4Z" fill="currentColor"/>
</svg>
