<svg width="22" height="22" viewBox="0 0 22 22" fill="none" xmlns="http://www.w3.org/2000/svg">
<rect x="1" y="1" width="20" height="20" rx="10" fill="#1F1F1F"/>
<path fill-rule="evenodd" clip-rule="evenodd" d="M10.3582 6.64175L10.3582 13.81L7.22652 10.6783C6.97624 10.428 6.56552 10.428 6.31524 10.6783C6.06496 10.9286 6.06496 11.3329 6.31524 11.5832L10.5443 15.8123C10.7946 16.0626 11.1989 16.0626 11.4492 15.8123L15.6847 11.5896C15.935 11.3393 15.935 10.935 15.6847 10.6847C15.4344 10.4345 15.0301 10.4345 14.7799 10.6847L11.6417 13.81L11.6417 6.64175C11.6417 6.28879 11.3529 6 11 6C10.647 6 10.3582 6.28879 10.3582 6.64175Z" fill="#23F7DD"/>
<rect x="1" y="1" width="20" height="20" rx="10" stroke="black"/>
</svg>
