<svg xmlns="http://www.w3.org/2000/svg" width="37" height="18" fill="none" viewBox="0 0 37 18">
  <path fill="currentColor" d="M7.976 4.448H5.428C2.74 4.448.724 6.282.724 8.704v2.8c0 2.702 2.016 4.746 4.704 4.732l3.78-.014v-1.596h-3.78c-1.736 0-3.024-1.33-3.024-3.122v-2.8c0-1.582 1.288-2.772 3.024-2.772h2.548c1.736 0 2.926 1.078 2.926 2.646v1.526c0 1.022-.266 1.372-.784 1.372-.392 0-.7-.266-.7-.658V7.444H7.836v.546c-.322-.378-.868-.644-1.568-.644-1.624 0-2.618 1.148-2.632 2.898-.014 1.764 1.008 2.912 2.674 2.912 1.162 0 1.736-.49 1.974-1.036.196.588.966.952 1.806.952 1.456 0 2.422-1.022 2.422-2.968V8.578c0-2.422-1.862-4.13-4.536-4.13Zm-1.428 7.35c-.812.014-1.358-.616-1.358-1.554 0-.924.546-1.54 1.358-1.54.84 0 1.372.616 1.372 1.54 0 .938-.532 1.554-1.372 1.554Z"/>
  <g clip-path="url(#a)">
    <path fill="currentColor" d="M30.5 13h-3a.5.5 0 0 0 0 1h3a.5.5 0 1 0 0-1Zm2-12.5h-7a2 2 0 0 0-2 2v12a2 2 0 0 0 2 2h7a2 2 0 0 0 2-2v-12a2 2 0 0 0-2-2Zm.5 14a.5.5 0 0 1-.5.5h-7a.501.501 0 0 1-.5-.5v-12a.5.5 0 0 1 .5-.5H27v1a.5.5 0 0 0 .5.5h3A.5.5 0 0 0 31 3V2h1.5c.275 0 .5.224.5.5v12Z"/>
  </g>
  <defs>
    <clipPath id="a">
      <path fill="#fff" d="M21 .5h16v16H21z"/>
    </clipPath>
  </defs>
</svg>
