<svg width="16" height="16" viewBox="0 0 16 16" fill="none" xmlns="http://www.w3.org/2000/svg">
<path d="M3.57031 6.14062C3.40625 6.46875 3.02344 6.60547 2.69531 6.46875C2.36719 6.33203 2.20312 5.94922 2.33984 5.62109C3.26953 3.43359 5.45703 1.875 8 1.875C9.42188 1.875 10.7891 2.44922 11.8008 3.46094L13.25 4.91016V3.40625C13.25 3.05078 13.5234 2.75 13.9062 2.75C14.2617 2.75 14.5625 3.05078 14.5625 3.40625V6.46875C14.5625 6.85156 14.2617 7.125 13.9062 7.125H10.8438C10.4609 7.125 10.1875 6.85156 10.1875 6.46875C10.1875 6.11328 10.4609 5.8125 10.8438 5.8125H12.3203L10.8711 4.39062C10.1055 3.625 9.06641 3.1875 8 3.1875C6.00391 3.1875 4.28125 4.41797 3.57031 6.14062ZM13.6328 10.4336C12.6758 12.5938 10.5156 14.125 8 14.125C6.55078 14.125 5.18359 13.5781 4.17188 12.5391L2.75 11.1172V12.5938C2.75 12.9766 2.44922 13.25 2.09375 13.25C1.71094 13.25 1.4375 12.9766 1.4375 12.5938V9.53125C1.4375 9.17578 1.71094 8.875 2.09375 8.875H5.15625C5.51172 8.875 5.8125 9.17578 5.8125 9.53125C5.8125 9.91406 5.51172 10.1875 5.15625 10.1875H3.65234L5.10156 11.6367C5.86719 12.4023 6.90625 12.8125 8 12.8125C9.96875 12.8125 11.6914 11.6367 12.4023 9.91406C12.5664 9.55859 12.9492 9.42188 13.2773 9.55859C13.6055 9.69531 13.7695 10.0781 13.6328 10.4336Z" fill="#ADBFCC"/>
</svg>
