<svg xmlns="http://www.w3.org/2000/svg" width="20" height="21" fill="none" viewBox="0 0 20 21">
  <path fill="#fff" d="M10.2 8.834a1.255 1.255 0 0 1 1.1.6l.6-.6a1.426 1.426 0 0 0-1.2-.6v-.8a.1.1 0 0 0-.1-.1H10a.1.1 0 0 0-.1.1v.8a1.308 1.308 0 0 0-1.3 1.2c0 .7.6 1 1.5 1.2.5.1.7.2.7.4s-.2.3-.6.3a1.217 1.217 0 0 1-1.2-.6l-.5.7a1.841 1.841 0 0 0 1.4.6v.8a.1.1 0 0 0 .1.1h.6a.1.1 0 0 0 .1-.1v-.8c.7-.1 1.2-.5 1.2-1.1 0-.7-.4-1-1.5-1.2-.5-.1-.8-.2-.8-.4 0-.3.2-.5.6-.5Z"/>
  <path fill="#fff" d="M18.1 5.334c-.1-.1-4.8-3.9-4.8-3.9a2.155 2.155 0 0 0-1.7-.5 2.6 2.6 0 0 0-1.6.9l-2.7 3.1h-4a2.22 2.22 0 0 0-2.2 2.2v5.8a2.271 2.271 0 0 0 .9 1.8l5 4.2c.43.327.958.503 1.5.5h.3a2.6 2.6 0 0 0 1.6-.9l2.7-3.4H17a2.22 2.22 0 0 0 2.2-2.2v-5.8a2.8 2.8 0 0 0-1.1-1.8Zm-7.1-2.7a1.01 1.01 0 0 1 .7-.4h.1c.215.005.424.074.6.2l3.1 2.5H9l2-2.3Zm-1.8 15.1a1.011 1.011 0 0 1-.7.4 1.078 1.078 0 0 1-.8-.2l-3.2-2.7h6.8l-2.1 2.5Zm8.5-4.8a.9.9 0 0 1-.9.9H3.3a.9.9 0 0 1-.9-.9v-5.8a.9.9 0 0 1 .9-.9h13.5a.9.9 0 0 1 .9.9v5.8Z"/>
</svg>
