<svg width="16" height="16" viewBox="0 0 16 16" fill="none" xmlns="http://www.w3.org/2000/svg">
<path d="M10.0625 8.375C10.3438 8.46875 10.6562 8.5 11 8.5C12.875 8.5 14.4062 7 14.4688 5.125L13.6875 5.9375C13.3125 6.3125 12.8125 6.5 12.2812 6.5H11.5C10.375 6.5 9.5 5.625 9.5 4.5V3.71875C9.5 3.1875 9.6875 2.6875 10.0625 2.3125L10.875 1.53125C9 1.59375 7.5 3.125 7.5 5C7.5 5.34375 7.53125 5.65625 7.625 5.9375C7.75 6.46875 7.59375 7.03125 7.21875 7.40625L1.78125 12.8438C1.59375 13.0312 1.5 13.2812 1.5 13.5312C1.5 14.0625 1.9375 14.5 2.46875 14.5C2.71875 14.5 2.96875 14.4062 3.15625 14.2188L8.59375 8.78125C8.96875 8.40625 9.53125 8.25 10.0625 8.375ZM13.25 1.25L11.125 3.375C11.0312 3.46875 11 3.59375 11 3.71875V4.5C11 4.78125 11.2188 5 11.5 5H12.2812C12.4062 5 12.5312 4.96875 12.625 4.875L14.75 2.75C14.9688 2.53125 15.3438 2.5625 15.5 2.84375C15.8125 3.5 16 4.25 16 5C16 7.78125 13.75 10 11 10C10.5312 10 10.0938 9.9375 9.65625 9.84375L4.21875 15.2812C3.75 15.75 3.125 16 2.46875 16C1.09375 16 0 14.9062 0 13.5312C0 12.875 0.25 12.25 0.71875 11.7812L6.15625 6.34375C6.0625 5.90625 6 5.46875 6 5C6 2.25 8.21875 0 11 0C11.75 0 12.5 0.1875 13.1562 0.5C13.4375 0.65625 13.4688 1.03125 13.25 1.25ZM2.75 12.75C3 12.75 3.25 13 3.25 13.25C3.25 13.5312 3 13.75 2.75 13.75C2.46875 13.75 2.25 13.5312 2.25 13.25C2.25 13 2.46875 12.75 2.75 12.75Z" fill="black"/>
</svg>
