<svg xmlns="http://www.w3.org/2000/svg" width="10" height="16" fill="none" viewBox="0 0 10 16">
  <path fill="#8293AA" fill-rule="evenodd" d="M5.75 1.143a.75.75 0 0 0-1.5 0v1.536h-.917c-.812 0-1.595.316-2.174.883A3.012 3.012 0 0 0 .25 5.714c0 .81.329 1.584.909 2.152.579.568 1.362.884 2.174.884h.917v3.072H1a.75.75 0 0 0 0 1.5h3.25v1.535a.75.75 0 0 0 1.5 0v-1.535h.917c.812 0 1.595-.317 2.174-.884.58-.568.909-1.342.909-2.152s-.329-1.584-.909-2.152a3.108 3.108 0 0 0-2.174-.884H5.75V4.18h2.583a.75.75 0 1 0 0-1.5H5.75V1.143Zm-1.5 3.036h-.917c-.425 0-.829.165-1.125.455-.295.29-.458.678-.458 1.08 0 .403.163.792.458 1.08.296.29.7.456 1.125.456h.917V4.18Zm1.5 4.571v3.072h.917c.425 0 .829-.166 1.125-.456.295-.289.458-.678.458-1.08s-.163-.791-.458-1.08c-.296-.29-.7-.456-1.125-.456H5.75Z" clip-rule="evenodd"/>
</svg>
