<svg width="16" height="16" viewBox="0 0 16 16" fill="none" xmlns="http://www.w3.org/2000/svg">
  <path
    d="M1.21281 1.56956C1.49309 1.45531 1.81531 1.51781 2.03031 1.73266L3.31469 3.01703C4.59812 1.75516 6.34937 0.988281 8.22406 0.988281C12.1125 1.01644 15.25 4.15363 15.25 8.013C15.25 11.8724 12.1125 15.0099 8.25313 15.0099C6.61844 15.0099 5.025 14.4371 3.76875 13.3921C3.45031 13.1264 3.4075 12.6539 3.67306 12.3355C3.93966 12.0161 4.41119 11.9743 4.72963 12.2398C5.71563 13.0599 6.96562 13.513 8.25 13.513C11.2822 13.513 13.75 11.0452 13.75 8.013C13.75 4.98081 11.2812 2.513 8.25 2.513C6.77875 2.513 5.40844 3.11581 4.4 4.10331L6.02938 5.73269C6.24422 5.94753 6.30769 6.26988 6.19247 6.55019C6.07812 6.83175 5.80312 7.013 5.5 7.013H1.5C1.08594 7.013 0.75 6.67863 0.75 6.263V2.263C0.75 1.95925 0.9325 1.68581 1.21281 1.56956Z"
    fill="currentColor" />
</svg>