<svg width="16" height="16" viewBox="0 0 16 16" fill="none" xmlns="http://www.w3.org/2000/svg">
  <path
    d="M14.2335 6.9998H14.499C14.9146 6.9998 15.2489 6.6655 15.2489 6.24998V2.25091C15.2489 1.94785 15.0677 1.67292 14.7865 1.55732C14.5053 1.44172 14.1835 1.50421 13.9679 1.71978L12.6682 3.01948C9.93135 0.316985 5.52301 0.326358 2.80177 3.05072C0.0680305 5.78446 0.0680305 10.2147 2.80177 12.9484C5.53551 15.6822 9.96572 15.6822 12.6995 12.9484C13.09 12.5579 13.09 11.9237 12.6995 11.5331C12.3089 11.1426 11.6747 11.1426 11.2842 11.5331C9.3315 13.4858 6.16661 13.4858 4.21394 11.5331C2.26127 9.58045 2.26127 6.41556 4.21394 4.46289C6.15724 2.5196 9.29713 2.51022 11.2529 4.43165L9.96885 5.71885C9.75327 5.93442 9.69079 6.25622 9.80638 6.53741C9.92198 6.81859 10.1969 6.9998 10.5 6.9998H14.2335Z"
    fill="currentColor" />
</svg>