<svg xmlns="http://www.w3.org/2000/svg" width="17" height="16" fill="none" viewBox="0 0 17 16">
  <g clip-path="url(#a)">
    <path fill="#ADBFCC" d="M14.722 1.875H4.944c-.982 0-1.777.783-1.777 1.75V9.75c0 .967.796 1.75 1.777 1.75h9.778c.982 0 1.778-.783 1.778-1.75V3.625c0-.967-.797-1.75-1.778-1.75Zm.445 7.875c0 .241-.2.438-.445.438h-.444l-3.036-4.4a.453.453 0 0 0-.742 0L8.757 8.363l-.62-.838a.447.447 0 0 0-.718 0l-2.03 2.663h-.445A.442.442 0 0 1 4.5 9.75V3.625c0-.241.2-.438.444-.438h9.778c.245 0 .445.197.445.438V9.75ZM6.722 4.062a.882.882 0 0 0-.889.875c0 .484.398.875.89.875a.882.882 0 0 0 .888-.875.882.882 0 0 0-.889-.875Zm6.445 10.063H3.833C1.995 14.125.5 12.654.5 10.844V4.28c0-.36.299-.656.667-.656.368 0 .666.295.666.656v6.563c0 1.085.898 1.969 2 1.969h9.334c.368 0 .666.293.666.656a.66.66 0 0 1-.666.656Z"/>
  </g>
  <defs>
    <clipPath id="a">
      <path fill="#fff" d="M.5 0h16v16H.5z"/>
    </clipPath>
  </defs>
</svg>
