<svg xmlns="http://www.w3.org/2000/svg" width="23" height="19" fill="none" viewBox="0 0 23 19">
  <path fill="currentColor" fill-rule="evenodd" d="M19.336 12.018a1 1 0 0 1 1 1v2.324A3.659 3.659 0 0 1 16.677 19h-3.324a1 1 0 1 1 0-2h3.324a1.66 1.66 0 0 0 1.659-1.66v-2.323a1 1 0 0 1 1-1ZM12.353 1a1 1 0 0 1 1-1h3.324a3.659 3.659 0 0 1 3.659 3.659v2.324a1 1 0 1 1-2 0V3.659A1.66 1.66 0 0 0 16.677 2h-3.324a1 1 0 0 1-1-1ZM9.65 18a1 1 0 0 1-1 1H5.328a3.66 3.66 0 0 1-3.66-3.658v-2.324a1 1 0 1 1 2 0v2.324A1.659 1.659 0 0 0 5.328 17H8.65a1 1 0 0 1 1 1ZM2.668 6.982a1 1 0 0 1-1-1V3.658A3.66 3.66 0 0 1 5.327 0h3.324a1 1 0 0 1 0 2H5.327a1.659 1.659 0 0 0-1.659 1.66v2.323a1 1 0 0 1-1 1ZM.35 9.5A.65.65 0 0 1 1 8.85h20.668a.65.65 0 1 1 0 1.3H1a.65.65 0 0 1-.65-.65Z" clip-rule="evenodd"/>
</svg>
