<svg xmlns="http://www.w3.org/2000/svg" width="17" height="16" fill="none" viewBox="0 0 17 16">
  <path fill="#23F7DD" fill-rule="evenodd" d="M14.328 9.834c.402 0 .729.326.729.728v1.693a2.665 2.665 0 0 1-2.665 2.665H9.97a.728.728 0 0 1 0-1.457h2.42a1.208 1.208 0 0 0 1.209-1.208v-1.693c0-.402.326-.728.728-.728ZM9.242 1.808c0-.402.326-.728.729-.728h2.42a2.665 2.665 0 0 1 2.665 2.665v1.693a.728.728 0 0 1-1.456 0V3.745a1.208 1.208 0 0 0-1.208-1.208H9.97a.728.728 0 0 1-.729-.729ZM7.274 14.192a.728.728 0 0 1-.728.728h-2.42a2.665 2.665 0 0 1-2.666-2.665v-1.693a.728.728 0 0 1 1.457 0v1.693a1.209 1.209 0 0 0 1.208 1.208h2.421c.402 0 .728.326.728.729ZM2.188 6.166a.728.728 0 0 1-.728-.728V3.745A2.665 2.665 0 0 1 4.125 1.08h2.42a.728.728 0 0 1 0 1.457h-2.42a1.208 1.208 0 0 0-1.208 1.208v1.693a.728.728 0 0 1-.729.728ZM.5 7.999c0-.262.212-.474.473-.474h15.054a.473.473 0 0 1 0 .947H.973A.473.473 0 0 1 .5 8Z" clip-rule="evenodd"/>
</svg>
