<svg xmlns="http://www.w3.org/2000/svg" width="16" height="16" fill="none" viewBox="0 0 16 16">
  <path fill="currentColor" fill-rule="evenodd" d="M11.725 9.886h-.741l-.263-.243c1.126-1.258 1.707-2.974 1.388-4.799C11.67 2.346 9.492.351 6.866.045 2.898-.422-.433 2.777.046 6.58c.319 2.516 2.401 4.601 5.01 5.023a6.286 6.286 0 0 0 5.008-1.33l.254.252v.71l3.996 3.82a1.01 1.01 0 0 0 1.388 0l.01-.01a.91.91 0 0 0 0-1.33l-3.987-3.828Zm-5.629 0c-2.335 0-4.221-1.805-4.221-4.043 0-2.238 1.886-4.044 4.221-4.044 2.336 0 4.222 1.806 4.222 4.044 0 2.238-1.886 4.044-4.222 4.044Z" clip-rule="evenodd"/>
</svg>
