<svg width="20" height="20" viewBox="0 0 20 20" fill="none" xmlns="http://www.w3.org/2000/svg">
<path fill-rule="evenodd" clip-rule="evenodd" d="M9.99922 0.261719C4.62412 0.261719 0.261719 4.62412 0.261719 9.99922C0.261719 15.3743 4.62412 19.7367 9.99922 19.7367C15.3743 19.7367 19.7367 15.3743 19.7367 9.99922C19.7367 4.62412 15.3743 0.261719 9.99922 0.261719ZM7.36036 14.1766L3.86459 10.6808C3.48483 10.3011 3.48483 9.68762 3.86459 9.30786C4.24436 8.92809 4.85782 8.92809 5.23758 9.30786L8.05172 12.1123L14.7511 5.41286C15.1309 5.03309 15.7443 5.03309 16.1241 5.41286C16.5039 5.79262 16.5039 6.40608 16.1241 6.78584L8.73334 14.1766C8.36332 14.5564 7.74012 14.5564 7.36036 14.1766Z" fill="currentColor"/>
</svg>
