<svg xmlns="http://www.w3.org/2000/svg" width="16" height="16" fill="none" viewBox="0 0 16 16">
  <path fill="currentColor" d="M4.733 15.235V4.995l2.497.031c.312 0 .593-.187.687-.468.125-.28.094-.593-.125-.812L4.545.25a.754.754 0 0 0-1.092 0L.206 3.746c-.219.219-.25.531-.156.812a.78.78 0 0 0 .687.468l2.497-.03v10.24c0 .436.344.748.75.748a.76.76 0 0 0 .749-.749ZM11.226.75V11.02l-2.497-.03c-.312 0-.593.187-.687.468a.718.718 0 0 0 .156.811l3.247 3.497a.755.755 0 0 0 1.093 0l3.246-3.497c.219-.218.25-.53.125-.811-.093-.281-.374-.469-.687-.469l-2.497.031V.75a.74.74 0 0 0-.75-.75.76.76 0 0 0-.749.75Z"/>
</svg>
