<svg width="22" height="22" viewBox="0 0 22 22" fill="none" xmlns="http://www.w3.org/2000/svg">
<rect x="1" y="1" width="20" height="20" rx="10" fill="#1F1F1F"/>
<path fill-rule="evenodd" clip-rule="evenodd" d="M11.5881 14.9949V8.42396L14.4589 11.2947C14.6883 11.5241 15.0648 11.5241 15.2942 11.2947C15.5236 11.0653 15.5236 10.6947 15.2942 10.4652L11.4175 6.58857C11.1881 6.35915 10.8175 6.35915 10.5881 6.58857L6.70552 10.4594C6.47609 10.6888 6.47609 11.0594 6.70552 11.2888C6.93494 11.5182 7.30555 11.5182 7.53497 11.2888L10.4116 8.42396V14.9949C10.4116 15.3184 10.6763 15.5832 10.9999 15.5832C11.3234 15.5832 11.5881 15.3184 11.5881 14.9949Z" fill="#23F7DD"/>
<rect x="1" y="1" width="20" height="20" rx="10" stroke="black"/>
</svg>
