<svg xmlns="http://www.w3.org/2000/svg" width="17" height="16" fill="none" viewBox="0 0 17 16">
  <g clip-path="url(#a)">
    <path fill="#ADBFCC" d="M8.5 3.5a2.75 2.75 0 1 0 0 5.5 2.75 2.75 0 0 0 0-5.5Zm0 4a1.25 1.25 0 1 1 0-2.5 1.25 1.25 0 0 1 0 2.5Zm0-7.5a8 8 0 0 0-8 8 8 8 0 0 0 8 8 8 8 0 0 0 8-8 8 8 0 0 0-8-8Zm0 14.5c-1.46 0-2.805-.49-3.89-1.306A3.113 3.113 0 0 1 7.38 11.5h2.24c1.18 0 2.229.657 2.772 1.694A6.469 6.469 0 0 1 8.5 14.5Zm5.006-2.36A4.596 4.596 0 0 0 9.62 10H7.38c-1.605 0-3.042.82-3.887 2.14A6.466 6.466 0 0 1 2 8c0-3.584 2.916-6.5 6.5-6.5S15 4.416 15 8a6.476 6.476 0 0 1-1.494 4.14Z"/>
  </g>
  <defs>
    <clipPath id="a">
      <path fill="#fff" d="M.5 0h16v16H.5z"/>
    </clipPath>
  </defs>
</svg>
