<svg xmlns="http://www.w3.org/2000/svg" width="16" height="16" fill="none" viewBox="0 0 16 16">
  <g clip-path="url(#a)">
    <path fill="#ADBFCC" d="M13.474 0H2.246A2.245 2.245 0 0 0 0 2.246v11.508A2.245 2.245 0 0 0 2.246 16h11.228a2.245 2.245 0 0 0 2.245-2.246V2.246A2.247 2.247 0 0 0 13.474 0Zm.561 13.754c0 .31-.252.562-.561.562H2.246a.562.562 0 0 1-.562-.562V12.07h12.351v1.684Zm0-3.368H11.65a2.798 2.798 0 0 0-2.668-1.965H6.737a2.8 2.8 0 0 0-2.668 1.965H1.684v-8.14c0-.31.252-.562.562-.562h11.228c.31 0 .561.252.561.562v8.14ZM7.86 2.807a2.245 2.245 0 1 0 0 4.49 2.245 2.245 0 0 0 0-4.49Z"/>
  </g>
  <defs>
    <clipPath id="a">
      <path fill="#fff" d="M0 0h16v16H0z"/>
    </clipPath>
  </defs>
</svg>
