<svg xmlns="http://www.w3.org/2000/svg" width="16" height="16" fill="none" viewBox="0 0 16 16">
  <path fill="#ADBFCC" d="M.311 7.08a2.311 2.311 0 0 0 0 2.317l2.842 4.92a2.317 2.317 0 0 0 2.008 1.16h5.68a2.32 2.32 0 0 0 2.009-1.16l2.839-4.92c.415-.718.415-1.6 0-2.318l-2.842-4.92A2.316 2.316 0 0 0 10.839 1h-5.68A2.32 2.32 0 0 0 3.15 2.159L.311 7.079Zm4.545 1.924a.77.77 0 0 1 1.126-.013l1.252 1.307 2.304-2.774a.774.774 0 0 1 1.191 0l2.337 2.812-1.777 3.08a.512.512 0 0 1-.447.258H5.158a.516.516 0 0 1-.447-.258L3.205 10.81l1.647-1.805h.004ZM5.94 6.436a1.287 1.287 0 1 1 0-2.574 1.287 1.287 0 0 1 0 2.574Z"/>
</svg>
