<svg xmlns="http://www.w3.org/2000/svg" width="20" height="20" fill="none" viewBox="0 0 20 20">
  <g clip-path="url(#a)">
    <path fill="currentColor" stroke="currentColor" d="m19.371 13.492-.469-.173a9.184 9.184 0 0 1-.583 1.266l-.18.31a9.43 9.43 0 0 1-.817 1.154l-.002.001a.385.385 0 0 1-.418.106l-2.176-.691-.25-.08-.207.16c-.489.376-1.028.69-1.604.926l-.242.1-.056.256-.488 2.23a.383.383 0 0 1-.303.309h-.002a9.597 9.597 0 0 1-3.156 0h-.002a.383.383 0 0 1-.303-.31l-.488-2.23-.056-.255-.242-.1a7.016 7.016 0 0 1-1.604-.926l-.208-.16-.25.08-2.17.695a.392.392 0 0 1-.421-.108 9.446 9.446 0 0 1-.818-1.154l-.179-.309a9.178 9.178 0 0 1-.583-1.266.385.385 0 0 1 .115-.416l.003-.002 1.69-1.54.194-.175-.034-.259a7.058 7.058 0 0 1 0-1.858l.034-.259-.193-.176-1.691-1.54-.003-.001a.385.385 0 0 1-.115-.416 9.18 9.18 0 0 1 .583-1.266l.18-.31c.243-.406.517-.79.817-1.154l.002-.001a.385.385 0 0 1 .418-.106l2.176.691.25.08.207-.16a7.016 7.016 0 0 1 1.604-.926l.242-.1.056-.256.488-2.23A.383.383 0 0 1 8.42.634h.006A9.594 9.594 0 0 1 11.578.63h.002a.383.383 0 0 1 .303.308l.488 2.23.056.256.242.1c.575.237 1.115.55 1.604.926l.208.16.249-.08 2.175-.691c.165-.053.33 0 .421.108.3.363.574.748.818 1.154l.179.309c.18.325.34.659.48 1.003l.099.266a.385.385 0 0 1-.115.417l-.002.002-1.692 1.539-.193.176.034.26a7.05 7.05 0 0 1 0 1.853l-.034.259.193.176 1.692 1.54.002.001c.127.114.165.28.115.417l.47.172Zm0 0a.885.885 0 0 0-.25-.96l-.367 2.3c.238-.43.445-.875.617-1.34ZM2.29 3.632a.885.885 0 0 1 .957-.265l-.957.266ZM10 13.626a3.624 3.624 0 1 0 0-7.25 3.624 3.624 0 1 0 0 7.25Z"/>
  </g>
  <defs>
    <clipPath id="a">
      <path fill="currentColor" d="M0 0h20v20H0z"/>
    </clipPath>
  </defs>
</svg>
