<svg xmlns="http://www.w3.org/2000/svg" width="16" height="16" fill="none" viewBox="0 0 16 16">
  <g clip-path="url(#a)">
    <path fill="#8293AA" d="M16 3.429a3.43 3.43 0 0 1-6.014 2.25L6.782 7.282c.05.232.043.472.043.686 0 .278.007.518-.043.75l3.204 1.571c.628-.689 1.553-1.178 2.585-1.178 1.893 0 3.429 1.535 3.429 3.46A3.43 3.43 0 0 1 12.571 16a3.409 3.409 0 0 1-3.428-3.429 3.4 3.4 0 0 1 .075-.717L6.014 10.25a3.42 3.42 0 0 1-2.585 1.179C1.535 11.429 0 9.893 0 7.968a3.429 3.429 0 0 1 3.429-3.429c1.032 0 1.957.49 2.585 1.179l3.204-1.572a3.4 3.4 0 0 1-.075-.717A3.409 3.409 0 0 1 12.57 0 3.429 3.429 0 0 1 16 3.429ZM3.396 9.714c.979 0 1.715-.768 1.715-1.714s-.736-1.714-1.715-1.714c-.914 0-1.714.768-1.714 1.714s.8 1.714 1.714 1.714Zm9.175-8a1.715 1.715 0 1 0 .001 3.43 1.715 1.715 0 0 0 0-3.43Zm0 12.572a1.715 1.715 0 1 0 0-3.43 1.715 1.715 0 0 0 0 3.43Z"/>
  </g>
  <defs>
    <clipPath id="a">
      <path fill="#fff" d="M0 0h16v16H0z"/>
    </clipPath>
  </defs>
</svg>
