<svg xmlns="http://www.w3.org/2000/svg" width="16" height="16" fill="none" viewBox="0 0 16 16">
  <g clip-path="url(#a)">
    <path fill="currentColor" fill-rule="evenodd" d="M7.467.234a.722.722 0 0 1 1.065 0l3.012 3.2a.836.836 0 0 1 0 1.132.722.722 0 0 1-1.065 0L8.753 2.732v7.775c0 .383-.337.694-.753.694s-.753-.31-.753-.694V2.731L5.52 4.566a.722.722 0 0 1-1.064 0 .836.836 0 0 1 0-1.132l3.011-3.2ZM2.73 7.2c0-.441-.337-.8-.753-.8s-.753.359-.753.8v6.4c0 .637.238 1.247.662 1.697.424.45.998.703 1.597.703h9.035c.6 0 1.174-.252 1.598-.703.423-.45.661-1.06.661-1.697V7.2c0-.441-.337-.8-.753-.8-.415 0-.753.359-.753.8v6.4c0 .213-.079.416-.22.566a.732.732 0 0 1-.533.234H3.482a.731.731 0 0 1-.532-.234.826.826 0 0 1-.22-.566V7.2Z" clip-rule="evenodd"/>
  </g>
  <defs>
    <clipPath id="a">
      <path fill="currentColor" d="M0 0h16v16H0z"/>
    </clipPath>
  </defs>
</svg>
