<svg xmlns="http://www.w3.org/2000/svg" width="16" height="17" fill="none" viewBox="0 0 16 17">
  <g clip-path="url(#a)">
    <path fill="currentColor" d="m14.578 3.116-6-2.5A1.47 1.47 0 0 0 8.002.5c-.196 0-.393.037-.577.116l-6 2.5A1.49 1.49 0 0 0 .5 4.472C.5 12.544 6.419 16.5 7.997 16.5c1.54 0 7.503-3.897 7.503-12.028a1.49 1.49 0 0 0-.922-1.356ZM8 15C4.953 13.73 2 9.79 2 4.5L8 2l6 2.5C14 9.93 10.925 13.78 8 15ZM6.253 8.219a.67.67 0 0 0-.503-.247.75.75 0 0 0-.75.75c0 .218.072.412.219.53l1.5 1.5c.14.17.334.22.531.22a.755.755 0 0 0 .57-.262l3-3.5a.748.748 0 0 0 .18-.488c0-.232-.18-.75-.75-.75a.75.75 0 0 0-.57.261L7.21 9.147l-.957-.928Z"/>
  </g>
  <defs>
    <clipPath id="a">
      <path fill="#fff" d="M0 .5h16v16H0z"/>
    </clipPath>
  </defs>
</svg>
