<svg xmlns="http://www.w3.org/2000/svg" width="16" height="16" fill="none" viewBox="0 0 16 16">
  <path fill="#8293AA" d="M14.8 8.75h-.4V6.985c0-.98-.75-1.876-1.792-1.975-.07-.007-.14-.01-.208-.01-1.103-.021-2 .841-2 1.875V8.75H10c-.66 0-1.2.506-1.2 1.125v3C8.8 13.494 9.34 14 10 14h4.8c.66 0 1.2-.506 1.2-1.125v-3c0-.619-.54-1.125-1.2-1.125Zm-2.4 3.375c-.44 0-.8-.337-.8-.75s.36-.75.8-.75c.44 0 .8.337.8.75s-.36.75-.8.75Zm.8-3.375h-1.6V6.875c0-.413.36-.75.8-.75.44 0 .8.337.8.75V8.75ZM5.6 8c1.767 0 3.2-1.343 3.2-3S7.367 2 5.6 2C3.833 2 2.4 3.343 2.4 5s1.433 3 3.2 3Zm0-4.875c1.103 0 2 .841 2 1.875s-.897 1.875-2 1.875-2-.841-2-1.875.897-1.875 2-1.875Zm2.4 9.75c0 .424.156.81.41 1.125H.8c-.442 0-.8-.336-.8-.75 0-2.278 1.97-4.125 4.4-4.125h2.4c.452 0 .889.064 1.3.183-.063.18-.1.368-.1.567v.598a3.47 3.47 0 0 0-1.2-.223H4.4c-1.629 0-2.978 1.147-3.175 2.625H8Z"/>
</svg>
