<svg xmlns="http://www.w3.org/2000/svg" width="28" height="28" fill="none" viewBox="0 0 28 28">
  <g clip-path="url(#a)">
    <path fill="#90A0AB" d="M25.512 4.577 15.012.2A3.162 3.162 0 0 0 14.005 0c-.29 0-.743.09-1.011.202l-10.5 4.375C1.514 4.981.875 5.94.875 6.951.875 21.066 11.222 28 13.951 28c2.843 0 13.174-7.01 13.174-21.05 0-1.01-.64-1.97-1.613-2.373Zm-11.507-1.95s.006 0 0 0Zm-.054 22.748C8.94 23.27 3.503 16.619 3.503 7.005c0-.002 0 .003 0 0L13.938 2.65c.018-.005.04-.016.07-.022L24.5 6.951c0 11.123-6.869 16.91-10.55 18.424Zm-3.014-14c0 1.22.719 2.264 1.75 2.757v3.806a1.313 1.313 0 0 0 2.626 0V14.13a3.055 3.055 0 0 0 1.75-2.757 3.062 3.062 0 1 0-6.125.001Z"/>
  </g>
  <defs>
    <clipPath id="a">
      <path fill="#fff" d="M0 0h28v28H0z"/>
    </clipPath>
  </defs>
</svg>
