<svg width="16" height="16" viewBox="0 0 16 16" fill="none" xmlns="http://www.w3.org/2000/svg">
<g clip-path="url(#clip0_10466_8329)">
<path d="M5.33333 9.11119C5.33333 9.48063 5.03611 9.77785 4.66667 9.77785C4.29722 9.77785 4 9.48063 4 9.11119C4 8.74174 4.29722 8.44452 4.66667 8.44452C5.03611 8.44452 5.33333 8.74174 5.33333 9.11119ZM10.6667 9.11119C10.6667 8.74174 10.9639 8.44452 11.3333 8.44452C11.7028 8.44452 12 8.74174 12 9.11119C12 9.48063 11.7028 9.77785 11.3333 9.77785C10.9639 9.77785 10.6667 9.48063 10.6667 9.11119ZM6.75278 0.96424C7.07778 1.1341 7.20556 1.53674 7.03611 1.86341L4.76944 6.2223H11.2306L8.96389 1.86341C8.79445 1.53674 8.92222 1.1341 9.24722 0.96424C9.575 0.794379 9.97778 0.92149 10.1472 1.24813L12.7333 6.2223H15.3333C15.7028 6.2223 16 6.51952 16 6.88896C16 7.25841 15.7028 7.55563 15.3333 7.55563H14.7778L13.225 13.764C13.0028 14.5556 12.3167 15.1112 11.5 15.1112H4.475C3.68333 15.1112 2.97222 14.5556 2.77444 13.764L1.22222 7.55563H0.666667C0.298611 7.55563 0 7.25841 0 6.88896C0 6.51952 0.298611 6.2223 0.666667 6.2223H3.26667L5.85278 1.24813C6.02222 0.92149 6.425 0.794379 6.75278 0.96424ZM13.4028 7.55563H2.59667L4.06667 13.4417C4.11667 13.639 4.29444 13.7779 4.475 13.7779H11.5C11.7056 13.7779 11.8833 13.639 11.9333 13.4417L13.4028 7.55563Z" fill="currentColor"/>
</g>
<defs>
<clipPath id="clip0_10466_8329">
<rect width="16" height="16" fill="white"/>
</clipPath>
</defs>
</svg>
