<svg width="16" height="13" viewBox="0 0 16 13" fill="none" xmlns="http://www.w3.org/2000/svg">
<path d="M12.5019 0.637188C13.2243 -0.0736619 14.3718 -0.0774369 15.0767 0.628688L15.3742 0.926438C16.0792 1.62919 16.0792 2.76894 15.3767 3.47144L10.9644 7.88644C10.717 8.13394 10.402 8.30394 10.0595 8.37644L7.9221 8.80144C7.70211 8.86644 7.51962 8.80394 7.37462 8.66144C7.23213 8.51644 7.16964 8.31144 7.21213 8.11394L7.66211 5.97144C7.73211 5.63394 7.8771 5.30144 8.14209 5.07644L12.5019 0.637188ZM14.2293 1.47744C13.9943 1.24194 13.6118 1.24319 13.3768 1.48019L12.8568 2.00794L13.9993 3.15144L14.5268 2.60144C14.7617 2.38894 14.7617 2.00919 14.5268 1.77494L14.2293 1.47744ZM8.83705 6.21894L8.57456 7.46144L9.8145 7.20144C9.927 7.17644 10.032 7.12144 10.1145 7.03894L13.1518 3.99894L12.0144 2.86144L8.99704 5.91894C8.91455 6.00144 8.85955 6.10644 8.83705 6.21894ZM6.59966 3.19894C6.93215 3.19894 7.19963 3.46644 7.19963 3.79894C7.19963 4.13144 6.93215 4.39894 6.59966 4.39894H1.79991C1.46868 4.39894 1.19994 4.66644 1.19994 4.99894V10.9989C1.19994 11.3314 1.46868 11.5989 1.79991 11.5989H12.5994C12.9318 11.5989 13.1993 11.3314 13.1993 10.9989V7.79894C13.1993 7.46644 13.4668 7.19894 13.7993 7.19894C14.1318 7.19894 14.3993 7.46644 14.3993 7.79894V10.9989C14.3993 11.9939 13.5943 12.7989 12.5994 12.7989H1.79991C0.805959 12.7989 0 11.9939 0 10.9989V4.99894C0 4.00394 0.805959 3.19894 1.79991 3.19894H6.59966ZM2.39988 7.99894C2.39988 7.55644 2.75736 7.19894 3.19984 7.19894C3.64231 7.19894 3.9998 7.55644 3.9998 7.99894C3.9998 8.44144 3.64231 8.79894 3.19984 8.79894C2.75736 8.79894 2.39988 8.44144 2.39988 7.99894ZM6.39967 7.99894C6.39967 8.44144 6.04219 8.79894 5.59972 8.79894C5.15724 8.79894 4.79976 8.44144 4.79976 7.99894C4.79976 7.55644 5.15724 7.19894 5.59972 7.19894C6.04219 7.19894 6.39967 7.55644 6.39967 7.99894Z" fill="#ADBFCC"/>
</svg>
