<svg width="14" height="16" viewBox="0 0 14 16" fill="none" xmlns="http://www.w3.org/2000/svg">
<path d="M1.5 0.75V1H13.25C13.6562 1 14 1.34375 14 1.75C14 1.9375 13.9375 2.09375 13.8438 2.21875L11 6L13.8438 9.8125C13.9375 9.9375 14 10.0938 14 10.25C14 10.6875 13.6562 11 13.25 11H1.5V15.25C1.5 15.6875 1.15625 16 0.75 16C0.3125 16 0 15.6875 0 15.25V11V9.5V2.5V1V0.75C0 0.34375 0.3125 0 0.75 0C1.15625 0 1.5 0.34375 1.5 0.75ZM1.5 2.5V9.5H11.75L9.78125 6.90625C9.375 6.375 9.375 5.65625 9.78125 5.125L11.75 2.5H1.5Z" fill="currentColor"/>
</svg>
