<svg xmlns="http://www.w3.org/2000/svg" width="14" height="14" fill="none" viewBox="0 0 14 14">
  <path fill="#ADBFCC" d="M8.034 3H6.41C5.22 3 4.25 3.969 4.25 5.188c0 .406.344.75.75.75a.76.76 0 0 0 .75-.75c0-.375.284-.688.66-.688h1.624c.375 0 .716.313.716.688a.67.67 0 0 1-.344.593L6.625 6.844a.77.77 0 0 0-.375.656V8c0 .406.344.75.75.75A.76.76 0 0 0 7.75 8v-.063l1.41-.875a2.195 2.195 0 0 0 1.09-1.875C10.25 3.97 9.281 3 8.034 3ZM7 9.5c-.563 0-1 .438-1 1 0 .563.41 1 1 1 .534 0 1-.438 1-1 0-.563-.466-1-1-1ZM12 0H2a2 2 0 0 0-2 2v10a2 2 0 0 0 2 2h10a2 2 0 0 0 2-2V2a2 2 0 0 0-2-2Zm.5 12a.5.5 0 0 1-.5.5H2a.5.5 0 0 1-.5-.5V2a.5.5 0 0 1 .5-.5h10a.5.5 0 0 1 .5.5v10Z"/>
</svg>
