<svg width="40" height="40" viewBox="0 0 40 40" fill="none" xmlns="http://www.w3.org/2000/svg">
<path fill-rule="evenodd" clip-rule="evenodd" d="M17.8528 0L22.1472 0C27.182 0 29.8819 0.696192 32.3263 2.0035C34.7708 3.3108 36.6892 5.22921 37.9965 7.67366C39.3038 10.1181 40 12.818 40 17.8528V22.1472C40 27.182 39.3038 29.8819 37.9965 32.3263C36.6892 34.7708 34.7708 36.6892 32.3263 37.9965C29.8819 39.3038 27.182 40 22.1472 40H17.8528C12.818 40 10.1181 39.3038 7.67366 37.9965C5.22921 36.6892 3.3108 34.7708 2.0035 32.3263C0.696192 29.8819 0 27.182 0 22.1472L0 17.8528C0 12.818 0.696192 10.1181 2.0035 7.67366C3.3108 5.22921 5.22921 3.3108 7.67366 2.0035C10.1181 0.696192 12.818 0 17.8528 0Z" fill="url(#paint0_linear_1288_6713)"/>
<path d="M27.1299 20.417C27.1196 20.2717 27.1036 20.1264 27.0886 19.9814C26.4397 19.8094 25.9607 19.2203 25.9607 18.5183C25.9607 18.1681 26.0804 17.8468 26.2799 17.5903C25.8749 17.21 25.459 16.8406 25.0324 16.4834C24.7807 16.6691 24.4707 16.78 24.1338 16.78C23.8575 16.78 23.5991 16.7051 23.3761 16.5762C22.4278 17.4883 21.5226 18.449 20.658 19.4429C20.3613 19.7857 20.0704 20.1339 19.7834 20.4851C19.9244 20.7151 20.0072 20.985 20.0072 21.2749C20.0072 21.5737 19.9194 21.852 19.7695 22.0868C20.32 22.8713 20.8945 23.6389 21.4952 24.3838C21.7367 24.2674 22.0063 24.2002 22.2924 24.2002C23.0476 24.2002 23.696 24.6554 23.9801 25.3057C24.9733 25.0893 25.9576 24.8385 26.9266 24.5432C27.0077 24.0356 27.0719 23.526 27.1131 23.0144C27.1827 22.1485 27.1922 21.2788 27.1299 20.417Z" fill="white"/>
<path d="M16.1193 14.8393C16.7102 14.8393 17.2348 15.1187 17.5717 15.5512C18.0246 15.3938 18.4829 15.2517 18.9487 15.1299C19.7976 14.9091 20.6668 14.7519 21.5496 14.6827C21.8982 14.656 22.2486 14.6433 22.6009 14.647C21.623 13.9838 20.6058 13.3833 19.5489 12.8748C18.6834 12.4636 17.7868 12.1074 16.8785 11.9066C16.6204 11.8503 16.3609 11.8097 16.1063 11.7881C15.6605 11.9769 15.2314 12.1969 14.8212 12.4452C15.0466 13.2724 15.348 14.0896 15.6876 14.8923C15.8262 14.8589 15.9703 14.8393 16.1193 14.8393Z" fill="white"/>
<path d="M22.7556 15.8954C22.708 15.7918 22.6706 15.6833 22.6472 15.5687C22.3065 15.5632 21.9636 15.5745 21.621 15.601C20.8011 15.6649 19.9838 15.8123 19.1812 16.0211C18.7621 16.1305 18.3472 16.2574 17.9369 16.3986C17.951 16.4902 17.9605 16.5834 17.9605 16.679C17.9605 17.2585 17.692 17.7742 17.2731 18.1116C17.5858 18.6747 17.9109 19.2319 18.2496 19.7808C18.3282 19.7681 18.4083 19.7601 18.4905 19.7601C18.7024 19.7601 18.9037 19.8037 19.0868 19.882C19.3742 19.5311 19.6651 19.183 19.9616 18.8403C20.8492 17.8202 21.7782 16.834 22.7556 15.8954Z" fill="white"/>
<path d="M18.0649 22.729C17.5598 23.4387 17.0791 24.1646 16.63 24.908C16.5098 25.1081 16.3927 25.3103 16.2775 25.5134C16.4963 25.7149 16.6556 25.979 16.7264 26.278C17.9724 26.2179 19.2181 26.0954 20.4568 25.9268C20.4783 25.5743 20.5982 25.2493 20.7906 24.9783C20.1874 24.231 19.6118 23.4631 19.06 22.6787C18.8839 22.7502 18.6921 22.7904 18.4906 22.7904C18.3426 22.7905 18.2002 22.7682 18.0649 22.729Z" fill="white"/>
<path d="M28.3364 19.7666C28.2366 19.8352 28.1277 19.8911 28.0129 19.9344C28.0267 20.0733 28.0391 20.2117 28.0492 20.3504C28.1152 21.2645 28.1045 22.1796 28.0318 23.0879C28.0012 23.4694 27.9567 23.8494 27.9053 24.2276C28.5114 24.019 29.1111 23.7911 29.6921 23.5341C29.8127 23.0732 29.9001 22.5988 29.9539 22.1149C29.572 21.3885 29.0857 20.6975 28.5629 20.0393C28.489 19.9473 28.412 19.8572 28.3364 19.7666Z" fill="white"/>
<path d="M16.1193 18.5181C15.5472 18.5181 15.0358 18.2576 14.6981 17.8486C14.6543 17.8726 14.6097 17.8956 14.5661 17.9198C13.4847 18.5248 12.449 19.2085 11.455 19.9527C11.5421 19.9839 11.629 20.0156 11.7169 20.045C12.7925 20.4092 13.9104 20.6552 15.0415 20.7867C15.6073 20.8528 16.1763 20.8905 16.7451 20.8982C16.8377 20.8995 16.9302 20.8985 17.0229 20.8982C17.0922 20.6284 17.2325 20.387 17.425 20.1974C17.0801 19.6364 16.7487 19.067 16.4297 18.4903C16.3286 18.5071 16.2252 18.5181 16.1193 18.5181Z" fill="white"/>
<path d="M15.2519 25.1119C15.3152 25.1119 15.3773 25.1169 15.4385 25.1241C15.5694 24.8923 15.7033 24.6617 15.84 24.4334C16.2995 23.6734 16.7884 22.934 17.3007 22.2128C17.2072 22.0946 17.131 21.9617 17.0759 21.8183C16.9614 21.8193 16.847 21.8198 16.7325 21.8183C16.1313 21.8104 15.5314 21.7709 14.9347 21.7009C13.7418 21.562 12.5614 21.3028 11.4208 20.9167C11.1449 20.8242 10.872 20.7233 10.6015 20.6152C10.3994 20.7769 10.1987 20.9412 10 21.108C10.0192 22.914 10.5178 24.605 11.3747 26.0607C12.1602 26.1913 12.9648 26.261 13.7724 26.2953C13.9241 25.6182 14.5283 25.1119 15.2519 25.1119Z" fill="white"/>
<path d="M23.2927 14.0041C23.5335 13.8435 23.8226 13.7494 24.1338 13.7494C24.4217 13.7494 24.6898 13.831 24.919 13.9702C25.3028 13.6591 25.6946 13.3563 26.0967 13.0654C24.4095 11.7711 22.299 11 20.0071 11C19.2816 11 18.5748 11.0791 17.893 11.2256C18.6048 11.4451 19.285 11.7307 19.9466 12.0442C21.1186 12.6084 22.2303 13.2721 23.2927 14.0041Z" fill="white"/>
<path d="M12.0685 27.0879C12.5868 27.7611 13.1886 28.3659 13.8588 28.8878C13.9459 28.4839 14.0688 28.0989 14.2062 27.7232C14.0578 27.5815 13.9373 27.4114 13.8558 27.2203C13.2606 27.1973 12.6647 27.1574 12.0685 27.0879Z" fill="white"/>
<path d="M14.1172 17.1161C14.1808 17.0804 14.2455 17.047 14.3095 17.0121C14.2898 16.904 14.2779 16.7929 14.2779 16.6789C14.2779 16.1443 14.5077 15.6646 14.8721 15.3283C14.5478 14.5678 14.2539 13.7909 14.0177 12.9873C11.9818 14.5087 10.5464 16.7862 10.1259 19.403C10.236 19.4554 10.3472 19.5056 10.4585 19.555C11.615 18.658 12.8315 17.8356 14.1172 17.1161Z" fill="white"/>
<path d="M22.2923 27.88C21.5594 27.88 20.9285 27.4511 20.6319 26.832C19.3136 27.0124 17.9871 27.1423 16.6547 27.2023C16.4281 27.7539 15.8856 28.1428 15.2518 28.1428C15.1803 28.1428 15.1105 28.1364 15.0415 28.1268C14.8838 28.5687 14.7537 29.0162 14.6924 29.4536C14.6916 29.4598 14.6911 29.4654 14.6906 29.4715C16.2313 30.4391 18.0532 31.0005 20.0071 31.0005C21.9437 31.0005 23.7506 30.4493 25.2825 29.4981C24.5244 28.9347 23.8333 28.3087 23.1776 27.6532C22.915 27.7976 22.6133 27.88 22.2923 27.88Z" fill="white"/>
<path d="M27.7395 25.2517C27.5559 26.2345 27.3053 27.2025 27.0005 28.1521C27.9955 27.1808 28.7872 26.0044 29.3099 24.6914C28.8613 24.8685 28.4084 25.0314 27.9532 25.1838C27.8821 25.2075 27.8108 25.2287 27.7395 25.2517Z" fill="white"/>
<path d="M23.8481 27.0203C24.4734 27.644 25.1279 28.2346 25.8233 28.7515C25.8995 28.5419 25.973 28.3313 26.0435 28.1197C26.3236 27.2786 26.5584 26.4223 26.7405 25.5566C25.8755 25.8077 25.0029 26.0261 24.1248 26.2159C24.0966 26.5099 23.9985 26.7834 23.8481 27.0203Z" fill="white"/>
<path d="M25.6507 15.2648C25.6507 15.4295 25.6236 15.5874 25.5749 15.7359C26.0844 16.161 26.5804 16.6033 27.0618 17.0617C27.1938 17.024 27.3331 17.0027 27.4774 17.0027C28.315 17.0027 28.9942 17.6815 28.9942 18.5183C28.9942 18.6925 28.9633 18.8587 28.9094 19.0145C29.0354 19.1636 29.1613 19.313 29.2839 19.4654C29.5312 19.778 29.7716 20.0977 30 20.428C29.8496 17.7653 28.6563 15.3825 26.8221 13.6777C26.3801 13.99 25.9486 14.3219 25.5259 14.664C25.6059 14.8481 25.6507 15.0512 25.6507 15.2648Z" fill="white"/>
<defs>
<linearGradient id="paint0_linear_1288_6713" x1="5.1633e-07" y1="2.58823" x2="41.8562" y2="4.79511" gradientUnits="userSpaceOnUse">
<stop stop-color="#27DFDF"/>
<stop offset="0.630208" stop-color="#615EF4"/>
<stop offset="1" stop-color="#4D5BDB"/>
</linearGradient>
</defs>
</svg>
