<svg width="17" height="16" viewBox="0 0 17 16" fill="none" xmlns="http://www.w3.org/2000/svg">
<path d="M8.02131 0.897202C8.2054 0.528062 8.7321 0.528063 8.91619 0.897203L10.9785 5.0324C11.0517 5.17925 11.1923 5.28081 11.3547 5.30417L15.9574 5.96603C16.3692 6.02524 16.5328 6.53201 16.2334 6.8208L12.9095 10.0271C12.7902 10.1422 12.7357 10.309 12.764 10.4723L13.5496 15.005C13.6203 15.4127 13.1933 15.7249 12.8262 15.5339L8.69952 13.3869C8.55488 13.3117 8.38262 13.3117 8.23798 13.3869L4.11134 15.5339C3.74423 15.7249 3.31725 15.4127 3.38792 15.005L4.17348 10.4723C4.20179 10.309 4.14729 10.1422 4.02796 10.0271L0.704101 6.8208C0.404722 6.53201 0.568334 6.02524 0.980065 5.96603L5.58276 5.30417C5.74518 5.28081 5.88581 5.17925 5.95904 5.0324L8.02131 0.897202Z" fill="#23F7DD"/>
</svg>
