<svg width="16" height="16" viewBox="0 0 16 16" fill="none" xmlns="http://www.w3.org/2000/svg">
<path d="M13.4062 2.9375C13.7812 3.3125 14 3.8125 14 4.34375V14C14 15.125 13.0938 16 12 16H4C2.875 16 2 15.125 2 14V2C2 0.90625 2.875 0 4 0H9.65625C10.1875 0 10.6875 0.21875 11.0625 0.59375L13.4062 2.9375ZM12.5 14H12.4688V5H10C9.4375 5 9 4.5625 9 4V1.53125H4C3.71875 1.53125 3.5 1.75 3.5 2.03125V14C3.5 14.2812 3.71875 14.5 4 14.5H12C12.25 14.5 12.5 14.2812 12.5 14ZM5 4C4.71875 4 4.5 3.78125 4.5 3.5C4.5 3.25 4.71875 3 5 3H7.5C7.75 3 8 3.25 8 3.5C8 3.78125 7.75 4 7.5 4H5ZM8 5.5C8 5.78125 7.75 6 7.5 6H5C4.71875 6 4.5 5.78125 4.5 5.5C4.5 5.25 4.71875 5 5 5H7.5C7.75 5 8 5.25 8 5.5ZM8.15625 9.65625C8.84375 9.875 10.1562 10.2188 9.90625 11.5938C9.8125 12.25 9.3125 12.6562 8.625 12.8125V13C8.625 13.375 8.34375 13.625 8 13.625C7.625 13.625 7.375 13.375 7.375 13V12.8125C7.09375 12.75 6.8125 12.6562 6.5625 12.5625L6.4375 12.5312C6.125 12.4062 5.9375 12.0625 6.0625 11.7188C6.1875 11.4062 6.53125 11.2188 6.875 11.3438L7 11.4062C7.25 11.4688 7.53125 11.5938 7.75 11.625C8.15625 11.6875 8.65625 11.625 8.6875 11.375C8.71875 11.2188 8.71875 11.125 7.8125 10.875L7.625 10.8125C7.09375 10.6562 5.8125 10.2812 6.0625 8.9375C6.15625 8.28125 6.65625 7.84375 7.375 7.6875V7.5C7.375 7.15625 7.625 6.875 8 6.875C8.34375 6.875 8.625 7.15625 8.625 7.5V7.71875C8.78125 7.75 8.96875 7.8125 9.1875 7.875C9.53125 8 9.6875 8.34375 9.5625 8.6875C9.46875 9 9.09375 9.1875 8.78125 9.0625C8.59375 9 8.40625 8.9375 8.21875 8.90625C7.8125 8.84375 7.3125 8.90625 7.28125 9.15625C7.25 9.28125 7.25 9.40625 7.96875 9.625L8.15625 9.65625Z" fill="#ADBFCC"/>
</svg>
