<svg xmlns="http://www.w3.org/2000/svg" width="16" height="16" fill="currentColor" viewBox="0 0 16 16">
  <g clip-path="url(#a)">
    <path d="M8 0a.748.748 0 0 0-.75.75v2c0 .416.334.75.75.75s.75-.334.75-.75v-2A.748.748 0 0 0 8 0Zm0 12.5a.748.748 0 0 0-.75.75v2c0 .416.334.75.75.75s.75-.334.75-.75v-2A.748.748 0 0 0 8 12.5Zm7.25-3.75c.416 0 .75-.334.75-.75a.748.748 0 0 0-.75-.75h-2a.748.748 0 0 0-.75.75c0 .416.334.75.75.75h2ZM3.5 8a.748.748 0 0 0-.75-.75h-2A.748.748 0 0 0 0 8c0 .416.334.75.75.75h2c.416 0 .75-.334.75-.75Zm10.156-4.597a.75.75 0 0 0-1.06-1.06L11.182 3.76a.75.75 0 0 0 1.06 1.06l1.415-1.416ZM4.82 11.181a.747.747 0 0 0-1.06 0l-1.415 1.416a.75.75 0 0 0 1.06 1.06l1.415-1.416a.747.747 0 0 0 0-1.06Zm7.778 2.475a.75.75 0 0 0 1.06-1.06l-1.416-1.415a.75.75 0 0 0-1.06 1.06l1.416 1.415ZM4.819 4.82a.747.747 0 0 0 0-1.06L3.403 2.344a.75.75 0 0 0-1.06 1.06L3.76 4.818a.747.747 0 0 0 1.06 0ZM8 11.5c1.934 0 3.5-1.566 3.5-3.5S9.934 4.5 8 4.5A3.498 3.498 0 0 0 4.5 8c0 1.934 1.566 3.5 3.5 3.5Z"/>
  </g>
  <defs>
    <clipPath id="a">
      <path fill="#fff" d="M0 0h16v16H0z"/>
    </clipPath>
  </defs>
</svg>
