<svg width="40" height="40" viewBox="0 0 40 40" fill="none" xmlns="http://www.w3.org/2000/svg">
<rect width="40" height="40" rx="16" fill="#1F58FC"/>
<g clip-path="url(#clip0_2279_282018)">
<path d="M27.25 22.75H14.4762L16.7978 20.2616C17.0813 19.9594 17.0656 19.4844 16.7625 19.2031C16.4594 18.9187 15.9844 18.9344 15.7031 19.2375L12.2031 22.9875C11.9336 23.2756 11.9336 23.7228 12.2031 24.0109L15.7031 27.7609C15.85 27.9187 16.05 28 16.25 28C16.4336 28 16.6172 27.9336 16.7619 27.7978C17.0646 27.5156 17.0812 27.041 16.798 26.7382L14.4762 24.25H27.25C27.6641 24.25 28 23.9141 28 23.5C28 23.0859 27.6656 22.75 27.25 22.75ZM12.75 17.25H25.525L23.2034 19.7384C22.9202 20.0412 22.9368 20.5159 23.2396 20.7981C23.5413 21.0823 24.0171 21.0657 24.2992 20.762L27.7992 17.012C28.0688 16.7239 28.0688 16.2767 27.7992 15.9886L24.2992 12.2386C24.15 12.0801 23.95 12 23.75 12C23.5664 12 23.3828 12.0664 23.2381 12.2022C22.9354 12.4844 22.9187 12.959 23.202 13.2618L25.525 15.75H12.75C12.3359 15.75 12 16.0875 12 16.5C12 16.9125 12.3359 17.25 12.75 17.25Z" fill="white"/>
</g>
<defs>
<clipPath id="clip0_2279_282018">
<rect width="16" height="16" fill="white" transform="translate(12 12)"/>
</clipPath>
</defs>
</svg>
