<svg xmlns="http://www.w3.org/2000/svg" width="40" height="42" fill="none" viewBox="0 0 40 42">
  <path fill="#0F0E0E" fill-rule="evenodd" d="M17.853 0h4.294c5.035 0 7.735.731 10.18 2.104 2.444 1.372 4.362 3.387 5.67 5.953C39.303 10.624 40 13.46 40 18.745v4.51c0 5.286-.696 8.121-2.004 10.688-1.307 2.566-3.225 4.58-5.67 5.953C29.882 41.27 27.182 42 22.147 42h-4.294c-5.035 0-7.735-.731-10.18-2.104-2.444-1.372-4.362-3.387-5.67-5.953C.696 31.376 0 28.54 0 23.255v-4.51c0-5.286.696-8.121 2.003-10.688 1.308-2.566 3.226-4.58 5.67-5.953C10.119.73 12.819 0 17.854 0Z" clip-rule="evenodd"/>
  <g fill="#FCFDFF" clip-path="url(#a)">
    <path d="m23.828 22.085 3.137-4.17h-6.534L22.135 10l-6 7.915-3.136 4.17h6.534L17.83 30l5.998-7.915Z"/>
    <path d="M30 19.78a9.972 9.972 0 0 0-4.07-8.04.516.516 0 0 0-.374-.16c-.04 0-.08.003-.12.01a.506.506 0 0 0-.19.895c.046.03.09.064.13.1a8.95 8.95 0 0 1-.758 14.885l-.446-.835a.342.342 0 0 0-.59-.049L21.92 28.98a.341.341 0 0 0 .252.536l2.9.241a.341.341 0 0 0 .338-.486l-.37-.893A9.973 9.973 0 0 0 30 19.78ZM14.2 26.875a.178.178 0 0 0-.05-.04 8.96 8.96 0 0 1 1.117-14.455l.48.831a.342.342 0 0 0 .59.024l1.556-2.463a.342.342 0 0 0-.275-.524l-2.91-.115a.342.342 0 0 0-.317.5l.411.863a9.94 9.94 0 0 0-1.353 16.04c.007.012.018.016.026.027a.518.518 0 0 0 .134.117l.02.016a.408.408 0 0 0 .36.038h.015a.493.493 0 0 0 .188-.85l.007-.009Z"/>
  </g>
  <defs>
    <clipPath id="a">
      <path fill="#fff" d="M10 10h20v20H10z"/>
    </clipPath>
  </defs>
</svg>
