<svg width="12" height="12" viewBox="0 0 12 12" fill="none" xmlns="http://www.w3.org/2000/svg">
<path d="M3.54953 11.4263L3.54953 3.74634L5.4227 3.76976C5.65685 3.76976 5.86758 3.62927 5.93782 3.41854C6.03148 3.2078 6.00807 2.97366 5.84416 2.80976L3.40904 0.187317C3.19831 -0.0468294 2.80026 -0.0468294 2.58953 0.187317L0.154409 2.80976C-0.00949331 2.97366 -0.0329079 3.2078 0.037336 3.41854C0.130995 3.62927 0.341726 3.76976 0.552458 3.76976L2.42563 3.74634L2.42563 11.4263C2.42563 11.7541 2.68319 11.9883 2.98758 11.9883C3.26856 11.9883 3.54953 11.7541 3.54953 11.4263ZM8.41977 0.561951L8.41977 8.26537L6.5466 8.24195C6.31246 8.24195 6.10173 8.38244 6.03148 8.59317C5.93782 8.8039 5.98465 9.03805 6.14856 9.20195L8.58368 11.8244C8.79441 12.0585 9.19246 12.0585 9.40319 11.8244L11.8383 9.20195C12.0022 9.03805 12.0256 8.8039 11.932 8.59317C11.8617 8.38244 11.651 8.24195 11.4168 8.24195L9.54368 8.26537L9.54368 0.561951C9.54368 0.257561 9.30953 -4.18108e-07 8.98173 -4.0378e-07C8.67734 -3.90474e-07 8.41977 0.257561 8.41977 0.561951Z" fill="currentColor"/>
</svg>
