<svg xmlns="http://www.w3.org/2000/svg" width="24" height="24" fill="none" viewBox="0 0 24 24">
  <circle cx="12" cy="12" r="12" fill="currentColor" fill-opacity="1"/>
  <path fill="#8293AA" d="M9.285 12.18a.331.331 0 0 0 .45 0l1.015-1.016 1.641 1.66a.331.331 0 0 0 .45 0l2.147-2.148.586.566a.463.463 0 0 0 .8-.332V8.938a.336.336 0 0 0-.313-.313h-1.97a.464.464 0 0 0-.333.8l.566.586-1.699 1.719-1.66-1.66a.331.331 0 0 0-.449 0L9.07 11.516a.33.33 0 0 0 0 .449l.215.215Zm7.4 2.382H7.938v-6.25A.336.336 0 0 0 7.625 8h-.313A.321.321 0 0 0 7 8.312v6.563a.616.616 0 0 0 .625.625h9.063a.321.321 0 0 0 .312-.312v-.313a.336.336 0 0 0-.312-.313h-.003Z"/>
</svg>
