<svg width="24" height="24" viewBox="0 0 24 24" fill="none" xmlns="http://www.w3.org/2000/svg">
<rect width="24" height="24" rx="12" fill="black"/>
<path d="M9.375 9.27339C9.375 9.02248 9.571 8.81885 9.8125 8.81885H14.1875C14.429 8.81885 14.625 9.02248 14.625 9.27339C14.625 9.5243 14.429 9.72794 14.1875 9.72794H9.8125C9.571 9.72794 9.375 9.5243 9.375 9.27339Z" fill="#ADBFCC"/>
<path d="M9.375 11.091C9.375 10.8401 9.571 10.6365 9.8125 10.6365H14.1875C14.429 10.6365 14.625 10.8401 14.625 11.091C14.625 11.3419 14.429 11.5456 14.1875 11.5456H9.8125C9.571 11.5456 9.375 11.3419 9.375 11.091Z" fill="#ADBFCC"/>
<path d="M9.375 13.0795C9.375 12.8286 9.571 12.625 9.8125 12.625H11.5625C11.804 12.625 12 12.8286 12 13.0795C12 13.3305 11.804 13.5341 11.5625 13.5341H9.8125C9.571 13.5341 9.375 13.3305 9.375 13.0795Z" fill="#ADBFCC"/>
<path fill-rule="evenodd" clip-rule="evenodd" d="M7.625 8.36364C7.625 7.61045 8.21256 7 8.9375 7H15.0625C15.7874 7 16.375 7.61045 16.375 8.36364V15.6364C16.375 16.3895 15.7874 17 15.0625 17H8.9375C8.21256 17 7.625 16.3895 7.625 15.6364V8.36364ZM8.9375 7.90909H15.0625C15.304 7.90909 15.5 8.11273 15.5 8.36364V15.6364C15.5 15.8873 15.304 16.0909 15.0625 16.0909H8.9375C8.696 16.0909 8.5 15.8873 8.5 15.6364V8.36364C8.5 8.11273 8.696 7.90909 8.9375 7.90909Z" fill="#ADBFCC"/>
</svg>
