<svg width="16" height="16" viewBox="0 0 16 16" fill="none" xmlns="http://www.w3.org/2000/svg">
<path d="M4.4375 4.46875C3.90625 5.03125 3.5 5.65625 3.28125 6.34375C3.09375 6.875 2.5 7.15625 2 6.96875C1.46875 6.78125 1.1875 6.21875 1.375 5.6875C1.71875 4.71875 2.28125 3.8125 3.03125 3.0625C5.75 0.34375 10.1562 0.34375 12.9062 3.03125L14.2188 1.71875C14.4062 1.53125 14.75 1.46875 15.0312 1.5625C15.3125 1.6875 15.5 1.96875 15.5 2.25V6.25C15.5 6.6875 15.1562 7 14.75 7H14.4688H10.75C10.4375 7 10.1562 6.84375 10.0312 6.5625C9.9375 6.28125 10 5.9375 10.2188 5.71875L11.5 4.4375C9.53125 2.53125 6.40625 2.53125 4.4375 4.46875ZM0.5 9.75C0.5 9.34375 0.8125 9 1.25 9H1.46875H1.5H5.25C5.53125 9 5.8125 9.1875 5.9375 9.46875C6.03125 9.75 5.96875 10.0938 5.78125 10.2812L4.46875 11.5938C6.4375 13.5 9.59375 13.5 11.5312 11.5625C12.0625 11 12.4688 10.375 12.7188 9.6875C12.875 9.15625 13.4688 8.875 13.9688 9.0625C14.5 9.25 14.7812 9.8125 14.5938 10.3438C14.25 11.3125 13.6875 12.1875 12.9375 12.9688C10.2188 15.6875 5.8125 15.6875 3.0625 13L1.78125 14.2812C1.5625 14.5 1.21875 14.5625 0.9375 14.4688C0.65625 14.3438 0.5 14.0625 0.5 13.75V10.0312V10V9.75Z" fill="currentColor"/>
</svg>
