<svg xmlns="http://www.w3.org/2000/svg" width="16" height="17" fill="none" viewBox="0 0 16 17">
  <path fill="currentColor" d="M15.553 7.558 8.951.968C8.669.689 8.294.5 7.887.5H1.502C.657.5 0 1.188 0 2v6.402c0 .406.156.78.439 1.062l6.603 6.59c.595.594 1.564.594 2.128 0l6.384-6.372c.595-.561.595-1.53 0-2.124Zm-7.447 7.435L1.502 8.402V1.999h6.384l6.635 6.622-6.415 6.372ZM6.009 4.998c0-.812-.69-1.5-1.503-1.5-.845 0-1.502.688-1.502 1.5 0 .843.657 1.499 1.502 1.499.814 0 1.503-.656 1.503-1.5Z"/>
</svg>
