<svg xmlns="http://www.w3.org/2000/svg" width="16" height="16" fill="none" viewBox="0 0 16 16">
  <path fill="#8293AA" d="M10.667 10.48a2.964 2.964 0 0 1-2.23 1.184 3.332 3.332 0 0 1-3.325 3.558H.888a.888.888 0 1 1 0-1.778h.167c.502 0 .837-.55.76-1.044-.025-.167-.063-.339-.063-.511 0-1.842 1.516-3.333 3.333-3.333.1 0 .175.002.25.008.042-.88.475-1.7 1.183-2.23l6.634-4.978a1.779 1.779 0 0 1 2.489 2.489l-4.975 6.635Zm-2.97-3.383 2.206 2.156 4.672-6.209a.444.444 0 0 0-.622-.622L7.697 7.097ZM5.531 9.933a1.999 1.999 0 0 0-2.397 2.264 2.337 2.337 0 0 1-.382 1.667l-.018.025H5.11a1.999 1.999 0 0 0 1.956-2.42L5.53 9.933Z"/>
</svg>
