<svg width="16" height="16" viewBox="0 0 16 16" fill="none" xmlns="http://www.w3.org/2000/svg">
<g clip-path="url(#clip0_11405_10844)">
<path d="M15.5422 4.37162C15.5265 7.51736 14.2475 13.2212 8.82964 15.8138C8.30797 16.0621 7.69516 16.0621 7.17035 15.8138C1.75536 13.2212 0.473186 7.51736 0.457788 4.37162C0.453702 3.57655 0.970658 2.89523 1.6614 2.60203L7.58203 0.0917888C7.71088 0.0319225 7.85543 -9.42569e-06 7.99999 2.08704e-09C8.14769 -9.42569e-06 8.28911 0.0319225 8.4211 0.0917888L14.3386 2.60203C15.03 2.89523 15.5485 3.57655 15.5422 4.37162ZM7.24577 1.87232L2.25032 3.96309C2.06365 4.06993 1.9656 4.23335 1.96623 4.39048C1.98006 7.14339 3.07305 11.807 7.24577 14.1514V1.87232ZM8.75421 14.1545C12.9276 11.807 14.0212 7.14339 14.0338 4.39048C14.0369 4.23335 13.9363 4.06993 13.7226 3.96309L8.75421 1.872V14.1545Z" fill="#ADBFCC"/>
</g>
<defs>
<clipPath id="clip0_11405_10844">
<rect width="16" height="16" fill="white"/>
</clipPath>
</defs>
</svg>
