<svg width="18" height="17" viewBox="0 0 18 17" fill="none" xmlns="http://www.w3.org/2000/svg">
<g clip-path="url(#clip0_14051_881)">
<path d="M3.99988 6.11035C3.99988 5.55723 4.44674 5.11035 4.99985 5.11035H12.9996C13.5527 5.11035 13.9996 5.55723 13.9996 6.11035V10.1104C13.9996 10.6635 13.5527 11.1104 12.9996 11.1104H4.99985C4.44674 11.1104 3.99988 10.6635 3.99988 10.1104V6.11035ZM12.4996 6.61035H5.49983V9.61035H12.4996V6.61035ZM17.9995 4.11035V6.61035C17.1714 6.61035 16.4995 7.28223 16.4995 8.11035C16.4995 8.93848 17.1714 9.61035 17.9995 9.61035V12.1104C17.9995 13.2135 17.1026 14.1104 15.9995 14.1104H1.99994C0.895285 14.1104 0 13.2135 0 12.1104V9.61035C0.828412 9.61035 1.49995 8.93848 1.49995 8.11035C1.49995 7.28223 0.828412 6.61035 0 6.61035V4.11035C0 3.00566 0.895285 2.11035 1.99994 2.11035H15.9995C17.1026 2.11035 17.9995 3.00566 17.9995 4.11035ZM1.49995 5.51035C2.39649 6.0291 2.99991 7.00098 2.99991 8.11035C2.99991 9.21973 2.39649 10.1916 1.49995 10.7104V12.1104C1.49995 12.3854 1.7237 12.6104 1.99994 12.6104H15.9995C16.2745 12.6104 16.4995 12.3854 16.4995 12.1104V10.7104C15.6026 10.1916 14.9995 9.21973 14.9995 8.11035C14.9995 7.00098 15.6026 6.0291 16.4995 5.51035V4.11035C16.4995 3.83535 16.2745 3.61035 15.9995 3.61035H1.99994C1.7237 3.61035 1.49995 3.83535 1.49995 4.11035V5.51035Z" fill="currentColor"/>
</g>
<defs>
<clipPath id="clip0_14051_881">
<rect width="17.9995" height="16" fill="currentColor" transform="translate(0.000244141 0.111328)"/>
</clipPath>
</defs>
</svg>
