<svg xmlns="http://www.w3.org/2000/svg" width="36" height="36" fill="none" viewBox="0 0 36 36">
  <rect width="36" height="36" fill="currentColor" rx="18"/>
  <path fill="#ADBFCC" d="M17.2 13.125c0 .428-.162.817-.43 1.107l.672 1.463c.305-.087.625-.133.958-.133.953 0 1.86.394 2.508 1.034l1.94-1.447a1.74 1.74 0 0 1-.048-.399c0-.898.717-1.625 1.6-1.625.883 0 1.6.727 1.6 1.625 0 .896-.718 1.625-1.6 1.625-.307 0-.598-.089-.842-.244l-1.94 1.447c.245.493.382 1.052.382 1.64 0 .47-.087.92-.247 1.334l1.684 1.026c.268-.206.6-.328.963-.328.883 0 1.6.729 1.6 1.625s-.718 1.625-1.6 1.625c-.883 0-1.6-.729-1.6-1.625 0-.086.008-.17.02-.251l-1.685-1.029c-.683.785-1.64 1.28-2.735 1.28-1.785 0-3.265-1.318-3.572-3.047h-1.745a1.595 1.595 0 0 1-1.483 1.016c-.884 0-1.6-.729-1.6-1.625s.716-1.625 1.6-1.625c.671 0 1.248.419 1.482 1.015h1.745a3.78 3.78 0 0 1 1.528-2.399l-.673-1.463c-.027-.02-.055.003-.082.003-.883 0-1.6-.727-1.6-1.625s.717-1.625 1.6-1.625c.883 0 1.6.727 1.6 1.625Zm1.2 8.531c1.325 0 2.4-1.091 2.4-2.437 0-1.369-1.075-2.438-2.4-2.438-1.348 0-2.4 1.07-2.4 2.438 0 1.345 1.052 2.437 2.4 2.437Z"/>
</svg>
