<svg width="40" height="40" viewBox="0 0 40 40" fill="none" xmlns="http://www.w3.org/2000/svg">
<rect width="40" height="40" rx="20" fill="#1F1F1F"/>
<path d="M20.0781 11.9141C20.0391 11.875 19.9609 11.875 19.8828 11.9141L16.7188 13.0469L20 14.2969L23.2422 13.0469L20.0781 11.9141ZM15.625 18.125L19.0625 19.3359V15.9375L15.625 14.6094V18.125ZM20.9375 19.3359L24.375 18.125V14.6094L20.9375 15.9375V19.3359ZM26.25 13.6328V18.125L29.8047 19.4922C30.6641 19.8047 31.25 20.625 31.25 21.5234V26.1719C31.25 27.0703 30.7031 27.8516 29.9219 28.2031L26.1719 29.8438C25.625 30.0781 25 30.0781 24.4531 29.8828L20 28.0078L15.5078 29.8438C14.9609 30.0781 14.3359 30.0781 13.7891 29.8438L10.0391 28.2031C9.25781 27.8516 8.75 27.0703 8.75 26.1719V21.5234C8.75 20.625 9.29688 19.8047 10.1562 19.4922L13.75 18.125V13.6328C13.75 12.7344 14.2969 11.9141 15.1953 11.6016L19.2578 10.1562C19.7266 9.96094 20.2344 9.96094 20.7031 10.1562L24.7656 11.6016C25.6641 11.9141 26.25 12.7344 26.25 13.6328ZM19.0625 22.5391L15.625 23.8281V27.8125L19.0625 26.3672V22.5391ZM10.7812 26.4844L13.75 27.7734V23.8281L10.625 22.6562V26.1719C10.625 26.3281 10.6641 26.4062 10.7812 26.4844ZM24.375 27.8125V23.8281L20.9375 22.5391V26.3672L24.375 27.8125ZM26.25 27.7734L29.1797 26.4844C29.2969 26.4062 29.375 26.2891 29.375 26.1719V22.6562L26.25 23.8281V27.7734ZM14.8047 19.8047C14.7266 19.8047 14.6484 19.8047 14.5703 19.8047L11.4844 20.9766L14.6875 22.1875L17.9297 20.9375L14.8047 19.8047ZM25.1953 19.8047L22.0312 20.9375L25.3125 22.1875L28.4766 20.9766L25.3906 19.8047C25.3125 19.8047 25.2344 19.8047 25.1953 19.8047Z" fill="black"/>
</svg>
