<svg width="20" height="20" viewBox="0 0 20 20" fill="none" xmlns="http://www.w3.org/2000/svg">
<rect x="0.5" y="0.5" width="19" height="19" rx="9.5" fill="#131313"/>
<path fill-rule="evenodd" clip-rule="evenodd" d="M9.41211 6.00363L9.41212 12.5746L6.54137 9.70383C6.31195 9.47441 5.93546 9.47441 5.70604 9.70383C5.47661 9.93325 5.47661 10.3039 5.70604 10.5333L9.58271 14.41C9.81214 14.6394 10.1827 14.6394 10.4122 14.41L14.2947 10.5392C14.5242 10.3097 14.5242 9.93914 14.2947 9.70971C14.0653 9.48029 13.6947 9.48029 13.4653 9.70971L10.5886 12.5746L10.5886 6.00363C10.5886 5.68009 10.3239 5.41537 10.0004 5.41537C9.67683 5.41537 9.41211 5.68009 9.41211 6.00363Z" fill="#ADBFCC"/>
<rect x="0.5" y="0.5" width="19" height="19" rx="9.5" stroke="black"/>
</svg>
