<svg xmlns="http://www.w3.org/2000/svg" width="10" height="10" fill="none" viewBox="0 0 10 10">
  <path fill="currentColor" d="M9.078 6.547H1.893l1.306-1.4a.42.42 0 0 0-.02-.595.42.42 0 0 0-.596.02L.614 6.68a.421.421 0 0 0 0 .576l1.969 2.11a.42.42 0 0 0 .596.02.421.421 0 0 0 .02-.596l-1.306-1.4h7.185a.422.422 0 0 0 0-.843ZM.922 3.453h7.186l-1.306 1.4a.421.421 0 1 0 .616.576l1.97-2.11a.421.421 0 0 0 0-.575L7.417.634a.423.423 0 0 0-.597-.02.421.421 0 0 0-.02.596l1.307 1.4H.922a.423.423 0 0 0 0 .843Z"/>
</svg>
