<svg width="20" height="20" viewBox="0 0 20 20" fill="none" xmlns="http://www.w3.org/2000/svg">
<rect x="0.5" y="0.5" width="19" height="19" rx="9.5" fill="#131313"/>
<path fill-rule="evenodd" clip-rule="evenodd" d="M10.5889 13.9944V7.42348L13.4596 10.2942C13.689 10.5236 14.0655 10.5236 14.2949 10.2942C14.5244 10.0648 14.5244 9.69419 14.2949 9.46476L10.4183 5.58808C10.1888 5.35866 9.81823 5.35866 9.58881 5.58808L5.70625 9.45888C5.47682 9.6883 5.47682 10.0589 5.70625 10.2883C5.93567 10.5178 6.30628 10.5178 6.5357 10.2883L9.41233 7.42348V13.9944C9.41233 14.318 9.67705 14.5827 10.0006 14.5827C10.3241 14.5827 10.5889 14.318 10.5889 13.9944Z" fill="#ADBFCC"/>
<rect x="0.5" y="0.5" width="19" height="19" rx="9.5" stroke="black"/>
</svg>
