<svg xmlns="http://www.w3.org/2000/svg" width="24" height="24" fill="none" viewBox="0 0 24 24">
  <circle cx="12" cy="12" r="12" fill="currentColor" fill-opacity="1"/>
  <path fill="#8293AA" d="M16.922 10.286a.227.227 0 0 0 0-.333l-1.872-1.88a.238.238 0 0 0-.41.156v1.41H7.25a.237.237 0 0 0-.236.236v.47a.228.228 0 0 0 .143.22c.029.01.06.016.09.015h7.39v1.43a.241.241 0 0 0 .154.213.238.238 0 0 0 .256-.057l1.875-1.88Zm-9.85 3.76 1.873 1.882a.238.238 0 0 0 .41-.157v-1.43h7.411a.238.238 0 0 0 .234-.236v-.47a.253.253 0 0 0-.234-.235H9.355v-1.41a.24.24 0 0 0-.154-.213.238.238 0 0 0-.256.057l-1.872 1.88a.225.225 0 0 0 0 .332Z"/>
</svg>
