<svg xmlns="http://www.w3.org/2000/svg" width="16" height="16" fill="none" viewBox="0 0 16 16">
  <path fill="currentColor" d="M3.8 3.637c0-.401.314-.727.7-.727h7c.386 0 .7.326.7.727a.714.714 0 0 1-.7.728h-7a.714.714 0 0 1-.7-.728ZM3.8 6.546c0-.402.314-.728.7-.728h7c.386 0 .7.326.7.728a.714.714 0 0 1-.7.727h-7a.714.714 0 0 1-.7-.727ZM3.8 9.727c0-.401.314-.727.7-.727h2.8c.386 0 .7.326.7.727a.714.714 0 0 1-.7.727H4.5a.714.714 0 0 1-.7-.727Z"/>
  <path fill="currentColor" fill-rule="evenodd" d="M1 2.182C1 .977 1.94 0 3.1 0h9.8c1.16 0 2.1.977 2.1 2.182v11.636C15 15.023 14.06 16 12.9 16H3.1C1.94 16 1 15.023 1 13.818V2.182Zm2.1-.727h9.8c.386 0 .7.325.7.727v11.636a.714.714 0 0 1-.7.728H3.1a.714.714 0 0 1-.7-.728V2.182c0-.402.314-.727.7-.727Z" clip-rule="evenodd"/>
</svg>
