<svg xmlns="http://www.w3.org/2000/svg" width="16" height="16" fill="none" viewBox="0 0 16 16">
  <path fill="currentColor" d="M14.25 2.5a.75.75 0 1 1 0 1.5h-.363l-.75 10.147A2.001 2.001 0 0 1 11.144 16H4.856a2.001 2.001 0 0 1-1.993-1.853L2.11 4H1.75a.75.75 0 1 1 0-1.5h2.182L5.078.78C5.403.291 5.95 0 6.534 0h2.932c.584 0 1.13.292 1.456.78l1.147 1.72h2.181Zm-7.716-1c-.08 0-.187.042-.206.111l-.594.889h4.532l-.594-.889a.251.251 0 0 0-.206-.111H6.534Zm5.85 2.5H3.615l.744 10.037a.5.5 0 0 0 .497.463h6.288a.5.5 0 0 0 .497-.463L12.384 4Z"/>
</svg>
