<svg width="13" height="13" viewBox="0 0 13 13" fill="currentColor" xmlns="http://www.w3.org/2000/svg">
    <path d="M7.75008 4.25V5.5H8.37508C9.05868 5.5 9.62508 6.06641 9.62508 6.75V10.5C9.62508 11.2031 9.05868 11.75 8.37508 11.75H2.12508C1.42196 11.75 0.875082 11.2031 0.875082 10.5V6.75C0.875082 6.06641 1.42196 5.5 2.12508 5.5H6.81258V4.25C6.81258 2.88281 7.92586 1.75 9.31258 1.75C10.6798 1.75 11.8126 2.88281 11.8126 4.25V5.65625C11.8126 5.92969 11.5977 6.125 11.3438 6.125C11.0704 6.125 10.8751 5.92969 10.8751 5.65625V4.25C10.8751 3.39062 10.172 2.6875 9.31258 2.6875C8.43368 2.6875 7.75008 3.39062 7.75008 4.25ZM2.12508 6.4375C1.9493 6.4375 1.81258 6.59375 1.81258 6.75V10.5C1.81258 10.6758 1.9493 10.8125 2.12508 10.8125H8.37508C8.53133 10.8125 8.68758 10.6758 8.68758 10.5V6.75C8.68758 6.59375 8.53133 6.4375 8.37508 6.4375H2.12508Z"
          fill="currentColor"/>
</svg>
