<svg xmlns="http://www.w3.org/2000/svg" width="22" height="22" fill="none" viewBox="0 0 22 22">
  <g fill="#23F7DD" clip-path="url(#a)">
    <path d="M16.501 1.375H5.5a4.124 4.124 0 0 0-4.124 4.124V16.5a4.124 4.124 0 0 0 4.124 4.124H16.5a4.124 4.124 0 0 0 4.124-4.124V5.5a4.124 4.124 0 0 0-4.124-4.124Zm-1.27 17.188H6.77l.035-.097c.348-.86 1.914-1.608 4.204-1.608 2.289 0 3.854.749 4.203 1.608l.02.096h-.002Zm3.332-2.062a2.06 2.06 0 0 1-1.22 1.877c-.413-2.314-3.005-3.66-6.335-3.66s-5.96 1.376-6.352 3.66a2.061 2.061 0 0 1-1.218-1.877V5.5c0-1.136.924-2.061 2.06-2.061h11.003c1.136 0 2.061.924 2.061 2.06v11.003Z"/>
    <path d="M11 6.258a3.743 3.743 0 1 0 .002 7.486A3.743 3.743 0 0 0 11 6.258Zm0 5.423c-.926 0-1.68-.754-1.68-1.68 0-.927.754-1.68 1.68-1.68.927 0 1.68.753 1.68 1.68 0 .926-.753 1.68-1.68 1.68Z"/>
  </g>
  <defs>
    <clipPath id="a">
      <path fill="#fff" d="M1.375 1.375h19.25v19.25H1.375z"/>
    </clipPath>
  </defs>
</svg>
