<svg width="16" height="17" viewBox="0 0 16 17" fill="none" xmlns="http://www.w3.org/2000/svg">
<path d="M5.77778 8.72222C6.75972 8.72222 7.55556 7.92639 7.55556 6.94444C7.55556 5.9625 6.75972 5.16667 5.77778 5.16667C4.79583 5.16667 4 5.9625 4 6.94444C4 7.925 4.79722 8.72222 5.77778 8.72222ZM12.8889 8.05556H10.2222C9.85417 8.05556 9.55556 8.35417 9.55556 8.72222C9.55556 9.09028 9.85417 9.38889 10.2222 9.38889H12.8889C13.2569 9.38889 13.5556 9.09028 13.5556 8.72222C13.5556 8.35417 13.2583 8.05556 12.8889 8.05556ZM6.66667 9.61111H4.88889C3.66111 9.61111 2.66667 10.6056 2.66667 11.8333C2.66667 12.0778 2.86667 12.2778 3.11111 12.2778H8.44444C8.68989 12.2778 8.88889 12.0788 8.88889 11.8333C8.88889 10.6056 7.89444 9.61111 6.66667 9.61111ZM12.8889 5.83333H10.2222C9.85417 5.83333 9.55556 6.13194 9.55556 6.5C9.55556 6.86806 9.85417 7.16667 10.2222 7.16667H12.8889C13.2569 7.16667 13.5556 6.86806 13.5556 6.5C13.5556 6.13194 13.2583 5.83333 12.8889 5.83333ZM14.2222 2.5H1.77778C0.795833 2.5 0 3.29583 0 4.27778V13.1667C0 14.1486 0.795833 14.9444 1.77778 14.9444H14.2222C15.2042 14.9444 16 14.1486 16 13.1667V4.27778C16 3.29583 15.2028 2.5 14.2222 2.5ZM14.6667 13.1667C14.6667 13.4117 14.4673 13.6111 14.2222 13.6111H1.77778C1.53272 13.6111 1.33333 13.4117 1.33333 13.1667V4.27778C1.33333 4.03272 1.53272 3.83333 1.77778 3.83333H14.2222C14.4673 3.83333 14.6667 4.03272 14.6667 4.27778V13.1667Z" fill="white"/>
</svg>
