<svg xmlns="http://www.w3.org/2000/svg" width="36" height="36" fill="none" viewBox="0 0 36 36">
  <rect width="36" height="36" fill="currentColor" rx="18"/>
  <path fill="currentColor" d="M24.25 11a.75.75 0 1 1 0 1.5h-11.5c-.69 0-1.25.56-1.25 1.25v8.5c0 .69.56 1.25 1.25 1.25h10.5c.69 0 1.25-.56 1.25-1.25v-5.5c0-.69-.56-1.25-1.25-1.25h-9.5a.748.748 0 0 1-.75-.75c0-.416.334-.75.75-.75h9.5A2.75 2.75 0 0 1 26 16.75v5.5A2.75 2.75 0 0 1 23.25 25h-10.5A2.75 2.75 0 0 1 10 22.25v-8.5A2.75 2.75 0 0 1 12.75 11h11.5ZM21 19.5a.999.999 0 1 1 2 0 .999.999 0 1 1-2 0Z"/>
</svg>
