<svg xmlns="http://www.w3.org/2000/svg" width="37" height="36" fill="none" viewBox="0 0 37 36">
  <rect width="36" height="36" x=".5" fill="currentColor" rx="18"/>
  <g clip-path="url(#a)">
    <path fill="#90A0AB" d="M24.75 11a.75.75 0 1 1 0 1.5h-11.5c-.69 0-1.25.56-1.25 1.25v8.5c0 .69.56 1.25 1.25 1.25h10.5c.69 0 1.25-.56 1.25-1.25v-5.5c0-.69-.56-1.25-1.25-1.25h-9.5a.748.748 0 0 1-.75-.75c0-.416.334-.75.75-.75h9.5a2.75 2.75 0 0 1 2.75 2.75v5.5A2.75 2.75 0 0 1 23.75 25h-10.5a2.75 2.75 0 0 1-2.75-2.75v-8.5A2.75 2.75 0 0 1 13.25 11h11.5Zm-3.25 8.5a.999.999 0 1 1 2 0 .999.999 0 1 1-2 0Z"/>
  </g>
  <defs>
    <clipPath id="a">
      <path fill="#fff" d="M10.5 10h16v16h-16z"/>
    </clipPath>
  </defs>
</svg>
