<svg xmlns="http://www.w3.org/2000/svg" width="16" height="16" fill="none" viewBox="0 0 16 16">
  <g clip-path="url(#a)">
    <path fill="currentColor" d="M3.277 4.92c2.608-2.56 6.838-2.56 9.446 0l.314.307a.32.32 0 0 1 0 .463l-1.073 1.055a.172.172 0 0 1-.235 0l-.434-.426c-1.82-1.787-4.77-1.787-6.59 0l-.463.455a.172.172 0 0 1-.235 0L2.93 5.723a.32.32 0 0 1 0-.463l.347-.34ZM14.944 7.1l.957.94a.32.32 0 0 1 0 .463l-4.313 4.232a.336.336 0 0 1-.47 0L8.06 9.73a.085.085 0 0 0-.12 0l-3.058 3.004a.336.336 0 0 1-.47 0L.099 8.503a.32.32 0 0 1 0-.463l.957-.94a.336.336 0 0 1 .471 0l3.058 3.004a.085.085 0 0 0 .12 0L7.763 7.1a.336.336 0 0 1 .47 0l3.058 3.003a.085.085 0 0 0 .12 0L14.469 7.1a.34.34 0 0 1 .475 0Z"/>
  </g>
  <defs>
    <clipPath id="a">
      <path fill="#fff" d="M0 0h16v16H0z"/>
    </clipPath>
  </defs>
</svg>
