<svg width="16" height="16" viewBox="0 0 16 16" fill="none" xmlns="http://www.w3.org/2000/svg">
<path d="M7.99891 16C6.41671 15.9998 4.8701 15.5304 3.55465 14.6512C2.2392 13.772 1.21399 12.5225 0.608654 11.0607C0.00332052 9.59889 -0.154951 7.99039 0.153854 6.43861C0.462659 4.88684 1.22467 3.46147 2.34353 2.34276C3.4624 1.22405 4.88786 0.462235 6.43968 0.153642C7.9915 -0.154952 9.59998 0.00353861 11.0617 0.609072C12.5235 1.2146 13.7728 2.23998 14.6518 3.55555C15.5308 4.87112 16 6.4178 16 8C15.998 10.1213 15.1543 12.1551 13.6542 13.655C12.1541 15.1549 10.1202 15.9983 7.99891 16Z" fill="#F18937"/>
<path fill-rule="evenodd" clip-rule="evenodd" d="M7.2744 11.5145C7.2744 11.1126 7.60019 10.7868 8.00207 10.7868C8.40395 10.7868 8.72974 11.1126 8.72974 11.5145C8.72974 11.9164 8.40395 12.2422 8.00207 12.2422C7.60019 12.2422 7.2744 11.9164 7.2744 11.5145ZM7.5677 9.82632C7.68835 9.9319 7.84356 9.98952 8.00387 9.98826C8.17748 9.98826 8.34397 9.9193 8.46673 9.79654C8.58948 9.67378 8.65845 9.50729 8.65845 9.33369L8.65845 4.78739L8.65845 4.70557C8.64745 4.53196 8.56794 4.36984 8.43741 4.25486C8.30688 4.13987 8.13602 4.08145 7.96242 4.09245C7.78881 4.10344 7.62669 4.18295 7.5117 4.31348C7.39672 4.44401 7.3383 4.61488 7.3493 4.78848L7.3493 9.33369L7.3493 9.41551C7.36933 9.57457 7.44705 9.72075 7.5677 9.82632Z" fill="black"/>
</svg>
