<svg width="16" height="17" viewBox="0 0 16 17" fill="none" xmlns="http://www.w3.org/2000/svg">
<path fill-rule="evenodd" clip-rule="evenodd" d="M6.54336 15.0717C6.54336 14.2829 7.18282 13.6435 7.97163 13.6435C8.76044 13.6435 9.3999 14.2829 9.3999 15.0717C9.3999 15.8605 8.76044 16.5 7.97163 16.5C7.18282 16.5 6.54336 15.8605 6.54336 15.0717ZM7.11943 11.7563C7.35625 11.9635 7.66088 12.0766 7.97555 12.0742C8.3163 12.0742 8.64309 11.9388 8.88404 11.6979C9.12499 11.4569 9.26035 11.1301 9.26035 10.7894L9.26035 1.8659L9.26035 1.7053C9.23877 1.36455 9.08271 1.04632 8.8265 0.820638C8.5703 0.594951 8.23493 0.480286 7.89418 0.501866C7.55343 0.523447 7.23521 0.679506 7.00952 0.935713C6.78383 1.19192 6.66917 1.52729 6.69075 1.86804L6.69075 10.7894L6.69075 10.95C6.73007 11.2622 6.88261 11.5491 7.11943 11.7563Z" fill="#F18937"/>
</svg>
