<svg width="17" height="16" viewBox="0 0 17 16" fill="none" xmlns="http://www.w3.org/2000/svg">
<path d="M8.5 2.3125C6.44922 2.3125 4.58984 3.40625 3.55078 5.15625C2.53906 6.93359 2.53906 9.09375 3.55078 10.8438C4.58984 12.6211 6.44922 13.6875 8.5 13.6875C10.5234 13.6875 12.3828 12.6211 13.4219 10.8438C14.4336 9.09375 14.4336 6.93359 13.4219 5.15625C12.3828 3.40625 10.5234 2.3125 8.5 2.3125ZM8.5 15C5.98438 15 3.6875 13.6875 2.42969 11.5C1.17188 9.33984 1.17188 6.6875 2.42969 4.5C3.6875 2.33984 5.98438 1 8.5 1C10.9883 1 13.2852 2.33984 14.543 4.5C15.8008 6.6875 15.8008 9.33984 14.543 11.5C13.2852 13.6875 10.9883 15 8.5 15ZM8.5 4.5C8.85547 4.5 9.15625 4.80078 9.15625 5.15625V8.21875C9.15625 8.60156 8.85547 8.875 8.5 8.875C8.11719 8.875 7.84375 8.60156 7.84375 8.21875V5.15625C7.84375 4.80078 8.11719 4.5 8.5 4.5ZM9.375 10.625C9.375 11.1172 8.96484 11.5 8.5 11.5C8.00781 11.5 7.625 11.1172 7.625 10.625C7.625 10.1602 8.00781 9.75 8.5 9.75C8.96484 9.75 9.375 10.1602 9.375 10.625Z" fill="#F18937"/>
</svg>
