<svg width="14" height="13" viewBox="0 0 14 13" fill="none" xmlns="http://www.w3.org/2000/svg">
<path d="M7 1.625C5.24219 1.625 3.64844 2.5625 2.75781 4.0625C1.89062 5.58594 1.89062 7.4375 2.75781 8.9375C3.64844 10.4609 5.24219 11.375 7 11.375C8.73438 11.375 10.3281 10.4609 11.2188 8.9375C12.0859 7.4375 12.0859 5.58594 11.2188 4.0625C10.3281 2.5625 8.73438 1.625 7 1.625ZM7 12.5C4.84375 12.5 2.875 11.375 1.79688 9.5C0.71875 7.64844 0.71875 5.375 1.79688 3.5C2.875 1.64844 4.84375 0.5 7 0.5C9.13281 0.5 11.1016 1.64844 12.1797 3.5C13.2578 5.375 13.2578 7.64844 12.1797 9.5C11.1016 11.375 9.13281 12.5 7 12.5ZM6.0625 8.375H6.625V6.875H6.0625C5.73438 6.875 5.5 6.64062 5.5 6.3125C5.5 6.00781 5.73438 5.75 6.0625 5.75H7.1875C7.49219 5.75 7.75 6.00781 7.75 6.3125V8.375H7.9375C8.24219 8.375 8.5 8.63281 8.5 8.9375C8.5 9.26562 8.24219 9.5 7.9375 9.5H6.0625C5.73438 9.5 5.5 9.26562 5.5 8.9375C5.5 8.63281 5.73438 8.375 6.0625 8.375ZM7 5C6.57812 5 6.25 4.67188 6.25 4.25C6.25 3.85156 6.57812 3.5 7 3.5C7.39844 3.5 7.75 3.85156 7.75 4.25C7.75 4.67188 7.39844 5 7 5Z" fill="#F18937"/>
</svg>
