<svg width="18" height="13" viewBox="0 0 18 13" fill="none" xmlns="http://www.w3.org/2000/svg">
<path d="M1.87994 5.07798C3.72827 3.30465 6.23558 2.2144 9.00004 2.2144C11.7645 2.2144 14.2718 3.30465 16.1201 5.07798C16.463 5.40478 17.0041 5.39407 17.3309 5.05387C17.6578 4.71367 17.647 4.16988 17.3068 3.84307C15.1531 1.7724 12.2253 0.5 9.00004 0.5C5.77484 0.5 2.84697 1.7724 0.690575 3.8404C0.350375 4.16988 0.33966 4.71099 0.666467 5.05387C0.993274 5.39675 1.53706 5.40746 1.87726 5.07798H1.87994ZM9.00004 6.50039C10.5216 6.50039 11.9092 7.06561 12.9699 8.00049C13.3262 8.3139 13.8673 8.27908 14.1807 7.92548C14.4942 7.57189 14.4593 7.0281 14.1057 6.71469C12.7449 5.51461 10.9555 4.78599 9.00004 4.78599C7.04456 4.78599 5.25516 5.51461 3.89703 6.71469C3.54076 7.0281 3.50862 7.56921 3.82203 7.92548C4.13544 8.28176 4.67655 8.3139 5.03282 8.00049C6.09093 7.06561 7.47852 6.50039 9.00272 6.50039H9.00004ZM10.7144 10.7864C10.7144 9.84079 9.94564 9.07199 9.00004 9.07199C8.05445 9.07199 7.28565 9.84079 7.28565 10.7864C7.28565 11.732 8.05445 12.5008 9.00004 12.5008C9.94564 12.5008 10.7144 11.732 10.7144 10.7864Z" fill="#ADBFCC"/>
</svg>
