<svg width="16" height="16" viewBox="0 0 16 16" fill="none" xmlns="http://www.w3.org/2000/svg">
<path d="M11.9974 1.99219C11.3154 1.99219 10.638 2.24752 10.1174 2.76819L6.33271 6.55485C5.74204 7.14551 5.4887 7.97352 5.57003 8.67152C5.47603 8.66219 5.42937 8.65818 5.33337 8.65885C4.05337 8.67152 3.31403 9.23151 2.56603 10.6175C2.53403 10.6768 2.38736 10.9415 2.29269 11.1175C2.02336 11.5848 1.79203 11.9102 1.52203 12.1802C1.2007 12.5015 1.30269 13.0595 1.70936 13.2635C1.91136 13.3642 2.2507 13.5015 2.73003 13.6382C3.0987 13.7435 3.4987 13.8262 3.91737 13.8882C3.99137 13.8995 4.8127 14.0128 5.33337 13.9922C5.76003 13.9762 12.3247 13.9922 13.33 13.9922C13.6987 13.9922 13.9967 13.6942 13.9967 13.3255C13.9967 12.9575 13.6987 12.6588 13.33 12.6588C12.61 12.6588 9.76336 12.6608 7.63736 12.6608C7.8707 12.2648 7.9987 11.8188 7.9987 11.3255C7.9987 11.2222 7.9927 11.1868 7.98137 11.0862C8.71204 11.1422 9.50737 10.9215 10.102 10.3255L13.902 6.51218C14.9427 5.47085 14.908 3.80618 13.8667 2.76418C13.346 2.24351 12.6794 1.99219 11.9974 1.99219ZM11.9974 3.32552C12.3387 3.32552 12.6747 3.46152 12.9347 3.72152C13.4554 4.24218 13.4554 5.07619 12.9347 5.59686L10.0707 8.46018L8.1887 6.57684L11.06 3.72152C11.3207 3.46152 11.6567 3.32552 11.9974 3.32552ZM7.2467 7.52817L9.12737 9.4015C8.60936 9.9015 7.7747 9.86551 7.27137 9.36218C6.76737 8.85818 6.77536 8.05084 7.2467 7.52817ZM5.33337 9.99218C6.06937 9.99218 6.66604 10.5895 6.66604 11.3255C6.66604 12.0622 6.06937 12.6588 5.33337 12.6588C5.17403 12.6588 5.08937 12.6622 4.93537 12.6535C4.9647 11.9928 4.5167 11.2955 3.9247 10.9395C4.36204 10.2222 4.70537 9.99218 5.33337 9.99218Z" fill="#23F7DD"/>
</svg>
