<svg width="20" height="20" viewBox="0 0 20 20" fill="none" xmlns="http://www.w3.org/2000/svg">
<path d="M7.75 2.75V4H9.25V2.75C9.25 2.34375 9.5625 2 10 2C10.4062 2 10.75 2.34375 10.75 2.75V4H12.25V2.75C12.25 2.34375 12.5625 2 13 2C13.4062 2 13.75 2.34375 13.75 2.75V4H14C15.0938 4 16 4.90625 16 6V6.25H17.25C17.6562 6.25 18 6.59375 18 7C18 7.4375 17.6562 7.75 17.25 7.75H16V9.25H17.25C17.6562 9.25 18 9.59375 18 10C18 10.4375 17.6562 10.75 17.25 10.75H16V12.25H17.25C17.6562 12.25 18 12.5938 18 13C18 13.4375 17.6562 13.75 17.25 13.75H16V14C16 15.125 15.0938 16 14 16H13.75V17.25C13.75 17.6875 13.4062 18 13 18C12.5625 18 12.25 17.6875 12.25 17.25V16H10.75V17.25C10.75 17.6875 10.4062 18 10 18C9.5625 18 9.25 17.6875 9.25 17.25V16H7.75V17.25C7.75 17.6875 7.40625 18 7 18C6.5625 18 6.25 17.6875 6.25 17.25V16H6C4.875 16 4 15.125 4 14V13.75H2.75C2.3125 13.75 2 13.4375 2 13C2 12.5938 2.3125 12.25 2.75 12.25H4V10.75H2.75C2.3125 10.75 2 10.4375 2 10C2 9.59375 2.3125 9.25 2.75 9.25H4V7.75H2.75C2.3125 7.75 2 7.4375 2 7C2 6.59375 2.3125 6.25 2.75 6.25H4V6C4 4.90625 4.875 4 6 4H6.25V2.75C6.25 2.34375 6.5625 2 7 2C7.40625 2 7.75 2.34375 7.75 2.75ZM5.5 6V14C5.5 14.2812 5.71875 14.5 6 14.5H14C14.25 14.5 14.5 14.2812 14.5 14V6C14.5 5.75 14.25 5.5 14 5.5H6C5.71875 5.5 5.5 5.75 5.5 6ZM12.5 7.375C12.8438 7.375 13.125 7.65625 13.125 8V12C13.125 12.3438 12.8438 12.625 12.5 12.625C12.1562 12.625 11.875 12.3438 11.875 12V8C11.875 7.65625 12.1562 7.375 12.5 7.375ZM9.3125 7.75L11.0625 11.75C11.1875 12.0938 11.0625 12.4375 10.75 12.5938C10.4062 12.7188 10.0625 12.5938 9.90625 12.25L9.75 11.875H7.71875L7.5625 12.25C7.40625 12.5938 7.0625 12.7188 6.75 12.5938C6.40625 12.4375 6.28125 12.0938 6.40625 11.75L8.15625 7.75C8.25 7.53125 8.5 7.375 8.75 7.375C8.96875 7.375 9.21875 7.53125 9.3125 7.75ZM8.75 9.5625L8.28125 10.625H9.1875L8.75 9.5625Z" fill="url(#paint0_linear_23435_138736)"/>
<defs>
<linearGradient id="paint0_linear_23435_138736" x1="-2" y1="2" x2="27.0999" y2="1.52431" gradientUnits="userSpaceOnUse">
<stop stop-color="#27DFDF"/>
<stop offset="0.630208" stop-color="#615EF4"/>
<stop offset="1" stop-color="#4D5BDB"/>
</linearGradient>
</defs>
</svg>
